%TF.GenerationSoftware,KiCad,Pcbnew,9.0.7*%
%TF.CreationDate,2026-03-14T18:54:34+10:00*%
%TF.ProjectId,FC-proto,46432d70-726f-4746-9f2e-6b696361645f,rev?*%
%TF.SameCoordinates,PX42c1d80PY754d4c0*%
%TF.FileFunction,Paste,Top*%
%TF.FilePolarity,Positive*%
%FSLAX46Y46*%
G04 Gerber Fmt 4.6, Leading zero omitted, Abs format (unit mm)*
G04 Created by KiCad (PCBNEW 9.0.7) date 2026-03-14 18:54:34*
%MOMM*%
%LPD*%
G01*
G04 APERTURE LIST*
G04 Aperture macros list*
%AMRoundRect*
0 Rectangle with rounded corners*
0 $1 Rounding radius*
0 $2 $3 $4 $5 $6 $7 $8 $9 X,Y pos of 4 corners*
0 Add a 4 corners polygon primitive as box body*
4,1,4,$2,$3,$4,$5,$6,$7,$8,$9,$2,$3,0*
0 Add four circle primitives for the rounded corners*
1,1,$1+$1,$2,$3*
1,1,$1+$1,$4,$5*
1,1,$1+$1,$6,$7*
1,1,$1+$1,$8,$9*
0 Add four rect primitives between the rounded corners*
20,1,$1+$1,$2,$3,$4,$5,0*
20,1,$1+$1,$4,$5,$6,$7,0*
20,1,$1+$1,$6,$7,$8,$9,0*
20,1,$1+$1,$8,$9,$2,$3,0*%
G04 Aperture macros list end*
%ADD10C,0.010000*%
%ADD11C,0.000000*%
%ADD12R,1.400000X1.150000*%
%ADD13R,0.660400X1.701800*%
%ADD14R,1.092200X2.794000*%
%ADD15RoundRect,0.135000X0.185000X-0.135000X0.185000X0.135000X-0.185000X0.135000X-0.185000X-0.135000X0*%
%ADD16RoundRect,0.218750X0.218750X0.256250X-0.218750X0.256250X-0.218750X-0.256250X0.218750X-0.256250X0*%
%ADD17RoundRect,0.135000X0.135000X0.185000X-0.135000X0.185000X-0.135000X-0.185000X0.135000X-0.185000X0*%
%ADD18RoundRect,0.250000X-0.450000X0.262500X-0.450000X-0.262500X0.450000X-0.262500X0.450000X0.262500X0*%
%ADD19RoundRect,0.218750X-0.256250X0.218750X-0.256250X-0.218750X0.256250X-0.218750X0.256250X0.218750X0*%
%ADD20RoundRect,0.140000X0.140000X0.170000X-0.140000X0.170000X-0.140000X-0.170000X0.140000X-0.170000X0*%
%ADD21RoundRect,0.135000X-0.185000X0.135000X-0.185000X-0.135000X0.185000X-0.135000X0.185000X0.135000X0*%
%ADD22RoundRect,0.225000X-0.225000X-0.250000X0.225000X-0.250000X0.225000X0.250000X-0.225000X0.250000X0*%
%ADD23R,0.254000X0.279400*%
%ADD24R,0.279400X0.254000*%
%ADD25RoundRect,0.140000X0.170000X-0.140000X0.170000X0.140000X-0.170000X0.140000X-0.170000X-0.140000X0*%
%ADD26RoundRect,0.135000X-0.135000X-0.185000X0.135000X-0.185000X0.135000X0.185000X-0.135000X0.185000X0*%
%ADD27RoundRect,0.225000X0.225000X0.250000X-0.225000X0.250000X-0.225000X-0.250000X0.225000X-0.250000X0*%
%ADD28RoundRect,0.225000X0.250000X-0.225000X0.250000X0.225000X-0.250000X0.225000X-0.250000X-0.225000X0*%
%ADD29RoundRect,0.140000X-0.140000X-0.170000X0.140000X-0.170000X0.140000X0.170000X-0.140000X0.170000X0*%
%ADD30RoundRect,0.150000X-0.512500X-0.150000X0.512500X-0.150000X0.512500X0.150000X-0.512500X0.150000X0*%
%ADD31RoundRect,0.140000X-0.170000X0.140000X-0.170000X-0.140000X0.170000X-0.140000X0.170000X0.140000X0*%
%ADD32R,0.550000X0.400000*%
%ADD33R,0.700000X0.500000*%
%ADD34RoundRect,0.155000X-0.345000X0.155000X-0.345000X-0.155000X0.345000X-0.155000X0.345000X0.155000X0*%
%ADD35RoundRect,0.250000X0.325000X0.650000X-0.325000X0.650000X-0.325000X-0.650000X0.325000X-0.650000X0*%
%ADD36R,1.346200X0.355600*%
%ADD37R,0.355600X1.346200*%
%ADD38R,0.609600X1.701800*%
%ADD39R,0.990600X2.844800*%
%ADD40RoundRect,0.250000X-0.650000X0.325000X-0.650000X-0.325000X0.650000X-0.325000X0.650000X0.325000X0*%
%ADD41R,1.701800X0.609600*%
%ADD42R,2.844800X0.990600*%
%ADD43RoundRect,0.250000X0.650000X-0.325000X0.650000X0.325000X-0.650000X0.325000X-0.650000X-0.325000X0*%
%ADD44R,1.000000X0.600000*%
%ADD45R,1.150000X0.300000*%
%ADD46RoundRect,0.049600X-0.105400X0.250400X-0.105400X-0.250400X0.105400X-0.250400X0.105400X0.250400X0*%
%ADD47RoundRect,0.155000X-0.155000X-0.345000X0.155000X-0.345000X0.155000X0.345000X-0.155000X0.345000X0*%
%ADD48R,0.980000X3.400000*%
%ADD49RoundRect,0.218750X-0.218750X-0.256250X0.218750X-0.256250X0.218750X0.256250X-0.218750X0.256250X0*%
%ADD50RoundRect,0.075000X-0.075000X0.075000X-0.075000X-0.075000X0.075000X-0.075000X0.075000X0.075000X0*%
%ADD51RoundRect,0.250000X0.312500X1.450000X-0.312500X1.450000X-0.312500X-1.450000X0.312500X-1.450000X0*%
%ADD52R,0.457200X0.304800*%
%ADD53R,0.304800X0.457200*%
G04 APERTURE END LIST*
D10*
%TO.C,U5*%
X8362300Y24505000D02*
X8077700Y24505000D01*
X8077700Y24695000D01*
X8362300Y24695000D01*
X8362300Y24505000D01*
G36*
X8362300Y24505000D02*
G01*
X8077700Y24505000D01*
X8077700Y24695000D01*
X8362300Y24695000D01*
X8362300Y24505000D01*
G37*
X8362300Y24105000D02*
X8077700Y24105000D01*
X8077700Y24295000D01*
X8362300Y24295000D01*
X8362300Y24105000D01*
G36*
X8362300Y24105000D02*
G01*
X8077700Y24105000D01*
X8077700Y24295000D01*
X8362300Y24295000D01*
X8362300Y24105000D01*
G37*
X8362300Y23705000D02*
X8077700Y23705000D01*
X8077700Y23895000D01*
X8362300Y23895000D01*
X8362300Y23705000D01*
G36*
X8362300Y23705000D02*
G01*
X8077700Y23705000D01*
X8077700Y23895000D01*
X8362300Y23895000D01*
X8362300Y23705000D01*
G37*
X8362300Y23305000D02*
X8077700Y23305000D01*
X8077700Y23495000D01*
X8362300Y23495000D01*
X8362300Y23305000D01*
G36*
X8362300Y23305000D02*
G01*
X8077700Y23305000D01*
X8077700Y23495000D01*
X8362300Y23495000D01*
X8362300Y23305000D01*
G37*
X8995000Y25137700D02*
X8805000Y25137700D01*
X8805000Y25422300D01*
X8995000Y25422300D01*
X8995000Y25137700D01*
G36*
X8995000Y25137700D02*
G01*
X8805000Y25137700D01*
X8805000Y25422300D01*
X8995000Y25422300D01*
X8995000Y25137700D01*
G37*
X8995000Y22577700D02*
X8805000Y22577700D01*
X8805000Y22862300D01*
X8995000Y22862300D01*
X8995000Y22577700D01*
G36*
X8995000Y22577700D02*
G01*
X8805000Y22577700D01*
X8805000Y22862300D01*
X8995000Y22862300D01*
X8995000Y22577700D01*
G37*
X9395000Y25137700D02*
X9205000Y25137700D01*
X9205000Y25422300D01*
X9395000Y25422300D01*
X9395000Y25137700D01*
G36*
X9395000Y25137700D02*
G01*
X9205000Y25137700D01*
X9205000Y25422300D01*
X9395000Y25422300D01*
X9395000Y25137700D01*
G37*
X9395000Y22577700D02*
X9205000Y22577700D01*
X9205000Y22862300D01*
X9395000Y22862300D01*
X9395000Y22577700D01*
G36*
X9395000Y22577700D02*
G01*
X9205000Y22577700D01*
X9205000Y22862300D01*
X9395000Y22862300D01*
X9395000Y22577700D01*
G37*
X9795000Y25137700D02*
X9605000Y25137700D01*
X9605000Y25422300D01*
X9795000Y25422300D01*
X9795000Y25137700D01*
G36*
X9795000Y25137700D02*
G01*
X9605000Y25137700D01*
X9605000Y25422300D01*
X9795000Y25422300D01*
X9795000Y25137700D01*
G37*
X9795000Y22577700D02*
X9605000Y22577700D01*
X9605000Y22862300D01*
X9795000Y22862300D01*
X9795000Y22577700D01*
G36*
X9795000Y22577700D02*
G01*
X9605000Y22577700D01*
X9605000Y22862300D01*
X9795000Y22862300D01*
X9795000Y22577700D01*
G37*
X10195000Y25137700D02*
X10005000Y25137700D01*
X10005000Y25422300D01*
X10195000Y25422300D01*
X10195000Y25137700D01*
G36*
X10195000Y25137700D02*
G01*
X10005000Y25137700D01*
X10005000Y25422300D01*
X10195000Y25422300D01*
X10195000Y25137700D01*
G37*
X10195000Y22577700D02*
X10005000Y22577700D01*
X10005000Y22862300D01*
X10195000Y22862300D01*
X10195000Y22577700D01*
G36*
X10195000Y22577700D02*
G01*
X10005000Y22577700D01*
X10005000Y22862300D01*
X10195000Y22862300D01*
X10195000Y22577700D01*
G37*
X10922300Y24505000D02*
X10637700Y24505000D01*
X10637700Y24695000D01*
X10922300Y24695000D01*
X10922300Y24505000D01*
G36*
X10922300Y24505000D02*
G01*
X10637700Y24505000D01*
X10637700Y24695000D01*
X10922300Y24695000D01*
X10922300Y24505000D01*
G37*
X10922300Y24105000D02*
X10637700Y24105000D01*
X10637700Y24295000D01*
X10922300Y24295000D01*
X10922300Y24105000D01*
G36*
X10922300Y24105000D02*
G01*
X10637700Y24105000D01*
X10637700Y24295000D01*
X10922300Y24295000D01*
X10922300Y24105000D01*
G37*
X10922300Y23705000D02*
X10637700Y23705000D01*
X10637700Y23895000D01*
X10922300Y23895000D01*
X10922300Y23705000D01*
G36*
X10922300Y23705000D02*
G01*
X10637700Y23705000D01*
X10637700Y23895000D01*
X10922300Y23895000D01*
X10922300Y23705000D01*
G37*
X10922300Y23305000D02*
X10637700Y23305000D01*
X10637700Y23495000D01*
X10922300Y23495000D01*
X10922300Y23305000D01*
G36*
X10922300Y23305000D02*
G01*
X10637700Y23305000D01*
X10637700Y23495000D01*
X10922300Y23495000D01*
X10922300Y23305000D01*
G37*
X8362300Y25000630D02*
X8362300Y24905000D01*
X8077700Y24905000D01*
X8077700Y25095000D01*
X8267930Y25095000D01*
X8362300Y25000630D01*
G36*
X8362300Y25000630D02*
G01*
X8362300Y24905000D01*
X8077700Y24905000D01*
X8077700Y25095000D01*
X8267930Y25095000D01*
X8362300Y25000630D01*
G37*
X8362300Y22999370D02*
X8267930Y22905000D01*
X8077700Y22905000D01*
X8077700Y23095000D01*
X8362300Y23095000D01*
X8362300Y22999370D01*
G36*
X8362300Y22999370D02*
G01*
X8267930Y22905000D01*
X8077700Y22905000D01*
X8077700Y23095000D01*
X8362300Y23095000D01*
X8362300Y22999370D01*
G37*
X8595000Y25137700D02*
X8499370Y25137700D01*
X8405000Y25232070D01*
X8405000Y25422300D01*
X8595000Y25422300D01*
X8595000Y25137700D01*
G36*
X8595000Y25137700D02*
G01*
X8499370Y25137700D01*
X8405000Y25232070D01*
X8405000Y25422300D01*
X8595000Y25422300D01*
X8595000Y25137700D01*
G37*
X8595000Y22577700D02*
X8405000Y22577700D01*
X8405000Y22767930D01*
X8499370Y22862300D01*
X8595000Y22862300D01*
X8595000Y22577700D01*
G36*
X8595000Y22577700D02*
G01*
X8405000Y22577700D01*
X8405000Y22767930D01*
X8499370Y22862300D01*
X8595000Y22862300D01*
X8595000Y22577700D01*
G37*
X10595000Y25232070D02*
X10500630Y25137700D01*
X10405000Y25137700D01*
X10405000Y25422300D01*
X10595000Y25422300D01*
X10595000Y25232070D01*
G36*
X10595000Y25232070D02*
G01*
X10500630Y25137700D01*
X10405000Y25137700D01*
X10405000Y25422300D01*
X10595000Y25422300D01*
X10595000Y25232070D01*
G37*
X10595000Y22767930D02*
X10595000Y22577700D01*
X10405000Y22577700D01*
X10405000Y22862300D01*
X10500630Y22862300D01*
X10595000Y22767930D01*
G36*
X10595000Y22767930D02*
G01*
X10595000Y22577700D01*
X10405000Y22577700D01*
X10405000Y22862300D01*
X10500630Y22862300D01*
X10595000Y22767930D01*
G37*
X10922300Y24905000D02*
X10637700Y24905000D01*
X10637700Y25000630D01*
X10732070Y25095000D01*
X10922300Y25095000D01*
X10922300Y24905000D01*
G36*
X10922300Y24905000D02*
G01*
X10637700Y24905000D01*
X10637700Y25000630D01*
X10732070Y25095000D01*
X10922300Y25095000D01*
X10922300Y24905000D01*
G37*
X10922300Y22905000D02*
X10732070Y22905000D01*
X10637700Y22999370D01*
X10637700Y23095000D01*
X10922300Y23095000D01*
X10922300Y22905000D01*
G36*
X10922300Y22905000D02*
G01*
X10732070Y22905000D01*
X10637700Y22999370D01*
X10637700Y23095000D01*
X10922300Y23095000D01*
X10922300Y22905000D01*
G37*
D11*
%TO.C,U3*%
G36*
X44175108Y10885081D02*
G01*
X43374893Y10885081D01*
X43374893Y11115297D01*
X44175108Y11115297D01*
X44175108Y10885081D01*
G37*
G36*
X44175108Y10384955D02*
G01*
X43374893Y10384955D01*
X43374893Y10615171D01*
X44175108Y10615171D01*
X44175108Y10384955D01*
G37*
G36*
X44175108Y9884829D02*
G01*
X43374893Y9884829D01*
X43374893Y10115045D01*
X44175108Y10115045D01*
X44175108Y9884829D01*
G37*
G36*
X44175108Y9384703D02*
G01*
X43374893Y9384703D01*
X43374893Y9614919D01*
X44175108Y9614919D01*
X44175108Y9384703D01*
G37*
G36*
X44615109Y11324892D02*
G01*
X44384891Y11324892D01*
X44384891Y12125107D01*
X44615109Y12125107D01*
X44615109Y11324892D01*
G37*
G36*
X44615109Y8374893D02*
G01*
X44384891Y8374893D01*
X44384891Y9175108D01*
X44615109Y9175108D01*
X44615109Y8374893D01*
G37*
G36*
X45115108Y11324892D02*
G01*
X44884893Y11324892D01*
X44884893Y12125107D01*
X45115108Y12125107D01*
X45115108Y11324892D01*
G37*
G36*
X45115108Y8374893D02*
G01*
X44884893Y8374893D01*
X44884893Y9175108D01*
X45115108Y9175108D01*
X45115108Y8374893D01*
G37*
G36*
X45615107Y11324892D02*
G01*
X45384892Y11324892D01*
X45384892Y12125107D01*
X45615107Y12125107D01*
X45615107Y11324892D01*
G37*
G36*
X45615107Y8374893D02*
G01*
X45384892Y8374893D01*
X45384892Y9175108D01*
X45615107Y9175108D01*
X45615107Y8374893D01*
G37*
G36*
X46115109Y11324892D02*
G01*
X45884891Y11324892D01*
X45884891Y12125107D01*
X46115109Y12125107D01*
X46115109Y11324892D01*
G37*
G36*
X46115109Y8374893D02*
G01*
X45884891Y8374893D01*
X45884891Y9175108D01*
X46115109Y9175108D01*
X46115109Y8374893D01*
G37*
G36*
X47125107Y10885081D02*
G01*
X46324892Y10885081D01*
X46324892Y11115297D01*
X47125107Y11115297D01*
X47125107Y10885081D01*
G37*
G36*
X47125107Y10384955D02*
G01*
X46324892Y10384955D01*
X46324892Y10615171D01*
X47125107Y10615171D01*
X47125107Y10384955D01*
G37*
G36*
X47125107Y9884829D02*
G01*
X46324892Y9884829D01*
X46324892Y10115045D01*
X47125107Y10115045D01*
X47125107Y9884829D01*
G37*
G36*
X47125107Y9384703D02*
G01*
X46324892Y9384703D01*
X46324892Y9614919D01*
X47125107Y9614919D01*
X47125107Y9384703D01*
G37*
G36*
X44756300Y10885121D02*
G01*
X44614879Y10743700D01*
X44474930Y10743700D01*
X44474930Y11025070D01*
X44756300Y11025070D01*
X44756300Y10885121D01*
G37*
G36*
X44756300Y9614879D02*
G01*
X44756300Y9474930D01*
X44474930Y9474930D01*
X44474930Y9756300D01*
X44614879Y9756300D01*
X44756300Y9614879D01*
G37*
G36*
X46025070Y10743700D02*
G01*
X45885121Y10743700D01*
X45743700Y10885121D01*
X45743700Y11025070D01*
X46025070Y11025070D01*
X46025070Y10743700D01*
G37*
G36*
X46025070Y9474930D02*
G01*
X45743700Y9474930D01*
X45743700Y9614879D01*
X45885121Y9756300D01*
X46025070Y9756300D01*
X46025070Y9474930D01*
G37*
G36*
X44756300Y10402279D02*
G01*
X44756300Y10097721D01*
X44614879Y9956300D01*
X44474930Y9956300D01*
X44474930Y10543700D01*
X44614879Y10543700D01*
X44756300Y10402279D01*
G37*
G36*
X45543700Y10885121D02*
G01*
X45402279Y10743700D01*
X45097721Y10743700D01*
X44956300Y10885121D01*
X44956300Y11025070D01*
X45543700Y11025070D01*
X45543700Y10885121D01*
G37*
G36*
X45543700Y9614879D02*
G01*
X45543700Y9474930D01*
X44956300Y9474930D01*
X44956300Y9614879D01*
X45097721Y9756300D01*
X45402279Y9756300D01*
X45543700Y9614879D01*
G37*
G36*
X46025070Y9956300D02*
G01*
X45885121Y9956300D01*
X45743700Y10097721D01*
X45743700Y10402279D01*
X45885121Y10543700D01*
X46025070Y10543700D01*
X46025070Y9956300D01*
G37*
G36*
X45543700Y10402279D02*
G01*
X45543700Y10097721D01*
X45402279Y9956300D01*
X45097721Y9956300D01*
X44956300Y10097721D01*
X44956300Y10402279D01*
X45097721Y10543700D01*
X45402279Y10543700D01*
X45543700Y10402279D01*
G37*
D10*
%TO.C,U4*%
X8058000Y9411500D02*
X8060000Y9411500D01*
X8063000Y9410500D01*
X8065000Y9410500D01*
X8068000Y9409500D01*
X8070000Y9408500D01*
X8073000Y9407500D01*
X8075000Y9405500D01*
X8077000Y9404500D01*
X8079000Y9402500D01*
X8081000Y9401500D01*
X8083000Y9399500D01*
X8085000Y9397500D01*
X8087000Y9395500D01*
X8089000Y9393500D01*
X8090000Y9391500D01*
X8092000Y9389500D01*
X8093000Y9387500D01*
X8095000Y9385500D01*
X8096000Y9382500D01*
X8097000Y9380500D01*
X8098000Y9377500D01*
X8098000Y9375500D01*
X8099000Y9372500D01*
X8099000Y9370500D01*
X8100000Y9367500D01*
X8100000Y9365500D01*
X8100000Y9362500D01*
X8100000Y7952500D01*
X8100000Y7949500D01*
X8100000Y7947500D01*
X8099000Y7944500D01*
X8099000Y7942500D01*
X8098000Y7939500D01*
X8098000Y7937500D01*
X8097000Y7934500D01*
X8096000Y7932500D01*
X8095000Y7929500D01*
X8093000Y7927500D01*
X8092000Y7925500D01*
X8090000Y7923500D01*
X8089000Y7921500D01*
X8087000Y7919500D01*
X8085000Y7917500D01*
X8083000Y7915500D01*
X8081000Y7913500D01*
X8079000Y7912500D01*
X8077000Y7910500D01*
X8075000Y7909500D01*
X8073000Y7907500D01*
X8070000Y7906500D01*
X8068000Y7905500D01*
X8065000Y7904500D01*
X8063000Y7904500D01*
X8060000Y7903500D01*
X8058000Y7903500D01*
X8055000Y7902500D01*
X8053000Y7902500D01*
X8050000Y7902500D01*
X7090000Y7902500D01*
X7087000Y7902500D01*
X7085000Y7902500D01*
X7082000Y7903500D01*
X7080000Y7903500D01*
X7077000Y7904500D01*
X7075000Y7904500D01*
X7072000Y7905500D01*
X7070000Y7906500D01*
X7067000Y7907500D01*
X7065000Y7909500D01*
X7063000Y7910500D01*
X7061000Y7912500D01*
X7059000Y7913500D01*
X7057000Y7915500D01*
X7055000Y7917500D01*
X7053000Y7919500D01*
X7051000Y7921500D01*
X7050000Y7923500D01*
X7048000Y7925500D01*
X7047000Y7927500D01*
X7045000Y7929500D01*
X7044000Y7932500D01*
X7043000Y7934500D01*
X7042000Y7937500D01*
X7042000Y7939500D01*
X7041000Y7942500D01*
X7041000Y7944500D01*
X7040000Y7947500D01*
X7040000Y7949500D01*
X7040000Y7952500D01*
X7040000Y9362500D01*
X7040000Y9365500D01*
X7040000Y9367500D01*
X7041000Y9370500D01*
X7041000Y9372500D01*
X7042000Y9375500D01*
X7042000Y9377500D01*
X7043000Y9380500D01*
X7044000Y9382500D01*
X7045000Y9385500D01*
X7047000Y9387500D01*
X7048000Y9389500D01*
X7050000Y9391500D01*
X7051000Y9393500D01*
X7053000Y9395500D01*
X7055000Y9397500D01*
X7057000Y9399500D01*
X7059000Y9401500D01*
X7061000Y9402500D01*
X7063000Y9404500D01*
X7065000Y9405500D01*
X7067000Y9407500D01*
X7070000Y9408500D01*
X7072000Y9409500D01*
X7075000Y9410500D01*
X7077000Y9410500D01*
X7080000Y9411500D01*
X7082000Y9411500D01*
X7085000Y9412500D01*
X7087000Y9412500D01*
X7090000Y9412500D01*
X8050000Y9412500D01*
X8053000Y9412500D01*
X8055000Y9412500D01*
X8058000Y9411500D01*
G36*
X8058000Y9411500D02*
G01*
X8060000Y9411500D01*
X8063000Y9410500D01*
X8065000Y9410500D01*
X8068000Y9409500D01*
X8070000Y9408500D01*
X8073000Y9407500D01*
X8075000Y9405500D01*
X8077000Y9404500D01*
X8079000Y9402500D01*
X8081000Y9401500D01*
X8083000Y9399500D01*
X8085000Y9397500D01*
X8087000Y9395500D01*
X8089000Y9393500D01*
X8090000Y9391500D01*
X8092000Y9389500D01*
X8093000Y9387500D01*
X8095000Y9385500D01*
X8096000Y9382500D01*
X8097000Y9380500D01*
X8098000Y9377500D01*
X8098000Y9375500D01*
X8099000Y9372500D01*
X8099000Y9370500D01*
X8100000Y9367500D01*
X8100000Y9365500D01*
X8100000Y9362500D01*
X8100000Y7952500D01*
X8100000Y7949500D01*
X8100000Y7947500D01*
X8099000Y7944500D01*
X8099000Y7942500D01*
X8098000Y7939500D01*
X8098000Y7937500D01*
X8097000Y7934500D01*
X8096000Y7932500D01*
X8095000Y7929500D01*
X8093000Y7927500D01*
X8092000Y7925500D01*
X8090000Y7923500D01*
X8089000Y7921500D01*
X8087000Y7919500D01*
X8085000Y7917500D01*
X8083000Y7915500D01*
X8081000Y7913500D01*
X8079000Y7912500D01*
X8077000Y7910500D01*
X8075000Y7909500D01*
X8073000Y7907500D01*
X8070000Y7906500D01*
X8068000Y7905500D01*
X8065000Y7904500D01*
X8063000Y7904500D01*
X8060000Y7903500D01*
X8058000Y7903500D01*
X8055000Y7902500D01*
X8053000Y7902500D01*
X8050000Y7902500D01*
X7090000Y7902500D01*
X7087000Y7902500D01*
X7085000Y7902500D01*
X7082000Y7903500D01*
X7080000Y7903500D01*
X7077000Y7904500D01*
X7075000Y7904500D01*
X7072000Y7905500D01*
X7070000Y7906500D01*
X7067000Y7907500D01*
X7065000Y7909500D01*
X7063000Y7910500D01*
X7061000Y7912500D01*
X7059000Y7913500D01*
X7057000Y7915500D01*
X7055000Y7917500D01*
X7053000Y7919500D01*
X7051000Y7921500D01*
X7050000Y7923500D01*
X7048000Y7925500D01*
X7047000Y7927500D01*
X7045000Y7929500D01*
X7044000Y7932500D01*
X7043000Y7934500D01*
X7042000Y7937500D01*
X7042000Y7939500D01*
X7041000Y7942500D01*
X7041000Y7944500D01*
X7040000Y7947500D01*
X7040000Y7949500D01*
X7040000Y7952500D01*
X7040000Y9362500D01*
X7040000Y9365500D01*
X7040000Y9367500D01*
X7041000Y9370500D01*
X7041000Y9372500D01*
X7042000Y9375500D01*
X7042000Y9377500D01*
X7043000Y9380500D01*
X7044000Y9382500D01*
X7045000Y9385500D01*
X7047000Y9387500D01*
X7048000Y9389500D01*
X7050000Y9391500D01*
X7051000Y9393500D01*
X7053000Y9395500D01*
X7055000Y9397500D01*
X7057000Y9399500D01*
X7059000Y9401500D01*
X7061000Y9402500D01*
X7063000Y9404500D01*
X7065000Y9405500D01*
X7067000Y9407500D01*
X7070000Y9408500D01*
X7072000Y9409500D01*
X7075000Y9410500D01*
X7077000Y9410500D01*
X7080000Y9411500D01*
X7082000Y9411500D01*
X7085000Y9412500D01*
X7087000Y9412500D01*
X7090000Y9412500D01*
X8050000Y9412500D01*
X8053000Y9412500D01*
X8055000Y9412500D01*
X8058000Y9411500D01*
G37*
X9318000Y9411500D02*
X9320000Y9411500D01*
X9323000Y9410500D01*
X9325000Y9410500D01*
X9328000Y9409500D01*
X9330000Y9408500D01*
X9333000Y9407500D01*
X9335000Y9405500D01*
X9337000Y9404500D01*
X9339000Y9402500D01*
X9341000Y9401500D01*
X9343000Y9399500D01*
X9345000Y9397500D01*
X9347000Y9395500D01*
X9349000Y9393500D01*
X9350000Y9391500D01*
X9352000Y9389500D01*
X9353000Y9387500D01*
X9355000Y9385500D01*
X9356000Y9382500D01*
X9357000Y9380500D01*
X9358000Y9377500D01*
X9358000Y9375500D01*
X9359000Y9372500D01*
X9359000Y9370500D01*
X9360000Y9367500D01*
X9360000Y9365500D01*
X9360000Y9362500D01*
X9360000Y7952500D01*
X9360000Y7949500D01*
X9360000Y7947500D01*
X9359000Y7944500D01*
X9359000Y7942500D01*
X9358000Y7939500D01*
X9358000Y7937500D01*
X9357000Y7934500D01*
X9356000Y7932500D01*
X9355000Y7929500D01*
X9353000Y7927500D01*
X9352000Y7925500D01*
X9350000Y7923500D01*
X9349000Y7921500D01*
X9347000Y7919500D01*
X9345000Y7917500D01*
X9343000Y7915500D01*
X9341000Y7913500D01*
X9339000Y7912500D01*
X9337000Y7910500D01*
X9335000Y7909500D01*
X9333000Y7907500D01*
X9330000Y7906500D01*
X9328000Y7905500D01*
X9325000Y7904500D01*
X9323000Y7904500D01*
X9320000Y7903500D01*
X9318000Y7903500D01*
X9315000Y7902500D01*
X9313000Y7902500D01*
X9310000Y7902500D01*
X8350000Y7902500D01*
X8347000Y7902500D01*
X8345000Y7902500D01*
X8342000Y7903500D01*
X8340000Y7903500D01*
X8337000Y7904500D01*
X8335000Y7904500D01*
X8332000Y7905500D01*
X8330000Y7906500D01*
X8327000Y7907500D01*
X8325000Y7909500D01*
X8323000Y7910500D01*
X8321000Y7912500D01*
X8319000Y7913500D01*
X8317000Y7915500D01*
X8315000Y7917500D01*
X8313000Y7919500D01*
X8311000Y7921500D01*
X8310000Y7923500D01*
X8308000Y7925500D01*
X8307000Y7927500D01*
X8305000Y7929500D01*
X8304000Y7932500D01*
X8303000Y7934500D01*
X8302000Y7937500D01*
X8302000Y7939500D01*
X8301000Y7942500D01*
X8301000Y7944500D01*
X8300000Y7947500D01*
X8300000Y7949500D01*
X8300000Y7952500D01*
X8300000Y9362500D01*
X8300000Y9365500D01*
X8300000Y9367500D01*
X8301000Y9370500D01*
X8301000Y9372500D01*
X8302000Y9375500D01*
X8302000Y9377500D01*
X8303000Y9380500D01*
X8304000Y9382500D01*
X8305000Y9385500D01*
X8307000Y9387500D01*
X8308000Y9389500D01*
X8310000Y9391500D01*
X8311000Y9393500D01*
X8313000Y9395500D01*
X8315000Y9397500D01*
X8317000Y9399500D01*
X8319000Y9401500D01*
X8321000Y9402500D01*
X8323000Y9404500D01*
X8325000Y9405500D01*
X8327000Y9407500D01*
X8330000Y9408500D01*
X8332000Y9409500D01*
X8335000Y9410500D01*
X8337000Y9410500D01*
X8340000Y9411500D01*
X8342000Y9411500D01*
X8345000Y9412500D01*
X8347000Y9412500D01*
X8350000Y9412500D01*
X9310000Y9412500D01*
X9313000Y9412500D01*
X9315000Y9412500D01*
X9318000Y9411500D01*
G36*
X9318000Y9411500D02*
G01*
X9320000Y9411500D01*
X9323000Y9410500D01*
X9325000Y9410500D01*
X9328000Y9409500D01*
X9330000Y9408500D01*
X9333000Y9407500D01*
X9335000Y9405500D01*
X9337000Y9404500D01*
X9339000Y9402500D01*
X9341000Y9401500D01*
X9343000Y9399500D01*
X9345000Y9397500D01*
X9347000Y9395500D01*
X9349000Y9393500D01*
X9350000Y9391500D01*
X9352000Y9389500D01*
X9353000Y9387500D01*
X9355000Y9385500D01*
X9356000Y9382500D01*
X9357000Y9380500D01*
X9358000Y9377500D01*
X9358000Y9375500D01*
X9359000Y9372500D01*
X9359000Y9370500D01*
X9360000Y9367500D01*
X9360000Y9365500D01*
X9360000Y9362500D01*
X9360000Y7952500D01*
X9360000Y7949500D01*
X9360000Y7947500D01*
X9359000Y7944500D01*
X9359000Y7942500D01*
X9358000Y7939500D01*
X9358000Y7937500D01*
X9357000Y7934500D01*
X9356000Y7932500D01*
X9355000Y7929500D01*
X9353000Y7927500D01*
X9352000Y7925500D01*
X9350000Y7923500D01*
X9349000Y7921500D01*
X9347000Y7919500D01*
X9345000Y7917500D01*
X9343000Y7915500D01*
X9341000Y7913500D01*
X9339000Y7912500D01*
X9337000Y7910500D01*
X9335000Y7909500D01*
X9333000Y7907500D01*
X9330000Y7906500D01*
X9328000Y7905500D01*
X9325000Y7904500D01*
X9323000Y7904500D01*
X9320000Y7903500D01*
X9318000Y7903500D01*
X9315000Y7902500D01*
X9313000Y7902500D01*
X9310000Y7902500D01*
X8350000Y7902500D01*
X8347000Y7902500D01*
X8345000Y7902500D01*
X8342000Y7903500D01*
X8340000Y7903500D01*
X8337000Y7904500D01*
X8335000Y7904500D01*
X8332000Y7905500D01*
X8330000Y7906500D01*
X8327000Y7907500D01*
X8325000Y7909500D01*
X8323000Y7910500D01*
X8321000Y7912500D01*
X8319000Y7913500D01*
X8317000Y7915500D01*
X8315000Y7917500D01*
X8313000Y7919500D01*
X8311000Y7921500D01*
X8310000Y7923500D01*
X8308000Y7925500D01*
X8307000Y7927500D01*
X8305000Y7929500D01*
X8304000Y7932500D01*
X8303000Y7934500D01*
X8302000Y7937500D01*
X8302000Y7939500D01*
X8301000Y7942500D01*
X8301000Y7944500D01*
X8300000Y7947500D01*
X8300000Y7949500D01*
X8300000Y7952500D01*
X8300000Y9362500D01*
X8300000Y9365500D01*
X8300000Y9367500D01*
X8301000Y9370500D01*
X8301000Y9372500D01*
X8302000Y9375500D01*
X8302000Y9377500D01*
X8303000Y9380500D01*
X8304000Y9382500D01*
X8305000Y9385500D01*
X8307000Y9387500D01*
X8308000Y9389500D01*
X8310000Y9391500D01*
X8311000Y9393500D01*
X8313000Y9395500D01*
X8315000Y9397500D01*
X8317000Y9399500D01*
X8319000Y9401500D01*
X8321000Y9402500D01*
X8323000Y9404500D01*
X8325000Y9405500D01*
X8327000Y9407500D01*
X8330000Y9408500D01*
X8332000Y9409500D01*
X8335000Y9410500D01*
X8337000Y9410500D01*
X8340000Y9411500D01*
X8342000Y9411500D01*
X8345000Y9412500D01*
X8347000Y9412500D01*
X8350000Y9412500D01*
X9310000Y9412500D01*
X9313000Y9412500D01*
X9315000Y9412500D01*
X9318000Y9411500D01*
G37*
D11*
%TO.C,U2*%
G36*
X41675108Y20074893D02*
G01*
X40874893Y20074893D01*
X40874893Y20375108D01*
X41675108Y20375108D01*
X41675108Y20074893D01*
G37*
G36*
X41675108Y19424892D02*
G01*
X40874893Y19424892D01*
X40874893Y19725107D01*
X41675108Y19725107D01*
X41675108Y19424892D01*
G37*
G36*
X41675108Y18774893D02*
G01*
X40874893Y18774893D01*
X40874893Y19075108D01*
X41675108Y19075108D01*
X41675108Y18774893D01*
G37*
G36*
X41675108Y18124892D02*
G01*
X40874893Y18124892D01*
X40874893Y18425107D01*
X41675108Y18425107D01*
X41675108Y18124892D01*
G37*
G36*
X44625107Y20074893D02*
G01*
X43824892Y20074893D01*
X43824892Y20375108D01*
X44625107Y20375108D01*
X44625107Y20074893D01*
G37*
G36*
X44625107Y19424892D02*
G01*
X43824892Y19424892D01*
X43824892Y19725107D01*
X44625107Y19725107D01*
X44625107Y19424892D01*
G37*
G36*
X44625107Y18774893D02*
G01*
X43824892Y18774893D01*
X43824892Y19075108D01*
X44625107Y19075108D01*
X44625107Y18774893D01*
G37*
G36*
X44625107Y18124892D02*
G01*
X43824892Y18124892D01*
X43824892Y18425107D01*
X44625107Y18425107D01*
X44625107Y18124892D01*
G37*
G36*
X42256300Y20278821D02*
G01*
X42114879Y20137400D01*
X41999930Y20137400D01*
X41999930Y20375070D01*
X42256300Y20375070D01*
X42256300Y20278821D01*
G37*
G36*
X42256300Y18221179D02*
G01*
X42256300Y18124930D01*
X41999930Y18124930D01*
X41999930Y18362600D01*
X42114879Y18362600D01*
X42256300Y18221179D01*
G37*
G36*
X43500070Y20137400D02*
G01*
X43385121Y20137400D01*
X43243700Y20278821D01*
X43243700Y20375070D01*
X43500070Y20375070D01*
X43500070Y20137400D01*
G37*
G36*
X43500070Y18124930D02*
G01*
X43243700Y18124930D01*
X43243700Y18221179D01*
X43385121Y18362600D01*
X43500070Y18362600D01*
X43500070Y18124930D01*
G37*
G36*
X42256300Y19795979D02*
G01*
X42256300Y19491421D01*
X42114879Y19350000D01*
X41999930Y19350000D01*
X41999930Y19937400D01*
X42114879Y19937400D01*
X42256300Y19795979D01*
G37*
G36*
X42256300Y19008579D02*
G01*
X42256300Y18704021D01*
X42114879Y18562600D01*
X41999930Y18562600D01*
X41999930Y19150000D01*
X42114879Y19150000D01*
X42256300Y19008579D01*
G37*
G36*
X43043700Y20278821D02*
G01*
X42902279Y20137400D01*
X42597721Y20137400D01*
X42456300Y20278821D01*
X42456300Y20375070D01*
X43043700Y20375070D01*
X43043700Y20278821D01*
G37*
G36*
X43043700Y18221179D02*
G01*
X43043700Y18124930D01*
X42456300Y18124930D01*
X42456300Y18221179D01*
X42597721Y18362600D01*
X42902279Y18362600D01*
X43043700Y18221179D01*
G37*
G36*
X43500070Y19350000D02*
G01*
X43385121Y19350000D01*
X43243700Y19491421D01*
X43243700Y19795979D01*
X43385121Y19937400D01*
X43500070Y19937400D01*
X43500070Y19350000D01*
G37*
G36*
X43500070Y18562600D02*
G01*
X43385121Y18562600D01*
X43243700Y18704021D01*
X43243700Y19008579D01*
X43385121Y19150000D01*
X43500070Y19150000D01*
X43500070Y18562600D01*
G37*
G36*
X43043700Y19795979D02*
G01*
X43043700Y19491421D01*
X42902279Y19350000D01*
X42597721Y19350000D01*
X42456300Y19491421D01*
X42456300Y19795979D01*
X42597721Y19937400D01*
X42902279Y19937400D01*
X43043700Y19795979D01*
G37*
G36*
X43043700Y19008579D02*
G01*
X43043700Y18704021D01*
X42902279Y18562600D01*
X42597721Y18562600D01*
X42456300Y18704021D01*
X42456300Y19008579D01*
X42597721Y19150000D01*
X42902279Y19150000D01*
X43043700Y19008579D01*
G37*
%TD*%
D12*
%TO.C,Y2*%
X10600000Y18300000D03*
X8400000Y18300000D03*
X8400000Y16700000D03*
X10600000Y16700000D03*
%TD*%
D13*
%TO.C,J9*%
X28625000Y41124300D03*
X27375000Y41124300D03*
X26125000Y41124300D03*
X24875000Y41124300D03*
D14*
X30500000Y44250000D03*
X23000000Y44250000D03*
%TD*%
D15*
%TO.C,R27*%
X10250000Y29740000D03*
X10250000Y30760000D03*
%TD*%
D16*
%TO.C,D6*%
X54537500Y37500000D03*
X52962500Y37500000D03*
%TD*%
D15*
%TO.C,R15*%
X40050000Y17140000D03*
X40050000Y18160000D03*
%TD*%
D17*
%TO.C,R11*%
X46010000Y39500000D03*
X44990000Y39500000D03*
%TD*%
D15*
%TO.C,R5*%
X18500000Y33240000D03*
X18500000Y34260000D03*
%TD*%
D18*
%TO.C,R21*%
X38500000Y9162500D03*
X38500000Y7337500D03*
%TD*%
D19*
%TO.C,D4*%
X38900000Y14887500D03*
X38900000Y13312500D03*
%TD*%
D20*
%TO.C,C10*%
X18500000Y8750000D03*
X17540000Y8750000D03*
%TD*%
D21*
%TO.C,R40*%
X27750000Y9010000D03*
X27750000Y7990000D03*
%TD*%
D22*
%TO.C,C21*%
X38625000Y28400000D03*
X40175000Y28400000D03*
%TD*%
D23*
%TO.C,U7*%
X7212600Y29462599D03*
X7712600Y29462599D03*
D24*
X8250000Y29750000D03*
X8250000Y30249999D03*
X8250000Y30749998D03*
D23*
X7712600Y31037399D03*
X7212600Y31037399D03*
D24*
X6675200Y30749998D03*
X6675200Y30249999D03*
X6675200Y29750000D03*
%TD*%
D25*
%TO.C,C39*%
X5612600Y29619999D03*
X5612600Y30579999D03*
%TD*%
D20*
%TO.C,C33*%
X9580000Y11200000D03*
X8620000Y11200000D03*
%TD*%
D26*
%TO.C,R34*%
X46890000Y24400000D03*
X47910000Y24400000D03*
%TD*%
D27*
%TO.C,C49*%
X2900000Y22125000D03*
X1350000Y22125000D03*
%TD*%
D26*
%TO.C,R23*%
X8240000Y6000000D03*
X9260000Y6000000D03*
%TD*%
%TO.C,R1*%
X15990000Y38250000D03*
X17010000Y38250000D03*
%TD*%
D17*
%TO.C,R12*%
X46160000Y38500000D03*
X45140000Y38500000D03*
%TD*%
%TO.C,R13*%
X46010000Y37500000D03*
X44990000Y37500000D03*
%TD*%
D21*
%TO.C,R3*%
X13750000Y17510000D03*
X13750000Y16490000D03*
%TD*%
D17*
%TO.C,R31*%
X52510000Y35750000D03*
X51490000Y35750000D03*
%TD*%
D28*
%TO.C,C48*%
X45000000Y41325000D03*
X45000000Y42875000D03*
%TD*%
D29*
%TO.C,C19*%
X9020000Y15250000D03*
X9980000Y15250000D03*
%TD*%
D15*
%TO.C,R37*%
X1900000Y34740000D03*
X1900000Y35760000D03*
%TD*%
D21*
%TO.C,R20*%
X49000000Y10260000D03*
X49000000Y9240000D03*
%TD*%
D17*
%TO.C,R32*%
X54510000Y35750000D03*
X53490000Y35750000D03*
%TD*%
D30*
%TO.C,Q1*%
X3362500Y36700000D03*
X3362500Y34800000D03*
X5637500Y35750000D03*
%TD*%
D26*
%TO.C,R18*%
X46740000Y7500000D03*
X47760000Y7500000D03*
%TD*%
D15*
%TO.C,R14*%
X40050000Y19040000D03*
X40050000Y20060000D03*
%TD*%
D20*
%TO.C,C13*%
X16230000Y32000000D03*
X15270000Y32000000D03*
%TD*%
D29*
%TO.C,C3*%
X28270000Y33250000D03*
X29230000Y33250000D03*
%TD*%
D31*
%TO.C,C23*%
X49250000Y15480000D03*
X49250000Y14520000D03*
%TD*%
%TO.C,C4*%
X38250000Y30730000D03*
X38250000Y29770000D03*
%TD*%
D20*
%TO.C,C40*%
X7592600Y32099999D03*
X6632600Y32099999D03*
%TD*%
D19*
%TO.C,D1*%
X32000000Y39287500D03*
X32000000Y37712500D03*
%TD*%
D13*
%TO.C,J6*%
X18125000Y41124300D03*
X16875000Y41124300D03*
X15625000Y41124300D03*
X14375000Y41124300D03*
D14*
X20000000Y44250000D03*
X12500000Y44250000D03*
%TD*%
D32*
%TO.C,LED1*%
X43925000Y39225000D03*
X42575000Y39225000D03*
D33*
X44000000Y38500000D03*
X42500000Y38500000D03*
D32*
X43925000Y37775000D03*
X42575000Y37775000D03*
%TD*%
D17*
%TO.C,R33*%
X51740000Y37250000D03*
X50720000Y37250000D03*
%TD*%
D34*
%TO.C,D2*%
X48750000Y17900000D03*
X48750000Y19100000D03*
%TD*%
D21*
%TO.C,R41*%
X25750000Y9010000D03*
X25750000Y7990000D03*
%TD*%
D17*
%TO.C,R16*%
X42260000Y16800000D03*
X41240000Y16800000D03*
%TD*%
D20*
%TO.C,C44*%
X49230000Y37250000D03*
X48270000Y37250000D03*
%TD*%
D26*
%TO.C,R35*%
X46690000Y27800000D03*
X47710000Y27800000D03*
%TD*%
D35*
%TO.C,C32*%
X10975000Y13000000D03*
X8025000Y13000000D03*
%TD*%
D31*
%TO.C,C14*%
X13750000Y27230000D03*
X13750000Y26270000D03*
%TD*%
D26*
%TO.C,R42*%
X4240000Y27750000D03*
X5260000Y27750000D03*
%TD*%
D29*
%TO.C,C46*%
X19020000Y39500000D03*
X19980000Y39500000D03*
%TD*%
D15*
%TO.C,R9*%
X32400000Y6490000D03*
X32400000Y7510000D03*
%TD*%
D22*
%TO.C,C1*%
X27975000Y34500000D03*
X29525000Y34500000D03*
%TD*%
D36*
%TO.C,U1*%
X15375000Y29750000D03*
X15375000Y29250001D03*
X15375000Y28750000D03*
X15375000Y28250001D03*
X15375000Y27749999D03*
X15375000Y27250000D03*
X15375000Y26750001D03*
X15375000Y26250000D03*
X15375000Y25750001D03*
X15375000Y25249999D03*
X15375000Y24750000D03*
X15375000Y24250001D03*
X15375000Y23750000D03*
X15375000Y23250001D03*
X15375000Y22749999D03*
X15375000Y22250000D03*
X15375000Y21750001D03*
X15375000Y21250000D03*
X15375000Y20750000D03*
X15375000Y20250002D03*
X15375000Y19750000D03*
X15375000Y19250001D03*
X15375000Y18749999D03*
X15375000Y18250000D03*
X15375000Y17750001D03*
X15375000Y17250000D03*
X15375000Y16750001D03*
X15375000Y16249999D03*
X15375000Y15750000D03*
X15375000Y15250001D03*
X15375000Y14750000D03*
X15375000Y14250001D03*
X15375000Y13749999D03*
X15375000Y13250000D03*
X15375000Y12750001D03*
X15375000Y12250000D03*
D37*
X17250000Y10375000D03*
X17749999Y10375000D03*
X18250000Y10375000D03*
X18749999Y10375000D03*
X19250001Y10375000D03*
X19750000Y10375000D03*
X20249999Y10375000D03*
X20750000Y10375000D03*
X21249999Y10375000D03*
X21750001Y10375000D03*
X22250000Y10375000D03*
X22749999Y10375000D03*
X23250000Y10375000D03*
X23749999Y10375000D03*
X24250001Y10375000D03*
X24750000Y10375000D03*
X25249999Y10375000D03*
X25750000Y10375000D03*
X26250000Y10375000D03*
X26750001Y10375000D03*
X27250000Y10375000D03*
X27749999Y10375000D03*
X28250001Y10375000D03*
X28750000Y10375000D03*
X29250001Y10375000D03*
X29750000Y10375000D03*
X30249999Y10375000D03*
X30750001Y10375000D03*
X31250000Y10375000D03*
X31750001Y10375000D03*
X32250000Y10375000D03*
X32749999Y10375000D03*
X33250001Y10375000D03*
X33750000Y10375000D03*
X34250001Y10375000D03*
X34750000Y10375000D03*
D36*
X36625000Y12250000D03*
X36625000Y12749999D03*
X36625000Y13250000D03*
X36625000Y13749999D03*
X36625000Y14250001D03*
X36625000Y14750000D03*
X36625000Y15249999D03*
X36625000Y15750000D03*
X36625000Y16249999D03*
X36625000Y16750001D03*
X36625000Y17250000D03*
X36625000Y17749999D03*
X36625000Y18250000D03*
X36625000Y18749999D03*
X36625000Y19250001D03*
X36625000Y19750000D03*
X36625000Y20249999D03*
X36625000Y20750000D03*
X36625000Y21250000D03*
X36625000Y21750001D03*
X36625000Y22250000D03*
X36625000Y22749999D03*
X36625000Y23250001D03*
X36625000Y23750000D03*
X36625000Y24250001D03*
X36625000Y24750000D03*
X36625000Y25249999D03*
X36625000Y25750001D03*
X36625000Y26250000D03*
X36625000Y26750001D03*
X36625000Y27250000D03*
X36625000Y27749999D03*
X36625000Y28250001D03*
X36625000Y28750000D03*
X36625000Y29250001D03*
X36625000Y29750000D03*
D37*
X34750000Y31625000D03*
X34250001Y31625000D03*
X33750000Y31625000D03*
X33250001Y31625000D03*
X32749999Y31625000D03*
X32250000Y31625000D03*
X31750001Y31625000D03*
X31250000Y31625000D03*
X30750001Y31625000D03*
X30249999Y31625000D03*
X29750000Y31625000D03*
X29250001Y31625000D03*
X28750000Y31625000D03*
X28250001Y31625000D03*
X27749999Y31625000D03*
X27250000Y31625000D03*
X26750001Y31625000D03*
X26250000Y31625000D03*
X25750000Y31625000D03*
X25249999Y31625000D03*
X24750000Y31625000D03*
X24250001Y31625000D03*
X23749999Y31625000D03*
X23250000Y31625000D03*
X22749999Y31625000D03*
X22250000Y31625000D03*
X21750001Y31625000D03*
X21249999Y31625000D03*
X20750000Y31625000D03*
X20249999Y31625000D03*
X19750000Y31625000D03*
X19250001Y31625000D03*
X18749999Y31625000D03*
X18250000Y31625000D03*
X17749999Y31625000D03*
X17250000Y31625000D03*
%TD*%
D31*
%TO.C,C11*%
X13250000Y15460000D03*
X13250000Y14500000D03*
%TD*%
D22*
%TO.C,C27*%
X43075000Y13150000D03*
X44625000Y13150000D03*
%TD*%
D15*
%TO.C,R6*%
X17500000Y33240000D03*
X17500000Y34260000D03*
%TD*%
D38*
%TO.C,J8*%
X41625000Y41124300D03*
X40375000Y41124300D03*
X39125000Y41124300D03*
X37875000Y41124300D03*
X36625000Y41124300D03*
X35375000Y41124300D03*
D39*
X43474999Y44324301D03*
X33525001Y44324301D03*
%TD*%
D40*
%TO.C,C30*%
X41750000Y9475000D03*
X41750000Y6525000D03*
%TD*%
D41*
%TO.C,J1*%
X51124300Y10675000D03*
X51124300Y11925000D03*
X51124300Y13175000D03*
X51124300Y14425000D03*
X51124300Y15675000D03*
X51124300Y16925000D03*
D42*
X54324301Y8825001D03*
X54324301Y18774999D03*
%TD*%
D43*
%TO.C,C34*%
X5500000Y22525000D03*
X5500000Y25475000D03*
%TD*%
D44*
%TO.C,J3*%
X49170000Y22800000D03*
X49170000Y23600000D03*
D45*
X49245000Y24750000D03*
X49245000Y25750000D03*
X49245000Y26250000D03*
X49245000Y27250000D03*
D44*
X49170000Y29200000D03*
X49170000Y28400000D03*
D45*
X49245000Y27750000D03*
X49245000Y26750000D03*
X49245000Y25250000D03*
X49245000Y24250000D03*
%TD*%
D20*
%TO.C,C45*%
X26230000Y6500000D03*
X25270000Y6500000D03*
%TD*%
D38*
%TO.C,J5*%
X28875000Y4875700D03*
X30125000Y4875700D03*
X31375000Y4875700D03*
X32625000Y4875700D03*
X33875000Y4875700D03*
X35125000Y4875700D03*
D39*
X27025001Y1675699D03*
X36974999Y1675699D03*
%TD*%
D15*
%TO.C,R8*%
X31200000Y6490000D03*
X31200000Y7510000D03*
%TD*%
D46*
%TO.C,U4*%
X9175000Y10057500D03*
X8525000Y10057500D03*
X7875000Y10057500D03*
X7225000Y10057500D03*
X7225000Y7257500D03*
X7875000Y7257500D03*
X8525000Y7257500D03*
X9175000Y7257500D03*
%TD*%
D15*
%TO.C,R36*%
X1900000Y36690000D03*
X1900000Y37710000D03*
%TD*%
D20*
%TO.C,C15*%
X21980000Y33750000D03*
X21020000Y33750000D03*
%TD*%
D22*
%TO.C,C41*%
X42225000Y36250000D03*
X43775000Y36250000D03*
%TD*%
D47*
%TO.C,D5*%
X46100000Y30100000D03*
X44900000Y30100000D03*
%TD*%
D48*
%TO.C,L1*%
X44985000Y3200000D03*
X42615000Y3200000D03*
%TD*%
D49*
%TO.C,D3*%
X40212500Y22800000D03*
X41787500Y22800000D03*
%TD*%
D25*
%TO.C,C12*%
X13500000Y21270000D03*
X13500000Y22230000D03*
%TD*%
D15*
%TO.C,R10*%
X33600000Y6490000D03*
X33600000Y7510000D03*
%TD*%
D29*
%TO.C,C36*%
X10270000Y26250000D03*
X11230000Y26250000D03*
%TD*%
D17*
%TO.C,R38*%
X25510000Y39500000D03*
X24490000Y39500000D03*
%TD*%
D50*
%TO.C,U8*%
X44775000Y26850000D03*
X44775000Y26150000D03*
X45625000Y26500000D03*
%TD*%
D26*
%TO.C,R4*%
X29740000Y37750000D03*
X30760000Y37750000D03*
%TD*%
D15*
%TO.C,R2*%
X13250000Y12480000D03*
X13250000Y13500000D03*
%TD*%
D20*
%TO.C,C8*%
X30210000Y8750000D03*
X29250000Y8750000D03*
%TD*%
%TO.C,C22*%
X41430000Y38500000D03*
X40470000Y38500000D03*
%TD*%
D17*
%TO.C,R28*%
X7972600Y28449999D03*
X6952600Y28449999D03*
%TD*%
D26*
%TO.C,R26*%
X13740000Y33750000D03*
X14760000Y33750000D03*
%TD*%
D29*
%TO.C,C37*%
X12420000Y35700000D03*
X13380000Y35700000D03*
%TD*%
D51*
%TO.C,F1*%
X50337500Y33200000D03*
X46062500Y33200000D03*
%TD*%
D25*
%TO.C,C31*%
X10500000Y6270000D03*
X10500000Y7230000D03*
%TD*%
D31*
%TO.C,C42*%
X37250000Y37980000D03*
X37250000Y37020000D03*
%TD*%
D17*
%TO.C,R17*%
X42260000Y21550000D03*
X41240000Y21550000D03*
%TD*%
D20*
%TO.C,C43*%
X49230000Y36250000D03*
X48270000Y36250000D03*
%TD*%
D31*
%TO.C,C5*%
X38250000Y23500000D03*
X38250000Y22540000D03*
%TD*%
%TO.C,C17*%
X13250000Y10980000D03*
X13250000Y10020000D03*
%TD*%
D18*
%TO.C,R24*%
X5800000Y14912500D03*
X5800000Y13087500D03*
%TD*%
D28*
%TO.C,C38*%
X7300000Y36525000D03*
X7300000Y38075000D03*
%TD*%
D20*
%TO.C,C9*%
X24730000Y8750000D03*
X23770000Y8750000D03*
%TD*%
%TO.C,C18*%
X9980000Y19750000D03*
X9020000Y19750000D03*
%TD*%
D25*
%TO.C,C26*%
X45356300Y17550000D03*
X45356300Y18510000D03*
%TD*%
%TO.C,C25*%
X45356300Y20570000D03*
X45356300Y21530000D03*
%TD*%
D26*
%TO.C,R39*%
X27990000Y39500000D03*
X29010000Y39500000D03*
%TD*%
D31*
%TO.C,C29*%
X47950000Y11830000D03*
X47950000Y10870000D03*
%TD*%
D52*
%TO.C,U6*%
X11174999Y35249999D03*
X11174999Y35750000D03*
X11174999Y36250000D03*
X11174999Y36750001D03*
D53*
X10650001Y37274999D03*
X10150000Y37274999D03*
X9650000Y37274999D03*
X9149999Y37274999D03*
D52*
X8625001Y36750001D03*
X8625001Y36250000D03*
X8625001Y35750000D03*
X8625001Y35249999D03*
D53*
X9149999Y34725001D03*
X9650000Y34725001D03*
X10150000Y34725001D03*
X10650001Y34725001D03*
%TD*%
D31*
%TO.C,C6*%
X38250000Y17980000D03*
X38250000Y17020000D03*
%TD*%
D38*
%TO.C,J7*%
X15875000Y4875700D03*
X17125000Y4875700D03*
X18375000Y4875700D03*
X19625000Y4875700D03*
X20875000Y4875700D03*
X22125000Y4875700D03*
D39*
X14025001Y1675699D03*
X23974999Y1675699D03*
%TD*%
D31*
%TO.C,C16*%
X12250000Y10980000D03*
X12250000Y10020000D03*
%TD*%
D29*
%TO.C,C7*%
X35770000Y10000000D03*
X36730000Y10000000D03*
%TD*%
D25*
%TO.C,C35*%
X7250000Y23520000D03*
X7250000Y24480000D03*
%TD*%
D17*
%TO.C,R25*%
X10010000Y21000000D03*
X8990000Y21000000D03*
%TD*%
D21*
%TO.C,R19*%
X48000000Y9500000D03*
X48000000Y8480000D03*
%TD*%
D15*
%TO.C,R29*%
X9250000Y30740000D03*
X9250000Y31760000D03*
%TD*%
D29*
%TO.C,C2*%
X23520000Y33250000D03*
X24480000Y33250000D03*
%TD*%
D31*
%TO.C,C47*%
X12750000Y4730000D03*
X12750000Y3770000D03*
%TD*%
D21*
%TO.C,R22*%
X38600000Y12110000D03*
X38600000Y11090000D03*
%TD*%
D17*
%TO.C,R7*%
X30010000Y6500000D03*
X28990000Y6500000D03*
%TD*%
D31*
%TO.C,C24*%
X48250000Y15480000D03*
X48250000Y14520000D03*
%TD*%
D20*
%TO.C,C28*%
X46730000Y13250000D03*
X45770000Y13250000D03*
%TD*%
D22*
%TO.C,C20*%
X34225000Y8700000D03*
X35775000Y8700000D03*
%TD*%
D26*
%TO.C,R30*%
X38240000Y37000000D03*
X39260000Y37000000D03*
%TD*%
M02*
