%TF.GenerationSoftware,KiCad,Pcbnew,9.0.5*%
%TF.CreationDate,2026-03-11T17:01:17+10:00*%
%TF.ProjectId,FC-proto,46432d70-726f-4746-9f2e-6b696361645f,rev?*%
%TF.SameCoordinates,PX42c1d80PY754d4c0*%
%TF.FileFunction,Copper,L4,Bot*%
%TF.FilePolarity,Positive*%
%FSLAX46Y46*%
G04 Gerber Fmt 4.6, Leading zero omitted, Abs format (unit mm)*
G04 Created by KiCad (PCBNEW 9.0.5) date 2026-03-11 17:01:17*
%MOMM*%
%LPD*%
G01*
G04 APERTURE LIST*
G04 Aperture macros list*
%AMRoundRect*
0 Rectangle with rounded corners*
0 $1 Rounding radius*
0 $2 $3 $4 $5 $6 $7 $8 $9 X,Y pos of 4 corners*
0 Add a 4 corners polygon primitive as box body*
4,1,4,$2,$3,$4,$5,$6,$7,$8,$9,$2,$3,0*
0 Add four circle primitives for the rounded corners*
1,1,$1+$1,$2,$3*
1,1,$1+$1,$4,$5*
1,1,$1+$1,$6,$7*
1,1,$1+$1,$8,$9*
0 Add four rect primitives between the rounded corners*
20,1,$1+$1,$2,$3,$4,$5,0*
20,1,$1+$1,$4,$5,$6,$7,0*
20,1,$1+$1,$6,$7,$8,$9,0*
20,1,$1+$1,$8,$9,$2,$3,0*%
G04 Aperture macros list end*
%TA.AperFunction,ComponentPad*%
%ADD10C,0.800000*%
%TD*%
%TA.AperFunction,ComponentPad*%
%ADD11C,6.400000*%
%TD*%
%TA.AperFunction,ComponentPad*%
%ADD12C,0.508000*%
%TD*%
%TA.AperFunction,ComponentPad*%
%ADD13O,2.100000X1.000000*%
%TD*%
%TA.AperFunction,ComponentPad*%
%ADD14O,1.800000X1.000000*%
%TD*%
%TA.AperFunction,ComponentPad*%
%ADD15C,0.300000*%
%TD*%
%TA.AperFunction,SMDPad,CuDef*%
%ADD16RoundRect,0.225000X0.524999X-0.525000X0.524999X0.525000X-0.524999X0.525000X-0.524999X-0.525000X0*%
%TD*%
%TA.AperFunction,SMDPad,CuDef*%
%ADD17R,0.700000X1.500000*%
%TD*%
%TA.AperFunction,SMDPad,CuDef*%
%ADD18R,1.000000X0.800000*%
%TD*%
%TA.AperFunction,SMDPad,CuDef*%
%ADD19R,1.803400X1.397000*%
%TD*%
%TA.AperFunction,SMDPad,CuDef*%
%ADD20R,1.397000X1.905000*%
%TD*%
%TA.AperFunction,SMDPad,CuDef*%
%ADD21R,0.812800X2.006600*%
%TD*%
%TA.AperFunction,SMDPad,CuDef*%
%ADD22RoundRect,0.500000X1.000000X0.500000X-1.000000X0.500000X-1.000000X-0.500000X1.000000X-0.500000X0*%
%TD*%
%TA.AperFunction,ViaPad*%
%ADD23C,0.700000*%
%TD*%
%TA.AperFunction,Conductor*%
%ADD24C,0.300000*%
%TD*%
%TA.AperFunction,Conductor*%
%ADD25C,0.200000*%
%TD*%
%TA.AperFunction,Conductor*%
%ADD26C,0.500000*%
%TD*%
%TA.AperFunction,Conductor*%
%ADD27C,0.152000*%
%TD*%
%TA.AperFunction,Conductor*%
%ADD28C,0.250000*%
%TD*%
G04 APERTURE END LIST*
D10*
%TO.P,MH3,1,1*%
%TO.N,GND*%
X1600000Y4000000D03*
X2302944Y5697056D03*
X2302944Y2302944D03*
X4000000Y6400000D03*
D11*
X4000000Y4000000D03*
D10*
X4000000Y1600000D03*
X5697056Y5697056D03*
X5697056Y2302944D03*
X6400000Y4000000D03*
%TD*%
D12*
%TO.P,U3,17,GND*%
%TO.N,GND*%
X44856300Y9856300D03*
X45643700Y9856300D03*
X44856300Y10643700D03*
X45643700Y10643700D03*
%TD*%
D13*
%TO.P,J3,SH1,SHIELD*%
%TO.N,GND*%
X49820000Y21680000D03*
%TO.P,J3,SH2,SHIELD*%
X49820000Y30320000D03*
D14*
%TO.P,J3,SH3,SHIELD*%
X54000000Y21680000D03*
%TO.P,J3,SH4,SHIELD*%
X54000000Y30320000D03*
%TD*%
D15*
%TO.P,U4,9,GND*%
%TO.N,GND*%
X8200000Y9232500D03*
X9150000Y8657500D03*
X7250000Y8657500D03*
X8200000Y8082500D03*
%TD*%
D10*
%TO.P,MH2,1,1*%
%TO.N,GND*%
X49600000Y42000000D03*
X50302944Y43697056D03*
X50302944Y40302944D03*
X52000000Y44400000D03*
D11*
X52000000Y42000000D03*
D10*
X52000000Y39600000D03*
X53697056Y43697056D03*
X53697056Y40302944D03*
X54400000Y42000000D03*
%TD*%
%TO.P,MH1,1,1*%
%TO.N,GND*%
X1600000Y42000000D03*
X2302944Y43697056D03*
X2302944Y40302944D03*
X4000000Y44400000D03*
D11*
X4000000Y42000000D03*
D10*
X4000000Y39600000D03*
X5697056Y43697056D03*
X5697056Y40302944D03*
X6400000Y42000000D03*
%TD*%
D12*
%TO.P,U2,9,GND*%
%TO.N,GND*%
X42356300Y20037400D03*
X42356300Y19250000D03*
X42356300Y18462600D03*
X43143700Y20037400D03*
X43143700Y19250000D03*
X43143700Y18462600D03*
%TD*%
D10*
%TO.P,MH4,1,1*%
%TO.N,GND*%
X49600000Y4000000D03*
X50302944Y5697056D03*
X50302944Y2302944D03*
X52000000Y6400000D03*
D11*
X52000000Y4000000D03*
D10*
X52000000Y1600000D03*
X53697056Y5697056D03*
X53697056Y2302944D03*
X54400000Y4000000D03*
%TD*%
D16*
%TO.P,J13,1,Pin_1*%
%TO.N,GPIO_70*%
X20250000Y1250000D03*
%TO.P,J13,2,Pin_2*%
%TO.N,ADC_IN2*%
X18000000Y1250000D03*
%TO.P,J13,3,Pin_3*%
%TO.N,ADC_IN3*%
X15750000Y1250000D03*
%TO.P,J13,4,Pin_4*%
%TO.N,ADC_IN1*%
X13500000Y1250000D03*
%TO.P,J13,5,Pin_5*%
%TO.N,GND*%
X11250000Y1250000D03*
%TD*%
D17*
%TO.P,SW1,1,A*%
%TO.N,+3.3V*%
X14000000Y41750000D03*
%TO.P,SW1,2,B*%
%TO.N,/SW_BOOT0*%
X17000000Y41750000D03*
%TO.P,SW1,3,A*%
%TO.N,GND*%
X18500000Y41750000D03*
D18*
%TO.P,SW1,S1,SHIELD*%
X12600000Y42535000D03*
%TO.P,SW1,S2,SHIELD*%
X12600000Y44465000D03*
%TO.P,SW1,S3,SHIELD*%
X19900000Y44465000D03*
%TO.P,SW1,S4,SHIELD*%
X19900000Y42535000D03*
%TD*%
D19*
%TO.P,J2,9,CARD_DETECT*%
%TO.N,GND*%
X45700000Y44821601D03*
%TO.P,J2,10,CARD_DETECT*%
%TO.N,SD_CDS*%
X39999999Y44821601D03*
D20*
%TO.P,J2,11,GND*%
%TO.N,GND*%
X47300000Y31671599D03*
%TO.P,J2,12,GND*%
X34149998Y30671599D03*
D21*
%TO.P,J2,P1,DAT2*%
%TO.N,SD_DAT2*%
X38809999Y34271599D03*
%TO.P,J2,P2,DAT3/CD*%
%TO.N,SD_DAT3*%
X39910073Y34671598D03*
%TO.P,J2,P3,CMD*%
%TO.N,SD_CMD*%
X41009999Y34271599D03*
%TO.P,J2,P4,VDD*%
%TO.N,+3.3V*%
X42110000Y34071599D03*
%TO.P,J2,P5,CLK*%
%TO.N,SD_CLK*%
X43210000Y34271599D03*
%TO.P,J2,P6,VSS*%
%TO.N,GND*%
X44310000Y34071599D03*
%TO.P,J2,P7,DAT0*%
%TO.N,SD_DAT0*%
X45410001Y34271599D03*
%TO.P,J2,P8,DAT1*%
%TO.N,SD_DAT1*%
X46510001Y34271599D03*
%TD*%
D16*
%TO.P,J12,1,Pin_1*%
%TO.N,GND*%
X31500000Y1250000D03*
%TO.P,J12,2,Pin_2*%
%TO.N,UART5_RX*%
X29250000Y1250000D03*
%TO.P,J12,3,Pin_3*%
%TO.N,UART5_TX*%
X27000000Y1250000D03*
%TO.P,J12,4,Pin_4*%
%TO.N,GPIO_68*%
X24750000Y1250000D03*
%TO.P,J12,5,Pin_5*%
%TO.N,GPIO_69*%
X22500000Y1250000D03*
%TD*%
D22*
%TO.P,J10,1,Pin_1*%
%TO.N,GND*%
X2000000Y32000000D03*
%TO.P,J10,2,Pin_2*%
%TO.N,+5V*%
X2000000Y28000000D03*
%TO.P,J10,3,Pin_3*%
%TO.N,PO_TX*%
X2000000Y24000000D03*
%TO.P,J10,4,Pin_4*%
%TO.N,PO_RX*%
X2000000Y20000000D03*
%TO.P,J10,5,Pin_5*%
%TO.N,PO_SCL*%
X2000000Y16000000D03*
%TO.P,J10,6,Pin_6*%
%TO.N,PO_SDA*%
X2000000Y12000000D03*
%TD*%
D23*
%TO.N,GND*%
X33500000Y42250000D03*
X14500000Y7400000D03*
X20500000Y34000000D03*
X9000000Y29250000D03*
X3258947Y26247018D03*
X40175000Y29500000D03*
X21700000Y21700000D03*
X16790380Y14709620D03*
X47300000Y36200000D03*
X4650000Y30600000D03*
X10100000Y8700000D03*
X21200000Y18500000D03*
X54500000Y34700000D03*
X35400000Y42700000D03*
X47700000Y21000000D03*
X24750000Y42500000D03*
X43500000Y17250000D03*
X25100000Y2800000D03*
X32000000Y44600000D03*
X7300000Y39200000D03*
X25700000Y18400000D03*
X24200000Y44300000D03*
X2000000Y10250000D03*
X47700000Y13300000D03*
X7600000Y44800000D03*
X13500000Y23000000D03*
X1400000Y7800000D03*
X34700000Y44600000D03*
X7500000Y11000000D03*
X17600000Y17300000D03*
X47700000Y33300000D03*
X26300000Y26200000D03*
X7242993Y16342704D03*
X16750000Y8750000D03*
X46100000Y43400000D03*
X5900000Y31400000D03*
X27300000Y15700000D03*
X14250000Y35750000D03*
X29250000Y8000000D03*
X54000000Y22800000D03*
X39100000Y16000000D03*
X34000000Y13100000D03*
X43100000Y28600000D03*
X30000000Y33250000D03*
X2000000Y14000000D03*
X38250000Y21600000D03*
X54300000Y7700000D03*
X54200000Y14200000D03*
X11750000Y16750000D03*
X3500000Y33750000D03*
X3600001Y21649999D03*
X1000000Y34800000D03*
X14900000Y32700000D03*
X54600000Y38700000D03*
X30260508Y22686402D03*
X37400000Y32800000D03*
X46400000Y28600000D03*
X48300000Y38200000D03*
X48746050Y13700000D03*
X36600000Y34700000D03*
X22000000Y42300000D03*
X35200000Y22700000D03*
X10500000Y11250000D03*
X48300000Y1500000D03*
X27000000Y3750000D03*
X52000000Y26100000D03*
X44250000Y35500000D03*
X11250000Y44250000D03*
X41600000Y10600000D03*
X17700000Y22250000D03*
X22100000Y8000000D03*
X21500000Y44250000D03*
X15600000Y34900000D03*
X17500000Y8000000D03*
X7250000Y22750000D03*
X24600000Y34400000D03*
X19200000Y29500000D03*
X18600000Y44700000D03*
X32000000Y40400000D03*
X39200000Y29750000D03*
X46450000Y26500000D03*
X47800000Y4000000D03*
X29700000Y19000000D03*
X48250000Y29500000D03*
X30000000Y29600000D03*
X12250000Y9100000D03*
X50154978Y9245022D03*
X18500000Y26000000D03*
X25500000Y33300000D03*
X29200000Y11800000D03*
X21100000Y2500000D03*
X26300000Y21700000D03*
X8612695Y26850000D03*
X18200000Y11800000D03*
X40000000Y12500000D03*
X40200000Y21700000D03*
X10500000Y5300000D03*
X29800000Y35600000D03*
X13250000Y9100000D03*
X31200000Y26000000D03*
X30500000Y42250000D03*
X46000000Y24400000D03*
X54300000Y19900000D03*
X7750000Y22055603D03*
X21300000Y27400000D03*
X12500000Y41250000D03*
X11700000Y38200000D03*
X43200000Y8700000D03*
X1000000Y38900000D03*
X8600000Y1400000D03*
X40250000Y23800000D03*
X11500000Y25500000D03*
X42200000Y44700000D03*
X40300000Y16250000D03*
X14000000Y3750000D03*
X33500000Y1000000D03*
X45400000Y22400000D03*
X35125000Y3500000D03*
X6750000Y21500000D03*
X8000000Y15001000D03*
X36250000Y38000000D03*
X54000000Y29200000D03*
X7100000Y17800000D03*
X2000000Y18000000D03*
X19600000Y41400000D03*
X34200000Y29100000D03*
X34400000Y27300000D03*
X33600000Y20800000D03*
X6400000Y10100000D03*
X29300000Y44500000D03*
X43100000Y14200000D03*
X38800000Y42800000D03*
X36750000Y10750000D03*
X45406300Y16780000D03*
X6200000Y38100000D03*
X20500000Y24400000D03*
X7500000Y35250000D03*
X7100000Y19000000D03*
X10750000Y15250000D03*
X20200000Y40500000D03*
X23300000Y7950000D03*
X49800000Y20500000D03*
X37000000Y3750000D03*
X14750000Y39500000D03*
X47250000Y44750000D03*
X31600000Y16200000D03*
X40500000Y37750000D03*
X15284620Y37384620D03*
X12500000Y14500000D03*
X38300000Y44600000D03*
X36500000Y8000000D03*
X54500000Y36500000D03*
X43500000Y42250000D03*
X8100000Y19700000D03*
X12921423Y26876989D03*
X23200000Y15300000D03*
X42900000Y25100000D03*
X38250000Y16250000D03*
X48000000Y22750000D03*
X49200000Y11400000D03*
%TO.N,+3.3V*%
X10250000Y31500000D03*
X38000000Y10250000D03*
X12566761Y15397521D03*
X12750000Y39250000D03*
X41500000Y37750000D03*
X18500000Y8000000D03*
X37000000Y8750000D03*
X26900000Y8000000D03*
X6376300Y27873700D03*
X30210000Y8000000D03*
X42250000Y35500000D03*
X20750000Y35000000D03*
X35750000Y11000000D03*
X8500000Y20750000D03*
X10741233Y27016615D03*
X30000000Y39750000D03*
X23750000Y39750000D03*
X24750000Y8000000D03*
X26850000Y33250000D03*
X39051869Y23500000D03*
X12819417Y21599822D03*
X40097507Y36945013D03*
X38250000Y18750000D03*
X39000000Y10250000D03*
X16250000Y32750000D03*
X15550000Y33750000D03*
X38400000Y31500000D03*
X13000000Y28000000D03*
X26850000Y34000000D03*
X1250000Y30450000D03*
X23500000Y34000000D03*
%TO.N,DEBUG_NRST*%
X20750000Y28750000D03*
X22000000Y33000000D03*
%TO.N,+5V*%
X18250000Y39500000D03*
X46500000Y21500000D03*
X48900000Y16400000D03*
X45900000Y40500000D03*
X40250000Y20750000D03*
X1250000Y26000000D03*
X25750000Y3750000D03*
X47190686Y15900000D03*
X11250000Y3250000D03*
X29500000Y41124300D03*
X2000000Y26000000D03*
%TO.N,VBUS*%
X50000000Y37250000D03*
X45950000Y18500000D03*
%TO.N,+5V_SYS*%
X41250000Y15250000D03*
X11500000Y7230000D03*
X43100000Y21500000D03*
X40750000Y14500000D03*
%TO.N,+3.3VA*%
X13242654Y11810000D03*
X5750000Y16000000D03*
X4900000Y26500000D03*
X6912500Y14912500D03*
X4750000Y29250000D03*
X6250000Y26500000D03*
X12750000Y34750000D03*
%TO.N,SD_CDS*%
X41500000Y43750000D03*
%TO.N,BAT_CURRENT*%
X23713120Y3786880D03*
X52500000Y14250000D03*
%TO.N,BAT_VOLTAGE*%
X49000000Y12750000D03*
X23169481Y4504139D03*
%TO.N,SD_DAT3*%
X39750000Y32250000D03*
%TO.N,SD_CLK*%
X43000000Y32500000D03*
%TO.N,SD_DAT2*%
X35000000Y33250000D03*
%TO.N,SD_CMD*%
X41000000Y36250000D03*
%TO.N,SD_DAT1*%
X38800000Y25600000D03*
%TO.N,SD_DAT0*%
X38099999Y24599999D03*
%TO.N,TELEM_TX*%
X17364612Y12539449D03*
X14750000Y10249000D03*
%TO.N,TELEM_RTS*%
X21000000Y8000000D03*
X35100000Y13700000D03*
%TO.N,GPS_CAN_RX*%
X31900000Y33500000D03*
X34750000Y38450000D03*
%TO.N,GPS_RX*%
X18100000Y36470576D03*
X38252913Y39728279D03*
%TO.N,GPS_TX*%
X40250000Y42750000D03*
X17650000Y37250000D03*
X21500000Y40250000D03*
X18834620Y38334620D03*
%TO.N,GPS_CAN_TX*%
X27000000Y28250000D03*
X36284620Y39065380D03*
%TO.N,I2C_SCL*%
X21250000Y30500000D03*
X28000000Y38350000D03*
%TO.N,DEBUG_SWDIO*%
X21081253Y37581253D03*
X26165380Y30084620D03*
%TO.N,DEBUG_SWO*%
X25500000Y29250000D03*
X27500000Y36000000D03*
%TO.N,DEBUG_SWCLK*%
X33540380Y34959620D03*
X31584620Y36665380D03*
%TO.N,BUZZER-*%
X5750000Y33750000D03*
X4900000Y20000000D03*
%TO.N,/SW_BOOT0*%
X16500000Y43000000D03*
%TO.N,PO_TX*%
X15000000Y11250000D03*
%TO.N,PO_SCL*%
X19800000Y13200000D03*
%TO.N,RGB_LED_R*%
X35000000Y16250000D03*
X47000000Y39500000D03*
%TO.N,RGB_LED_G*%
X35000000Y17349997D03*
X47000000Y38500000D03*
%TO.N,RGB_LED_B*%
X47000000Y37500000D03*
X35000000Y18250000D03*
%TO.N,BAR_SDA*%
X17250000Y25000000D03*
X11000000Y29301000D03*
%TO.N,BAR_SCL*%
X8793864Y28373922D03*
X16750000Y24250000D03*
%TO.N,BUZZ*%
X2750000Y37710000D03*
X17500000Y15750000D03*
%TO.N,SWITCH*%
X7334620Y34084620D03*
X13750000Y31250000D03*
%TO.N,MAG_INT*%
X17000000Y26500000D03*
X11350000Y32250000D03*
%TO.N,PO_SDA*%
X20500000Y13900000D03*
%TO.N,PO_RX*%
X16400000Y10000000D03*
%TO.N,IMU_MOSI*%
X11700000Y22200000D03*
X12750000Y20000000D03*
%TO.N,GPIO_69*%
X31100000Y12200000D03*
%TO.N,IMU_MISO*%
X17000000Y20750000D03*
X9444953Y26507438D03*
%TO.N,GPIO_68*%
X32000000Y11600000D03*
%TO.N,Net-(U1-PD6)*%
X28232661Y30401900D03*
X28750000Y37750000D03*
%TO.N,GPIO_70*%
X30300000Y12900000D03*
%TO.N,/Power Section/Buck_Out*%
X42500000Y11000000D03*
X42250000Y7500000D03*
X48983519Y8420000D03*
%TO.N,MAG_MISO*%
X13000000Y37500000D03*
X17250000Y28250000D03*
%TO.N,PWR_GOOD*%
X35000000Y14750000D03*
X46250000Y7500000D03*
%TO.N,USB_VBUS_SENSE*%
X52500000Y34750000D03*
X35000000Y26250000D03*
%TO.N,RC_RX*%
X16000000Y39500000D03*
X20750000Y26000000D03*
%TO.N,RC_TX*%
X21500000Y25000000D03*
X17000000Y39500000D03*
%TO.N,UART5_RX*%
X36000000Y5450000D03*
X35070526Y11890597D03*
X30250000Y2250000D03*
%TO.N,UART5_TX*%
X29000000Y3250000D03*
X35090380Y12790380D03*
X34573905Y6254139D03*
%TO.N,ADC_IN3*%
X23500000Y11800000D03*
%TO.N,ADC_IN2*%
X24090380Y12550000D03*
%TO.N,ADC_IN1*%
X25100000Y11570449D03*
%TO.N,Net-(D5-K)*%
X47000000Y23250000D03*
X47500000Y28750000D03*
%TD*%
D24*
%TO.N,GND*%
X47300000Y32900000D02*
X47300000Y31671599D01*
D25*
X17548412Y22250000D02*
X12921423Y26876989D01*
D24*
X44600000Y10387400D02*
X44600000Y10112600D01*
D25*
X9600000Y27800000D02*
X11998412Y27800000D01*
D24*
X47700000Y33300000D02*
X47300000Y32900000D01*
X44600000Y10112600D02*
X44856300Y9856300D01*
D25*
X8650000Y26850000D02*
X9600000Y27800000D01*
D26*
X44250000Y35500000D02*
X44250000Y34131599D01*
X44250000Y34131599D02*
X44310000Y34071599D01*
D25*
X8612695Y26850000D02*
X8650000Y26850000D01*
D26*
X47750000Y32121599D02*
X47300000Y31671599D01*
D25*
X11998412Y27800000D02*
X12921423Y26876989D01*
D24*
X44856300Y10643700D02*
X44600000Y10387400D01*
D25*
X17700000Y22250000D02*
X17548412Y22250000D01*
D26*
%TO.N,+3.3V*%
X42250000Y34211599D02*
X42110000Y34071599D01*
X2602190Y30250000D02*
X2402190Y30450000D01*
X2402190Y30450000D02*
X1250000Y30450000D01*
D24*
X13000000Y40750000D02*
X12750000Y40500000D01*
D26*
X39051000Y10301000D02*
X39000000Y10250000D01*
D24*
X14000000Y41750000D02*
X13000000Y40750000D01*
D26*
X4978490Y27873700D02*
X6376300Y27873700D01*
X42250000Y35500000D02*
X42250000Y34211599D01*
X2602190Y30250000D02*
X4978490Y27873700D01*
D24*
X12750000Y40500000D02*
X12750000Y39250000D01*
D25*
%TO.N,DEBUG_NRST*%
X20750000Y28750000D02*
X22000000Y30000000D01*
X22000000Y30000000D02*
X22000000Y33000000D01*
D26*
%TO.N,+5V*%
X1250000Y27250000D02*
X2000000Y28000000D01*
X1250000Y26000000D02*
X1250000Y27250000D01*
X2000000Y26000000D02*
X2000000Y28000000D01*
D24*
%TO.N,+5V_SYS*%
X41250000Y19786700D02*
X41250000Y15250000D01*
X43100000Y21500000D02*
X42963300Y21500000D01*
X42963300Y21500000D02*
X41250000Y19786700D01*
D25*
%TO.N,SD_CDS*%
X40428399Y44821601D02*
X41500000Y43750000D01*
X39999999Y44821601D02*
X40428399Y44821601D01*
%TO.N,BAT_CURRENT*%
X52500000Y10008636D02*
X52500000Y14250000D01*
X46891364Y4400000D02*
X52500000Y10008636D01*
X23713120Y3786880D02*
X24326240Y4400000D01*
X24326240Y4400000D02*
X46891364Y4400000D01*
%TO.N,BAT_VOLTAGE*%
X23500000Y4800000D02*
X46550000Y4800000D01*
X51000000Y9250000D02*
X51000000Y11741364D01*
X51000000Y11741364D02*
X49991364Y12750000D01*
X23169481Y4504139D02*
X23204139Y4504139D01*
X46550000Y4800000D02*
X51000000Y9250000D01*
X49991364Y12750000D02*
X49000000Y12750000D01*
X23204139Y4504139D02*
X23500000Y4800000D01*
%TO.N,SD_DAT3*%
X39750000Y32250000D02*
X39910073Y32410073D01*
X39910073Y32410073D02*
X39910073Y34671598D01*
%TO.N,SD_CLK*%
X43000000Y32500000D02*
X43000000Y34061599D01*
X43000000Y34061599D02*
X43210000Y34271599D01*
%TO.N,SD_DAT2*%
X36500000Y33250000D02*
X37521599Y34271599D01*
X37521599Y34271599D02*
X38809999Y34271599D01*
X35000000Y33250000D02*
X36500000Y33250000D01*
%TO.N,SD_CMD*%
X41000000Y34281598D02*
X41009999Y34271599D01*
X41000000Y36250000D02*
X41000000Y34281598D01*
%TO.N,SD_DAT1*%
X46510001Y33359899D02*
X46510001Y34271599D01*
X38800000Y25600000D02*
X38800000Y25649898D01*
X38800000Y25649898D02*
X46510001Y33359899D01*
%TO.N,SD_DAT0*%
X38099999Y24599999D02*
X38099999Y25849999D01*
X38099999Y25849999D02*
X45410001Y33160001D01*
X38000000Y24500000D02*
X38099999Y24599999D01*
X45410001Y33160001D02*
X45410001Y34271599D01*
%TO.N,TELEM_TX*%
X17250000Y12500000D02*
X17325163Y12500000D01*
X17325163Y12500000D02*
X17364612Y12539449D01*
X14751000Y10250000D02*
X15000000Y10250000D01*
X15000000Y10250000D02*
X17250000Y12500000D01*
X14750000Y10249000D02*
X14751000Y10250000D01*
%TO.N,TELEM_RTS*%
X21000000Y10400000D02*
X21000000Y8000000D01*
X24500000Y13900000D02*
X21000000Y10400000D01*
X35100000Y13700000D02*
X34900000Y13900000D01*
X34900000Y13900000D02*
X24500000Y13900000D01*
%TO.N,GPS_CAN_RX*%
X30750000Y34500000D02*
X31750000Y33500000D01*
X34750000Y38450000D02*
X32450000Y38450000D01*
X30750000Y36750000D02*
X30750000Y34500000D01*
X31750000Y33500000D02*
X31900000Y33500000D01*
X32450000Y38450000D02*
X30750000Y36750000D01*
%TO.N,GPS_RX*%
X20629424Y39000000D02*
X18100000Y36470576D01*
X38231192Y39750000D02*
X32250000Y39750000D01*
X31500000Y39000000D02*
X20629424Y39000000D01*
X32250000Y39750000D02*
X31500000Y39000000D01*
X38252913Y39728279D02*
X38231192Y39750000D01*
%TO.N,GPS_TX*%
X39250000Y43750000D02*
X40250000Y42750000D01*
X17650000Y37250000D02*
X17750000Y37250000D01*
X21500000Y40500000D02*
X24750000Y43750000D01*
X24750000Y43750000D02*
X39250000Y43750000D01*
X17750000Y37250000D02*
X18834620Y38334620D01*
X21500000Y40250000D02*
X21500000Y40500000D01*
%TO.N,GPS_CAN_TX*%
X29000000Y30250000D02*
X27000000Y28250000D01*
X36250000Y39100000D02*
X32350000Y39100000D01*
X36284620Y39065380D02*
X36250000Y39100000D01*
X29000000Y35750000D02*
X29000000Y30250000D01*
X32350000Y39100000D02*
X29000000Y35750000D01*
%TO.N,I2C_SCL*%
X19849000Y31901000D02*
X19849000Y37269654D01*
X19849000Y37269654D02*
X20929346Y38350000D01*
X20929346Y38350000D02*
X28000000Y38350000D01*
X21250000Y30500000D02*
X19849000Y31901000D01*
%TO.N,DEBUG_SWDIO*%
X22000000Y34250000D02*
X26165380Y30084620D01*
X22000000Y36662506D02*
X22000000Y34250000D01*
X21081253Y37581253D02*
X22000000Y36662506D01*
%TO.N,DEBUG_SWO*%
X27500000Y30500000D02*
X27500000Y36000000D01*
X25500000Y29250000D02*
X26250000Y29250000D01*
X26250000Y29250000D02*
X27500000Y30500000D01*
%TO.N,DEBUG_SWCLK*%
X31834620Y36665380D02*
X31584620Y36665380D01*
X33540380Y34959620D02*
X31834620Y36665380D01*
D24*
%TO.N,BUZZER-*%
X7250000Y32250000D02*
X5750000Y33750000D01*
X4900000Y22613546D02*
X7250000Y24963546D01*
X7250000Y24963546D02*
X7250000Y32250000D01*
X4900000Y20000000D02*
X4900000Y22613546D01*
D25*
%TO.N,/SW_BOOT0*%
X16500000Y43000000D02*
X17000000Y42500000D01*
X17000000Y42500000D02*
X17000000Y41750000D01*
%TO.N,PO_TX*%
X4250000Y22250000D02*
X2500000Y24000000D01*
X4250000Y16079346D02*
X4250000Y22250000D01*
X11841000Y11159000D02*
X8738500Y14261500D01*
X8738500Y14261500D02*
X6067846Y14261500D01*
X14909000Y11159000D02*
X11841000Y11159000D01*
X6067846Y14261500D02*
X4250000Y16079346D01*
X15000000Y11250000D02*
X14909000Y11159000D01*
X2500000Y24000000D02*
X2000000Y24000000D01*
%TO.N,PO_SCL*%
X4500000Y10500000D02*
X4500000Y13500000D01*
X19750000Y8250000D02*
X18000000Y6500000D01*
X19750000Y13150000D02*
X19750000Y8250000D01*
X19800000Y13200000D02*
X19750000Y13150000D01*
X8500000Y6500000D02*
X4500000Y10500000D01*
X4500000Y13500000D02*
X2000000Y16000000D01*
X18000000Y6500000D02*
X8500000Y6500000D01*
%TO.N,RGB_LED_R*%
X32000000Y19250000D02*
X32000000Y32317100D01*
X39182900Y39500000D02*
X47000000Y39500000D01*
X35000000Y16250000D02*
X32000000Y19250000D01*
X32000000Y32317100D02*
X39182900Y39500000D01*
%TO.N,RGB_LED_G*%
X32401000Y19849000D02*
X34900003Y17349997D01*
X39349000Y39099000D02*
X46401000Y39099000D01*
X46401000Y39099000D02*
X47000000Y38500000D01*
X32401000Y19849000D02*
X32401000Y32151000D01*
X34900003Y17349997D02*
X35000000Y17349997D01*
X32401000Y32151000D02*
X39349000Y39099000D01*
%TO.N,RGB_LED_B*%
X39515100Y38698000D02*
X32802000Y31984900D01*
X32802000Y31984900D02*
X32802000Y20448000D01*
X47000000Y37500000D02*
X45802000Y38698000D01*
X32802000Y20448000D02*
X35000000Y18250000D01*
X45802000Y38698000D02*
X39515100Y38698000D01*
%TO.N,BAR_SDA*%
X17250000Y25000000D02*
X15750000Y26500000D01*
X13500000Y29250000D02*
X13250000Y29250000D01*
X13250000Y29250000D02*
X11051000Y29250000D01*
X11051000Y29250000D02*
X11000000Y29301000D01*
X14250000Y28000000D02*
X14250000Y28500000D01*
X14250000Y28500000D02*
X13500000Y29250000D01*
X15750000Y26500000D02*
X14250000Y28000000D01*
%TO.N,BAR_SCL*%
X8819942Y28400000D02*
X10800000Y28400000D01*
X13269654Y28651000D02*
X13651000Y28269654D01*
X11051000Y28651000D02*
X13269654Y28651000D01*
X13651000Y27349000D02*
X16750000Y24250000D01*
X13651000Y28269654D02*
X13651000Y27349000D01*
X8793864Y28373922D02*
X8819942Y28400000D01*
X10800000Y28400000D02*
X11051000Y28651000D01*
%TO.N,BUZZ*%
X7750000Y24500000D02*
X7750000Y28500000D01*
X6000000Y22750000D02*
X7750000Y24500000D01*
X12079346Y13000000D02*
X9428346Y15651000D01*
X9428346Y15651000D02*
X7094654Y15651000D01*
X17500000Y14500000D02*
X16000000Y13000000D01*
X2960000Y37500000D02*
X3000000Y37500000D01*
X7094654Y15651000D02*
X6000000Y16745654D01*
X3000000Y37500000D02*
X7750000Y32750000D01*
X2750000Y37710000D02*
X2960000Y37500000D01*
X6000000Y16745654D02*
X6000000Y22750000D01*
X7750000Y32750000D02*
X7750000Y28500000D01*
X17500000Y15750000D02*
X17500000Y14500000D01*
X16000000Y13000000D02*
X12079346Y13000000D01*
%TO.N,SWITCH*%
X8169240Y33250000D02*
X11250000Y33250000D01*
X11250000Y33250000D02*
X11750000Y33250000D01*
X7334620Y34084620D02*
X8169240Y33250000D01*
X11750000Y33250000D02*
X13750000Y31250000D01*
%TO.N,MAG_INT*%
X17000000Y26500000D02*
X11350000Y32150000D01*
D27*
X11350000Y32150000D02*
X11350000Y32250000D01*
D25*
%TO.N,PO_SDA*%
X18166100Y6099000D02*
X8333900Y6099000D01*
X20500000Y8432900D02*
X18166100Y6099000D01*
X20500000Y13900000D02*
X20500000Y8432900D01*
X8333900Y6099000D02*
X2432900Y12000000D01*
X2432900Y12000000D02*
X2000000Y12000000D01*
%TO.N,PO_RX*%
X16400000Y10000000D02*
X15999000Y9599000D01*
X13901000Y9599000D02*
X12901000Y10599000D01*
X3849000Y18651000D02*
X2500000Y20000000D01*
X9163246Y10599000D02*
X3849000Y15913246D01*
X2500000Y20000000D02*
X2000000Y20000000D01*
X12901000Y10599000D02*
X9163246Y10599000D01*
X15999000Y9599000D02*
X13901000Y9599000D01*
X3849000Y15913246D02*
X3849000Y18651000D01*
%TO.N,IMU_MOSI*%
X11700000Y21050000D02*
X12750000Y20000000D01*
X11700000Y22200000D02*
X11700000Y21050000D01*
%TO.N,GPIO_69*%
X28826654Y5696000D02*
X22630200Y5696000D01*
X21851000Y1899000D02*
X22500000Y1250000D01*
X21851000Y4916800D02*
X21851000Y1899000D01*
X31100000Y7969346D02*
X28826654Y5696000D01*
X31100000Y12200000D02*
X31100000Y7969346D01*
X22630200Y5696000D02*
X21851000Y4916800D01*
%TO.N,IMU_MISO*%
X9444953Y26507438D02*
X9742562Y26507438D01*
X17000000Y22000000D02*
X17000000Y20750000D01*
X9742562Y26507438D02*
X10000000Y26250000D01*
X12750000Y26250000D02*
X17000000Y22000000D01*
X10000000Y26250000D02*
X12750000Y26250000D01*
%TO.N,GPIO_68*%
X22796300Y5295000D02*
X22500000Y4998700D01*
X32000000Y8302246D02*
X28992754Y5295000D01*
X32000000Y11600000D02*
X32000000Y8302246D01*
X22500000Y4998700D02*
X22500000Y3500000D01*
X22500000Y3500000D02*
X24750000Y1250000D01*
X28992754Y5295000D02*
X22796300Y5295000D01*
%TO.N,Net-(U1-PD6)*%
X28599000Y37599000D02*
X28599000Y30849000D01*
X28599000Y30849000D02*
X28232661Y30482661D01*
X28232661Y30482661D02*
X28232661Y30401900D01*
X28750000Y37750000D02*
X28599000Y37599000D01*
%TO.N,GPIO_70*%
X22464100Y6097000D02*
X20250000Y3882900D01*
X30300000Y12900000D02*
X30300000Y10300000D01*
X20250000Y3882900D02*
X20250000Y1250000D01*
X26097000Y6097000D02*
X22464100Y6097000D01*
X30300000Y10300000D02*
X26097000Y6097000D01*
D24*
%TO.N,/Power Section/Buck_Out*%
X43250000Y6500000D02*
X42250000Y7500000D01*
D28*
X42250000Y7500000D02*
X42500000Y7750000D01*
X42500000Y7750000D02*
X42500000Y11000000D01*
D24*
X48983519Y8420000D02*
X47063519Y6500000D01*
X47063519Y6500000D02*
X43250000Y6500000D01*
D25*
%TO.N,MAG_MISO*%
X17000000Y28500000D02*
X17000000Y34750000D01*
X17000000Y34750000D02*
X14250000Y37500000D01*
X17250000Y28250000D02*
X17000000Y28500000D01*
X14250000Y37500000D02*
X13000000Y37500000D01*
%TO.N,PWR_GOOD*%
X36000000Y14750000D02*
X35000000Y14750000D01*
X46250000Y7500000D02*
X44000000Y9750000D01*
X37500000Y13250000D02*
X36000000Y14750000D01*
X44000000Y10420654D02*
X41170654Y13250000D01*
X44000000Y9750000D02*
X44000000Y10420654D01*
X41170654Y13250000D02*
X37500000Y13250000D01*
%TO.N,USB_VBUS_SENSE*%
X38250000Y23750000D02*
X36000000Y23750000D01*
X45599000Y29849000D02*
X40250000Y24500000D01*
X40250000Y24500000D02*
X39000000Y24500000D01*
X47666215Y29849000D02*
X45599000Y29849000D01*
X52500000Y34682785D02*
X47666215Y29849000D01*
X52500000Y34750000D02*
X52500000Y34682785D01*
X35000000Y24750000D02*
X35000000Y26250000D01*
X39000000Y24500000D02*
X38250000Y23750000D01*
X36000000Y23750000D02*
X35000000Y24750000D01*
%TO.N,RC_RX*%
X17500000Y29250000D02*
X20750000Y26000000D01*
X16000000Y36750000D02*
X17500000Y35250000D01*
X17500000Y35250000D02*
X17500000Y29250000D01*
X16000000Y39500000D02*
X16000000Y36750000D01*
%TO.N,RC_TX*%
X18000000Y35500000D02*
X18000000Y29750000D01*
X21500000Y26250000D02*
X21500000Y25000000D01*
X17000000Y36500000D02*
X18000000Y35500000D01*
X17000000Y39500000D02*
X17000000Y36500000D01*
X18000000Y29750000D02*
X21500000Y26250000D01*
%TO.N,UART5_RX*%
X30250000Y2250000D02*
X29250000Y1250000D01*
X36000000Y5450000D02*
X36000000Y6750000D01*
X36000000Y6750000D02*
X35070526Y7679474D01*
X35070526Y7679474D02*
X35070526Y11890597D01*
%TO.N,UART5_TX*%
X34348636Y12089361D02*
X35049655Y12790380D01*
X29000000Y3250000D02*
X27000000Y1250000D01*
X34573905Y6254139D02*
X34573905Y6485451D01*
X34348636Y6710720D02*
X34348636Y12089361D01*
X34573905Y6485451D02*
X34348636Y6710720D01*
X35049655Y12790380D02*
X35090380Y12790380D01*
%TO.N,ADC_IN3*%
X23500000Y11800000D02*
X24408897Y11800000D01*
X24408897Y11800000D02*
X24830346Y12221449D01*
X25800000Y11437549D02*
X25802000Y11435549D01*
X25369654Y12221449D02*
X25800000Y11791103D01*
X24830346Y12221449D02*
X25369654Y12221449D01*
X25800000Y11791103D02*
X25800000Y11437549D01*
X21399000Y6899000D02*
X15750000Y1250000D01*
X25802000Y7534900D02*
X25166100Y6899000D01*
X25166100Y6899000D02*
X21399000Y6899000D01*
X25802000Y11435549D02*
X25802000Y7534900D01*
%TO.N,ADC_IN2*%
X24090380Y12550000D02*
X24162829Y12622449D01*
X24162829Y12622449D02*
X25535754Y12622449D01*
X18000000Y2500000D02*
X18000000Y1250000D01*
X21998000Y6498000D02*
X18000000Y2500000D01*
X25535754Y12622449D02*
X26203000Y11955203D01*
X25332200Y6498000D02*
X21998000Y6498000D01*
X26203000Y7368800D02*
X25332200Y6498000D01*
X26203000Y11955203D02*
X26203000Y7368800D01*
%TO.N,ADC_IN1*%
X25401000Y7701000D02*
X25000000Y7300000D01*
X25000000Y7300000D02*
X20300000Y7300000D01*
X25100000Y11570449D02*
X25401000Y11269449D01*
X25401000Y11269449D02*
X25401000Y7701000D01*
X17000000Y4000000D02*
X16250000Y4000000D01*
X20300000Y7300000D02*
X17000000Y4000000D01*
X16250000Y4000000D02*
X13500000Y1250000D01*
D26*
%TO.N,Net-(D5-K)*%
X47195000Y26198590D02*
X47195000Y26191410D01*
X47500000Y28750000D02*
X47500000Y26503590D01*
X47500000Y26503590D02*
X47195000Y26198590D01*
X47195000Y26191410D02*
X47000000Y25996410D01*
X47000000Y25996410D02*
X47000000Y23250000D01*
%TD*%
%TA.AperFunction,Conductor*%
%TO.N,GND*%
G36*
X411801Y10817587D02*
G01*
X434952Y10798840D01*
X506845Y10740621D01*
X506847Y10740620D01*
X506851Y10740617D01*
X675512Y10654680D01*
X858355Y10605688D01*
X936979Y10599500D01*
X3063020Y10599501D01*
X3075517Y10600485D01*
X3135011Y10586205D01*
X3153292Y10571795D01*
X7933398Y5791689D01*
X7933400Y5791686D01*
X8026586Y5698500D01*
X8088966Y5662485D01*
X8140714Y5632608D01*
X8268007Y5598500D01*
X8268008Y5598500D01*
X17651678Y5598500D01*
X17709869Y5579593D01*
X17745833Y5530093D01*
X17745833Y5468907D01*
X17721682Y5429496D01*
X16821682Y4529496D01*
X16767165Y4501719D01*
X16751678Y4500500D01*
X16315892Y4500500D01*
X16184107Y4500500D01*
X16154945Y4492686D01*
X16056809Y4466391D01*
X15942690Y4400504D01*
X15942685Y4400500D01*
X15849499Y4307315D01*
X15849500Y4307314D01*
X15849498Y4307312D01*
X13971681Y2429496D01*
X13917164Y2401719D01*
X13901677Y2400500D01*
X12911843Y2400500D01*
X12876374Y2397709D01*
X12876369Y2397708D01*
X12724607Y2353617D01*
X12588584Y2273173D01*
X12476828Y2161417D01*
X12404648Y2039367D01*
X12358752Y1998904D01*
X12297838Y1993146D01*
X12245174Y2024292D01*
X12240551Y2029942D01*
X12149719Y2149721D01*
X12149716Y2149724D01*
X12034728Y2236923D01*
X11900467Y2289868D01*
X11816103Y2300000D01*
X11400001Y2300000D01*
X11400000Y2299999D01*
X11400000Y1349000D01*
X11381093Y1290809D01*
X11331593Y1254845D01*
X11301000Y1250000D01*
X11250001Y1250000D01*
X11250000Y1249999D01*
X11250000Y1199000D01*
X11231093Y1140809D01*
X11181593Y1104845D01*
X11151000Y1100000D01*
X10200002Y1100000D01*
X10200001Y1099999D01*
X10200001Y683896D01*
X10210133Y599532D01*
X10263079Y465271D01*
X10305508Y409320D01*
X10325604Y351529D01*
X10307893Y292963D01*
X10259141Y255992D01*
X10226625Y250500D01*
X4002436Y250500D01*
X3997578Y250619D01*
X3637334Y268317D01*
X3627666Y269270D01*
X3273324Y321832D01*
X3263795Y323727D01*
X2916297Y410770D01*
X2907000Y413590D01*
X2569707Y534276D01*
X2560731Y537994D01*
X2236892Y691158D01*
X2228324Y695738D01*
X1921064Y879903D01*
X1912986Y885300D01*
X1625244Y1098704D01*
X1617734Y1104868D01*
X1352306Y1345437D01*
X1345441Y1352302D01*
X1198221Y1514734D01*
X1104867Y1617735D01*
X1098704Y1625245D01*
X998700Y1760084D01*
X998697Y1760087D01*
X957151Y1816105D01*
X10200001Y1816105D01*
X10200001Y1400001D01*
X10200002Y1400000D01*
X11099999Y1400000D01*
X11100000Y1400001D01*
X11100000Y2299999D01*
X11099999Y2300000D01*
X10683896Y2300000D01*
X10599532Y2289868D01*
X10465271Y2236923D01*
X10350283Y2149724D01*
X10350277Y2149718D01*
X10263078Y2034730D01*
X10210133Y1900469D01*
X10200001Y1816105D01*
X957151Y1816105D01*
X885299Y1912987D01*
X879902Y1921065D01*
X817372Y2025390D01*
X695735Y2228329D01*
X691157Y2236893D01*
X683495Y2253092D01*
X537991Y2560735D01*
X534275Y2569708D01*
X413585Y2907014D01*
X410773Y2916285D01*
X323723Y3263807D01*
X321833Y3273309D01*
X314326Y3323919D01*
X10499500Y3323919D01*
X10499500Y3176082D01*
X10528342Y3031086D01*
X10576392Y2915084D01*
X10584916Y2894505D01*
X10667049Y2771584D01*
X10771584Y2667049D01*
X10894505Y2584916D01*
X11031087Y2528342D01*
X11176082Y2499500D01*
X11176083Y2499500D01*
X11323917Y2499500D01*
X11323918Y2499500D01*
X11468913Y2528342D01*
X11605495Y2584916D01*
X11728416Y2667049D01*
X11832951Y2771584D01*
X11915084Y2894505D01*
X11971658Y3031087D01*
X12000500Y3176082D01*
X12000500Y3323918D01*
X11971658Y3468913D01*
X11915084Y3605495D01*
X11832951Y3728416D01*
X11728416Y3832951D01*
X11605495Y3915084D01*
X11605493Y3915085D01*
X11468914Y3971658D01*
X11323918Y4000500D01*
X11176082Y4000500D01*
X11176081Y4000500D01*
X11031085Y3971658D01*
X10894506Y3915085D01*
X10771585Y3832952D01*
X10667048Y3728415D01*
X10584915Y3605494D01*
X10528342Y3468915D01*
X10499500Y3323919D01*
X314326Y3323919D01*
X269267Y3627681D01*
X268317Y3637321D01*
X250619Y3997578D01*
X250500Y4002436D01*
X250500Y10740649D01*
X269407Y10798840D01*
X318907Y10834804D01*
X380093Y10834804D01*
X411801Y10817587D01*
G37*
%TD.AperFunction*%
%TA.AperFunction,Conductor*%
G36*
X44477904Y45730593D02*
G01*
X44513868Y45681093D01*
X44513868Y45619907D01*
X44510278Y45610513D01*
X44501210Y45589977D01*
X44501209Y45589974D01*
X44498300Y45564899D01*
X44498300Y44971602D01*
X44498301Y44971601D01*
X46901698Y44971601D01*
X46901699Y44971602D01*
X46901699Y45564891D01*
X46901698Y45564893D01*
X46898790Y45589976D01*
X46898789Y45589978D01*
X46889723Y45610511D01*
X46883514Y45671381D01*
X46914269Y45724275D01*
X46970241Y45748989D01*
X46980287Y45749500D01*
X51955830Y45749500D01*
X51997564Y45749500D01*
X52002422Y45749381D01*
X52362679Y45731683D01*
X52372319Y45730733D01*
X52726687Y45678167D01*
X52736193Y45676277D01*
X53083715Y45589227D01*
X53092986Y45586415D01*
X53430296Y45465724D01*
X53439265Y45462009D01*
X53763112Y45308841D01*
X53771675Y45304263D01*
X54078935Y45120098D01*
X54087013Y45114701D01*
X54374755Y44901297D01*
X54382265Y44895133D01*
X54543234Y44749240D01*
X54647698Y44654559D01*
X54654563Y44647694D01*
X54895132Y44382266D01*
X54901296Y44374756D01*
X55114700Y44087014D01*
X55120097Y44078936D01*
X55304262Y43771676D01*
X55308842Y43763108D01*
X55462006Y43439269D01*
X55465724Y43430293D01*
X55586410Y43093000D01*
X55589230Y43083703D01*
X55676273Y42736205D01*
X55678168Y42726676D01*
X55730730Y42372334D01*
X55731683Y42362666D01*
X55749381Y42002423D01*
X55749500Y41997565D01*
X55749500Y4002436D01*
X55749381Y3997578D01*
X55731683Y3637335D01*
X55730730Y3627667D01*
X55678168Y3273325D01*
X55676273Y3263796D01*
X55589230Y2916298D01*
X55586410Y2907001D01*
X55465724Y2569708D01*
X55462006Y2560732D01*
X55308842Y2236893D01*
X55304262Y2228325D01*
X55120097Y1921065D01*
X55114700Y1912987D01*
X54901296Y1625245D01*
X54895132Y1617735D01*
X54654563Y1352307D01*
X54647693Y1345437D01*
X54382265Y1104868D01*
X54374755Y1098704D01*
X54087013Y885300D01*
X54078935Y879903D01*
X53771675Y695738D01*
X53763107Y691158D01*
X53439268Y537994D01*
X53430292Y534276D01*
X53092999Y413590D01*
X53083702Y410770D01*
X52736204Y323727D01*
X52726675Y321832D01*
X52372333Y269270D01*
X52362665Y268317D01*
X52002422Y250619D01*
X51997564Y250500D01*
X32523375Y250500D01*
X32465184Y269407D01*
X32429220Y318907D01*
X32429220Y380093D01*
X32444492Y409320D01*
X32486920Y465271D01*
X32539866Y599532D01*
X32549998Y683896D01*
X32549999Y683900D01*
X32549999Y1099999D01*
X32549998Y1100000D01*
X31599000Y1100000D01*
X31540809Y1118907D01*
X31504845Y1168407D01*
X31500000Y1199000D01*
X31500000Y1249999D01*
X31499999Y1250000D01*
X31449000Y1250000D01*
X31390809Y1268907D01*
X31354845Y1318407D01*
X31350000Y1349000D01*
X31350000Y2299999D01*
X31650000Y2299999D01*
X31650000Y1400001D01*
X31650001Y1400000D01*
X32549998Y1400000D01*
X32549999Y1400001D01*
X32549999Y1816101D01*
X32549998Y1816105D01*
X32539866Y1900469D01*
X32486921Y2034730D01*
X32399722Y2149718D01*
X32399716Y2149724D01*
X32284728Y2236923D01*
X32150467Y2289868D01*
X32066103Y2300000D01*
X31650001Y2300000D01*
X31650000Y2299999D01*
X31350000Y2299999D01*
X31349999Y2300000D01*
X31086505Y2300000D01*
X31028314Y2318907D01*
X30992350Y2368407D01*
X30989407Y2379685D01*
X30985822Y2397709D01*
X30971658Y2468913D01*
X30915084Y2605495D01*
X30832951Y2728416D01*
X30728416Y2832951D01*
X30605495Y2915084D01*
X30605493Y2915085D01*
X30468914Y2971658D01*
X30323918Y3000500D01*
X30176082Y3000500D01*
X30176081Y3000500D01*
X30031085Y2971658D01*
X29894506Y2915086D01*
X29860431Y2892317D01*
X29801542Y2875709D01*
X29744139Y2896887D01*
X29710147Y2947761D01*
X29712549Y3008900D01*
X29713943Y3012463D01*
X29721658Y3031087D01*
X29750500Y3176082D01*
X29750500Y3323918D01*
X29721658Y3468913D01*
X29665084Y3605495D01*
X29582951Y3728416D01*
X29580868Y3730499D01*
X29580257Y3731699D01*
X29579863Y3732179D01*
X29579968Y3732266D01*
X29553093Y3785013D01*
X29562664Y3845445D01*
X29605929Y3888710D01*
X29650874Y3899500D01*
X46957254Y3899500D01*
X46957256Y3899500D01*
X47084550Y3933608D01*
X47084552Y3933610D01*
X47084554Y3933610D01*
X47198673Y3999497D01*
X47198673Y3999498D01*
X47198678Y3999500D01*
X52900500Y9701322D01*
X52916653Y9729300D01*
X52966390Y9815446D01*
X52966390Y9815448D01*
X52966392Y9815450D01*
X53000500Y9942743D01*
X53000500Y10074528D01*
X53000500Y13648126D01*
X53019407Y13706317D01*
X53029490Y13718124D01*
X53082951Y13771584D01*
X53165084Y13894505D01*
X53221658Y14031087D01*
X53250500Y14176082D01*
X53250500Y14323918D01*
X53221658Y14468913D01*
X53165084Y14605495D01*
X53082951Y14728416D01*
X52978416Y14832951D01*
X52855495Y14915084D01*
X52855493Y14915085D01*
X52718914Y14971658D01*
X52573918Y15000500D01*
X52426082Y15000500D01*
X52426081Y15000500D01*
X52281085Y14971658D01*
X52144506Y14915085D01*
X52021585Y14832952D01*
X51917048Y14728415D01*
X51834915Y14605494D01*
X51778342Y14468915D01*
X51749500Y14323919D01*
X51749500Y14176082D01*
X51778342Y14031086D01*
X51828672Y13909579D01*
X51834916Y13894505D01*
X51917049Y13771584D01*
X51970505Y13718128D01*
X51998281Y13663613D01*
X51999500Y13648126D01*
X51999500Y10256958D01*
X51980593Y10198767D01*
X51970504Y10186954D01*
X51669504Y9885954D01*
X51614987Y9858177D01*
X51554555Y9867748D01*
X51511290Y9911013D01*
X51500500Y9955958D01*
X51500500Y11807255D01*
X51497677Y11817792D01*
X51466392Y11934550D01*
X51466390Y11934553D01*
X51466390Y11934555D01*
X51400503Y12048674D01*
X51400499Y12048679D01*
X51307314Y12141865D01*
X51307314Y12141864D01*
X50298678Y13150500D01*
X50298675Y13150502D01*
X50298674Y13150503D01*
X50298673Y13150504D01*
X50184553Y13216391D01*
X50184555Y13216391D01*
X50135163Y13229625D01*
X50057256Y13250500D01*
X50057254Y13250500D01*
X49601875Y13250500D01*
X49543684Y13269407D01*
X49531872Y13279496D01*
X49478417Y13332950D01*
X49478416Y13332951D01*
X49355495Y13415084D01*
X49346251Y13418913D01*
X49218914Y13471658D01*
X49073918Y13500500D01*
X48926082Y13500500D01*
X48926081Y13500500D01*
X48781085Y13471658D01*
X48644506Y13415085D01*
X48521585Y13332952D01*
X48417048Y13228415D01*
X48334915Y13105494D01*
X48278342Y12968915D01*
X48249500Y12823919D01*
X48249500Y12676082D01*
X48278342Y12531086D01*
X48328776Y12409328D01*
X48334916Y12394505D01*
X48417049Y12271584D01*
X48521584Y12167049D01*
X48644505Y12084916D01*
X48781087Y12028342D01*
X48926082Y11999500D01*
X48926083Y11999500D01*
X49073917Y11999500D01*
X49073918Y11999500D01*
X49218913Y12028342D01*
X49355495Y12084916D01*
X49478416Y12167049D01*
X49505144Y12193778D01*
X49531872Y12220504D01*
X49538988Y12224130D01*
X49543684Y12230593D01*
X49565735Y12237758D01*
X49586389Y12248281D01*
X49601875Y12249500D01*
X49743042Y12249500D01*
X49801233Y12230593D01*
X49813046Y12220504D01*
X50470504Y11563046D01*
X50498281Y11508529D01*
X50499500Y11493042D01*
X50499500Y9498323D01*
X50480593Y9440132D01*
X50470504Y9428319D01*
X49801625Y8759441D01*
X49747108Y8731664D01*
X49686676Y8741235D01*
X49649306Y8774443D01*
X49623430Y8813169D01*
X49566470Y8898416D01*
X49461935Y9002951D01*
X49339014Y9085084D01*
X49289740Y9105494D01*
X49202433Y9141658D01*
X49057437Y9170500D01*
X48909601Y9170500D01*
X48909600Y9170500D01*
X48764604Y9141658D01*
X48628025Y9085085D01*
X48505104Y9002952D01*
X48400567Y8898415D01*
X48318434Y8775494D01*
X48261861Y8638915D01*
X48233019Y8493919D01*
X48233019Y8489034D01*
X48214112Y8430843D01*
X48204023Y8419030D01*
X47169504Y7384511D01*
X47114987Y7356734D01*
X47054555Y7366305D01*
X47011290Y7409570D01*
X47000500Y7454515D01*
X47000500Y7573917D01*
X47000500Y7573918D01*
X46971658Y7718913D01*
X46915084Y7855495D01*
X46832951Y7978416D01*
X46728416Y8082951D01*
X46605495Y8165084D01*
X46600203Y8167276D01*
X46468914Y8221658D01*
X46323918Y8250500D01*
X46248322Y8250500D01*
X46190131Y8269407D01*
X46178318Y8279496D01*
X45156928Y9300886D01*
X45129151Y9355403D01*
X45128939Y9371529D01*
X45127368Y9373100D01*
X45372629Y9373100D01*
X45429862Y9340057D01*
X45570767Y9302300D01*
X45716633Y9302300D01*
X45857539Y9340057D01*
X45914768Y9373099D01*
X45643699Y9644168D01*
X45372629Y9373100D01*
X45127368Y9373100D01*
X44750234Y9750235D01*
X44750234Y9750234D01*
X44618906Y9881562D01*
X44729300Y9881562D01*
X44729300Y9831038D01*
X44748635Y9784360D01*
X44784360Y9748635D01*
X44831038Y9729300D01*
X44881562Y9729300D01*
X44928240Y9748635D01*
X44963965Y9784360D01*
X44983300Y9831038D01*
X44983300Y9856300D01*
X45068433Y9856300D01*
X45250000Y9674733D01*
X45431567Y9856300D01*
X45406305Y9881562D01*
X45516700Y9881562D01*
X45516700Y9831038D01*
X45536035Y9784360D01*
X45571760Y9748635D01*
X45618438Y9729300D01*
X45668962Y9729300D01*
X45715640Y9748635D01*
X45751365Y9784360D01*
X45770700Y9831038D01*
X45770700Y9856301D01*
X45855832Y9856301D01*
X46126901Y9585232D01*
X46159943Y9642461D01*
X46197700Y9783368D01*
X46197700Y9929233D01*
X46159943Y10070138D01*
X46126900Y10127371D01*
X45855832Y9856301D01*
X45770700Y9856301D01*
X45770700Y9881562D01*
X45751365Y9928240D01*
X45715640Y9963965D01*
X45668962Y9983300D01*
X45618438Y9983300D01*
X45571760Y9963965D01*
X45536035Y9928240D01*
X45516700Y9881562D01*
X45406305Y9881562D01*
X45250000Y10037867D01*
X45068433Y9856300D01*
X44983300Y9856300D01*
X44983300Y9881562D01*
X44963965Y9928240D01*
X44928240Y9963965D01*
X44881562Y9983300D01*
X44831038Y9983300D01*
X44784360Y9963965D01*
X44748635Y9928240D01*
X44729300Y9881562D01*
X44618906Y9881562D01*
X44529496Y9970972D01*
X44525869Y9978090D01*
X44519407Y9982785D01*
X44512243Y10004834D01*
X44501719Y10025489D01*
X44500500Y10040976D01*
X44500500Y10185225D01*
X44519407Y10243416D01*
X44528468Y10250000D01*
X44674733Y10250000D01*
X44856300Y10068433D01*
X45037867Y10250000D01*
X45462133Y10250000D01*
X45643700Y10068433D01*
X45825267Y10250000D01*
X45643700Y10431567D01*
X45462133Y10250000D01*
X45037867Y10250000D01*
X44856300Y10431567D01*
X44674733Y10250000D01*
X44528468Y10250000D01*
X44530004Y10251116D01*
X44511290Y10269830D01*
X44500500Y10314775D01*
X44500500Y10459026D01*
X44519407Y10517217D01*
X44529497Y10529030D01*
X44644167Y10643700D01*
X44618905Y10668962D01*
X44729300Y10668962D01*
X44729300Y10618438D01*
X44748635Y10571760D01*
X44784360Y10536035D01*
X44831038Y10516700D01*
X44881562Y10516700D01*
X44928240Y10536035D01*
X44963965Y10571760D01*
X44983300Y10618438D01*
X44983300Y10643700D01*
X45068433Y10643700D01*
X45250000Y10462133D01*
X45431567Y10643700D01*
X45406305Y10668962D01*
X45516700Y10668962D01*
X45516700Y10618438D01*
X45536035Y10571760D01*
X45571760Y10536035D01*
X45618438Y10516700D01*
X45668962Y10516700D01*
X45715640Y10536035D01*
X45751365Y10571760D01*
X45770700Y10618438D01*
X45770700Y10643701D01*
X45855832Y10643701D01*
X46126901Y10372632D01*
X46159943Y10429861D01*
X46197700Y10570768D01*
X46197700Y10716633D01*
X46159943Y10857538D01*
X46126900Y10914771D01*
X45855832Y10643701D01*
X45770700Y10643701D01*
X45770700Y10668962D01*
X45751365Y10715640D01*
X45715640Y10751365D01*
X45668962Y10770700D01*
X45618438Y10770700D01*
X45571760Y10751365D01*
X45536035Y10715640D01*
X45516700Y10668962D01*
X45406305Y10668962D01*
X45250000Y10825267D01*
X45068433Y10643700D01*
X44983300Y10643700D01*
X44983300Y10668962D01*
X44963965Y10715640D01*
X44928240Y10751365D01*
X44881562Y10770700D01*
X44831038Y10770700D01*
X44784360Y10751365D01*
X44748635Y10715640D01*
X44729300Y10668962D01*
X44618905Y10668962D01*
X44373097Y10914770D01*
X44366425Y10913892D01*
X44358363Y10906633D01*
X44338471Y10886740D01*
X44335800Y10886318D01*
X44333791Y10884508D01*
X44305820Y10881569D01*
X44278039Y10877169D01*
X44275629Y10878397D01*
X44272941Y10878114D01*
X44223522Y10904946D01*
X44107051Y11021417D01*
X44001565Y11126903D01*
X44585230Y11126903D01*
X44856300Y10855833D01*
X45127368Y11126902D01*
X45127369Y11126902D01*
X45127367Y11126903D01*
X45372630Y11126903D01*
X45643700Y10855833D01*
X45914768Y11126902D01*
X45914769Y11126902D01*
X45857536Y11159945D01*
X45716633Y11197700D01*
X45570767Y11197700D01*
X45429861Y11159944D01*
X45372630Y11126903D01*
X45127367Y11126903D01*
X45070136Y11159945D01*
X44929233Y11197700D01*
X44783367Y11197700D01*
X44642461Y11159944D01*
X44585230Y11126903D01*
X44001565Y11126903D01*
X42795345Y12333123D01*
X41477968Y13650500D01*
X41477965Y13650502D01*
X41477964Y13650503D01*
X41477963Y13650504D01*
X41363843Y13716391D01*
X41363845Y13716391D01*
X41305575Y13732004D01*
X41263594Y13743253D01*
X41212281Y13776576D01*
X41190354Y13833698D01*
X41206190Y13892798D01*
X41226427Y13915418D01*
X41228405Y13917042D01*
X41228416Y13917049D01*
X41332951Y14021584D01*
X41415084Y14144505D01*
X41471658Y14281087D01*
X41500500Y14426082D01*
X41500500Y14475277D01*
X41519407Y14533468D01*
X41561612Y14566740D01*
X41605495Y14584916D01*
X41728416Y14667049D01*
X41832951Y14771584D01*
X41915084Y14894505D01*
X41971658Y15031087D01*
X42000500Y15176082D01*
X42000500Y15323918D01*
X41971658Y15468913D01*
X41915084Y15605495D01*
X41832951Y15728416D01*
X41832948Y15728419D01*
X41832948Y15728420D01*
X41829491Y15731877D01*
X41825867Y15738991D01*
X41819407Y15743684D01*
X41812241Y15765738D01*
X41801718Y15786395D01*
X41800500Y15801875D01*
X41800500Y15973919D01*
X46440186Y15973919D01*
X46440186Y15826082D01*
X46469028Y15681086D01*
X46511833Y15577746D01*
X46525602Y15544505D01*
X46607735Y15421584D01*
X46712270Y15317049D01*
X46835191Y15234916D01*
X46971773Y15178342D01*
X47116768Y15149500D01*
X47116769Y15149500D01*
X47264603Y15149500D01*
X47264604Y15149500D01*
X47409599Y15178342D01*
X47546181Y15234916D01*
X47669102Y15317049D01*
X47773637Y15421584D01*
X47855770Y15544505D01*
X47912344Y15681087D01*
X47941186Y15826082D01*
X47941186Y15973918D01*
X47912344Y16118913D01*
X47855770Y16255495D01*
X47773637Y16378416D01*
X47678134Y16473919D01*
X48149500Y16473919D01*
X48149500Y16326082D01*
X48178342Y16181086D01*
X48234915Y16044507D01*
X48234916Y16044505D01*
X48317049Y15921584D01*
X48421584Y15817049D01*
X48544505Y15734916D01*
X48681087Y15678342D01*
X48826082Y15649500D01*
X48826083Y15649500D01*
X48973917Y15649500D01*
X48973918Y15649500D01*
X49118913Y15678342D01*
X49255495Y15734916D01*
X49378416Y15817049D01*
X49482951Y15921584D01*
X49565084Y16044505D01*
X49621658Y16181087D01*
X49650500Y16326082D01*
X49650500Y16473918D01*
X49621658Y16618913D01*
X49565084Y16755495D01*
X49482951Y16878416D01*
X49378416Y16982951D01*
X49255495Y17065084D01*
X49255493Y17065085D01*
X49118914Y17121658D01*
X48973918Y17150500D01*
X48826082Y17150500D01*
X48826081Y17150500D01*
X48681085Y17121658D01*
X48544506Y17065085D01*
X48421585Y16982952D01*
X48317048Y16878415D01*
X48234915Y16755494D01*
X48178342Y16618915D01*
X48149500Y16473919D01*
X47678134Y16473919D01*
X47669102Y16482951D01*
X47546181Y16565084D01*
X47546179Y16565085D01*
X47409600Y16621658D01*
X47264604Y16650500D01*
X47116768Y16650500D01*
X47116767Y16650500D01*
X46971771Y16621658D01*
X46835192Y16565085D01*
X46712271Y16482952D01*
X46607734Y16378415D01*
X46525601Y16255494D01*
X46469028Y16118915D01*
X46440186Y15973919D01*
X41800500Y15973919D01*
X41800500Y17979400D01*
X42085229Y17979400D01*
X42142462Y17946357D01*
X42283367Y17908600D01*
X42429233Y17908600D01*
X42570139Y17946357D01*
X42627368Y17979399D01*
X42627367Y17979400D01*
X42872629Y17979400D01*
X42929862Y17946357D01*
X43070767Y17908600D01*
X43216633Y17908600D01*
X43357539Y17946357D01*
X43414768Y17979399D01*
X43143699Y18250468D01*
X42872629Y17979400D01*
X42627367Y17979400D01*
X42356299Y18250468D01*
X42085229Y17979400D01*
X41800500Y17979400D01*
X41800500Y18088201D01*
X41819407Y18146392D01*
X41850681Y18169115D01*
X42144167Y18462600D01*
X42118905Y18487862D01*
X42229300Y18487862D01*
X42229300Y18437338D01*
X42248635Y18390660D01*
X42284360Y18354935D01*
X42331038Y18335600D01*
X42381562Y18335600D01*
X42428240Y18354935D01*
X42463965Y18390660D01*
X42483300Y18437338D01*
X42483300Y18462600D01*
X42568433Y18462600D01*
X42750000Y18281033D01*
X42931567Y18462600D01*
X42906305Y18487862D01*
X43016700Y18487862D01*
X43016700Y18437338D01*
X43036035Y18390660D01*
X43071760Y18354935D01*
X43118438Y18335600D01*
X43168962Y18335600D01*
X43215640Y18354935D01*
X43251365Y18390660D01*
X43270700Y18437338D01*
X43270700Y18462601D01*
X43355832Y18462601D01*
X43626901Y18191532D01*
X43659943Y18248761D01*
X43697700Y18389668D01*
X43697700Y18535536D01*
X43692978Y18553157D01*
X43692977Y18553159D01*
X43687414Y18573919D01*
X45199500Y18573919D01*
X45199500Y18426082D01*
X45228342Y18281086D01*
X45271836Y18176082D01*
X45284916Y18144505D01*
X45367049Y18021584D01*
X45471584Y17917049D01*
X45594505Y17834916D01*
X45731087Y17778342D01*
X45876082Y17749500D01*
X45876083Y17749500D01*
X46023917Y17749500D01*
X46023918Y17749500D01*
X46168913Y17778342D01*
X46305495Y17834916D01*
X46428416Y17917049D01*
X46532951Y18021584D01*
X46615084Y18144505D01*
X46671658Y18281087D01*
X46700500Y18426082D01*
X46700500Y18573918D01*
X46671658Y18718913D01*
X46615084Y18855495D01*
X46532951Y18978416D01*
X46428416Y19082951D01*
X46305495Y19165084D01*
X46305493Y19165085D01*
X46168914Y19221658D01*
X46023918Y19250500D01*
X45876082Y19250500D01*
X45876081Y19250500D01*
X45731085Y19221658D01*
X45594506Y19165085D01*
X45471585Y19082952D01*
X45367048Y18978415D01*
X45284915Y18855494D01*
X45228342Y18718915D01*
X45199500Y18573919D01*
X43687414Y18573919D01*
X43659944Y18676438D01*
X43626900Y18733671D01*
X43355832Y18462601D01*
X43270700Y18462601D01*
X43270700Y18487862D01*
X43251365Y18534540D01*
X43215640Y18570265D01*
X43168962Y18589600D01*
X43118438Y18589600D01*
X43071760Y18570265D01*
X43036035Y18534540D01*
X43016700Y18487862D01*
X42906305Y18487862D01*
X42750000Y18644167D01*
X42568433Y18462600D01*
X42483300Y18462600D01*
X42483300Y18487862D01*
X42463965Y18534540D01*
X42428240Y18570265D01*
X42381562Y18589600D01*
X42331038Y18589600D01*
X42284360Y18570265D01*
X42248635Y18534540D01*
X42229300Y18487862D01*
X42118905Y18487862D01*
X41857792Y18748975D01*
X41852259Y18750000D01*
X41837160Y18765912D01*
X41819407Y18778810D01*
X41816536Y18787646D01*
X41810143Y18794383D01*
X41800500Y18837001D01*
X41800500Y18856300D01*
X42174733Y18856300D01*
X42356300Y18674733D01*
X42537867Y18856300D01*
X42962133Y18856300D01*
X43143700Y18674733D01*
X43325267Y18856300D01*
X43143700Y19037867D01*
X42962133Y18856300D01*
X42537867Y18856300D01*
X42356300Y19037867D01*
X42174733Y18856300D01*
X41800500Y18856300D01*
X41800500Y18875601D01*
X41819407Y18933792D01*
X41850677Y18956512D01*
X41861477Y18967311D01*
X41861479Y18967313D01*
X42144167Y19250000D01*
X42118905Y19275262D01*
X42229300Y19275262D01*
X42229300Y19224738D01*
X42248635Y19178060D01*
X42284360Y19142335D01*
X42331038Y19123000D01*
X42381562Y19123000D01*
X42428240Y19142335D01*
X42463965Y19178060D01*
X42483300Y19224738D01*
X42483300Y19250000D01*
X42568433Y19250000D01*
X42750000Y19068433D01*
X42931567Y19250000D01*
X42906305Y19275262D01*
X43016700Y19275262D01*
X43016700Y19224738D01*
X43036035Y19178060D01*
X43071760Y19142335D01*
X43118438Y19123000D01*
X43168962Y19123000D01*
X43215640Y19142335D01*
X43251365Y19178060D01*
X43270700Y19224738D01*
X43270700Y19250001D01*
X43355832Y19250001D01*
X43626901Y18978932D01*
X43659943Y19036161D01*
X43697700Y19177068D01*
X43697700Y19322933D01*
X43659943Y19463838D01*
X43626900Y19521071D01*
X43355832Y19250001D01*
X43270700Y19250001D01*
X43270700Y19275262D01*
X43251365Y19321940D01*
X43215640Y19357665D01*
X43168962Y19377000D01*
X43118438Y19377000D01*
X43071760Y19357665D01*
X43036035Y19321940D01*
X43016700Y19275262D01*
X42906305Y19275262D01*
X42750000Y19431567D01*
X42568433Y19250000D01*
X42483300Y19250000D01*
X42483300Y19275262D01*
X42463965Y19321940D01*
X42428240Y19357665D01*
X42381562Y19377000D01*
X42331038Y19377000D01*
X42284360Y19357665D01*
X42248635Y19321940D01*
X42229300Y19275262D01*
X42118905Y19275262D01*
X41887999Y19506168D01*
X41860222Y19560685D01*
X41869793Y19621117D01*
X41886199Y19643700D01*
X42174733Y19643700D01*
X42356300Y19462133D01*
X42537867Y19643700D01*
X42962133Y19643700D01*
X43143700Y19462133D01*
X43325267Y19643700D01*
X43143700Y19825267D01*
X42962133Y19643700D01*
X42537867Y19643700D01*
X42356300Y19825267D01*
X42174733Y19643700D01*
X41886199Y19643700D01*
X41887993Y19646169D01*
X42236523Y19994699D01*
X42248635Y19965460D01*
X42284360Y19929735D01*
X42331038Y19910400D01*
X42381562Y19910400D01*
X42428240Y19929735D01*
X42463965Y19965460D01*
X42483300Y20012138D01*
X42483300Y20037400D01*
X42568433Y20037400D01*
X42750000Y19855833D01*
X42931567Y20037400D01*
X42906305Y20062662D01*
X43016700Y20062662D01*
X43016700Y20012138D01*
X43036035Y19965460D01*
X43071760Y19929735D01*
X43118438Y19910400D01*
X43168962Y19910400D01*
X43215640Y19929735D01*
X43251365Y19965460D01*
X43270700Y20012138D01*
X43270700Y20037401D01*
X43355832Y20037401D01*
X43626901Y19766332D01*
X43659943Y19823561D01*
X43697700Y19964468D01*
X43697700Y20110333D01*
X43659943Y20251238D01*
X43626900Y20308471D01*
X43355832Y20037401D01*
X43270700Y20037401D01*
X43270700Y20062662D01*
X43251365Y20109340D01*
X43215640Y20145065D01*
X43168962Y20164400D01*
X43118438Y20164400D01*
X43071760Y20145065D01*
X43036035Y20109340D01*
X43016700Y20062662D01*
X42906305Y20062662D01*
X42750000Y20218967D01*
X42568433Y20037400D01*
X42483300Y20037400D01*
X42483300Y20062662D01*
X42463965Y20109340D01*
X42428240Y20145065D01*
X42399000Y20157177D01*
X42747524Y20505701D01*
X42802041Y20533478D01*
X42862473Y20523907D01*
X42887532Y20505701D01*
X43143700Y20249533D01*
X43414768Y20520602D01*
X43414769Y20520602D01*
X43357533Y20553646D01*
X43357532Y20553647D01*
X43269908Y20577126D01*
X43218594Y20610450D01*
X43196668Y20667572D01*
X43212504Y20726672D01*
X43260054Y20765177D01*
X43276212Y20769849D01*
X43318913Y20778342D01*
X43455495Y20834916D01*
X43578416Y20917049D01*
X43682951Y21021584D01*
X43765084Y21144505D01*
X43821658Y21281087D01*
X43850500Y21426082D01*
X43850500Y21573918D01*
X43850500Y21573919D01*
X45749500Y21573919D01*
X45749500Y21426082D01*
X45778342Y21281086D01*
X45834915Y21144507D01*
X45834916Y21144505D01*
X45917049Y21021584D01*
X46021584Y20917049D01*
X46144505Y20834916D01*
X46281087Y20778342D01*
X46426082Y20749500D01*
X46426083Y20749500D01*
X46573917Y20749500D01*
X46573918Y20749500D01*
X46718913Y20778342D01*
X46855495Y20834916D01*
X46978416Y20917049D01*
X47082951Y21021584D01*
X47165084Y21144505D01*
X47221658Y21281087D01*
X47250500Y21426082D01*
X47250500Y21573918D01*
X47221658Y21718913D01*
X47175644Y21830001D01*
X48484164Y21830001D01*
X48484165Y21830000D01*
X49010192Y21830000D01*
X48990444Y21795796D01*
X48970000Y21719496D01*
X48970000Y21640504D01*
X48990444Y21564204D01*
X49010192Y21530000D01*
X48484164Y21530000D01*
X48500742Y21446652D01*
X48561048Y21301060D01*
X48561052Y21301051D01*
X48648599Y21170031D01*
X48648602Y21170027D01*
X48760026Y21058603D01*
X48760030Y21058600D01*
X48891050Y20971053D01*
X48891059Y20971049D01*
X49036650Y20910743D01*
X49191204Y20880001D01*
X49191208Y20880000D01*
X49669999Y20880000D01*
X49670000Y20880001D01*
X49670000Y21380000D01*
X49970000Y21380000D01*
X49970000Y20880001D01*
X49970001Y20880000D01*
X50448792Y20880000D01*
X50448795Y20880001D01*
X50603349Y20910743D01*
X50748940Y20971049D01*
X50748949Y20971053D01*
X50879969Y21058600D01*
X50879973Y21058603D01*
X50991397Y21170027D01*
X50991400Y21170031D01*
X51078947Y21301051D01*
X51078951Y21301060D01*
X51139257Y21446652D01*
X51155836Y21530000D01*
X50629808Y21530000D01*
X50649556Y21564204D01*
X50670000Y21640504D01*
X50670000Y21719496D01*
X50649556Y21795796D01*
X50629808Y21830000D01*
X51155835Y21830000D01*
X51155835Y21830001D01*
X52814164Y21830001D01*
X52814165Y21830000D01*
X53340192Y21830000D01*
X53320444Y21795796D01*
X53300000Y21719496D01*
X53300000Y21640504D01*
X53320444Y21564204D01*
X53340192Y21530000D01*
X52814164Y21530000D01*
X52830742Y21446652D01*
X52891048Y21301060D01*
X52891052Y21301051D01*
X52978599Y21170031D01*
X52978602Y21170027D01*
X53090026Y21058603D01*
X53090030Y21058600D01*
X53221050Y20971053D01*
X53221059Y20971049D01*
X53366650Y20910743D01*
X53521204Y20880001D01*
X53521208Y20880000D01*
X53849999Y20880000D01*
X53850000Y20880001D01*
X53850000Y21380000D01*
X54150000Y21380000D01*
X54150000Y20880001D01*
X54150001Y20880000D01*
X54478792Y20880000D01*
X54478795Y20880001D01*
X54633349Y20910743D01*
X54778940Y20971049D01*
X54778949Y20971053D01*
X54909969Y21058600D01*
X54909973Y21058603D01*
X55021397Y21170027D01*
X55021400Y21170031D01*
X55108947Y21301051D01*
X55108951Y21301060D01*
X55169257Y21446652D01*
X55185836Y21530000D01*
X54659808Y21530000D01*
X54679556Y21564204D01*
X54700000Y21640504D01*
X54700000Y21719496D01*
X54679556Y21795796D01*
X54659808Y21830000D01*
X55185835Y21830000D01*
X55185835Y21830001D01*
X55169257Y21913349D01*
X55108951Y22058941D01*
X55108947Y22058950D01*
X55021400Y22189970D01*
X55021397Y22189974D01*
X54909973Y22301398D01*
X54909969Y22301401D01*
X54778949Y22388948D01*
X54778940Y22388952D01*
X54633349Y22449258D01*
X54478795Y22480000D01*
X54150001Y22480000D01*
X54150000Y22479999D01*
X54150000Y21980000D01*
X53850000Y21980000D01*
X53850000Y22479999D01*
X53849999Y22480000D01*
X53521204Y22480000D01*
X53366650Y22449258D01*
X53221059Y22388952D01*
X53221050Y22388948D01*
X53090030Y22301401D01*
X53090026Y22301398D01*
X52978602Y22189974D01*
X52978599Y22189970D01*
X52891052Y22058950D01*
X52891048Y22058941D01*
X52830742Y21913349D01*
X52814164Y21830001D01*
X51155835Y21830001D01*
X51139257Y21913349D01*
X51078951Y22058941D01*
X51078947Y22058950D01*
X50991400Y22189970D01*
X50991397Y22189974D01*
X50879973Y22301398D01*
X50879969Y22301401D01*
X50748949Y22388948D01*
X50748940Y22388952D01*
X50603348Y22449258D01*
X50603343Y22449259D01*
X50581090Y22453686D01*
X50527707Y22483583D01*
X50502092Y22539149D01*
X50514030Y22599158D01*
X50550904Y22636518D01*
X50642665Y22689495D01*
X50740505Y22787335D01*
X50809688Y22907164D01*
X50845500Y23040817D01*
X50845500Y23179183D01*
X50809688Y23312836D01*
X50740505Y23432665D01*
X50642665Y23530505D01*
X50522836Y23599688D01*
X50389183Y23635500D01*
X50250817Y23635500D01*
X50117164Y23599688D01*
X49997335Y23530505D01*
X49899495Y23432665D01*
X49830312Y23312836D01*
X49794500Y23179183D01*
X49794500Y23040817D01*
X49830312Y22907164D01*
X49899495Y22787335D01*
X49997335Y22689495D01*
X50040220Y22664735D01*
X50081160Y22619267D01*
X50087556Y22558417D01*
X50056963Y22505429D01*
X50001068Y22480542D01*
X49990719Y22480000D01*
X49970001Y22480000D01*
X49970000Y22479999D01*
X49970000Y21980000D01*
X49670000Y21980000D01*
X49670000Y22479999D01*
X49669999Y22480000D01*
X49191204Y22480000D01*
X49036650Y22449258D01*
X48891059Y22388952D01*
X48891050Y22388948D01*
X48760030Y22301401D01*
X48760026Y22301398D01*
X48648602Y22189974D01*
X48648599Y22189970D01*
X48561052Y22058950D01*
X48561048Y22058941D01*
X48500742Y21913349D01*
X48484164Y21830001D01*
X47175644Y21830001D01*
X47165084Y21855495D01*
X47082951Y21978416D01*
X46978416Y22082951D01*
X46855495Y22165084D01*
X46812790Y22182773D01*
X46718914Y22221658D01*
X46573918Y22250500D01*
X46426082Y22250500D01*
X46426081Y22250500D01*
X46281085Y22221658D01*
X46144506Y22165085D01*
X46021585Y22082952D01*
X45917048Y21978415D01*
X45834915Y21855494D01*
X45778342Y21718915D01*
X45749500Y21573919D01*
X43850500Y21573919D01*
X43821658Y21718913D01*
X43765084Y21855495D01*
X43682951Y21978416D01*
X43578416Y22082951D01*
X43455495Y22165084D01*
X43412790Y22182773D01*
X43318914Y22221658D01*
X43173918Y22250500D01*
X43026082Y22250500D01*
X43026081Y22250500D01*
X42881085Y22221658D01*
X42744506Y22165085D01*
X42621585Y22082952D01*
X42517048Y21978415D01*
X42434916Y21855496D01*
X42378341Y21718912D01*
X42378340Y21718909D01*
X42377905Y21716720D01*
X42377376Y21715732D01*
X42376929Y21714256D01*
X42376635Y21714346D01*
X42350813Y21666040D01*
X41141793Y20457018D01*
X41087276Y20429241D01*
X41026844Y20438812D01*
X40983579Y20482077D01*
X40974008Y20542509D01*
X40974691Y20546337D01*
X40976145Y20553646D01*
X41000500Y20676082D01*
X41000500Y20823918D01*
X40971658Y20968913D01*
X40915084Y21105495D01*
X40832951Y21228416D01*
X40728416Y21332951D01*
X40605495Y21415084D01*
X40605493Y21415085D01*
X40468914Y21471658D01*
X40323918Y21500500D01*
X40176082Y21500500D01*
X40176081Y21500500D01*
X40031085Y21471658D01*
X39894506Y21415085D01*
X39771585Y21332952D01*
X39667048Y21228415D01*
X39584915Y21105494D01*
X39528342Y20968915D01*
X39499500Y20823919D01*
X39499500Y20676082D01*
X39528342Y20531086D01*
X39550159Y20478416D01*
X39584916Y20394505D01*
X39667049Y20271584D01*
X39771584Y20167049D01*
X39894505Y20084916D01*
X40031087Y20028342D01*
X40176082Y19999500D01*
X40176083Y19999500D01*
X40323917Y19999500D01*
X40323918Y19999500D01*
X40468913Y20028342D01*
X40593805Y20080075D01*
X40654800Y20084875D01*
X40706969Y20052906D01*
X40730384Y19996378D01*
X40727316Y19962987D01*
X40699500Y19859175D01*
X40699500Y15801875D01*
X40680593Y15743684D01*
X40670509Y15731877D01*
X40667051Y15728420D01*
X40667051Y15728419D01*
X40584915Y15605494D01*
X40528342Y15468915D01*
X40499500Y15323919D01*
X40499500Y15274725D01*
X40480593Y15216534D01*
X40438387Y15183261D01*
X40394503Y15165084D01*
X40394497Y15165081D01*
X40271585Y15082952D01*
X40167048Y14978415D01*
X40084915Y14855494D01*
X40028342Y14718915D01*
X39999500Y14573919D01*
X39999500Y14426082D01*
X40028342Y14281086D01*
X40071836Y14176082D01*
X40084916Y14144505D01*
X40167049Y14021584D01*
X40269131Y13919502D01*
X40296907Y13864987D01*
X40287336Y13804555D01*
X40244071Y13761290D01*
X40199126Y13750500D01*
X37748322Y13750500D01*
X37690131Y13769407D01*
X37678318Y13779496D01*
X37023706Y14434108D01*
X36307314Y15150500D01*
X36307311Y15150502D01*
X36307310Y15150503D01*
X36307309Y15150504D01*
X36193189Y15216391D01*
X36193191Y15216391D01*
X36143799Y15229625D01*
X36065892Y15250500D01*
X36065890Y15250500D01*
X35601875Y15250500D01*
X35543684Y15269407D01*
X35531872Y15279496D01*
X35478417Y15332950D01*
X35478414Y15332952D01*
X35355495Y15415084D01*
X35355494Y15415085D01*
X35351602Y15417685D01*
X35313723Y15465734D01*
X35311321Y15526873D01*
X35345314Y15577746D01*
X35351602Y15582315D01*
X35355495Y15584916D01*
X35478416Y15667049D01*
X35582951Y15771584D01*
X35665084Y15894505D01*
X35721658Y16031087D01*
X35750500Y16176082D01*
X35750500Y16323918D01*
X35721658Y16468913D01*
X35665084Y16605495D01*
X35582951Y16728416D01*
X35581369Y16729998D01*
X35580905Y16730909D01*
X35579863Y16732179D01*
X35580141Y16732408D01*
X35553594Y16784512D01*
X35563165Y16844944D01*
X35581372Y16870003D01*
X35582951Y16871581D01*
X35665084Y16994502D01*
X35721658Y17131084D01*
X35750500Y17276079D01*
X35750500Y17423915D01*
X35721658Y17568910D01*
X35665084Y17705492D01*
X35638686Y17744999D01*
X35622078Y17803885D01*
X35638688Y17855002D01*
X35665084Y17894505D01*
X35721658Y18031087D01*
X35750500Y18176082D01*
X35750500Y18323918D01*
X35721658Y18468913D01*
X35665084Y18605495D01*
X35582951Y18728416D01*
X35487448Y18823919D01*
X37499500Y18823919D01*
X37499500Y18676082D01*
X37528342Y18531086D01*
X37584915Y18394507D01*
X37584916Y18394505D01*
X37667049Y18271584D01*
X37771584Y18167049D01*
X37894505Y18084916D01*
X38031087Y18028342D01*
X38176082Y17999500D01*
X38176083Y17999500D01*
X38323917Y17999500D01*
X38323918Y17999500D01*
X38468913Y18028342D01*
X38605495Y18084916D01*
X38728416Y18167049D01*
X38832951Y18271584D01*
X38915084Y18394505D01*
X38971658Y18531087D01*
X39000500Y18676082D01*
X39000500Y18823918D01*
X38971658Y18968913D01*
X38915084Y19105495D01*
X38832951Y19228416D01*
X38728416Y19332951D01*
X38605495Y19415084D01*
X38600751Y19417049D01*
X38468914Y19471658D01*
X38323918Y19500500D01*
X38176082Y19500500D01*
X38176081Y19500500D01*
X38031085Y19471658D01*
X37894506Y19415085D01*
X37771585Y19332952D01*
X37667048Y19228415D01*
X37584915Y19105494D01*
X37528342Y18968915D01*
X37499500Y18823919D01*
X35487448Y18823919D01*
X35478416Y18832951D01*
X35355495Y18915084D01*
X35288846Y18942691D01*
X35218914Y18971658D01*
X35073918Y19000500D01*
X34998322Y19000500D01*
X34940131Y19019407D01*
X34928318Y19029496D01*
X33331496Y20626318D01*
X33303719Y20680835D01*
X33302500Y20696322D01*
X33302500Y29320235D01*
X33321407Y29378426D01*
X33370907Y29414390D01*
X33403846Y29418634D01*
X33403846Y29419099D01*
X33999996Y29419100D01*
X33999998Y29419101D01*
X33999998Y30521598D01*
X34299998Y30521598D01*
X34299998Y29419101D01*
X34299999Y29419100D01*
X34893288Y29419100D01*
X34893289Y29419101D01*
X34918372Y29422009D01*
X35020975Y29467313D01*
X35100284Y29546622D01*
X35145588Y29649227D01*
X35148497Y29674302D01*
X35148498Y29674304D01*
X35148498Y30521598D01*
X35148497Y30521599D01*
X34299999Y30521599D01*
X34299998Y30521598D01*
X33999998Y30521598D01*
X33999998Y31924098D01*
X34299998Y31924098D01*
X34299998Y30821600D01*
X34299999Y30821599D01*
X35148496Y30821599D01*
X35148497Y30821600D01*
X35148497Y31668889D01*
X35148496Y31668891D01*
X35145588Y31693974D01*
X35100284Y31796577D01*
X35020975Y31875886D01*
X34918370Y31921190D01*
X34893295Y31924099D01*
X34299999Y31924099D01*
X34299998Y31924098D01*
X33999998Y31924098D01*
X33999997Y31924099D01*
X33688019Y31924099D01*
X33629828Y31943006D01*
X33593864Y31992506D01*
X33593864Y32053692D01*
X33618012Y32093099D01*
X34286771Y32761859D01*
X34341286Y32789634D01*
X34401718Y32780063D01*
X34426773Y32761860D01*
X34521584Y32667049D01*
X34644505Y32584916D01*
X34781087Y32528342D01*
X34926082Y32499500D01*
X34926083Y32499500D01*
X35073917Y32499500D01*
X35073918Y32499500D01*
X35218913Y32528342D01*
X35355495Y32584916D01*
X35478416Y32667049D01*
X35515575Y32704208D01*
X35531872Y32720504D01*
X35586389Y32748281D01*
X35601875Y32749500D01*
X36565890Y32749500D01*
X36565892Y32749500D01*
X36693186Y32783608D01*
X36693188Y32783610D01*
X36693190Y32783610D01*
X36807309Y32849497D01*
X36807309Y32849498D01*
X36807314Y32849500D01*
X37699917Y33742103D01*
X37707034Y33745730D01*
X37711730Y33752192D01*
X37733778Y33759356D01*
X37754434Y33769880D01*
X37769921Y33771099D01*
X37904100Y33771099D01*
X37962291Y33752192D01*
X37998255Y33702692D01*
X38003100Y33672099D01*
X38003100Y33236776D01*
X38017951Y33143000D01*
X38017953Y33142995D01*
X38075549Y33029957D01*
X38075551Y33029955D01*
X38080130Y33023652D01*
X38077504Y33021745D01*
X38098781Y32979986D01*
X38100000Y32964499D01*
X38100000Y32254086D01*
X38081093Y32195895D01*
X38047671Y32166777D01*
X38044503Y32165084D01*
X37921585Y32082952D01*
X37817048Y31978415D01*
X37734915Y31855494D01*
X37678342Y31718915D01*
X37649500Y31573919D01*
X37649500Y31426082D01*
X37678342Y31281086D01*
X37721836Y31176082D01*
X37734916Y31144505D01*
X37817049Y31021584D01*
X37921584Y30917049D01*
X38044505Y30834916D01*
X38181087Y30778342D01*
X38326082Y30749500D01*
X38326083Y30749500D01*
X38473917Y30749500D01*
X38473918Y30749500D01*
X38618913Y30778342D01*
X38755495Y30834916D01*
X38878416Y30917049D01*
X38982951Y31021584D01*
X39065084Y31144505D01*
X39121658Y31281087D01*
X39150500Y31426082D01*
X39150500Y31562740D01*
X39169407Y31620931D01*
X39218907Y31656895D01*
X39280093Y31656895D01*
X39304496Y31645058D01*
X39394505Y31584916D01*
X39531087Y31528342D01*
X39676082Y31499500D01*
X39676083Y31499500D01*
X39823917Y31499500D01*
X39823918Y31499500D01*
X39968913Y31528342D01*
X40105495Y31584916D01*
X40228416Y31667049D01*
X40332951Y31771584D01*
X40415084Y31894505D01*
X40471658Y32031087D01*
X40500500Y32176082D01*
X40500500Y32323918D01*
X40471658Y32468913D01*
X40440177Y32544916D01*
X40418109Y32598193D01*
X40410573Y32636078D01*
X40410573Y32777465D01*
X40429480Y32835656D01*
X40478980Y32871620D01*
X40525060Y32875246D01*
X40537744Y32873238D01*
X40572080Y32867799D01*
X41297611Y32867800D01*
X41355802Y32848893D01*
X41369635Y32835062D01*
X41370040Y32835466D01*
X41419893Y32785614D01*
X41465258Y32740249D01*
X41578296Y32682653D01*
X41672081Y32667799D01*
X42150500Y32667800D01*
X42208691Y32648893D01*
X42244655Y32599393D01*
X42249500Y32568800D01*
X42249500Y32426082D01*
X42278342Y32281086D01*
X42326392Y32165084D01*
X42334916Y32144505D01*
X42417049Y32021584D01*
X42521584Y31917049D01*
X42644505Y31834916D01*
X42781087Y31778342D01*
X42926082Y31749500D01*
X42926083Y31749500D01*
X43052677Y31749500D01*
X43110868Y31730593D01*
X43146832Y31681093D01*
X43146832Y31619907D01*
X43122681Y31580496D01*
X37792685Y26250499D01*
X37792684Y26250500D01*
X37699499Y26157314D01*
X37699495Y26157309D01*
X37633608Y26043190D01*
X37627819Y26021585D01*
X37599810Y25917049D01*
X37599499Y25915890D01*
X37599499Y25201874D01*
X37580592Y25143683D01*
X37570503Y25131871D01*
X37517049Y25078417D01*
X37434914Y24955493D01*
X37378341Y24818914D01*
X37349499Y24673918D01*
X37349499Y24526081D01*
X37378341Y24381085D01*
X37379204Y24378242D01*
X37379177Y24376884D01*
X37379290Y24376317D01*
X37379165Y24376293D01*
X37378005Y24317068D01*
X37341078Y24268282D01*
X37284468Y24250500D01*
X36248322Y24250500D01*
X36190131Y24269407D01*
X36178318Y24279496D01*
X35529496Y24928318D01*
X35501719Y24982835D01*
X35500500Y24998322D01*
X35500500Y25648126D01*
X35519407Y25706317D01*
X35529490Y25718124D01*
X35582951Y25771584D01*
X35665084Y25894505D01*
X35721658Y26031087D01*
X35750500Y26176082D01*
X35750500Y26323918D01*
X35721658Y26468913D01*
X35665084Y26605495D01*
X35582951Y26728416D01*
X35478416Y26832951D01*
X35355495Y26915084D01*
X35355493Y26915085D01*
X35218914Y26971658D01*
X35073918Y27000500D01*
X34926082Y27000500D01*
X34926081Y27000500D01*
X34781085Y26971658D01*
X34644506Y26915085D01*
X34521585Y26832952D01*
X34417048Y26728415D01*
X34334915Y26605494D01*
X34278342Y26468915D01*
X34249500Y26323919D01*
X34249500Y26176082D01*
X34278342Y26031086D01*
X34326058Y25915890D01*
X34334916Y25894505D01*
X34417049Y25771584D01*
X34470505Y25718128D01*
X34498281Y25663613D01*
X34499500Y25648126D01*
X34499500Y24815892D01*
X34499500Y24684108D01*
X34510878Y24641645D01*
X34533609Y24556810D01*
X34599496Y24442691D01*
X34599498Y24442689D01*
X34599500Y24442686D01*
X35692686Y23349500D01*
X35692688Y23349499D01*
X35692690Y23349497D01*
X35806810Y23283610D01*
X35806808Y23283610D01*
X35806812Y23283609D01*
X35806814Y23283608D01*
X35934108Y23249500D01*
X35934110Y23249500D01*
X38277145Y23249500D01*
X38335336Y23230593D01*
X38368609Y23188385D01*
X38386782Y23144510D01*
X38386788Y23144498D01*
X38455198Y23042118D01*
X38468918Y23021584D01*
X38573453Y22917049D01*
X38696374Y22834916D01*
X38832956Y22778342D01*
X38977951Y22749500D01*
X38977952Y22749500D01*
X39125786Y22749500D01*
X39125787Y22749500D01*
X39270782Y22778342D01*
X39407364Y22834916D01*
X39530285Y22917049D01*
X39634820Y23021584D01*
X39716953Y23144505D01*
X39773527Y23281087D01*
X39802369Y23426082D01*
X39802369Y23573918D01*
X39773527Y23718913D01*
X39716953Y23855495D01*
X39715092Y23859989D01*
X39716631Y23860627D01*
X39707084Y23914053D01*
X39733780Y23969108D01*
X39787737Y23997956D01*
X39805152Y23999500D01*
X40315890Y23999500D01*
X40315892Y23999500D01*
X40443186Y24033608D01*
X40443188Y24033610D01*
X40443190Y24033610D01*
X40557309Y24099497D01*
X40557309Y24099498D01*
X40557314Y24099500D01*
X45777318Y29319504D01*
X45831835Y29347281D01*
X45847322Y29348500D01*
X46812071Y29348500D01*
X46870262Y29329593D01*
X46906226Y29280093D01*
X46906226Y29218907D01*
X46894386Y29194498D01*
X46834915Y29105495D01*
X46778342Y28968915D01*
X46749500Y28823919D01*
X46749500Y28676082D01*
X46778342Y28531086D01*
X46834914Y28394508D01*
X46837207Y28390219D01*
X46835362Y28389233D01*
X46849500Y28342648D01*
X46849500Y26814044D01*
X46830593Y26755853D01*
X46820504Y26744041D01*
X46689722Y26613259D01*
X46680682Y26599729D01*
X46668371Y26584729D01*
X46494720Y26411077D01*
X46431124Y26315895D01*
X46431123Y26315893D01*
X46423534Y26304537D01*
X46374500Y26186158D01*
X46374499Y26186155D01*
X46374499Y26186154D01*
X46368762Y26157314D01*
X46349500Y26060480D01*
X46349500Y23657353D01*
X46335369Y23610767D01*
X46337208Y23609784D01*
X46334915Y23605496D01*
X46278342Y23468915D01*
X46249500Y23323919D01*
X46249500Y23176082D01*
X46278342Y23031086D01*
X46329672Y22907165D01*
X46334916Y22894505D01*
X46417049Y22771584D01*
X46521584Y22667049D01*
X46644505Y22584916D01*
X46781087Y22528342D01*
X46926082Y22499500D01*
X46926083Y22499500D01*
X47073917Y22499500D01*
X47073918Y22499500D01*
X47218913Y22528342D01*
X47355495Y22584916D01*
X47478416Y22667049D01*
X47582951Y22771584D01*
X47665084Y22894505D01*
X47721658Y23031087D01*
X47750500Y23176082D01*
X47750500Y23323918D01*
X47721658Y23468913D01*
X47672949Y23586507D01*
X47665084Y23605496D01*
X47662792Y23609784D01*
X47664630Y23610767D01*
X47650500Y23657353D01*
X47650500Y25685957D01*
X47651750Y25689808D01*
X47650807Y25693742D01*
X47658331Y25710062D01*
X47669407Y25744148D01*
X47674231Y25750265D01*
X47676753Y25753218D01*
X47700277Y25776741D01*
X47712565Y25795134D01*
X47716364Y25799579D01*
X47717552Y25800308D01*
X47721630Y25805275D01*
X48005268Y26088913D01*
X48005276Y26088921D01*
X48076465Y26195463D01*
X48125501Y26313846D01*
X48125908Y26315893D01*
X48127217Y26322471D01*
X48127217Y26322474D01*
X48133785Y26355495D01*
X48150500Y26439521D01*
X48150500Y28342648D01*
X48164637Y28389233D01*
X48162793Y28390219D01*
X48165080Y28394501D01*
X48165084Y28394505D01*
X48221658Y28531087D01*
X48250500Y28676082D01*
X48250500Y28823918D01*
X48221658Y28968913D01*
X48165084Y29105495D01*
X48082951Y29228416D01*
X48051984Y29259383D01*
X47988201Y29323167D01*
X47960424Y29377683D01*
X47969996Y29438116D01*
X47988195Y29463167D01*
X48437715Y29912687D01*
X48492229Y29940462D01*
X48552661Y29930891D01*
X48590031Y29897683D01*
X48648599Y29810031D01*
X48648602Y29810027D01*
X48760026Y29698603D01*
X48760030Y29698600D01*
X48891050Y29611053D01*
X48891059Y29611049D01*
X49036650Y29550743D01*
X49191204Y29520001D01*
X49191208Y29520000D01*
X49669999Y29520000D01*
X49670000Y29520001D01*
X49670000Y30020000D01*
X49970000Y30020000D01*
X49970000Y29520001D01*
X49970001Y29520000D01*
X49990719Y29520000D01*
X50048910Y29501093D01*
X50084874Y29451593D01*
X50084874Y29390407D01*
X50048910Y29340907D01*
X50040232Y29335272D01*
X49997335Y29310505D01*
X49899495Y29212665D01*
X49830312Y29092836D01*
X49794500Y28959183D01*
X49794500Y28820817D01*
X49830312Y28687164D01*
X49899495Y28567335D01*
X49997335Y28469495D01*
X50117164Y28400312D01*
X50250817Y28364500D01*
X50250819Y28364500D01*
X50389181Y28364500D01*
X50389183Y28364500D01*
X50522836Y28400312D01*
X50642665Y28469495D01*
X50740505Y28567335D01*
X50809688Y28687164D01*
X50845500Y28820817D01*
X50845500Y28959183D01*
X50809688Y29092836D01*
X50740505Y29212665D01*
X50642665Y29310505D01*
X50550904Y29363483D01*
X50509965Y29408951D01*
X50503569Y29469801D01*
X50534162Y29522789D01*
X50581093Y29546316D01*
X50603349Y29550743D01*
X50748940Y29611049D01*
X50748949Y29611053D01*
X50879969Y29698600D01*
X50879973Y29698603D01*
X50991397Y29810027D01*
X50991400Y29810031D01*
X51078947Y29941051D01*
X51078951Y29941060D01*
X51139257Y30086652D01*
X51155836Y30170000D01*
X50629808Y30170000D01*
X50649556Y30204204D01*
X50670000Y30280504D01*
X50670000Y30359496D01*
X50649556Y30435796D01*
X50629808Y30470000D01*
X51155835Y30470000D01*
X51155835Y30470001D01*
X52814164Y30470001D01*
X52814165Y30470000D01*
X53340192Y30470000D01*
X53320444Y30435796D01*
X53300000Y30359496D01*
X53300000Y30280504D01*
X53320444Y30204204D01*
X53340192Y30170000D01*
X52814164Y30170000D01*
X52830742Y30086652D01*
X52891048Y29941060D01*
X52891052Y29941051D01*
X52978599Y29810031D01*
X52978602Y29810027D01*
X53090026Y29698603D01*
X53090030Y29698600D01*
X53221050Y29611053D01*
X53221059Y29611049D01*
X53366650Y29550743D01*
X53521204Y29520001D01*
X53521208Y29520000D01*
X53849999Y29520000D01*
X53850000Y29520001D01*
X53850000Y30020000D01*
X54150000Y30020000D01*
X54150000Y29520001D01*
X54150001Y29520000D01*
X54478792Y29520000D01*
X54478795Y29520001D01*
X54633349Y29550743D01*
X54778940Y29611049D01*
X54778949Y29611053D01*
X54909969Y29698600D01*
X54909973Y29698603D01*
X55021397Y29810027D01*
X55021400Y29810031D01*
X55108947Y29941051D01*
X55108951Y29941060D01*
X55169257Y30086652D01*
X55185836Y30170000D01*
X54659808Y30170000D01*
X54679556Y30204204D01*
X54700000Y30280504D01*
X54700000Y30359496D01*
X54679556Y30435796D01*
X54659808Y30470000D01*
X55185835Y30470000D01*
X55185835Y30470001D01*
X55169257Y30553349D01*
X55108951Y30698941D01*
X55108947Y30698950D01*
X55021400Y30829970D01*
X55021397Y30829974D01*
X54909973Y30941398D01*
X54909969Y30941401D01*
X54778949Y31028948D01*
X54778940Y31028952D01*
X54633349Y31089258D01*
X54478795Y31120000D01*
X54150001Y31120000D01*
X54150000Y31119999D01*
X54150000Y30620000D01*
X53850000Y30620000D01*
X53850000Y31119999D01*
X53849999Y31120000D01*
X53521204Y31120000D01*
X53366650Y31089258D01*
X53221059Y31028952D01*
X53221050Y31028948D01*
X53090030Y30941401D01*
X53090026Y30941398D01*
X52978602Y30829974D01*
X52978599Y30829970D01*
X52891052Y30698950D01*
X52891048Y30698941D01*
X52830742Y30553349D01*
X52814164Y30470001D01*
X51155835Y30470001D01*
X51139257Y30553349D01*
X51078951Y30698941D01*
X51078947Y30698950D01*
X50991400Y30829970D01*
X50991397Y30829974D01*
X50879973Y30941398D01*
X50879969Y30941401D01*
X50748949Y31028948D01*
X50748940Y31028952D01*
X50603349Y31089258D01*
X50448795Y31120000D01*
X49970001Y31120000D01*
X49970000Y31119999D01*
X49970000Y30620000D01*
X49670000Y30620000D01*
X49670000Y31103964D01*
X49672468Y31111562D01*
X49671219Y31119451D01*
X49681743Y31140107D01*
X49688907Y31162155D01*
X49698992Y31173964D01*
X52495532Y33970505D01*
X52550049Y33998281D01*
X52565536Y33999500D01*
X52573917Y33999500D01*
X52573918Y33999500D01*
X52718913Y34028342D01*
X52855495Y34084916D01*
X52978416Y34167049D01*
X53082951Y34271584D01*
X53165084Y34394505D01*
X53221658Y34531087D01*
X53250500Y34676082D01*
X53250500Y34823918D01*
X53221658Y34968913D01*
X53165084Y35105495D01*
X53082951Y35228416D01*
X52978416Y35332951D01*
X52855495Y35415084D01*
X52822010Y35428954D01*
X52718914Y35471658D01*
X52573918Y35500500D01*
X52426082Y35500500D01*
X52426081Y35500500D01*
X52281085Y35471658D01*
X52144506Y35415085D01*
X52021585Y35332952D01*
X51917048Y35228415D01*
X51834915Y35105494D01*
X51778342Y34968915D01*
X51749500Y34823919D01*
X51749500Y34681108D01*
X51730593Y34622917D01*
X51720504Y34611104D01*
X48467503Y31358104D01*
X48412986Y31330327D01*
X48352554Y31339898D01*
X48309289Y31383163D01*
X48298499Y31428109D01*
X48298499Y31521599D01*
X46301502Y31521599D01*
X46301501Y31521598D01*
X46301501Y30674308D01*
X46304409Y30649225D01*
X46349713Y30546622D01*
X46377831Y30518504D01*
X46405608Y30463987D01*
X46396037Y30403555D01*
X46352772Y30360290D01*
X46307827Y30349500D01*
X45664892Y30349500D01*
X45533107Y30349500D01*
X45458186Y30329425D01*
X45458185Y30329426D01*
X45405814Y30315393D01*
X45405810Y30315391D01*
X45291690Y30249504D01*
X45291684Y30249500D01*
X45291685Y30249499D01*
X40071682Y25029496D01*
X40017165Y25001719D01*
X40001678Y25000500D01*
X39487261Y25000500D01*
X39429070Y25019407D01*
X39393106Y25068907D01*
X39393106Y25130093D01*
X39404946Y25154502D01*
X39423597Y25182415D01*
X39465084Y25244505D01*
X39521658Y25381087D01*
X39550500Y25526082D01*
X39550500Y25651578D01*
X39569407Y25709769D01*
X39579490Y25721576D01*
X46132498Y32274584D01*
X46187013Y32302359D01*
X46247445Y32292788D01*
X46290710Y32249523D01*
X46301500Y32204578D01*
X46301500Y31821600D01*
X46301501Y31821599D01*
X47149999Y31821599D01*
X47150000Y31821600D01*
X47150000Y32894499D01*
X47152468Y32902097D01*
X47151219Y32909986D01*
X47158409Y32924098D01*
X47450000Y32924098D01*
X47450000Y31821600D01*
X47450001Y31821599D01*
X48298498Y31821599D01*
X48298499Y31821600D01*
X48298499Y32668889D01*
X48298498Y32668891D01*
X48295590Y32693974D01*
X48250286Y32796577D01*
X48170977Y32875886D01*
X48068372Y32921190D01*
X48043297Y32924099D01*
X47450001Y32924099D01*
X47450000Y32924098D01*
X47158409Y32924098D01*
X47161743Y32930642D01*
X47168907Y32952690D01*
X47178993Y32964499D01*
X47244451Y33029957D01*
X47302047Y33142995D01*
X47316901Y33236780D01*
X47316900Y35306417D01*
X47316900Y35306418D01*
X47316900Y35306421D01*
X47316899Y35306423D01*
X47302048Y35400199D01*
X47302047Y35400201D01*
X47302047Y35400203D01*
X47244451Y35513241D01*
X47154743Y35602949D01*
X47041705Y35660545D01*
X47041706Y35660545D01*
X46947922Y35675399D01*
X46072079Y35675399D01*
X46072077Y35675398D01*
X45975483Y35660101D01*
X45944511Y35660101D01*
X45847923Y35675399D01*
X44972079Y35675399D01*
X44972077Y35675398D01*
X44878301Y35660547D01*
X44878296Y35660545D01*
X44765260Y35602950D01*
X44675549Y35513239D01*
X44632604Y35428954D01*
X44589340Y35385689D01*
X44544395Y35374899D01*
X44460001Y35374899D01*
X44460000Y35374898D01*
X44460000Y34170599D01*
X44455155Y34155688D01*
X44455155Y34140006D01*
X44445938Y34127321D01*
X44441093Y34112408D01*
X44428407Y34103192D01*
X44419191Y34090506D01*
X44404278Y34085661D01*
X44391593Y34076444D01*
X44361000Y34071599D01*
X44259000Y34071599D01*
X44200809Y34090506D01*
X44164845Y34140006D01*
X44160000Y34170599D01*
X44160000Y35374898D01*
X44159999Y35374899D01*
X44075606Y35374899D01*
X44017415Y35393806D01*
X43987397Y35428954D01*
X43944451Y35513239D01*
X43944450Y35513241D01*
X43854742Y35602949D01*
X43741704Y35660545D01*
X43741705Y35660545D01*
X43647922Y35675399D01*
X43647919Y35675399D01*
X43055831Y35675399D01*
X42997640Y35694306D01*
X42964367Y35736514D01*
X42963289Y35739116D01*
X42915084Y35855495D01*
X42832951Y35978416D01*
X42728416Y36082951D01*
X42605495Y36165084D01*
X42601758Y36166632D01*
X42468914Y36221658D01*
X42323918Y36250500D01*
X42176082Y36250500D01*
X42176081Y36250500D01*
X42031085Y36221658D01*
X41890011Y36163223D01*
X41889375Y36164757D01*
X41835918Y36155220D01*
X41780871Y36181932D01*
X41752039Y36235898D01*
X41750500Y36253284D01*
X41750500Y36323917D01*
X41750500Y36323918D01*
X41721658Y36468913D01*
X41665084Y36605495D01*
X41582951Y36728416D01*
X41480868Y36830499D01*
X41453093Y36885013D01*
X41462664Y36945445D01*
X41505929Y36988710D01*
X41550874Y36999500D01*
X41573917Y36999500D01*
X41573918Y36999500D01*
X41718913Y37028342D01*
X41855495Y37084916D01*
X41978416Y37167049D01*
X42082951Y37271584D01*
X42165084Y37394505D01*
X42221658Y37531087D01*
X42250500Y37676082D01*
X42250500Y37823918D01*
X42221658Y37968913D01*
X42183674Y38060615D01*
X42178873Y38121611D01*
X42210843Y38173780D01*
X42267371Y38197195D01*
X42275138Y38197500D01*
X45553678Y38197500D01*
X45611869Y38178593D01*
X45623682Y38168504D01*
X46220504Y37571682D01*
X46248281Y37517165D01*
X46249500Y37501678D01*
X46249500Y37426082D01*
X46278342Y37281086D01*
X46334915Y37144507D01*
X46334916Y37144505D01*
X46417049Y37021584D01*
X46521584Y36917049D01*
X46644505Y36834916D01*
X46781087Y36778342D01*
X46926082Y36749500D01*
X46926083Y36749500D01*
X47073917Y36749500D01*
X47073918Y36749500D01*
X47218913Y36778342D01*
X47355495Y36834916D01*
X47478416Y36917049D01*
X47582951Y37021584D01*
X47665084Y37144505D01*
X47721658Y37281087D01*
X47730178Y37323919D01*
X49249500Y37323919D01*
X49249500Y37176082D01*
X49278342Y37031086D01*
X49312347Y36948992D01*
X49334916Y36894505D01*
X49417049Y36771584D01*
X49521584Y36667049D01*
X49644505Y36584916D01*
X49781087Y36528342D01*
X49926082Y36499500D01*
X49926083Y36499500D01*
X50073917Y36499500D01*
X50073918Y36499500D01*
X50218913Y36528342D01*
X50355495Y36584916D01*
X50478416Y36667049D01*
X50582951Y36771584D01*
X50665084Y36894505D01*
X50721658Y37031087D01*
X50750500Y37176082D01*
X50750500Y37323918D01*
X50721658Y37468913D01*
X50665084Y37605495D01*
X50582951Y37728416D01*
X50478416Y37832951D01*
X50355495Y37915084D01*
X50322109Y37928913D01*
X50218914Y37971658D01*
X50073918Y38000500D01*
X49926082Y38000500D01*
X49926081Y38000500D01*
X49781085Y37971658D01*
X49644506Y37915085D01*
X49521585Y37832952D01*
X49417048Y37728415D01*
X49334915Y37605494D01*
X49278342Y37468915D01*
X49249500Y37323919D01*
X47730178Y37323919D01*
X47750500Y37426082D01*
X47750500Y37573918D01*
X47721658Y37718913D01*
X47665084Y37855495D01*
X47605278Y37945001D01*
X47588670Y38003886D01*
X47605277Y38054999D01*
X47665084Y38144505D01*
X47721658Y38281087D01*
X47750500Y38426082D01*
X47750500Y38573918D01*
X47721658Y38718913D01*
X47665084Y38855495D01*
X47605278Y38945001D01*
X47588670Y39003886D01*
X47605277Y39054999D01*
X47665084Y39144505D01*
X47721658Y39281087D01*
X47750500Y39426082D01*
X47750500Y39573918D01*
X47721658Y39718913D01*
X47665084Y39855495D01*
X47582951Y39978416D01*
X47478416Y40082951D01*
X47355495Y40165084D01*
X47355493Y40165085D01*
X47218914Y40221658D01*
X47073918Y40250500D01*
X46926082Y40250500D01*
X46926081Y40250500D01*
X46881812Y40241694D01*
X46781087Y40221658D01*
X46768372Y40216391D01*
X46765576Y40215233D01*
X46704579Y40210434D01*
X46652410Y40242404D01*
X46628997Y40298933D01*
X46630593Y40326010D01*
X46650500Y40426082D01*
X46650500Y40573918D01*
X46621658Y40718913D01*
X46565084Y40855495D01*
X46482951Y40978416D01*
X46378416Y41082951D01*
X46255495Y41165084D01*
X46255493Y41165085D01*
X46118914Y41221658D01*
X45973918Y41250500D01*
X45826082Y41250500D01*
X45826081Y41250500D01*
X45681085Y41221658D01*
X45544506Y41165085D01*
X45421585Y41082952D01*
X45317048Y40978415D01*
X45234915Y40855494D01*
X45178342Y40718915D01*
X45149500Y40573919D01*
X45149500Y40426082D01*
X45178342Y40281086D01*
X45236777Y40140011D01*
X45235237Y40139374D01*
X45244785Y40085947D01*
X45218089Y40030892D01*
X45164132Y40002044D01*
X45146717Y40000500D01*
X39117005Y40000500D01*
X39052785Y39983293D01*
X38991684Y39986496D01*
X38944135Y40025002D01*
X38935700Y40041035D01*
X38917997Y40083774D01*
X38903484Y40105494D01*
X38835864Y40206695D01*
X38731329Y40311230D01*
X38608408Y40393363D01*
X38608406Y40393364D01*
X38471827Y40449937D01*
X38326831Y40478779D01*
X38178995Y40478779D01*
X38178994Y40478779D01*
X38033998Y40449937D01*
X37897419Y40393364D01*
X37774498Y40311231D01*
X37742762Y40279495D01*
X37688245Y40251719D01*
X37672759Y40250500D01*
X32315892Y40250500D01*
X32184107Y40250500D01*
X32106200Y40229626D01*
X32056809Y40216391D01*
X31942690Y40150504D01*
X31321682Y39529496D01*
X31267165Y39501719D01*
X31251678Y39500500D01*
X30836207Y39500500D01*
X30778016Y39519407D01*
X30742052Y39568907D01*
X30739109Y39618814D01*
X30748703Y39667049D01*
X30750500Y39676082D01*
X30750500Y39823918D01*
X30721658Y39968913D01*
X30665084Y40105495D01*
X30582951Y40228416D01*
X30478416Y40332951D01*
X30355495Y40415084D01*
X30355493Y40415085D01*
X30218914Y40471658D01*
X30218904Y40471661D01*
X30141109Y40487136D01*
X30087725Y40517033D01*
X30062110Y40572598D01*
X30074048Y40632608D01*
X30080319Y40641795D01*
X30080249Y40641841D01*
X30082949Y40645883D01*
X30082951Y40645884D01*
X30165084Y40768805D01*
X30221658Y40905387D01*
X30250500Y41050382D01*
X30250500Y41198218D01*
X30221658Y41343213D01*
X30165084Y41479795D01*
X30082951Y41602716D01*
X29978416Y41707251D01*
X29855495Y41789384D01*
X29855493Y41789385D01*
X29718914Y41845958D01*
X29573918Y41874800D01*
X29426082Y41874800D01*
X29426081Y41874800D01*
X29281085Y41845958D01*
X29144506Y41789385D01*
X29021585Y41707252D01*
X28917048Y41602715D01*
X28834915Y41479794D01*
X28778342Y41343215D01*
X28749500Y41198219D01*
X28749500Y41050382D01*
X28778342Y40905386D01*
X28795852Y40863114D01*
X28834916Y40768805D01*
X28917049Y40645884D01*
X29021584Y40541349D01*
X29144505Y40459216D01*
X29281087Y40402642D01*
X29358889Y40387166D01*
X29412273Y40357269D01*
X29437889Y40301704D01*
X29425952Y40241694D01*
X29419681Y40232506D01*
X29419751Y40232459D01*
X29417050Y40228418D01*
X29417049Y40228416D01*
X29405034Y40210434D01*
X29334915Y40105494D01*
X29278342Y39968915D01*
X29249500Y39823919D01*
X29249500Y39676079D01*
X29260891Y39618814D01*
X29253699Y39558053D01*
X29212166Y39513123D01*
X29163793Y39500500D01*
X24586207Y39500500D01*
X24528016Y39519407D01*
X24492052Y39568907D01*
X24489109Y39618814D01*
X24498703Y39667049D01*
X24500500Y39676082D01*
X24500500Y39823918D01*
X24471658Y39968913D01*
X24415084Y40105495D01*
X24332951Y40228416D01*
X24228416Y40332951D01*
X24105495Y40415084D01*
X24105493Y40415085D01*
X23968914Y40471658D01*
X23823918Y40500500D01*
X23676082Y40500500D01*
X23676081Y40500500D01*
X23531085Y40471658D01*
X23394506Y40415085D01*
X23271585Y40332952D01*
X23167048Y40228415D01*
X23084915Y40105494D01*
X23028342Y39968915D01*
X22999500Y39823919D01*
X22999500Y39676079D01*
X23010891Y39618814D01*
X23003699Y39558053D01*
X22962166Y39513123D01*
X22913793Y39500500D01*
X22050874Y39500500D01*
X21992683Y39519407D01*
X21956719Y39568907D01*
X21956719Y39630093D01*
X21980868Y39669502D01*
X22082951Y39771584D01*
X22165084Y39894505D01*
X22221658Y40031087D01*
X22250500Y40176082D01*
X22250500Y40323918D01*
X22224527Y40454490D01*
X22231717Y40515250D01*
X22251617Y40543805D01*
X24928318Y43220504D01*
X24982835Y43248281D01*
X24998322Y43249500D01*
X39001678Y43249500D01*
X39059869Y43230593D01*
X39071682Y43220504D01*
X39470504Y42821682D01*
X39498281Y42767165D01*
X39499500Y42751678D01*
X39499500Y42676082D01*
X39528342Y42531086D01*
X39575578Y42417049D01*
X39584916Y42394505D01*
X39667049Y42271584D01*
X39771584Y42167049D01*
X39894505Y42084916D01*
X40031087Y42028342D01*
X40176082Y41999500D01*
X40176083Y41999500D01*
X40323917Y41999500D01*
X40323918Y41999500D01*
X40468913Y42028342D01*
X40605495Y42084916D01*
X40728416Y42167049D01*
X40832951Y42271584D01*
X40915084Y42394505D01*
X40971658Y42531087D01*
X41000500Y42676082D01*
X41000500Y42823918D01*
X40971658Y42968913D01*
X40963965Y42987484D01*
X40959165Y43048479D01*
X40991135Y43100648D01*
X41047663Y43124063D01*
X41107157Y43109779D01*
X41110424Y43107688D01*
X41144505Y43084916D01*
X41281087Y43028342D01*
X41426082Y42999500D01*
X41426083Y42999500D01*
X41573917Y42999500D01*
X41573918Y42999500D01*
X41718913Y43028342D01*
X41855495Y43084916D01*
X41978416Y43167049D01*
X42082951Y43271584D01*
X42165084Y43394505D01*
X42221658Y43531087D01*
X42250500Y43676082D01*
X42250500Y43823918D01*
X42221658Y43968913D01*
X42165084Y44105495D01*
X42082951Y44228416D01*
X41978416Y44332951D01*
X41855495Y44415084D01*
X41855493Y44415085D01*
X41718914Y44471658D01*
X41573918Y44500500D01*
X41498322Y44500500D01*
X41490724Y44502969D01*
X41482835Y44501719D01*
X41462179Y44512244D01*
X41440131Y44519407D01*
X41428318Y44529496D01*
X41331194Y44626620D01*
X41308276Y44671600D01*
X44498301Y44671600D01*
X44498301Y44078310D01*
X44501209Y44053227D01*
X44546513Y43950624D01*
X44625822Y43871315D01*
X44728427Y43826011D01*
X44753503Y43823102D01*
X45549998Y43823102D01*
X45550000Y43823103D01*
X45550000Y44671600D01*
X45850000Y44671600D01*
X45850000Y43823103D01*
X45850001Y43823102D01*
X46646490Y43823102D01*
X46646491Y43823103D01*
X46671574Y43826011D01*
X46774177Y43871315D01*
X46853486Y43950624D01*
X46898790Y44053229D01*
X46901699Y44078304D01*
X46901700Y44078306D01*
X46901700Y44671600D01*
X46901699Y44671601D01*
X45850001Y44671601D01*
X45850000Y44671600D01*
X45550000Y44671600D01*
X45549999Y44671601D01*
X44498302Y44671601D01*
X44498301Y44671600D01*
X41308276Y44671600D01*
X41303417Y44681137D01*
X41302198Y44696624D01*
X41302198Y45551623D01*
X41288991Y45635014D01*
X41298563Y45695446D01*
X41341828Y45738710D01*
X41386772Y45749500D01*
X44419713Y45749500D01*
X44477904Y45730593D01*
G37*
%TD.AperFunction*%
%TA.AperFunction,Conductor*%
G36*
X24915412Y3894655D02*
G01*
X24931093Y3894655D01*
X24943778Y3885439D01*
X24958691Y3880593D01*
X24967907Y3867908D01*
X24980593Y3858691D01*
X24985438Y3843779D01*
X24994655Y3831093D01*
X24999500Y3800500D01*
X24999500Y3676082D01*
X25028342Y3531086D01*
X25049257Y3480593D01*
X25084916Y3394505D01*
X25167049Y3271584D01*
X25271584Y3167049D01*
X25394505Y3084916D01*
X25531087Y3028342D01*
X25676082Y2999500D01*
X25676083Y2999500D01*
X25823917Y2999500D01*
X25823918Y2999500D01*
X25968913Y3028342D01*
X26105495Y3084916D01*
X26228416Y3167049D01*
X26332951Y3271584D01*
X26415084Y3394505D01*
X26471658Y3531087D01*
X26500500Y3676082D01*
X26500500Y3800500D01*
X26519407Y3858691D01*
X26568907Y3894655D01*
X26599500Y3899500D01*
X28349126Y3899500D01*
X28407317Y3880593D01*
X28443281Y3831093D01*
X28443281Y3769907D01*
X28419131Y3730499D01*
X28417049Y3728416D01*
X28417048Y3728415D01*
X28334915Y3605494D01*
X28278342Y3468915D01*
X28249500Y3323919D01*
X28249500Y3248323D01*
X28230593Y3190132D01*
X28220504Y3178319D01*
X27471680Y2429496D01*
X27417163Y2401719D01*
X27401676Y2400500D01*
X26411843Y2400500D01*
X26376374Y2397709D01*
X26376369Y2397708D01*
X26224607Y2353617D01*
X26088584Y2273173D01*
X25976829Y2161418D01*
X25960213Y2133321D01*
X25914317Y2092859D01*
X25853403Y2087101D01*
X25800738Y2118248D01*
X25789787Y2133321D01*
X25773170Y2161418D01*
X25773169Y2161420D01*
X25661419Y2273170D01*
X25661416Y2273172D01*
X25661415Y2273173D01*
X25525391Y2353617D01*
X25525390Y2353618D01*
X25525389Y2353618D01*
X25449507Y2375664D01*
X25373624Y2397710D01*
X25349447Y2399612D01*
X25338162Y2400500D01*
X25338157Y2400500D01*
X24348322Y2400500D01*
X24290131Y2419407D01*
X24278318Y2429496D01*
X23821581Y2886233D01*
X23793804Y2940750D01*
X23803375Y3001182D01*
X23846640Y3044447D01*
X23872266Y3053334D01*
X23932033Y3065222D01*
X24068615Y3121796D01*
X24191536Y3203929D01*
X24296071Y3308464D01*
X24378204Y3431385D01*
X24434778Y3567967D01*
X24463620Y3712962D01*
X24463620Y3788558D01*
X24482527Y3846749D01*
X24492616Y3858562D01*
X24504558Y3870504D01*
X24559075Y3898281D01*
X24574562Y3899500D01*
X24900500Y3899500D01*
X24915412Y3894655D01*
G37*
%TD.AperFunction*%
%TA.AperFunction,Conductor*%
G36*
X21296445Y4124789D02*
G01*
X21339710Y4081524D01*
X21350500Y4036579D01*
X21350500Y2323096D01*
X21331593Y2264905D01*
X21282093Y2228941D01*
X21220907Y2228941D01*
X21181498Y2253091D01*
X21161419Y2273170D01*
X21161416Y2273172D01*
X21161415Y2273173D01*
X21025391Y2353617D01*
X21025390Y2353618D01*
X21025389Y2353618D01*
X20873626Y2397709D01*
X20841731Y2400220D01*
X20785204Y2423634D01*
X20753235Y2475803D01*
X20750500Y2498914D01*
X20750500Y3634579D01*
X20769407Y3692770D01*
X20779496Y3704583D01*
X21181496Y4106583D01*
X21236013Y4134360D01*
X21296445Y4124789D01*
G37*
%TD.AperFunction*%
%TA.AperFunction,Conductor*%
G36*
X34367342Y13392625D02*
G01*
X34389381Y13389578D01*
X34395844Y13383364D01*
X34404373Y13380593D01*
X34433489Y13347174D01*
X34434913Y13344510D01*
X34434915Y13344507D01*
X34434916Y13344505D01*
X34459715Y13307391D01*
X34476323Y13248503D01*
X34459716Y13197390D01*
X34425294Y13145872D01*
X34368722Y13009295D01*
X34339880Y12864299D01*
X34339880Y12829427D01*
X34320973Y12771236D01*
X34310884Y12759423D01*
X34041322Y12489861D01*
X34041321Y12489862D01*
X33948136Y12396676D01*
X33948132Y12396671D01*
X33882245Y12282552D01*
X33872478Y12246099D01*
X33850881Y12165495D01*
X33848136Y12155252D01*
X33848136Y6644828D01*
X33869000Y6566958D01*
X33865797Y6505856D01*
X33864839Y6503454D01*
X33852247Y6473051D01*
X33823405Y6328058D01*
X33823405Y6180221D01*
X33852247Y6035225D01*
X33872216Y5987016D01*
X33908821Y5898644D01*
X33990954Y5775723D01*
X34095489Y5671188D01*
X34218410Y5589055D01*
X34354992Y5532481D01*
X34499987Y5503639D01*
X34499988Y5503639D01*
X34647822Y5503639D01*
X34647823Y5503639D01*
X34792818Y5532481D01*
X34929400Y5589055D01*
X35052321Y5671188D01*
X35104258Y5723126D01*
X35158772Y5750902D01*
X35219204Y5741331D01*
X35262469Y5698067D01*
X35272041Y5637635D01*
X35271358Y5633807D01*
X35249500Y5523921D01*
X35249500Y5399500D01*
X35230593Y5341309D01*
X35181093Y5305345D01*
X35150500Y5300500D01*
X29945076Y5300500D01*
X29886885Y5319407D01*
X29850921Y5368907D01*
X29850921Y5430093D01*
X29875072Y5469504D01*
X30465059Y6059491D01*
X32400500Y7994932D01*
X32403138Y7999501D01*
X32466390Y8109056D01*
X32466390Y8109058D01*
X32466392Y8109060D01*
X32500500Y8236353D01*
X32500500Y8368138D01*
X32500500Y10998126D01*
X32519407Y11056317D01*
X32529490Y11068124D01*
X32582951Y11121584D01*
X32665084Y11244505D01*
X32721658Y11381087D01*
X32750500Y11526082D01*
X32750500Y11673918D01*
X32721658Y11818913D01*
X32665084Y11955495D01*
X32582951Y12078416D01*
X32478416Y12182951D01*
X32355495Y12265084D01*
X32355493Y12265085D01*
X32218914Y12321658D01*
X32073918Y12350500D01*
X31926082Y12350500D01*
X31926074Y12350500D01*
X31925677Y12350461D01*
X31925499Y12350500D01*
X31921218Y12350500D01*
X31921218Y12351441D01*
X31865915Y12363584D01*
X31825281Y12409328D01*
X31822451Y12416997D01*
X31821658Y12418911D01*
X31821658Y12418913D01*
X31765084Y12555495D01*
X31682951Y12678416D01*
X31578416Y12782951D01*
X31455495Y12865084D01*
X31428980Y12876067D01*
X31318914Y12921658D01*
X31173918Y12950500D01*
X31136405Y12950500D01*
X31078214Y12969407D01*
X31042250Y13018907D01*
X31039307Y13030186D01*
X31021658Y13118913D01*
X30995355Y13182415D01*
X30963223Y13259989D01*
X30964762Y13260627D01*
X30955215Y13314053D01*
X30981911Y13369108D01*
X31035868Y13397956D01*
X31053283Y13399500D01*
X34346182Y13399500D01*
X34367342Y13392625D01*
G37*
%TD.AperFunction*%
%TA.AperFunction,Conductor*%
G36*
X35942039Y14096277D02*
G01*
X35960316Y14081870D01*
X37099500Y12942686D01*
X37099499Y12942686D01*
X37147242Y12894944D01*
X37192686Y12849500D01*
X37265754Y12807314D01*
X37306814Y12783608D01*
X37434107Y12749500D01*
X37434108Y12749500D01*
X40922332Y12749500D01*
X40980523Y12730593D01*
X40992336Y12720504D01*
X42005732Y11707108D01*
X42033509Y11652591D01*
X42023938Y11592159D01*
X42005732Y11567101D01*
X41917050Y11478418D01*
X41834915Y11355494D01*
X41778342Y11218915D01*
X41749500Y11073919D01*
X41749500Y10926082D01*
X41778342Y10781086D01*
X41826392Y10665084D01*
X41834916Y10644505D01*
X41917049Y10521584D01*
X41945505Y10493128D01*
X41973281Y10438613D01*
X41974500Y10423126D01*
X41974500Y8264369D01*
X41955593Y8206178D01*
X41913386Y8172905D01*
X41894504Y8165084D01*
X41771585Y8082952D01*
X41667048Y7978415D01*
X41584915Y7855494D01*
X41528342Y7718915D01*
X41499500Y7573919D01*
X41499500Y7426082D01*
X41528342Y7281086D01*
X41580121Y7156080D01*
X41584916Y7144505D01*
X41667049Y7021584D01*
X41771584Y6917049D01*
X41894505Y6834916D01*
X42031087Y6778342D01*
X42176082Y6749500D01*
X42180967Y6749500D01*
X42239158Y6730593D01*
X42250970Y6720504D01*
X42756069Y6215407D01*
X42911986Y6059490D01*
X42925176Y6051875D01*
X42961146Y6031107D01*
X42961147Y6031107D01*
X43037515Y5987016D01*
X43177525Y5949500D01*
X43177526Y5949500D01*
X43322475Y5949500D01*
X46752678Y5949500D01*
X46810869Y5930593D01*
X46846833Y5881093D01*
X46846833Y5819907D01*
X46822682Y5780496D01*
X46371682Y5329496D01*
X46317165Y5301719D01*
X46301678Y5300500D01*
X36849500Y5300500D01*
X36791309Y5319407D01*
X36755345Y5368907D01*
X36750500Y5399500D01*
X36750500Y5523917D01*
X36750500Y5523918D01*
X36721658Y5668913D01*
X36665084Y5805495D01*
X36582951Y5928416D01*
X36561867Y5949500D01*
X36529496Y5981872D01*
X36501719Y6036389D01*
X36500500Y6051875D01*
X36500500Y6815891D01*
X36500500Y6815892D01*
X36466392Y6943186D01*
X36466390Y6943189D01*
X36466390Y6943191D01*
X36400503Y7057310D01*
X36400499Y7057315D01*
X36307314Y7150501D01*
X36307314Y7150500D01*
X35600022Y7857792D01*
X35572245Y7912309D01*
X35571026Y7927796D01*
X35571026Y8823919D01*
X36249500Y8823919D01*
X36249500Y8676082D01*
X36278342Y8531086D01*
X36332640Y8400000D01*
X36334916Y8394505D01*
X36417049Y8271584D01*
X36521584Y8167049D01*
X36644505Y8084916D01*
X36781087Y8028342D01*
X36926082Y7999500D01*
X36926083Y7999500D01*
X37073917Y7999500D01*
X37073918Y7999500D01*
X37218913Y8028342D01*
X37355495Y8084916D01*
X37478416Y8167049D01*
X37582951Y8271584D01*
X37665084Y8394505D01*
X37721658Y8531087D01*
X37750500Y8676082D01*
X37750500Y8823918D01*
X37721658Y8968913D01*
X37665084Y9105495D01*
X37582951Y9228416D01*
X37478416Y9332951D01*
X37355495Y9415084D01*
X37350751Y9417049D01*
X37218914Y9471658D01*
X37073918Y9500500D01*
X36926082Y9500500D01*
X36926081Y9500500D01*
X36781085Y9471658D01*
X36644506Y9415085D01*
X36521585Y9332952D01*
X36417048Y9228415D01*
X36334915Y9105494D01*
X36278342Y8968915D01*
X36249500Y8823919D01*
X35571026Y8823919D01*
X35571026Y10150618D01*
X35589933Y10208809D01*
X35639433Y10244773D01*
X35671218Y10248211D01*
X35671218Y10249500D01*
X35823917Y10249500D01*
X35823918Y10249500D01*
X35968913Y10278342D01*
X36078946Y10323919D01*
X37249500Y10323919D01*
X37249500Y10176082D01*
X37278342Y10031086D01*
X37321836Y9926082D01*
X37334916Y9894505D01*
X37417049Y9771584D01*
X37521584Y9667049D01*
X37644505Y9584916D01*
X37781087Y9528342D01*
X37926082Y9499500D01*
X37926083Y9499500D01*
X38073917Y9499500D01*
X38073918Y9499500D01*
X38218913Y9528342D01*
X38355495Y9584916D01*
X38445000Y9644722D01*
X38503886Y9661330D01*
X38554998Y9644723D01*
X38644505Y9584916D01*
X38781087Y9528342D01*
X38926082Y9499500D01*
X38926083Y9499500D01*
X39073917Y9499500D01*
X39073918Y9499500D01*
X39218913Y9528342D01*
X39355495Y9584916D01*
X39478416Y9667049D01*
X39582951Y9771584D01*
X39665084Y9894505D01*
X39721658Y10031087D01*
X39750500Y10176082D01*
X39750500Y10323918D01*
X39721658Y10468913D01*
X39665084Y10605495D01*
X39582951Y10728416D01*
X39478416Y10832951D01*
X39355495Y10915084D01*
X39355493Y10915085D01*
X39218914Y10971658D01*
X39073918Y11000500D01*
X38926082Y11000500D01*
X38926081Y11000500D01*
X38781085Y10971658D01*
X38644505Y10915085D01*
X38589175Y10878114D01*
X38555830Y10855833D01*
X38555002Y10855280D01*
X38496113Y10838671D01*
X38444998Y10855280D01*
X38444170Y10855833D01*
X38401255Y10884508D01*
X38355494Y10915085D01*
X38218914Y10971658D01*
X38073918Y11000500D01*
X37926082Y11000500D01*
X37926081Y11000500D01*
X37781085Y10971658D01*
X37644506Y10915085D01*
X37521585Y10832952D01*
X37417048Y10728415D01*
X37334915Y10605494D01*
X37278342Y10468915D01*
X37249500Y10323919D01*
X36078946Y10323919D01*
X36105495Y10334916D01*
X36228416Y10417049D01*
X36332951Y10521584D01*
X36415084Y10644505D01*
X36471658Y10781087D01*
X36500500Y10926082D01*
X36500500Y11073918D01*
X36471658Y11218913D01*
X36415084Y11355495D01*
X36332951Y11478416D01*
X36228416Y11582951D01*
X36105495Y11665084D01*
X36105493Y11665085D01*
X35968914Y11721658D01*
X35968904Y11721661D01*
X35900711Y11735226D01*
X35847327Y11765123D01*
X35821712Y11820688D01*
X35821026Y11832323D01*
X35821026Y11964514D01*
X35821026Y11964515D01*
X35792184Y12109510D01*
X35735610Y12246092D01*
X35735609Y12246094D01*
X35735606Y12246099D01*
X35719214Y12270631D01*
X35702605Y12329519D01*
X35719212Y12380631D01*
X35755464Y12434885D01*
X35812038Y12571467D01*
X35840880Y12716462D01*
X35840880Y12864298D01*
X35812038Y13009293D01*
X35755464Y13145875D01*
X35730663Y13182992D01*
X35714055Y13241878D01*
X35730662Y13292991D01*
X35765084Y13344505D01*
X35821658Y13481087D01*
X35850500Y13626082D01*
X35850500Y13773918D01*
X35821658Y13918913D01*
X35798847Y13973982D01*
X35794047Y14034977D01*
X35826017Y14087146D01*
X35882545Y14110561D01*
X35942039Y14096277D01*
G37*
%TD.AperFunction*%
%TA.AperFunction,Conductor*%
G36*
X29473378Y8381093D02*
G01*
X29509342Y8331593D01*
X29509342Y8270407D01*
X29506651Y8263115D01*
X29488342Y8218915D01*
X29459500Y8073919D01*
X29459500Y7926082D01*
X29488342Y7781086D01*
X29544915Y7644507D01*
X29544916Y7644505D01*
X29627049Y7521584D01*
X29715733Y7432900D01*
X29743509Y7378385D01*
X29733938Y7317953D01*
X29715732Y7292894D01*
X28648336Y6225496D01*
X28593819Y6197719D01*
X28578332Y6196500D01*
X27143322Y6196500D01*
X27085131Y6215407D01*
X27049167Y6264907D01*
X27049167Y6326093D01*
X27073318Y6365504D01*
X29078818Y8371004D01*
X29133335Y8398781D01*
X29148822Y8400000D01*
X29415187Y8400000D01*
X29473378Y8381093D01*
G37*
%TD.AperFunction*%
%TA.AperFunction,Conductor*%
G36*
X30195445Y36140888D02*
G01*
X30238710Y36097623D01*
X30249500Y36052678D01*
X30249500Y34565892D01*
X30249500Y34434108D01*
X30270565Y34355493D01*
X30283609Y34306810D01*
X30349496Y34192691D01*
X30349497Y34192690D01*
X30349498Y34192689D01*
X30349500Y34192686D01*
X30744598Y33797588D01*
X31136557Y33405629D01*
X31163651Y33354940D01*
X31178342Y33281087D01*
X31196694Y33236780D01*
X31234916Y33144505D01*
X31317049Y33021584D01*
X31421584Y32917049D01*
X31522683Y32849497D01*
X31544505Y32834916D01*
X31595353Y32813854D01*
X31641879Y32774118D01*
X31656163Y32714623D01*
X31632749Y32658095D01*
X31627473Y32652388D01*
X31599501Y32624416D01*
X31599496Y32624410D01*
X31533609Y32510291D01*
X31533608Y32510286D01*
X31499500Y32382992D01*
X31499500Y19315892D01*
X31499500Y19184108D01*
X31526604Y19082952D01*
X31533609Y19056810D01*
X31599496Y18942691D01*
X31599498Y18942689D01*
X31599500Y18942686D01*
X34220505Y16321681D01*
X34248281Y16267166D01*
X34249500Y16251679D01*
X34249500Y16176082D01*
X34278342Y16031086D01*
X34334915Y15894507D01*
X34334916Y15894505D01*
X34417049Y15771584D01*
X34521584Y15667049D01*
X34574835Y15631468D01*
X34648397Y15582315D01*
X34686276Y15534265D01*
X34688678Y15473127D01*
X34654685Y15422253D01*
X34648397Y15417685D01*
X34521585Y15332952D01*
X34417048Y15228415D01*
X34334915Y15105494D01*
X34278342Y14968915D01*
X34249500Y14823919D01*
X34249500Y14676082D01*
X34278343Y14531082D01*
X34279206Y14528238D01*
X34279179Y14526880D01*
X34279291Y14526318D01*
X34279167Y14526294D01*
X34278005Y14467064D01*
X34241076Y14418280D01*
X34184469Y14400500D01*
X24565892Y14400500D01*
X24434107Y14400500D01*
X24356200Y14379626D01*
X24306809Y14366391D01*
X24192690Y14300504D01*
X24192684Y14300500D01*
X24192685Y14300499D01*
X21169504Y11277318D01*
X21114987Y11249541D01*
X21054555Y11259112D01*
X21011290Y11302377D01*
X21000500Y11347322D01*
X21000500Y13298126D01*
X21019407Y13356317D01*
X21029490Y13368124D01*
X21082951Y13421584D01*
X21165084Y13544505D01*
X21221658Y13681087D01*
X21250500Y13826082D01*
X21250500Y13973918D01*
X21221658Y14118913D01*
X21165084Y14255495D01*
X21082951Y14378416D01*
X20978416Y14482951D01*
X20855495Y14565084D01*
X20855493Y14565085D01*
X20718914Y14621658D01*
X20573918Y14650500D01*
X20426082Y14650500D01*
X20426081Y14650500D01*
X20281085Y14621658D01*
X20144506Y14565085D01*
X20021585Y14482952D01*
X19917048Y14378415D01*
X19834915Y14255494D01*
X19778342Y14118915D01*
X19758520Y14019263D01*
X19728623Y13965880D01*
X19680737Y13941480D01*
X19581085Y13921658D01*
X19444506Y13865085D01*
X19321585Y13782952D01*
X19217048Y13678415D01*
X19134915Y13555494D01*
X19078342Y13418915D01*
X19049500Y13273919D01*
X19049500Y13126082D01*
X19078342Y12981086D01*
X19132847Y12849500D01*
X19134916Y12844505D01*
X19217049Y12721584D01*
X19220505Y12718128D01*
X19248281Y12663613D01*
X19249500Y12648126D01*
X19249500Y8550875D01*
X19230593Y8492684D01*
X19181093Y8456720D01*
X19119907Y8456720D01*
X19080497Y8480871D01*
X18978417Y8582950D01*
X18978416Y8582951D01*
X18855495Y8665084D01*
X18855493Y8665085D01*
X18718914Y8721658D01*
X18573918Y8750500D01*
X18426082Y8750500D01*
X18426081Y8750500D01*
X18281085Y8721658D01*
X18144506Y8665085D01*
X18021585Y8582952D01*
X17917048Y8478415D01*
X17834915Y8355494D01*
X17778342Y8218915D01*
X17749500Y8073919D01*
X17749500Y7926082D01*
X17778342Y7781086D01*
X17834915Y7644507D01*
X17834916Y7644505D01*
X17917048Y7521586D01*
X17917050Y7521583D01*
X18021575Y7417057D01*
X18021579Y7417054D01*
X18021584Y7417049D01*
X18033771Y7408906D01*
X18071649Y7360860D01*
X18074053Y7299722D01*
X18048773Y7256589D01*
X17821683Y7029497D01*
X17767166Y7001719D01*
X17751679Y7000500D01*
X12340185Y7000500D01*
X12281994Y7019407D01*
X12246030Y7068907D01*
X12243087Y7118814D01*
X12248197Y7144505D01*
X12250500Y7156082D01*
X12250500Y7303918D01*
X12221658Y7448913D01*
X12165084Y7585495D01*
X12082951Y7708416D01*
X11978416Y7812951D01*
X11855495Y7895084D01*
X11822365Y7908807D01*
X11718914Y7951658D01*
X11573918Y7980500D01*
X11426082Y7980500D01*
X11426081Y7980500D01*
X11281085Y7951658D01*
X11144506Y7895085D01*
X11021585Y7812952D01*
X10917048Y7708415D01*
X10834915Y7585494D01*
X10778342Y7448915D01*
X10749500Y7303919D01*
X10749500Y7156080D01*
X10756913Y7118814D01*
X10749721Y7058053D01*
X10708189Y7013123D01*
X10659815Y7000500D01*
X8748321Y7000500D01*
X8690130Y7019407D01*
X8678317Y7029496D01*
X8235432Y7472381D01*
X8207655Y7526898D01*
X8217226Y7587330D01*
X8260491Y7630595D01*
X8279813Y7638012D01*
X8373693Y7663168D01*
X8373695Y7663169D01*
X8394935Y7675433D01*
X8093934Y7976435D01*
X8093934Y7976434D01*
X8016865Y8053503D01*
X8016863Y8053506D01*
X7967978Y8102391D01*
X8100000Y8102391D01*
X8100000Y8062609D01*
X8115224Y8025855D01*
X8143355Y7997724D01*
X8180109Y7982500D01*
X8219891Y7982500D01*
X8256645Y7997724D01*
X8284776Y8025855D01*
X8300000Y8062609D01*
X8300000Y8082501D01*
X8412132Y8082501D01*
X8607068Y7887565D01*
X8619331Y7908805D01*
X8619332Y7908807D01*
X8650000Y8023257D01*
X8650000Y8141744D01*
X8620876Y8250432D01*
X8955062Y8250432D01*
X8976303Y8238169D01*
X9090757Y8207500D01*
X9209243Y8207500D01*
X9323693Y8238168D01*
X9323695Y8238169D01*
X9344935Y8250432D01*
X9149999Y8445368D01*
X8955062Y8250432D01*
X8620876Y8250432D01*
X8619332Y8256196D01*
X8607068Y8277438D01*
X8412132Y8082501D01*
X8300000Y8082501D01*
X8300000Y8102391D01*
X8284776Y8139145D01*
X8256645Y8167276D01*
X8219891Y8182500D01*
X8180109Y8182500D01*
X8143355Y8167276D01*
X8115224Y8139145D01*
X8100000Y8102391D01*
X7967978Y8102391D01*
X7792931Y8277438D01*
X7792930Y8277438D01*
X7780667Y8256196D01*
X7780667Y8256194D01*
X7755510Y8162312D01*
X7722186Y8110999D01*
X7665064Y8089073D01*
X7605963Y8104909D01*
X7589880Y8117933D01*
X7030422Y8677391D01*
X7150000Y8677391D01*
X7150000Y8637609D01*
X7165224Y8600855D01*
X7193355Y8572724D01*
X7230109Y8557500D01*
X7269891Y8557500D01*
X7306645Y8572724D01*
X7334776Y8600855D01*
X7350000Y8637609D01*
X7350000Y8657501D01*
X7462132Y8657501D01*
X7657068Y8462565D01*
X7669331Y8483805D01*
X7669334Y8483810D01*
X7670877Y8489570D01*
X8005063Y8489570D01*
X8200000Y8294633D01*
X8394935Y8489569D01*
X8394936Y8489569D01*
X8373693Y8501833D01*
X8259243Y8532500D01*
X8140758Y8532500D01*
X8026302Y8501832D01*
X8005063Y8489570D01*
X7670877Y8489570D01*
X7700000Y8598257D01*
X7700000Y8716742D01*
X8700000Y8716742D01*
X8700000Y8598257D01*
X8730667Y8483807D01*
X8742931Y8462565D01*
X8937867Y8657500D01*
X8917976Y8677391D01*
X9050000Y8677391D01*
X9050000Y8637609D01*
X9065224Y8600855D01*
X9093355Y8572724D01*
X9130109Y8557500D01*
X9169891Y8557500D01*
X9206645Y8572724D01*
X9234776Y8600855D01*
X9250000Y8637609D01*
X9250000Y8657501D01*
X9362132Y8657501D01*
X9557068Y8462565D01*
X9569331Y8483805D01*
X9569332Y8483807D01*
X9600000Y8598257D01*
X9600000Y8716744D01*
X9569331Y8831197D01*
X9557068Y8852438D01*
X9362132Y8657501D01*
X9250000Y8657501D01*
X9250000Y8677391D01*
X9234776Y8714145D01*
X9206645Y8742276D01*
X9169891Y8757500D01*
X9130109Y8757500D01*
X9093355Y8742276D01*
X9065224Y8714145D01*
X9050000Y8677391D01*
X8917976Y8677391D01*
X8742930Y8852437D01*
X8730668Y8831198D01*
X8700000Y8716742D01*
X7700000Y8716742D01*
X7700000Y8716744D01*
X7670876Y8825432D01*
X8005062Y8825432D01*
X8026303Y8813169D01*
X8140757Y8782500D01*
X8259243Y8782500D01*
X8373694Y8813168D01*
X8394935Y8825432D01*
X8199999Y9020368D01*
X8005062Y8825432D01*
X7670876Y8825432D01*
X7669332Y8831196D01*
X7657068Y8852438D01*
X7462132Y8657501D01*
X7350000Y8657501D01*
X7350000Y8677391D01*
X7334776Y8714145D01*
X7306645Y8742276D01*
X7269891Y8757500D01*
X7230109Y8757500D01*
X7193355Y8742276D01*
X7165224Y8714145D01*
X7150000Y8677391D01*
X7030422Y8677391D01*
X6855375Y8852438D01*
X6643243Y9064570D01*
X7055063Y9064570D01*
X7250000Y8869633D01*
X7444935Y9064569D01*
X7444936Y9064569D01*
X7423693Y9076833D01*
X7309243Y9107500D01*
X7190758Y9107500D01*
X7076302Y9076832D01*
X7055063Y9064570D01*
X6643243Y9064570D01*
X6416071Y9291742D01*
X7750000Y9291742D01*
X7750000Y9173257D01*
X7780667Y9058807D01*
X7792931Y9037565D01*
X7987867Y9232500D01*
X7967976Y9252391D01*
X8100000Y9252391D01*
X8100000Y9212609D01*
X8115224Y9175855D01*
X8143355Y9147724D01*
X8180109Y9132500D01*
X8219891Y9132500D01*
X8256645Y9147724D01*
X8284776Y9175855D01*
X8300000Y9212609D01*
X8300000Y9232501D01*
X8412132Y9232501D01*
X8607068Y9037565D01*
X8619331Y9058805D01*
X8619334Y9058810D01*
X8620877Y9064570D01*
X8955063Y9064570D01*
X9150000Y8869633D01*
X9344935Y9064569D01*
X9344936Y9064569D01*
X9323693Y9076833D01*
X9209243Y9107500D01*
X9090758Y9107500D01*
X8976302Y9076832D01*
X8955063Y9064570D01*
X8620877Y9064570D01*
X8650000Y9173257D01*
X8650000Y9291744D01*
X8619331Y9406197D01*
X8607068Y9427438D01*
X8412132Y9232501D01*
X8300000Y9232501D01*
X8300000Y9252391D01*
X8284776Y9289145D01*
X8256645Y9317276D01*
X8219891Y9332500D01*
X8180109Y9332500D01*
X8143355Y9317276D01*
X8115224Y9289145D01*
X8100000Y9252391D01*
X7967976Y9252391D01*
X7792930Y9427437D01*
X7780668Y9406198D01*
X7750000Y9291742D01*
X6416071Y9291742D01*
X6068243Y9639570D01*
X8005063Y9639570D01*
X8200000Y9444633D01*
X8394935Y9639569D01*
X8394936Y9639569D01*
X8373693Y9651833D01*
X8259243Y9682500D01*
X8140758Y9682500D01*
X8026302Y9651832D01*
X8005063Y9639570D01*
X6068243Y9639570D01*
X5029496Y10678318D01*
X5001719Y10732835D01*
X5000500Y10748322D01*
X5000500Y13568548D01*
X5000000Y13576179D01*
X5000000Y13815424D01*
X5018907Y13873615D01*
X5068407Y13909579D01*
X5129593Y13909579D01*
X5169004Y13885428D01*
X8762746Y10291686D01*
X8762745Y10291686D01*
X8855931Y10198501D01*
X8855936Y10198497D01*
X8970056Y10132610D01*
X8970054Y10132610D01*
X8970058Y10132609D01*
X8970060Y10132608D01*
X9097354Y10098500D01*
X12652678Y10098500D01*
X12710869Y10079593D01*
X12722682Y10069504D01*
X13500500Y9291686D01*
X13500499Y9291686D01*
X13593685Y9198501D01*
X13593690Y9198497D01*
X13707810Y9132610D01*
X13707808Y9132610D01*
X13707812Y9132609D01*
X13707814Y9132608D01*
X13835108Y9098500D01*
X13835110Y9098500D01*
X16064890Y9098500D01*
X16064892Y9098500D01*
X16192186Y9132608D01*
X16192188Y9132610D01*
X16192190Y9132610D01*
X16306309Y9198497D01*
X16306309Y9198498D01*
X16306314Y9198500D01*
X16328319Y9220506D01*
X16382834Y9248281D01*
X16398321Y9249500D01*
X16473917Y9249500D01*
X16473918Y9249500D01*
X16618913Y9278342D01*
X16755495Y9334916D01*
X16878416Y9417049D01*
X16982951Y9521584D01*
X17065084Y9644505D01*
X17121658Y9781087D01*
X17150500Y9926082D01*
X17150500Y10073918D01*
X17121658Y10218913D01*
X17065084Y10355495D01*
X16982951Y10478416D01*
X16878416Y10582951D01*
X16755495Y10665084D01*
X16746133Y10668962D01*
X16618914Y10721658D01*
X16473918Y10750500D01*
X16447321Y10750500D01*
X16389130Y10769407D01*
X16353166Y10818907D01*
X16353166Y10880093D01*
X16377317Y10919504D01*
X17217766Y11759953D01*
X17272283Y11787730D01*
X17287770Y11788949D01*
X17438529Y11788949D01*
X17438530Y11788949D01*
X17583525Y11817791D01*
X17720107Y11874365D01*
X17843028Y11956498D01*
X17947563Y12061033D01*
X18029696Y12183954D01*
X18086270Y12320536D01*
X18115112Y12465531D01*
X18115112Y12613367D01*
X18086270Y12758362D01*
X18029696Y12894944D01*
X17947563Y13017865D01*
X17843028Y13122400D01*
X17720107Y13204533D01*
X17720105Y13204534D01*
X17583526Y13261107D01*
X17438530Y13289949D01*
X17290694Y13289949D01*
X17290691Y13289949D01*
X17245116Y13280883D01*
X17184355Y13288075D01*
X17139425Y13329607D01*
X17127488Y13389617D01*
X17153104Y13445182D01*
X17155773Y13447960D01*
X17900499Y14192685D01*
X17904723Y14200000D01*
X17966392Y14306814D01*
X17970975Y14323918D01*
X17972485Y14329551D01*
X17983755Y14371615D01*
X18000500Y14434107D01*
X18000500Y14565892D01*
X18000500Y15148126D01*
X18019407Y15206317D01*
X18029490Y15218124D01*
X18082951Y15271584D01*
X18165084Y15394505D01*
X18221658Y15531087D01*
X18250500Y15676082D01*
X18250500Y15823918D01*
X18221658Y15968913D01*
X18165084Y16105495D01*
X18082951Y16228416D01*
X17978416Y16332951D01*
X17855495Y16415084D01*
X17855493Y16415085D01*
X17718914Y16471658D01*
X17573918Y16500500D01*
X17426082Y16500500D01*
X17426081Y16500500D01*
X17281085Y16471658D01*
X17144506Y16415085D01*
X17021585Y16332952D01*
X16917048Y16228415D01*
X16834915Y16105494D01*
X16778342Y15968915D01*
X16749500Y15823919D01*
X16749500Y15676082D01*
X16778342Y15531086D01*
X16825578Y15417049D01*
X16834916Y15394505D01*
X16917049Y15271584D01*
X16970505Y15218128D01*
X16998281Y15163613D01*
X16999500Y15148126D01*
X16999500Y14748322D01*
X16980593Y14690131D01*
X16970504Y14678318D01*
X15821682Y13529496D01*
X15767165Y13501719D01*
X15751678Y13500500D01*
X12327668Y13500500D01*
X12269477Y13519407D01*
X12257664Y13529496D01*
X11320096Y14467064D01*
X10315720Y15471440D01*
X11816261Y15471440D01*
X11816261Y15323603D01*
X11845103Y15178607D01*
X11878435Y15098137D01*
X11901677Y15042026D01*
X11983810Y14919105D01*
X12088345Y14814570D01*
X12211266Y14732437D01*
X12347848Y14675863D01*
X12492843Y14647021D01*
X12492844Y14647021D01*
X12640678Y14647021D01*
X12640679Y14647021D01*
X12785674Y14675863D01*
X12922256Y14732437D01*
X13045177Y14814570D01*
X13149712Y14919105D01*
X13231845Y15042026D01*
X13288419Y15178608D01*
X13317261Y15323603D01*
X13317261Y15471439D01*
X13288419Y15616434D01*
X13231845Y15753016D01*
X13149712Y15875937D01*
X13045177Y15980472D01*
X12922256Y16062605D01*
X12818713Y16105494D01*
X12785675Y16119179D01*
X12640679Y16148021D01*
X12492843Y16148021D01*
X12492842Y16148021D01*
X12347846Y16119179D01*
X12211267Y16062606D01*
X12088346Y15980473D01*
X11983809Y15875936D01*
X11901676Y15753015D01*
X11845103Y15616436D01*
X11816261Y15471440D01*
X10315720Y15471440D01*
X9735660Y16051500D01*
X9735657Y16051502D01*
X9735655Y16051504D01*
X9621535Y16117391D01*
X9621537Y16117391D01*
X9572145Y16130625D01*
X9494238Y16151500D01*
X9494236Y16151500D01*
X7342976Y16151500D01*
X7284785Y16170407D01*
X7272972Y16180496D01*
X6529496Y16923972D01*
X6501719Y16978489D01*
X6500500Y16993976D01*
X6500500Y20823919D01*
X7749500Y20823919D01*
X7749500Y20676082D01*
X7778342Y20531086D01*
X7800159Y20478416D01*
X7834916Y20394505D01*
X7917049Y20271584D01*
X8021584Y20167049D01*
X8144505Y20084916D01*
X8281087Y20028342D01*
X8426082Y19999500D01*
X8426083Y19999500D01*
X8573917Y19999500D01*
X8573918Y19999500D01*
X8718913Y20028342D01*
X8855495Y20084916D01*
X8978416Y20167049D01*
X9082951Y20271584D01*
X9165084Y20394505D01*
X9221658Y20531087D01*
X9250500Y20676082D01*
X9250500Y20823918D01*
X9221658Y20968913D01*
X9165084Y21105495D01*
X9082951Y21228416D01*
X8978416Y21332951D01*
X8855495Y21415084D01*
X8855493Y21415085D01*
X8718914Y21471658D01*
X8573918Y21500500D01*
X8426082Y21500500D01*
X8426081Y21500500D01*
X8281085Y21471658D01*
X8144506Y21415085D01*
X8021585Y21332952D01*
X7917048Y21228415D01*
X7834915Y21105494D01*
X7778342Y20968915D01*
X7749500Y20823919D01*
X6500500Y20823919D01*
X6500500Y22273919D01*
X10949500Y22273919D01*
X10949500Y22126082D01*
X10978342Y21981086D01*
X11003620Y21920060D01*
X11034916Y21844505D01*
X11117049Y21721584D01*
X11170505Y21668128D01*
X11198281Y21613613D01*
X11199500Y21598126D01*
X11199500Y21115892D01*
X11199500Y20984108D01*
X11229579Y20871849D01*
X11233609Y20856810D01*
X11299496Y20742691D01*
X11299498Y20742689D01*
X11299500Y20742686D01*
X11686692Y20355495D01*
X11970504Y20071683D01*
X11998281Y20017166D01*
X11999500Y20001679D01*
X11999500Y19926082D01*
X12028342Y19781086D01*
X12039266Y19754713D01*
X12084916Y19644505D01*
X12167049Y19521584D01*
X12271584Y19417049D01*
X12394505Y19334916D01*
X12531087Y19278342D01*
X12676082Y19249500D01*
X12676083Y19249500D01*
X12823917Y19249500D01*
X12823918Y19249500D01*
X12968913Y19278342D01*
X13105495Y19334916D01*
X13228416Y19417049D01*
X13332951Y19521584D01*
X13415084Y19644505D01*
X13471658Y19781087D01*
X13500500Y19926082D01*
X13500500Y20073918D01*
X13471658Y20218913D01*
X13415084Y20355495D01*
X13332951Y20478416D01*
X13228416Y20582951D01*
X13105495Y20665084D01*
X13035513Y20694072D01*
X12988989Y20733808D01*
X12974705Y20793302D01*
X12998120Y20849830D01*
X13035515Y20876999D01*
X13038325Y20878164D01*
X13038330Y20878164D01*
X13174912Y20934738D01*
X13297833Y21016871D01*
X13402368Y21121406D01*
X13484501Y21244327D01*
X13541075Y21380909D01*
X13569917Y21525904D01*
X13569917Y21673740D01*
X13541075Y21818735D01*
X13484501Y21955317D01*
X13402368Y22078238D01*
X13297833Y22182773D01*
X13174912Y22264906D01*
X13174910Y22264907D01*
X13038331Y22321480D01*
X12893335Y22350322D01*
X12745499Y22350322D01*
X12745498Y22350322D01*
X12600502Y22321480D01*
X12564624Y22306619D01*
X12503627Y22301820D01*
X12451459Y22333791D01*
X12429643Y22378770D01*
X12428300Y22385521D01*
X12421658Y22418913D01*
X12365084Y22555495D01*
X12282951Y22678416D01*
X12178416Y22782951D01*
X12055495Y22865084D01*
X12055493Y22865085D01*
X11918914Y22921658D01*
X11773918Y22950500D01*
X11626082Y22950500D01*
X11626081Y22950500D01*
X11481085Y22921658D01*
X11344506Y22865085D01*
X11221585Y22782952D01*
X11117048Y22678415D01*
X11034915Y22555494D01*
X10978342Y22418915D01*
X10949500Y22273919D01*
X6500500Y22273919D01*
X6500500Y22501679D01*
X6519407Y22559870D01*
X6529490Y22571677D01*
X8150500Y24192686D01*
X8150503Y24192691D01*
X8216390Y24306810D01*
X8216390Y24306812D01*
X8216392Y24306814D01*
X8250500Y24434108D01*
X8250500Y24565893D01*
X8250500Y27649153D01*
X8269407Y27707344D01*
X8318907Y27743308D01*
X8380093Y27743308D01*
X8404500Y27731469D01*
X8438369Y27708838D01*
X8438368Y27708838D01*
X8503886Y27681700D01*
X8574951Y27652264D01*
X8719946Y27623422D01*
X8719947Y27623422D01*
X8867781Y27623422D01*
X8867782Y27623422D01*
X9012777Y27652264D01*
X9149359Y27708838D01*
X9272280Y27790971D01*
X9351814Y27870506D01*
X9406329Y27898281D01*
X9421816Y27899500D01*
X10413850Y27899500D01*
X10472041Y27880593D01*
X10508005Y27831093D01*
X10508005Y27769907D01*
X10472041Y27720407D01*
X10451735Y27709036D01*
X10385739Y27681700D01*
X10262818Y27599567D01*
X10158281Y27495030D01*
X10076148Y27372109D01*
X10019575Y27235530D01*
X10019573Y27235521D01*
X10011709Y27195990D01*
X9981812Y27142607D01*
X9926246Y27116992D01*
X9866237Y27128930D01*
X9859610Y27132991D01*
X9845219Y27142607D01*
X9800448Y27172522D01*
X9745602Y27195240D01*
X9663867Y27229096D01*
X9518871Y27257938D01*
X9371035Y27257938D01*
X9371034Y27257938D01*
X9226038Y27229096D01*
X9089459Y27172523D01*
X8966538Y27090390D01*
X8862001Y26985853D01*
X8779868Y26862932D01*
X8723295Y26726353D01*
X8694453Y26581357D01*
X8694453Y26433520D01*
X8723295Y26288524D01*
X8777646Y26157309D01*
X8779869Y26151943D01*
X8862002Y26029022D01*
X8966537Y25924487D01*
X9089458Y25842354D01*
X9226040Y25785780D01*
X9371035Y25756938D01*
X9371036Y25756938D01*
X9518870Y25756938D01*
X9518871Y25756938D01*
X9663866Y25785780D01*
X9699802Y25800667D01*
X9760797Y25805468D01*
X9787187Y25794940D01*
X9800047Y25787515D01*
X9800050Y25787513D01*
X9806810Y25783610D01*
X9806811Y25783610D01*
X9806814Y25783608D01*
X9934107Y25749500D01*
X9934108Y25749500D01*
X12501678Y25749500D01*
X12559869Y25730593D01*
X12571682Y25720504D01*
X16470504Y21821682D01*
X16498281Y21767165D01*
X16499500Y21751678D01*
X16499500Y21351875D01*
X16480593Y21293684D01*
X16470504Y21281872D01*
X16417050Y21228418D01*
X16334915Y21105494D01*
X16278342Y20968915D01*
X16249500Y20823919D01*
X16249500Y20676082D01*
X16278342Y20531086D01*
X16300159Y20478416D01*
X16334916Y20394505D01*
X16417049Y20271584D01*
X16521584Y20167049D01*
X16644505Y20084916D01*
X16781087Y20028342D01*
X16926082Y19999500D01*
X16926083Y19999500D01*
X17073917Y19999500D01*
X17073918Y19999500D01*
X17218913Y20028342D01*
X17355495Y20084916D01*
X17478416Y20167049D01*
X17582951Y20271584D01*
X17665084Y20394505D01*
X17721658Y20531087D01*
X17750500Y20676082D01*
X17750500Y20823918D01*
X17721658Y20968913D01*
X17665084Y21105495D01*
X17582951Y21228416D01*
X17567038Y21244329D01*
X17529496Y21281872D01*
X17501719Y21336389D01*
X17500500Y21351875D01*
X17500500Y22065891D01*
X17500500Y22065892D01*
X17466392Y22193186D01*
X17466390Y22193189D01*
X17466390Y22193191D01*
X17400503Y22307310D01*
X17400499Y22307315D01*
X17307314Y22400501D01*
X17307314Y22400500D01*
X16282775Y23425039D01*
X16254998Y23479556D01*
X16264569Y23539988D01*
X16307834Y23583253D01*
X16368266Y23592824D01*
X16390665Y23586507D01*
X16394503Y23584918D01*
X16394505Y23584916D01*
X16531087Y23528342D01*
X16676082Y23499500D01*
X16676083Y23499500D01*
X16823917Y23499500D01*
X16823918Y23499500D01*
X16968913Y23528342D01*
X17105495Y23584916D01*
X17228416Y23667049D01*
X17332951Y23771584D01*
X17415084Y23894505D01*
X17471658Y24031087D01*
X17500500Y24176082D01*
X17500500Y24225277D01*
X17519407Y24283468D01*
X17561612Y24316740D01*
X17605495Y24334916D01*
X17728416Y24417049D01*
X17832951Y24521584D01*
X17915084Y24644505D01*
X17971658Y24781087D01*
X18000500Y24926082D01*
X18000500Y25073918D01*
X17971658Y25218913D01*
X17915084Y25355495D01*
X17832951Y25478416D01*
X17728416Y25582951D01*
X17636291Y25644507D01*
X17605494Y25665085D01*
X17469096Y25721582D01*
X17468913Y25721658D01*
X17468911Y25721659D01*
X17465378Y25723122D01*
X17418852Y25762858D01*
X17404568Y25822353D01*
X17427982Y25878881D01*
X17448256Y25896898D01*
X17478416Y25917049D01*
X17582951Y26021584D01*
X17665084Y26144505D01*
X17721658Y26281087D01*
X17750500Y26426082D01*
X17750500Y26573918D01*
X17721658Y26718913D01*
X17665084Y26855495D01*
X17582951Y26978416D01*
X17478416Y27082951D01*
X17355495Y27165084D01*
X17355493Y27165085D01*
X17218914Y27221658D01*
X17073918Y27250500D01*
X16998322Y27250500D01*
X16940131Y27269407D01*
X16928318Y27279496D01*
X16782775Y27425039D01*
X16754998Y27479556D01*
X16764569Y27539988D01*
X16807834Y27583253D01*
X16868266Y27592824D01*
X16890665Y27586507D01*
X16894503Y27584918D01*
X16894505Y27584916D01*
X17031087Y27528342D01*
X17176082Y27499500D01*
X17176083Y27499500D01*
X17323917Y27499500D01*
X17323918Y27499500D01*
X17468913Y27528342D01*
X17605495Y27584916D01*
X17728416Y27667049D01*
X17832951Y27771584D01*
X17915084Y27894505D01*
X17926510Y27922089D01*
X17966246Y27968615D01*
X18025741Y27982899D01*
X18082269Y27959484D01*
X18087978Y27954208D01*
X19970504Y26071682D01*
X19998281Y26017165D01*
X19999500Y26001678D01*
X19999500Y25926082D01*
X20028342Y25781086D01*
X20076392Y25665084D01*
X20084916Y25644505D01*
X20167049Y25521584D01*
X20271584Y25417049D01*
X20394505Y25334916D01*
X20531087Y25278342D01*
X20676082Y25249500D01*
X20680853Y25248551D01*
X20680492Y25246741D01*
X20729691Y25225225D01*
X20760634Y25172441D01*
X20761034Y25131903D01*
X20749500Y25073921D01*
X20749500Y24926082D01*
X20770817Y24818914D01*
X20778342Y24781087D01*
X20834916Y24644505D01*
X20917049Y24521584D01*
X21021584Y24417049D01*
X21144505Y24334916D01*
X21281087Y24278342D01*
X21426082Y24249500D01*
X21426083Y24249500D01*
X21573917Y24249500D01*
X21573918Y24249500D01*
X21718913Y24278342D01*
X21855495Y24334916D01*
X21978416Y24417049D01*
X22082951Y24521584D01*
X22165084Y24644505D01*
X22221658Y24781087D01*
X22250500Y24926082D01*
X22250500Y25073918D01*
X22221658Y25218913D01*
X22165084Y25355495D01*
X22082951Y25478416D01*
X22063055Y25498312D01*
X22029496Y25531872D01*
X22001719Y25586389D01*
X22000500Y25601875D01*
X22000500Y26315257D01*
X22000500Y26315892D01*
X22000366Y26316391D01*
X21966392Y26443186D01*
X21946052Y26478416D01*
X21900500Y26557314D01*
X21858085Y26599729D01*
X21807314Y26650501D01*
X21807314Y26650500D01*
X20627318Y27830496D01*
X20599541Y27885013D01*
X20609112Y27945445D01*
X20652377Y27988710D01*
X20697322Y27999500D01*
X20823917Y27999500D01*
X20823918Y27999500D01*
X20968913Y28028342D01*
X21105495Y28084916D01*
X21228416Y28167049D01*
X21332951Y28271584D01*
X21415084Y28394505D01*
X21471658Y28531087D01*
X21500500Y28676082D01*
X21500500Y28751679D01*
X21519407Y28809870D01*
X21529490Y28821677D01*
X22400500Y29692686D01*
X22402126Y29695502D01*
X22466390Y29806810D01*
X22466390Y29806812D01*
X22466392Y29806814D01*
X22500500Y29934108D01*
X22500500Y30065892D01*
X22500500Y32398126D01*
X22519407Y32456317D01*
X22529490Y32468124D01*
X22582951Y32521584D01*
X22665084Y32644505D01*
X22676510Y32672089D01*
X22716246Y32718615D01*
X22775741Y32732899D01*
X22832269Y32709484D01*
X22837978Y32704208D01*
X25385884Y30156302D01*
X25389510Y30149185D01*
X25395973Y30144489D01*
X25403136Y30122441D01*
X25413661Y30101785D01*
X25414880Y30086298D01*
X25414880Y30079519D01*
X25395973Y30021328D01*
X25346473Y29985364D01*
X25335196Y29982422D01*
X25323508Y29980097D01*
X25281085Y29971658D01*
X25144506Y29915085D01*
X25021585Y29832952D01*
X24917048Y29728415D01*
X24834915Y29605494D01*
X24778342Y29468915D01*
X24749500Y29323919D01*
X24749500Y29176082D01*
X24778342Y29031086D01*
X24824601Y28919407D01*
X24834916Y28894505D01*
X24917049Y28771584D01*
X25021584Y28667049D01*
X25144505Y28584916D01*
X25281087Y28528342D01*
X25426082Y28499500D01*
X25426083Y28499500D01*
X25573917Y28499500D01*
X25573918Y28499500D01*
X25718913Y28528342D01*
X25855495Y28584916D01*
X25978416Y28667049D01*
X26008689Y28697322D01*
X26031872Y28720504D01*
X26038988Y28724130D01*
X26043684Y28730593D01*
X26065735Y28737758D01*
X26086389Y28748281D01*
X26101875Y28749500D01*
X26246717Y28749500D01*
X26304908Y28730593D01*
X26340872Y28681093D01*
X26340872Y28619907D01*
X26336667Y28610035D01*
X26336777Y28609989D01*
X26278342Y28468915D01*
X26249500Y28323919D01*
X26249500Y28176082D01*
X26278342Y28031086D01*
X26318719Y27933608D01*
X26334916Y27894505D01*
X26417049Y27771584D01*
X26521584Y27667049D01*
X26644505Y27584916D01*
X26781087Y27528342D01*
X26926082Y27499500D01*
X26926083Y27499500D01*
X27073917Y27499500D01*
X27073918Y27499500D01*
X27218913Y27528342D01*
X27355495Y27584916D01*
X27478416Y27667049D01*
X27582951Y27771584D01*
X27665084Y27894505D01*
X27721658Y28031087D01*
X27750500Y28176082D01*
X27750500Y28251679D01*
X27769407Y28309870D01*
X27779490Y28321677D01*
X29400500Y29942686D01*
X29414009Y29966084D01*
X29466390Y30056810D01*
X29466390Y30056812D01*
X29466392Y30056814D01*
X29500500Y30184107D01*
X29500500Y30315892D01*
X29500500Y35501678D01*
X29519407Y35559869D01*
X29529496Y35571682D01*
X30080496Y36122682D01*
X30135013Y36150459D01*
X30195445Y36140888D01*
G37*
%TD.AperFunction*%
%TA.AperFunction,Conductor*%
G36*
X43182048Y10523939D02*
G01*
X43207107Y10505733D01*
X43470504Y10242336D01*
X43498281Y10187819D01*
X43499500Y10172332D01*
X43499500Y9815892D01*
X43499500Y9684108D01*
X43526078Y9584916D01*
X43533609Y9556810D01*
X43599496Y9442691D01*
X43599498Y9442689D01*
X43599500Y9442686D01*
X45470505Y7571681D01*
X45498281Y7517166D01*
X45499500Y7501679D01*
X45499500Y7426082D01*
X45528342Y7281086D01*
X45567154Y7187385D01*
X45571954Y7126388D01*
X45539985Y7074219D01*
X45483457Y7050805D01*
X45475690Y7050500D01*
X43519031Y7050500D01*
X43460840Y7069407D01*
X43449027Y7079497D01*
X43029496Y7499029D01*
X43025870Y7506146D01*
X43019407Y7510841D01*
X43012242Y7532891D01*
X43001719Y7553545D01*
X43000500Y7569032D01*
X43000500Y7574483D01*
X43003873Y7600106D01*
X43015770Y7644505D01*
X43025500Y7680817D01*
X43025500Y10423126D01*
X43027968Y10430724D01*
X43026719Y10438613D01*
X43037243Y10459269D01*
X43044407Y10481317D01*
X43054490Y10493124D01*
X43067101Y10505735D01*
X43121616Y10533510D01*
X43182048Y10523939D01*
G37*
%TD.AperFunction*%
%TA.AperFunction,Conductor*%
G36*
X22831481Y11426926D02*
G01*
X22868850Y11393719D01*
X22917049Y11321584D01*
X23021584Y11217049D01*
X23144505Y11134916D01*
X23281087Y11078342D01*
X23426082Y11049500D01*
X23426083Y11049500D01*
X23573917Y11049500D01*
X23573918Y11049500D01*
X23718913Y11078342D01*
X23855495Y11134916D01*
X23978416Y11217049D01*
X24010908Y11249541D01*
X24031872Y11270504D01*
X24086389Y11298281D01*
X24101875Y11299500D01*
X24333746Y11299500D01*
X24391937Y11280593D01*
X24425210Y11238386D01*
X24434916Y11214954D01*
X24517049Y11092033D01*
X24621584Y10987498D01*
X24744505Y10905365D01*
X24827472Y10870999D01*
X24839386Y10866064D01*
X24885911Y10826327D01*
X24900500Y10774600D01*
X24900500Y8849500D01*
X24881593Y8791309D01*
X24832093Y8755345D01*
X24801500Y8750500D01*
X24676081Y8750500D01*
X24531085Y8721658D01*
X24394506Y8665085D01*
X24271585Y8582952D01*
X24167048Y8478415D01*
X24084915Y8355494D01*
X24028342Y8218915D01*
X23999500Y8073919D01*
X23999500Y7926079D01*
X24000945Y7918818D01*
X23993756Y7858056D01*
X23952225Y7813125D01*
X23903848Y7800500D01*
X21846152Y7800500D01*
X21787961Y7819407D01*
X21751997Y7868907D01*
X21749055Y7918818D01*
X21750499Y7926079D01*
X21750500Y7926084D01*
X21750500Y8073917D01*
X21750500Y8073918D01*
X21721658Y8218913D01*
X21665084Y8355495D01*
X21582951Y8478416D01*
X21559534Y8501833D01*
X21529496Y8531872D01*
X21501719Y8586389D01*
X21500500Y8601875D01*
X21500500Y10151679D01*
X21519407Y10209870D01*
X21529490Y10221677D01*
X22716534Y11408722D01*
X22771049Y11436497D01*
X22831481Y11426926D01*
G37*
%TD.AperFunction*%
%TA.AperFunction,Conductor*%
G36*
X29604908Y13380593D02*
G01*
X29640872Y13331093D01*
X29640872Y13269907D01*
X29636667Y13260035D01*
X29636777Y13259989D01*
X29578342Y13118915D01*
X29549500Y12973919D01*
X29549500Y12826082D01*
X29578342Y12681086D01*
X29623558Y12571926D01*
X29634916Y12544505D01*
X29717049Y12421584D01*
X29770505Y12368128D01*
X29798281Y12313613D01*
X29799500Y12298126D01*
X29799500Y10548323D01*
X29780593Y10490132D01*
X29770504Y10478319D01*
X27683467Y8391283D01*
X27628950Y8363506D01*
X27568518Y8373077D01*
X27531148Y8406285D01*
X27505033Y8445368D01*
X27482951Y8478416D01*
X27378416Y8582951D01*
X27255495Y8665084D01*
X27255493Y8665085D01*
X27118914Y8721658D01*
X26973918Y8750500D01*
X26826082Y8750500D01*
X26826081Y8750500D01*
X26826069Y8750499D01*
X26821806Y8749651D01*
X26761045Y8756847D01*
X26716119Y8798384D01*
X26703500Y8846750D01*
X26703500Y12021098D01*
X26701580Y12028261D01*
X26701578Y12028267D01*
X26679809Y12109510D01*
X26669392Y12148389D01*
X26658619Y12167049D01*
X26658617Y12167053D01*
X26658617Y12167054D01*
X26603501Y12262516D01*
X26603499Y12262518D01*
X26510314Y12355704D01*
X26510314Y12355703D01*
X25843068Y13022949D01*
X25843065Y13022951D01*
X25843064Y13022952D01*
X25843063Y13022953D01*
X25728943Y13088840D01*
X25728945Y13088840D01*
X25679553Y13102074D01*
X25601646Y13122949D01*
X25601644Y13122949D01*
X24669770Y13122949D01*
X24647722Y13130113D01*
X24624825Y13133739D01*
X24619176Y13139388D01*
X24611579Y13141856D01*
X24597951Y13160613D01*
X24581560Y13177004D01*
X24580310Y13184894D01*
X24575615Y13191356D01*
X24575615Y13214542D01*
X24571989Y13237436D01*
X24575615Y13244553D01*
X24575615Y13252542D01*
X24599765Y13291952D01*
X24678318Y13370505D01*
X24732834Y13398281D01*
X24748321Y13399500D01*
X29546717Y13399500D01*
X29604908Y13380593D01*
G37*
%TD.AperFunction*%
%TA.AperFunction,Conductor*%
G36*
X8548369Y13742093D02*
G01*
X8560182Y13732004D01*
X11023682Y11268504D01*
X11051459Y11213987D01*
X11041888Y11153555D01*
X10998623Y11110290D01*
X10953678Y11099500D01*
X9411568Y11099500D01*
X9353377Y11118407D01*
X9341564Y11128496D01*
X6878064Y13591996D01*
X6850287Y13646513D01*
X6859858Y13706945D01*
X6903123Y13750210D01*
X6948068Y13761000D01*
X8490178Y13761000D01*
X8548369Y13742093D01*
G37*
%TD.AperFunction*%
%TA.AperFunction,Conductor*%
G36*
X9238215Y15131593D02*
G01*
X9250028Y15121504D01*
X11772032Y12599500D01*
X11772034Y12599499D01*
X11772035Y12599498D01*
X11772036Y12599497D01*
X11886156Y12533610D01*
X11886154Y12533610D01*
X11886158Y12533609D01*
X11886160Y12533608D01*
X12013453Y12499500D01*
X12013454Y12499500D01*
X12631780Y12499500D01*
X12689971Y12480593D01*
X12725935Y12431093D01*
X12725935Y12369907D01*
X12701785Y12330499D01*
X12669413Y12298126D01*
X12659702Y12288415D01*
X12577569Y12165494D01*
X12520996Y12028915D01*
X12492154Y11883919D01*
X12492154Y11758500D01*
X12473247Y11700309D01*
X12423747Y11664345D01*
X12393154Y11659500D01*
X12089322Y11659500D01*
X12031131Y11678407D01*
X12019318Y11688496D01*
X10547201Y13160613D01*
X9045814Y14662000D01*
X9045811Y14662002D01*
X9045810Y14662003D01*
X9045809Y14662004D01*
X8931689Y14727891D01*
X8931691Y14727891D01*
X8855439Y14748322D01*
X8804392Y14762000D01*
X8804390Y14762000D01*
X7762000Y14762000D01*
X7749747Y14765981D01*
X7736889Y14765238D01*
X7721361Y14775204D01*
X7703809Y14780907D01*
X7696236Y14791331D01*
X7685397Y14798287D01*
X7679804Y14813947D01*
X7667845Y14830407D01*
X7663165Y14855290D01*
X7663000Y14858146D01*
X7663000Y14986418D01*
X7652555Y15038924D01*
X7652159Y15045790D01*
X7658260Y15069060D01*
X7661088Y15092947D01*
X7665885Y15098137D01*
X7667678Y15104974D01*
X7686290Y15120212D01*
X7702620Y15137877D01*
X7710324Y15139888D01*
X7715022Y15143733D01*
X7727916Y15144478D01*
X7750994Y15150500D01*
X9180024Y15150500D01*
X9238215Y15131593D01*
G37*
%TD.AperFunction*%
%TA.AperFunction,Conductor*%
G36*
X411801Y14817587D02*
G01*
X434952Y14798840D01*
X506845Y14740621D01*
X506847Y14740620D01*
X506851Y14740617D01*
X675512Y14654680D01*
X858355Y14605688D01*
X936979Y14599500D01*
X2651677Y14599501D01*
X2709868Y14580594D01*
X2721681Y14570505D01*
X3171004Y14121182D01*
X3198781Y14066665D01*
X3200000Y14051178D01*
X3200000Y13496817D01*
X3181093Y13438626D01*
X3131593Y13402662D01*
X3093234Y13398123D01*
X3063021Y13400500D01*
X3063014Y13400500D01*
X936986Y13400500D01*
X858356Y13394313D01*
X858353Y13394312D01*
X675512Y13345320D01*
X506847Y13259381D01*
X506845Y13259380D01*
X411803Y13182415D01*
X354682Y13160488D01*
X295581Y13176323D01*
X257076Y13223873D01*
X250500Y13259352D01*
X250500Y14740649D01*
X269407Y14798840D01*
X318907Y14834804D01*
X380093Y14834804D01*
X411801Y14817587D01*
G37*
%TD.AperFunction*%
%TA.AperFunction,Conductor*%
G36*
X411801Y18817587D02*
G01*
X434952Y18798840D01*
X506845Y18740621D01*
X506847Y18740620D01*
X506851Y18740617D01*
X675512Y18654680D01*
X858355Y18605688D01*
X936979Y18599500D01*
X3063020Y18599501D01*
X3137727Y18605380D01*
X3149263Y18602611D01*
X3160980Y18604466D01*
X3178308Y18595637D01*
X3197222Y18591096D01*
X3215497Y18576689D01*
X3319504Y18472682D01*
X3347281Y18418165D01*
X3348500Y18402678D01*
X3348500Y17467905D01*
X3329593Y17409714D01*
X3280093Y17373750D01*
X3223878Y17372278D01*
X3141642Y17394313D01*
X3095960Y17397908D01*
X3063021Y17400500D01*
X3063014Y17400500D01*
X936986Y17400500D01*
X858356Y17394313D01*
X858353Y17394312D01*
X675512Y17345320D01*
X506847Y17259381D01*
X506845Y17259380D01*
X411803Y17182415D01*
X354682Y17160488D01*
X295581Y17176323D01*
X257076Y17223873D01*
X250500Y17259352D01*
X250500Y18740649D01*
X269407Y18798840D01*
X318907Y18834804D01*
X380093Y18834804D01*
X411801Y18817587D01*
G37*
%TD.AperFunction*%
%TA.AperFunction,Conductor*%
G36*
X366949Y22834804D02*
G01*
X380093Y22834804D01*
X411801Y22817587D01*
X421741Y22809538D01*
X506845Y22740621D01*
X506847Y22740620D01*
X506851Y22740617D01*
X675512Y22654680D01*
X858355Y22605688D01*
X936979Y22599500D01*
X3063020Y22599501D01*
X3137727Y22605380D01*
X3197222Y22591096D01*
X3215497Y22576689D01*
X3720504Y22071682D01*
X3748281Y22017165D01*
X3749500Y22001678D01*
X3749500Y21259352D01*
X3730593Y21201161D01*
X3681093Y21165197D01*
X3619907Y21165197D01*
X3588197Y21182415D01*
X3493154Y21259380D01*
X3493152Y21259381D01*
X3493150Y21259382D01*
X3493149Y21259383D01*
X3324488Y21345320D01*
X3141645Y21394312D01*
X3141641Y21394313D01*
X3141642Y21394313D01*
X3095960Y21397908D01*
X3063021Y21400500D01*
X3063014Y21400500D01*
X936986Y21400500D01*
X858356Y21394313D01*
X858353Y21394312D01*
X675512Y21345320D01*
X506847Y21259381D01*
X506845Y21259380D01*
X411803Y21182415D01*
X354682Y21160488D01*
X295581Y21176323D01*
X257076Y21223873D01*
X250500Y21259352D01*
X250500Y22740649D01*
X256123Y22757957D01*
X257076Y22776128D01*
X265345Y22786340D01*
X269407Y22798840D01*
X284131Y22809538D01*
X295582Y22823678D01*
X308273Y22827079D01*
X318907Y22834804D01*
X337107Y22834804D01*
X354682Y22839513D01*
X366949Y22834804D01*
G37*
%TD.AperFunction*%
%TA.AperFunction,Conductor*%
G36*
X4163378Y26881093D02*
G01*
X4199342Y26831593D01*
X4199342Y26770407D01*
X4196651Y26763115D01*
X4178342Y26718915D01*
X4149500Y26573919D01*
X4149500Y26426082D01*
X4178342Y26281086D01*
X4221836Y26176082D01*
X4234916Y26144505D01*
X4317049Y26021584D01*
X4421584Y25917049D01*
X4544505Y25834916D01*
X4681087Y25778342D01*
X4826082Y25749500D01*
X4826083Y25749500D01*
X4973917Y25749500D01*
X4973918Y25749500D01*
X5118913Y25778342D01*
X5255495Y25834916D01*
X5378416Y25917049D01*
X5482951Y26021584D01*
X5492686Y26036154D01*
X5540734Y26074032D01*
X5601872Y26076434D01*
X5652746Y26042442D01*
X5657303Y26036170D01*
X5667049Y26021584D01*
X5771584Y25917049D01*
X5894505Y25834916D01*
X6031087Y25778342D01*
X6176082Y25749500D01*
X6176083Y25749500D01*
X6323917Y25749500D01*
X6323918Y25749500D01*
X6468913Y25778342D01*
X6562616Y25817156D01*
X6623611Y25821956D01*
X6675780Y25789987D01*
X6699195Y25733459D01*
X6699500Y25725691D01*
X6699500Y25232579D01*
X6680593Y25174388D01*
X6670504Y25162575D01*
X4459488Y22951559D01*
X4449607Y22934445D01*
X4404136Y22893506D01*
X4343286Y22887113D01*
X4293869Y22913945D01*
X3923311Y23284503D01*
X3895534Y23339020D01*
X3894620Y23362271D01*
X3900500Y23436979D01*
X3900499Y24563020D01*
X3894312Y24641645D01*
X3845320Y24824488D01*
X3759383Y24993149D01*
X3759380Y24993153D01*
X3759379Y24993155D01*
X3640261Y25140252D01*
X3640257Y25140257D01*
X3612697Y25162575D01*
X3493154Y25259380D01*
X3493152Y25259381D01*
X3493150Y25259382D01*
X3493149Y25259383D01*
X3324488Y25345320D01*
X3141645Y25394312D01*
X3141641Y25394313D01*
X3141642Y25394313D01*
X3095960Y25397908D01*
X3063021Y25400500D01*
X3063014Y25400500D01*
X2687261Y25400500D01*
X2629070Y25419407D01*
X2593106Y25468907D01*
X2593106Y25530093D01*
X2604946Y25554502D01*
X2623955Y25582951D01*
X2665084Y25644505D01*
X2721658Y25781087D01*
X2750500Y25926082D01*
X2750500Y26073918D01*
X2721658Y26218913D01*
X2692824Y26288525D01*
X2665084Y26355496D01*
X2662792Y26359784D01*
X2664630Y26360767D01*
X2650500Y26407353D01*
X2650500Y26500501D01*
X2669407Y26558692D01*
X2718907Y26594656D01*
X2749500Y26599501D01*
X3063014Y26599501D01*
X3063020Y26599501D01*
X3141645Y26605688D01*
X3324488Y26654680D01*
X3493149Y26740617D01*
X3640257Y26859743D01*
X3643140Y26863303D01*
X3694455Y26896627D01*
X3720077Y26900000D01*
X4105187Y26900000D01*
X4163378Y26881093D01*
G37*
%TD.AperFunction*%
%TA.AperFunction,Conductor*%
G36*
X12165412Y28145655D02*
G01*
X12181093Y28145655D01*
X12193778Y28136439D01*
X12208691Y28131593D01*
X12217907Y28118908D01*
X12230593Y28109691D01*
X12235438Y28094779D01*
X12244655Y28082093D01*
X12249500Y28051500D01*
X12249500Y27926082D01*
X12278342Y27781086D01*
X12296076Y27738273D01*
X12334916Y27644505D01*
X12417049Y27521584D01*
X12521584Y27417049D01*
X12644505Y27334916D01*
X12781087Y27278342D01*
X12926082Y27249500D01*
X12926083Y27249500D01*
X13078782Y27249500D01*
X13078782Y27248366D01*
X13133468Y27236373D01*
X13174115Y27190641D01*
X13179043Y27176581D01*
X13184607Y27155815D01*
X13184609Y27155811D01*
X13250496Y27041691D01*
X13250498Y27041689D01*
X13250500Y27041686D01*
X15970505Y24321681D01*
X15998281Y24267166D01*
X15999500Y24251679D01*
X15999500Y24176082D01*
X16028342Y24031086D01*
X16086506Y23890665D01*
X16091307Y23829668D01*
X16059337Y23777500D01*
X16002809Y23754085D01*
X15943314Y23768369D01*
X15925038Y23782776D01*
X14505940Y25201874D01*
X13057314Y26650500D01*
X13057311Y26650502D01*
X13057310Y26650503D01*
X13057309Y26650504D01*
X12943189Y26716391D01*
X12943191Y26716391D01*
X12893799Y26729625D01*
X12815892Y26750500D01*
X12815890Y26750500D01*
X11574134Y26750500D01*
X11515943Y26769407D01*
X11479979Y26818907D01*
X11477036Y26868813D01*
X11491733Y26942697D01*
X11491733Y27090533D01*
X11462891Y27235528D01*
X11406317Y27372110D01*
X11324184Y27495031D01*
X11219649Y27599566D01*
X11096728Y27681699D01*
X11096726Y27681700D01*
X10956221Y27739899D01*
X10909695Y27779635D01*
X10895411Y27839130D01*
X10918826Y27895658D01*
X10968483Y27926990D01*
X10993186Y27933608D01*
X11107314Y27999500D01*
X11192730Y28084916D01*
X11229319Y28121504D01*
X11283835Y28149281D01*
X11299322Y28150500D01*
X12150500Y28150500D01*
X12165412Y28145655D01*
G37*
%TD.AperFunction*%
%TA.AperFunction,Conductor*%
G36*
X38635277Y45742336D02*
G01*
X38658171Y45738709D01*
X38663818Y45733062D01*
X38671417Y45730593D01*
X38685045Y45711836D01*
X38701436Y45695445D01*
X38702685Y45687556D01*
X38707381Y45681093D01*
X38711007Y45635013D01*
X38697799Y45551624D01*
X38697799Y45551623D01*
X38697799Y45551620D01*
X38697799Y44901297D01*
X38697800Y44349500D01*
X38678893Y44291309D01*
X38629393Y44255345D01*
X38598800Y44250500D01*
X24815892Y44250500D01*
X24684107Y44250500D01*
X24606200Y44229626D01*
X24556809Y44216391D01*
X24442690Y44150504D01*
X24442689Y44150503D01*
X21265574Y40973390D01*
X21233457Y40951930D01*
X21144503Y40915084D01*
X21144497Y40915081D01*
X21021585Y40832952D01*
X20917048Y40728415D01*
X20834915Y40605494D01*
X20778342Y40468915D01*
X20749500Y40323919D01*
X20749500Y40176082D01*
X20778342Y40031086D01*
X20796120Y39988166D01*
X20834916Y39894505D01*
X20917049Y39771584D01*
X21019131Y39669502D01*
X21046907Y39614987D01*
X21037336Y39554555D01*
X20994071Y39511290D01*
X20949126Y39500500D01*
X20695317Y39500500D01*
X20563532Y39500500D01*
X20485624Y39479625D01*
X20436233Y39466391D01*
X20322114Y39400504D01*
X20322109Y39400500D01*
X19629871Y38708264D01*
X19575355Y38680487D01*
X19514923Y38690058D01*
X19477553Y38723266D01*
X19445268Y38771584D01*
X19417571Y38813036D01*
X19313036Y38917571D01*
X19190115Y38999704D01*
X19190113Y38999705D01*
X19053534Y39056278D01*
X19034272Y39060110D01*
X19010171Y39064904D01*
X18956789Y39094800D01*
X18931173Y39150365D01*
X18938022Y39199884D01*
X18971658Y39281087D01*
X19000500Y39426082D01*
X19000500Y39573918D01*
X18971658Y39718913D01*
X18915084Y39855495D01*
X18832951Y39978416D01*
X18728416Y40082951D01*
X18605495Y40165084D01*
X18605493Y40165085D01*
X18468914Y40221658D01*
X18323918Y40250500D01*
X18176082Y40250500D01*
X18176081Y40250500D01*
X18031085Y40221658D01*
X17894506Y40165085D01*
X17771582Y40082950D01*
X17695003Y40006371D01*
X17640486Y39978594D01*
X17580054Y39988166D01*
X17554997Y40006371D01*
X17478417Y40082950D01*
X17478416Y40082951D01*
X17355495Y40165084D01*
X17355493Y40165085D01*
X17218914Y40221658D01*
X17073918Y40250500D01*
X16926082Y40250500D01*
X16926081Y40250500D01*
X16781085Y40221658D01*
X16644505Y40165085D01*
X16555002Y40105280D01*
X16496113Y40088671D01*
X16444998Y40105280D01*
X16355494Y40165085D01*
X16218914Y40221658D01*
X16073918Y40250500D01*
X15926082Y40250500D01*
X15926081Y40250500D01*
X15781085Y40221658D01*
X15644506Y40165085D01*
X15521585Y40082952D01*
X15417048Y39978415D01*
X15334915Y39855494D01*
X15278342Y39718915D01*
X15249500Y39573919D01*
X15249500Y39426082D01*
X15278342Y39281086D01*
X15321836Y39176082D01*
X15334916Y39144505D01*
X15417049Y39021584D01*
X15470505Y38968128D01*
X15498281Y38913613D01*
X15499500Y38898126D01*
X15499500Y37197322D01*
X15480593Y37139131D01*
X15431093Y37103167D01*
X15369907Y37103167D01*
X15330496Y37127318D01*
X14948243Y37509571D01*
X14557314Y37900500D01*
X14557311Y37900502D01*
X14557310Y37900503D01*
X14557309Y37900504D01*
X14443189Y37966391D01*
X14443191Y37966391D01*
X14372000Y37985466D01*
X14315892Y38000500D01*
X14315890Y38000500D01*
X13601875Y38000500D01*
X13543684Y38019407D01*
X13531872Y38029496D01*
X13478417Y38082950D01*
X13478416Y38082951D01*
X13355495Y38165084D01*
X13355493Y38165085D01*
X13218914Y38221658D01*
X13073918Y38250500D01*
X12926082Y38250500D01*
X12926081Y38250500D01*
X12781085Y38221658D01*
X12644506Y38165085D01*
X12521585Y38082952D01*
X12417048Y37978415D01*
X12334915Y37855494D01*
X12278342Y37718915D01*
X12249500Y37573919D01*
X12249500Y37426082D01*
X12278342Y37281086D01*
X12334915Y37144507D01*
X12334916Y37144505D01*
X12417049Y37021584D01*
X12521584Y36917049D01*
X12644505Y36834916D01*
X12781087Y36778342D01*
X12926082Y36749500D01*
X12926083Y36749500D01*
X13073917Y36749500D01*
X13073918Y36749500D01*
X13218913Y36778342D01*
X13355495Y36834916D01*
X13478416Y36917049D01*
X13510362Y36948995D01*
X13531872Y36970504D01*
X13586389Y36998281D01*
X13601875Y36999500D01*
X14001678Y36999500D01*
X14059869Y36980593D01*
X14071682Y36970504D01*
X16470504Y34571683D01*
X16498281Y34517166D01*
X16499500Y34501679D01*
X16499500Y33586207D01*
X16480593Y33528016D01*
X16431093Y33492052D01*
X16381187Y33489109D01*
X16364893Y33492350D01*
X16311508Y33522246D01*
X16285892Y33577811D01*
X16287109Y33608764D01*
X16300499Y33676075D01*
X16300500Y33676084D01*
X16300500Y33823917D01*
X16300500Y33823918D01*
X16271658Y33968913D01*
X16215084Y34105495D01*
X16132951Y34228416D01*
X16028416Y34332951D01*
X15905495Y34415084D01*
X15896362Y34418867D01*
X15768914Y34471658D01*
X15623918Y34500500D01*
X15476082Y34500500D01*
X15476081Y34500500D01*
X15331085Y34471658D01*
X15194506Y34415085D01*
X15071585Y34332952D01*
X14967048Y34228415D01*
X14884915Y34105494D01*
X14828342Y33968915D01*
X14799500Y33823919D01*
X14799500Y33676082D01*
X14828342Y33531086D01*
X14850159Y33478416D01*
X14884916Y33394505D01*
X14967049Y33271584D01*
X15071584Y33167049D01*
X15194505Y33084916D01*
X15331087Y33028342D01*
X15435108Y33007651D01*
X15488491Y32977754D01*
X15514107Y32922189D01*
X15512891Y32891239D01*
X15499500Y32823921D01*
X15499500Y32676082D01*
X15528342Y32531086D01*
X15569761Y32431093D01*
X15584916Y32394505D01*
X15667049Y32271584D01*
X15771584Y32167049D01*
X15894505Y32084916D01*
X16031087Y32028342D01*
X16176082Y31999500D01*
X16176083Y31999500D01*
X16323917Y31999500D01*
X16323918Y31999500D01*
X16328945Y32000500D01*
X16381185Y32010891D01*
X16441946Y32003701D01*
X16486876Y31962169D01*
X16499500Y31913794D01*
X16499500Y28434107D01*
X16506105Y28409456D01*
X16507576Y28364522D01*
X16499500Y28323923D01*
X16499500Y28176082D01*
X16528342Y28031086D01*
X16586506Y27890665D01*
X16591307Y27829668D01*
X16559337Y27777500D01*
X16502809Y27754085D01*
X16443314Y27768369D01*
X16425038Y27782776D01*
X13858461Y30349353D01*
X13830684Y30403870D01*
X13840255Y30464302D01*
X13883520Y30507567D01*
X13909146Y30516454D01*
X13968913Y30528342D01*
X14105495Y30584916D01*
X14228416Y30667049D01*
X14332951Y30771584D01*
X14415084Y30894505D01*
X14471658Y31031087D01*
X14500500Y31176082D01*
X14500500Y31323918D01*
X14471658Y31468913D01*
X14415084Y31605495D01*
X14332951Y31728416D01*
X14228416Y31832951D01*
X14105495Y31915084D01*
X14090754Y31921190D01*
X13968914Y31971658D01*
X13823918Y32000500D01*
X13748322Y32000500D01*
X13690131Y32019407D01*
X13678318Y32029496D01*
X12870069Y32837745D01*
X12057314Y33650500D01*
X12057311Y33650502D01*
X12057310Y33650503D01*
X12057309Y33650504D01*
X11943189Y33716391D01*
X11943191Y33716391D01*
X11893799Y33729625D01*
X11815892Y33750500D01*
X11815890Y33750500D01*
X8417562Y33750500D01*
X8359371Y33769407D01*
X8347558Y33779496D01*
X8114116Y34012938D01*
X8086339Y34067455D01*
X8085120Y34082942D01*
X8085120Y34158537D01*
X8085120Y34158538D01*
X8056278Y34303533D01*
X7999704Y34440115D01*
X7917571Y34563036D01*
X7813036Y34667571D01*
X7732089Y34721658D01*
X7694960Y34746467D01*
X7690112Y34749706D01*
X7553534Y34806278D01*
X7464848Y34823919D01*
X11999500Y34823919D01*
X11999500Y34676082D01*
X12028342Y34531086D01*
X12076392Y34415084D01*
X12084916Y34394505D01*
X12167049Y34271584D01*
X12271584Y34167049D01*
X12394505Y34084916D01*
X12531087Y34028342D01*
X12676082Y33999500D01*
X12676083Y33999500D01*
X12823917Y33999500D01*
X12823918Y33999500D01*
X12968913Y34028342D01*
X13105495Y34084916D01*
X13228416Y34167049D01*
X13332951Y34271584D01*
X13415084Y34394505D01*
X13471658Y34531087D01*
X13500500Y34676082D01*
X13500500Y34823918D01*
X13471658Y34968913D01*
X13415084Y35105495D01*
X13332951Y35228416D01*
X13228416Y35332951D01*
X13105495Y35415084D01*
X13072010Y35428954D01*
X12968914Y35471658D01*
X12823918Y35500500D01*
X12676082Y35500500D01*
X12676081Y35500500D01*
X12531085Y35471658D01*
X12394506Y35415085D01*
X12271585Y35332952D01*
X12167048Y35228415D01*
X12084915Y35105494D01*
X12028342Y34968915D01*
X11999500Y34823919D01*
X7464848Y34823919D01*
X7408538Y34835120D01*
X7260702Y34835120D01*
X7260701Y34835120D01*
X7115705Y34806278D01*
X6979126Y34749705D01*
X6862981Y34672099D01*
X6856204Y34667571D01*
X6768225Y34579593D01*
X6713711Y34551817D01*
X6653279Y34561388D01*
X6628220Y34579594D01*
X3529496Y37678318D01*
X3501719Y37732835D01*
X3500500Y37748322D01*
X3500500Y37783917D01*
X3500500Y37783918D01*
X3471658Y37928913D01*
X3415084Y38065495D01*
X3332951Y38188416D01*
X3228416Y38292951D01*
X3105495Y38375084D01*
X3103081Y38376084D01*
X2968914Y38431658D01*
X2823918Y38460500D01*
X2676082Y38460500D01*
X2676081Y38460500D01*
X2531085Y38431658D01*
X2394506Y38375085D01*
X2271585Y38292952D01*
X2167048Y38188415D01*
X2084915Y38065494D01*
X2028342Y37928915D01*
X1999500Y37783919D01*
X1999500Y37636082D01*
X2028342Y37491086D01*
X2084915Y37354507D01*
X2084916Y37354505D01*
X2167049Y37231584D01*
X2271584Y37127049D01*
X2394505Y37044916D01*
X2531087Y36988342D01*
X2676082Y36959500D01*
X2676083Y36959500D01*
X2791678Y36959500D01*
X2849869Y36940593D01*
X2861682Y36930504D01*
X5298772Y34493414D01*
X5326549Y34438897D01*
X5316978Y34378465D01*
X5283775Y34341098D01*
X5271581Y34332950D01*
X5167050Y34228418D01*
X5084915Y34105494D01*
X5028342Y33968915D01*
X4999500Y33823919D01*
X4999500Y33676082D01*
X5028342Y33531086D01*
X5050159Y33478416D01*
X5084916Y33394505D01*
X5167049Y33271584D01*
X5271584Y33167049D01*
X5394505Y33084916D01*
X5531087Y33028342D01*
X5676082Y32999500D01*
X5680967Y32999500D01*
X5739158Y32980593D01*
X5750971Y32970504D01*
X6670504Y32050971D01*
X6698281Y31996454D01*
X6699500Y31980967D01*
X6699500Y28695247D01*
X6680593Y28637056D01*
X6631093Y28601092D01*
X6581186Y28598149D01*
X6450220Y28624200D01*
X6450218Y28624200D01*
X6302382Y28624200D01*
X6302381Y28624200D01*
X6157385Y28595358D01*
X6020804Y28538785D01*
X6016516Y28536492D01*
X6015533Y28538331D01*
X5968947Y28524200D01*
X5324574Y28524200D01*
X5266383Y28543107D01*
X5230419Y28592607D01*
X5230419Y28653793D01*
X5254568Y28693202D01*
X5332951Y28771584D01*
X5415084Y28894505D01*
X5471658Y29031087D01*
X5500500Y29176082D01*
X5500500Y29323918D01*
X5471658Y29468913D01*
X5415084Y29605495D01*
X5332951Y29728416D01*
X5228416Y29832951D01*
X5105495Y29915084D01*
X5100751Y29917049D01*
X4968914Y29971658D01*
X4823918Y30000500D01*
X4676082Y30000500D01*
X4676081Y30000500D01*
X4531085Y29971658D01*
X4394506Y29915085D01*
X4271582Y29832950D01*
X4175387Y29736756D01*
X4120870Y29708979D01*
X4060438Y29718551D01*
X4035380Y29736756D01*
X3200081Y30572055D01*
X3172304Y30626572D01*
X3181875Y30687004D01*
X3225140Y30730269D01*
X3237387Y30735503D01*
X3349302Y30774664D01*
X3501944Y30870575D01*
X3629425Y30998056D01*
X3725336Y31150698D01*
X3784875Y31320851D01*
X3784876Y31320855D01*
X3799999Y31455082D01*
X3800000Y31455084D01*
X3800000Y31849999D01*
X3799999Y31850000D01*
X2099000Y31850000D01*
X2040809Y31868907D01*
X2004845Y31918407D01*
X2000000Y31949000D01*
X2000000Y31999999D01*
X1999999Y32000000D01*
X1949000Y32000000D01*
X1890809Y32018907D01*
X1854845Y32068407D01*
X1850000Y32099000D01*
X1850000Y33299999D01*
X2150000Y33299999D01*
X2150000Y32150001D01*
X2150001Y32150000D01*
X3799999Y32150000D01*
X3800000Y32150001D01*
X3800000Y32544916D01*
X3799999Y32544919D01*
X3784876Y32679146D01*
X3784875Y32679150D01*
X3725336Y32849303D01*
X3629425Y33001945D01*
X3501944Y33129426D01*
X3501945Y33129426D01*
X3349302Y33225337D01*
X3179149Y33284876D01*
X3179145Y33284877D01*
X3044918Y33300000D01*
X2150001Y33300000D01*
X2150000Y33299999D01*
X1850000Y33299999D01*
X1849999Y33300000D01*
X955081Y33300000D01*
X820854Y33284877D01*
X820850Y33284876D01*
X650697Y33225337D01*
X498055Y33129426D01*
X419504Y33050874D01*
X364987Y33023097D01*
X304555Y33032668D01*
X261290Y33075933D01*
X250500Y33120878D01*
X250500Y39323919D01*
X11999500Y39323919D01*
X11999500Y39176082D01*
X12028342Y39031086D01*
X12073745Y38921474D01*
X12084916Y38894505D01*
X12167049Y38771584D01*
X12271584Y38667049D01*
X12394505Y38584916D01*
X12531087Y38528342D01*
X12676082Y38499500D01*
X12676083Y38499500D01*
X12823917Y38499500D01*
X12823918Y38499500D01*
X12968913Y38528342D01*
X13105495Y38584916D01*
X13228416Y38667049D01*
X13332951Y38771584D01*
X13415084Y38894505D01*
X13471658Y39031087D01*
X13500500Y39176082D01*
X13500500Y39323918D01*
X13471658Y39468913D01*
X13415084Y39605495D01*
X13332951Y39728416D01*
X13332948Y39728419D01*
X13332948Y39728420D01*
X13329491Y39731877D01*
X13301718Y39786395D01*
X13300500Y39801875D01*
X13300500Y40230968D01*
X13302968Y40238566D01*
X13301719Y40246454D01*
X13312242Y40267109D01*
X13319407Y40289159D01*
X13329488Y40300964D01*
X13440510Y40411985D01*
X13440510Y40411986D01*
X13599029Y40570507D01*
X13653544Y40598282D01*
X13669031Y40599501D01*
X14381521Y40599501D01*
X14381522Y40599502D01*
X14428411Y40606928D01*
X14475299Y40614353D01*
X14475299Y40614354D01*
X14475304Y40614354D01*
X14588342Y40671950D01*
X14678050Y40761658D01*
X14735646Y40874696D01*
X14750500Y40968481D01*
X14750499Y42531518D01*
X14750499Y42531519D01*
X14750499Y42531522D01*
X14750498Y42531524D01*
X14735647Y42625300D01*
X14735646Y42625305D01*
X14694756Y42705554D01*
X14685184Y42765986D01*
X14712961Y42820503D01*
X14767477Y42848281D01*
X14782965Y42849500D01*
X14814068Y42849500D01*
X14814069Y42849500D01*
X14939744Y42874499D01*
X15058127Y42923535D01*
X15164669Y42994724D01*
X15243864Y43073919D01*
X15749500Y43073919D01*
X15749500Y42926082D01*
X15778342Y42781086D01*
X15821836Y42676082D01*
X15834916Y42644505D01*
X15917049Y42521584D01*
X16021584Y42417049D01*
X16088505Y42372334D01*
X16144503Y42334917D01*
X16144504Y42334917D01*
X16144505Y42334916D01*
X16188386Y42316740D01*
X16234910Y42277006D01*
X16249500Y42225277D01*
X16249500Y40968479D01*
X16249501Y40968477D01*
X16264352Y40874701D01*
X16264354Y40874696D01*
X16321950Y40761658D01*
X16411658Y40671950D01*
X16524696Y40614354D01*
X16618481Y40599500D01*
X17381518Y40599501D01*
X17381521Y40599501D01*
X17381522Y40599502D01*
X17428411Y40606928D01*
X17475299Y40614353D01*
X17475299Y40614354D01*
X17475304Y40614354D01*
X17588342Y40671950D01*
X17678050Y40761658D01*
X17716977Y40838058D01*
X17760241Y40881321D01*
X17820673Y40890892D01*
X17875190Y40863114D01*
X17895750Y40833100D01*
X17898212Y40827524D01*
X17977522Y40748214D01*
X18080127Y40702910D01*
X18105203Y40700001D01*
X18349998Y40700001D01*
X18350000Y40700002D01*
X18350000Y41599999D01*
X18650000Y41599999D01*
X18650000Y40700002D01*
X18650001Y40700001D01*
X18894790Y40700001D01*
X18894791Y40700002D01*
X18919874Y40702910D01*
X19022477Y40748214D01*
X19101786Y40827523D01*
X19147090Y40930128D01*
X19149999Y40955203D01*
X19149999Y41599999D01*
X19149998Y41600000D01*
X18650001Y41600000D01*
X18650000Y41599999D01*
X18350000Y41599999D01*
X18350000Y42799999D01*
X18650000Y42799999D01*
X18650000Y41900001D01*
X18650001Y41900000D01*
X19182502Y41900000D01*
X19240693Y41881093D01*
X19246743Y41874727D01*
X19330127Y41837910D01*
X19355203Y41835001D01*
X19749998Y41835001D01*
X19750000Y41835002D01*
X19750000Y42384999D01*
X20050000Y42384999D01*
X20050000Y41835002D01*
X20050001Y41835001D01*
X20444790Y41835001D01*
X20444791Y41835002D01*
X20469874Y41837910D01*
X20572477Y41883214D01*
X20651786Y41962523D01*
X20697090Y42065128D01*
X20699999Y42090203D01*
X20700000Y42090205D01*
X20700000Y42384999D01*
X20699999Y42385000D01*
X20050001Y42385000D01*
X20050000Y42384999D01*
X19750000Y42384999D01*
X19750000Y43234999D01*
X20050000Y43234999D01*
X20050000Y42685001D01*
X20050001Y42685000D01*
X20699998Y42685000D01*
X20699999Y42685001D01*
X20699999Y42979790D01*
X20699998Y42979792D01*
X20697090Y43004875D01*
X20651786Y43107478D01*
X20572477Y43186787D01*
X20469872Y43232091D01*
X20444797Y43235000D01*
X20050001Y43235000D01*
X20050000Y43234999D01*
X19750000Y43234999D01*
X19749999Y43235000D01*
X19355210Y43235000D01*
X19355207Y43234999D01*
X19330125Y43232091D01*
X19227522Y43186787D01*
X19148213Y43107478D01*
X19102909Y43004873D01*
X19100000Y42979798D01*
X19100000Y42869491D01*
X19081093Y42811300D01*
X19031593Y42775336D01*
X18970407Y42775336D01*
X18961013Y42778926D01*
X18919875Y42797090D01*
X18919872Y42797091D01*
X18894797Y42800000D01*
X18650001Y42800000D01*
X18650000Y42799999D01*
X18350000Y42799999D01*
X18349999Y42800000D01*
X18199601Y42800000D01*
X18141410Y42818907D01*
X18105446Y42868407D01*
X18105446Y42929593D01*
X18141410Y42979093D01*
X18144531Y42981269D01*
X18164669Y42994724D01*
X18255276Y43085331D01*
X18326465Y43191873D01*
X18375501Y43310256D01*
X18400500Y43435931D01*
X18400500Y43564069D01*
X18375501Y43689744D01*
X18326465Y43808127D01*
X18326463Y43808130D01*
X18326461Y43808134D01*
X18270073Y43892523D01*
X18255276Y43914669D01*
X18164669Y44005276D01*
X18122226Y44033635D01*
X18058133Y44076462D01*
X18058125Y44076466D01*
X17939747Y44125500D01*
X17939745Y44125501D01*
X17939744Y44125501D01*
X17814069Y44150500D01*
X17685931Y44150500D01*
X17685930Y44150500D01*
X17623093Y44138001D01*
X17560256Y44125501D01*
X17560255Y44125501D01*
X17560252Y44125500D01*
X17441874Y44076466D01*
X17441866Y44076462D01*
X17335331Y44005276D01*
X17335327Y44005273D01*
X17244727Y43914673D01*
X17244724Y43914669D01*
X17173538Y43808134D01*
X17173534Y43808126D01*
X17124500Y43689748D01*
X17124497Y43689737D01*
X17117514Y43654635D01*
X17087616Y43601252D01*
X17032050Y43575638D01*
X16972041Y43587576D01*
X16965432Y43591627D01*
X16855495Y43665084D01*
X16847135Y43668547D01*
X16718914Y43721658D01*
X16573918Y43750500D01*
X16426082Y43750500D01*
X16426081Y43750500D01*
X16281085Y43721658D01*
X16144506Y43665085D01*
X16021585Y43582952D01*
X15917048Y43478415D01*
X15834915Y43355494D01*
X15778342Y43218915D01*
X15749500Y43073919D01*
X15243864Y43073919D01*
X15255276Y43085331D01*
X15326465Y43191873D01*
X15375501Y43310256D01*
X15400500Y43435931D01*
X15400500Y43564069D01*
X15375501Y43689744D01*
X15326465Y43808127D01*
X15326463Y43808130D01*
X15326461Y43808134D01*
X15270073Y43892523D01*
X15255276Y43914669D01*
X15164669Y44005276D01*
X15122226Y44033635D01*
X15058133Y44076462D01*
X15058125Y44076466D01*
X14939747Y44125500D01*
X14939745Y44125501D01*
X14939744Y44125501D01*
X14814069Y44150500D01*
X14685931Y44150500D01*
X14685930Y44150500D01*
X14623093Y44138001D01*
X14560256Y44125501D01*
X14560255Y44125501D01*
X14560252Y44125500D01*
X14441874Y44076466D01*
X14441866Y44076462D01*
X14335331Y44005276D01*
X14335327Y44005273D01*
X14244727Y43914673D01*
X14244724Y43914669D01*
X14173538Y43808134D01*
X14173534Y43808126D01*
X14124500Y43689748D01*
X14124499Y43689745D01*
X14124499Y43689744D01*
X14120283Y43668547D01*
X14108262Y43608115D01*
X14099500Y43564069D01*
X14099500Y43435931D01*
X14115500Y43355494D01*
X14124499Y43310258D01*
X14124500Y43310253D01*
X14173534Y43191875D01*
X14173538Y43191867D01*
X14212349Y43133784D01*
X14244724Y43085331D01*
X14244727Y43085328D01*
X14260551Y43069504D01*
X14288328Y43014987D01*
X14278757Y42954555D01*
X14235492Y42911290D01*
X14190547Y42900500D01*
X13618478Y42900500D01*
X13618476Y42900499D01*
X13516999Y42884428D01*
X13516554Y42887237D01*
X13468400Y42887239D01*
X13418903Y42923206D01*
X13401423Y42977009D01*
X13400164Y42976936D01*
X13399998Y42979792D01*
X13397090Y43004875D01*
X13351786Y43107478D01*
X13272477Y43186787D01*
X13169872Y43232091D01*
X13144797Y43235000D01*
X12750001Y43235000D01*
X12750000Y43234999D01*
X12750000Y41835002D01*
X12750001Y41835001D01*
X13067468Y41835001D01*
X13125659Y41816094D01*
X13161623Y41766594D01*
X13161623Y41705408D01*
X13137472Y41665998D01*
X12661985Y41190511D01*
X12661985Y41190510D01*
X12661984Y41190511D01*
X12309489Y40838015D01*
X12265405Y40761659D01*
X12265406Y40761658D01*
X12237016Y40712487D01*
X12199500Y40572475D01*
X12199500Y39801875D01*
X12180593Y39743684D01*
X12170509Y39731877D01*
X12167051Y39728420D01*
X12167051Y39728419D01*
X12084915Y39605494D01*
X12028342Y39468915D01*
X11999500Y39323919D01*
X250500Y39323919D01*
X250500Y41997565D01*
X250619Y42002423D01*
X253699Y42065126D01*
X268317Y42362682D01*
X269264Y42372298D01*
X271148Y42384999D01*
X11800001Y42384999D01*
X11800001Y42090209D01*
X11802909Y42065126D01*
X11848213Y41962523D01*
X11927522Y41883214D01*
X12030127Y41837910D01*
X12055203Y41835001D01*
X12449998Y41835001D01*
X12450000Y41835002D01*
X12450000Y42384999D01*
X12449999Y42385000D01*
X11800002Y42385000D01*
X11800001Y42384999D01*
X271148Y42384999D01*
X321834Y42726695D01*
X323722Y42736190D01*
X384743Y42979798D01*
X11800000Y42979798D01*
X11800000Y42685001D01*
X11800001Y42685000D01*
X12449999Y42685000D01*
X12450000Y42685001D01*
X12450000Y43234999D01*
X12449999Y43235000D01*
X12055210Y43235000D01*
X12055207Y43234999D01*
X12030125Y43232091D01*
X11927522Y43186787D01*
X11848213Y43107478D01*
X11802909Y43004873D01*
X11800000Y42979798D01*
X384743Y42979798D01*
X410773Y43083716D01*
X413583Y43092981D01*
X534279Y43430304D01*
X537988Y43439259D01*
X691163Y43763121D01*
X695730Y43771664D01*
X879907Y44078945D01*
X885293Y44087006D01*
X1054383Y44314999D01*
X11800001Y44314999D01*
X11800001Y44020209D01*
X11802909Y43995126D01*
X11848213Y43892523D01*
X11927522Y43813214D01*
X12030127Y43767910D01*
X12055203Y43765001D01*
X12449998Y43765001D01*
X12450000Y43765002D01*
X12450000Y44314999D01*
X12750000Y44314999D01*
X12750000Y43765002D01*
X12750001Y43765001D01*
X13144790Y43765001D01*
X13144791Y43765002D01*
X13169874Y43767910D01*
X13272477Y43813214D01*
X13351786Y43892523D01*
X13397090Y43995128D01*
X13399999Y44020203D01*
X13400000Y44020205D01*
X13400000Y44314999D01*
X19100001Y44314999D01*
X19100001Y44020209D01*
X19102909Y43995126D01*
X19148213Y43892523D01*
X19227522Y43813214D01*
X19330127Y43767910D01*
X19355203Y43765001D01*
X19749998Y43765001D01*
X19750000Y43765002D01*
X19750000Y44314999D01*
X20050000Y44314999D01*
X20050000Y43765002D01*
X20050001Y43765001D01*
X20444790Y43765001D01*
X20444791Y43765002D01*
X20469874Y43767910D01*
X20572477Y43813214D01*
X20651786Y43892523D01*
X20697090Y43995128D01*
X20699999Y44020203D01*
X20700000Y44020205D01*
X20700000Y44314999D01*
X20699999Y44315000D01*
X20050001Y44315000D01*
X20050000Y44314999D01*
X19750000Y44314999D01*
X19749999Y44315000D01*
X19100002Y44315000D01*
X19100001Y44314999D01*
X13400000Y44314999D01*
X13399999Y44315000D01*
X12750001Y44315000D01*
X12750000Y44314999D01*
X12450000Y44314999D01*
X12449999Y44315000D01*
X11800002Y44315000D01*
X11800001Y44314999D01*
X1054383Y44314999D01*
X1098703Y44374758D01*
X1104857Y44382256D01*
X1345451Y44647710D01*
X1352290Y44654549D01*
X1617735Y44895135D01*
X1625244Y44901297D01*
X1636694Y44909789D01*
X1636706Y44909798D01*
X11800000Y44909798D01*
X11800000Y44615001D01*
X11800001Y44615000D01*
X12449999Y44615000D01*
X12450000Y44615001D01*
X12450000Y45164999D01*
X12750000Y45164999D01*
X12750000Y44615001D01*
X12750001Y44615000D01*
X13399998Y44615000D01*
X13399999Y44615001D01*
X13399999Y44909789D01*
X13399998Y44909793D01*
X13399997Y44909798D01*
X19100000Y44909798D01*
X19100000Y44615001D01*
X19100001Y44615000D01*
X19749999Y44615000D01*
X19750000Y44615001D01*
X19750000Y45164999D01*
X20050000Y45164999D01*
X20050000Y44615001D01*
X20050001Y44615000D01*
X20699998Y44615000D01*
X20699999Y44615001D01*
X20699999Y44909790D01*
X20699998Y44909792D01*
X20697090Y44934875D01*
X20651786Y45037478D01*
X20572477Y45116787D01*
X20469872Y45162091D01*
X20444797Y45165000D01*
X20050001Y45165000D01*
X20050000Y45164999D01*
X19750000Y45164999D01*
X19749999Y45165000D01*
X19355210Y45165000D01*
X19355207Y45164999D01*
X19330125Y45162091D01*
X19227522Y45116787D01*
X19148213Y45037478D01*
X19102909Y44934873D01*
X19100000Y44909798D01*
X13399997Y44909798D01*
X13397090Y44934875D01*
X13351786Y45037478D01*
X13272477Y45116787D01*
X13169872Y45162091D01*
X13144797Y45165000D01*
X12750001Y45165000D01*
X12750000Y45164999D01*
X12450000Y45164999D01*
X12449999Y45165000D01*
X12055210Y45165000D01*
X12055207Y45164999D01*
X12030125Y45162091D01*
X11927522Y45116787D01*
X11848213Y45037478D01*
X11802909Y44934873D01*
X11800000Y44909798D01*
X1636706Y44909798D01*
X1912994Y45114707D01*
X1921055Y45120093D01*
X2228336Y45304270D01*
X2236879Y45308837D01*
X2560741Y45462012D01*
X2569696Y45465721D01*
X2907019Y45586417D01*
X2916278Y45589226D01*
X3263810Y45676278D01*
X3273308Y45678167D01*
X3627682Y45730733D01*
X3637318Y45731683D01*
X3997578Y45749381D01*
X4002436Y45749500D01*
X4044170Y45749500D01*
X38613226Y45749500D01*
X38635277Y45742336D01*
G37*
%TD.AperFunction*%
%TA.AperFunction,Conductor*%
G36*
X19294445Y36860464D02*
G01*
X19337710Y36817199D01*
X19348500Y36772254D01*
X19348500Y31966892D01*
X19348500Y31835108D01*
X19376504Y31730593D01*
X19382609Y31707810D01*
X19448496Y31593691D01*
X19448498Y31593689D01*
X19448500Y31593686D01*
X20009236Y31032951D01*
X20470504Y30571683D01*
X20498281Y30517166D01*
X20499500Y30501679D01*
X20499500Y30426082D01*
X20528342Y30281086D01*
X20582977Y30149185D01*
X20584916Y30144505D01*
X20667049Y30021584D01*
X20771584Y29917049D01*
X20894505Y29834916D01*
X20909326Y29828777D01*
X20922089Y29823490D01*
X20925159Y29820868D01*
X20929149Y29820236D01*
X20948165Y29801220D01*
X20968615Y29783754D01*
X20969558Y29779827D01*
X20972413Y29776971D01*
X20976619Y29750415D01*
X20982899Y29724259D01*
X20981353Y29720528D01*
X20981985Y29716539D01*
X20969774Y29692576D01*
X20959484Y29667731D01*
X20954208Y29662023D01*
X20821683Y29529497D01*
X20767166Y29501719D01*
X20751679Y29500500D01*
X20676081Y29500500D01*
X20531085Y29471658D01*
X20394506Y29415085D01*
X20271585Y29332952D01*
X20167048Y29228415D01*
X20084915Y29105494D01*
X20028342Y28968915D01*
X19999500Y28823919D01*
X19999500Y28697322D01*
X19980593Y28639131D01*
X19931093Y28603167D01*
X19869907Y28603167D01*
X19830496Y28627318D01*
X18529496Y29928318D01*
X18501719Y29982835D01*
X18500500Y29998322D01*
X18500500Y35565891D01*
X18500500Y35565892D01*
X18466392Y35693186D01*
X18466390Y35693189D01*
X18466390Y35693191D01*
X18462931Y35699182D01*
X18450209Y35759030D01*
X18475095Y35814926D01*
X18493660Y35830994D01*
X18578416Y35887625D01*
X18682951Y35992160D01*
X18765084Y36115081D01*
X18821658Y36251663D01*
X18850500Y36396658D01*
X18850500Y36472254D01*
X18869407Y36530445D01*
X18879496Y36542258D01*
X19179496Y36842258D01*
X19234013Y36870035D01*
X19294445Y36860464D01*
G37*
%TD.AperFunction*%
%TA.AperFunction,Conductor*%
G36*
X10654908Y32730593D02*
G01*
X10690872Y32681093D01*
X10690872Y32619907D01*
X10686667Y32610035D01*
X10686777Y32609989D01*
X10628342Y32468915D01*
X10599500Y32323919D01*
X10599500Y32315531D01*
X10580593Y32257340D01*
X10531093Y32221376D01*
X10473702Y32220814D01*
X10473682Y32220709D01*
X10473184Y32220808D01*
X10471762Y32220794D01*
X10468918Y32221657D01*
X10323918Y32250500D01*
X10176082Y32250500D01*
X10176081Y32250500D01*
X10031085Y32221658D01*
X9894506Y32165085D01*
X9771585Y32082952D01*
X9667048Y31978415D01*
X9584915Y31855494D01*
X9528342Y31718915D01*
X9499500Y31573919D01*
X9499500Y31426082D01*
X9528342Y31281086D01*
X9571836Y31176082D01*
X9584916Y31144505D01*
X9667049Y31021584D01*
X9771584Y30917049D01*
X9894505Y30834916D01*
X10031087Y30778342D01*
X10176082Y30749500D01*
X10176083Y30749500D01*
X10323917Y30749500D01*
X10323918Y30749500D01*
X10468913Y30778342D01*
X10605495Y30834916D01*
X10728416Y30917049D01*
X10832951Y31021584D01*
X10915084Y31144505D01*
X10971658Y31281087D01*
X11000500Y31426082D01*
X11000500Y31434470D01*
X11008312Y31458515D01*
X11013370Y31483281D01*
X11017624Y31487174D01*
X11019407Y31492661D01*
X11039866Y31507526D01*
X11058510Y31524585D01*
X11063831Y31524938D01*
X11068907Y31528625D01*
X11119307Y31531468D01*
X11127656Y31529764D01*
X11131087Y31528342D01*
X11267603Y31501187D01*
X11267846Y31501137D01*
X11272921Y31498261D01*
X11318043Y31474143D01*
X12872682Y29919504D01*
X12900459Y29864987D01*
X12890888Y29804555D01*
X12847623Y29761290D01*
X12802678Y29750500D01*
X11652874Y29750500D01*
X11594683Y29769407D01*
X11582876Y29779491D01*
X11478416Y29883951D01*
X11355495Y29966084D01*
X11342212Y29971586D01*
X11218914Y30022658D01*
X11073918Y30051500D01*
X10926082Y30051500D01*
X10926081Y30051500D01*
X10781085Y30022658D01*
X10644506Y29966085D01*
X10521585Y29883952D01*
X10417048Y29779415D01*
X10334915Y29656494D01*
X10278342Y29519915D01*
X10249500Y29374919D01*
X10249500Y29227082D01*
X10278342Y29082086D01*
X10296858Y29037385D01*
X10301659Y28976389D01*
X10269689Y28924220D01*
X10213161Y28900805D01*
X10205394Y28900500D01*
X9369661Y28900500D01*
X9311470Y28919407D01*
X9299659Y28929495D01*
X9272281Y28956872D01*
X9268824Y28959182D01*
X9149359Y29039006D01*
X9149357Y29039007D01*
X9012778Y29095580D01*
X8867782Y29124422D01*
X8719946Y29124422D01*
X8719945Y29124422D01*
X8574949Y29095580D01*
X8438368Y29039007D01*
X8438366Y29039005D01*
X8404501Y29016377D01*
X8345613Y28999768D01*
X8288210Y29020946D01*
X8254217Y29071819D01*
X8250500Y29098692D01*
X8250500Y32650500D01*
X8269407Y32708691D01*
X8318907Y32744655D01*
X8349500Y32749500D01*
X10596717Y32749500D01*
X10654908Y32730593D01*
G37*
%TD.AperFunction*%
%TA.AperFunction,Conductor*%
G36*
X25420939Y37845243D02*
G01*
X25434708Y37845783D01*
X25449315Y37836023D01*
X25466026Y37830593D01*
X25474125Y37819445D01*
X25485582Y37811790D01*
X25491662Y37795308D01*
X25501990Y37781093D01*
X25501990Y37767314D01*
X25506759Y37754386D01*
X25501990Y37737478D01*
X25501990Y37719907D01*
X25490150Y37695498D01*
X25423393Y37595592D01*
X25423387Y37595581D01*
X25370939Y37468959D01*
X25370939Y37468957D01*
X25344200Y37334533D01*
X25344200Y37197468D01*
X25370939Y37063044D01*
X25370939Y37063042D01*
X25423387Y36936420D01*
X25423393Y36936409D01*
X25467035Y36871095D01*
X25499537Y36822453D01*
X25596453Y36725537D01*
X25664394Y36680140D01*
X25710408Y36649394D01*
X25710419Y36649388D01*
X25757193Y36630014D01*
X25837043Y36596939D01*
X25971470Y36570200D01*
X25971471Y36570200D01*
X26108529Y36570200D01*
X26108530Y36570200D01*
X26242957Y36596939D01*
X26369585Y36649390D01*
X26483547Y36725537D01*
X26580463Y36822453D01*
X26656610Y36936415D01*
X26709061Y37063043D01*
X26735800Y37197470D01*
X26735800Y37334530D01*
X26709061Y37468957D01*
X26680173Y37538700D01*
X26656612Y37595581D01*
X26656606Y37595592D01*
X26602822Y37676084D01*
X26589849Y37695499D01*
X26573241Y37754386D01*
X26594418Y37811790D01*
X26645292Y37845783D01*
X26672165Y37849500D01*
X27398125Y37849500D01*
X27456316Y37830593D01*
X27468128Y37820504D01*
X27496687Y37791946D01*
X27521584Y37767049D01*
X27644505Y37684916D01*
X27781087Y37628342D01*
X27926082Y37599500D01*
X27934166Y37599500D01*
X27959593Y37591239D01*
X27985602Y37585089D01*
X27987986Y37582013D01*
X27992357Y37580593D01*
X28025499Y37538700D01*
X28028032Y37532643D01*
X28028342Y37531087D01*
X28084916Y37394505D01*
X28087303Y37390933D01*
X28090833Y37382493D01*
X28091761Y37371193D01*
X28098500Y37344293D01*
X28098500Y36687929D01*
X28079593Y36629738D01*
X28030093Y36593774D01*
X27968907Y36593774D01*
X27944498Y36605614D01*
X27855494Y36665085D01*
X27718914Y36721658D01*
X27573918Y36750500D01*
X27426082Y36750500D01*
X27426081Y36750500D01*
X27281085Y36721658D01*
X27144506Y36665085D01*
X27021585Y36582952D01*
X26917048Y36478415D01*
X26834915Y36355494D01*
X26778342Y36218915D01*
X26749500Y36073919D01*
X26749500Y35926082D01*
X26778342Y35781086D01*
X26828049Y35661081D01*
X26828055Y35661068D01*
X26834916Y35644505D01*
X26839699Y35637346D01*
X26839702Y35637341D01*
X26891468Y35559869D01*
X26917049Y35521584D01*
X26970505Y35468128D01*
X26998281Y35413613D01*
X26999500Y35398126D01*
X26999500Y34849500D01*
X26995220Y34836329D01*
X26995744Y34822491D01*
X26986001Y34807956D01*
X26980593Y34791309D01*
X26969388Y34783169D01*
X26961679Y34771666D01*
X26946173Y34766302D01*
X26931093Y34755345D01*
X26904245Y34750571D01*
X26902369Y34750500D01*
X26776082Y34750500D01*
X26746399Y34744596D01*
X26738537Y34744298D01*
X26716299Y34750604D01*
X26693344Y34753321D01*
X26687426Y34758792D01*
X26679673Y34760990D01*
X26665387Y34779165D01*
X26648415Y34794854D01*
X26646842Y34802758D01*
X26641862Y34809094D01*
X26640987Y34832193D01*
X26636478Y34854864D01*
X26639790Y34863842D01*
X26639548Y34870236D01*
X26645334Y34878871D01*
X26652478Y34898231D01*
X26656608Y34904412D01*
X26656612Y34904420D01*
X26709061Y35031043D01*
X26735800Y35165470D01*
X26735800Y35302530D01*
X26709061Y35436957D01*
X26656610Y35563585D01*
X26651822Y35570751D01*
X26651821Y35570753D01*
X26627841Y35606641D01*
X26580463Y35677547D01*
X26483547Y35774463D01*
X26422990Y35814926D01*
X26369591Y35850607D01*
X26369580Y35850613D01*
X26242957Y35903061D01*
X26108532Y35929800D01*
X26108530Y35929800D01*
X25971470Y35929800D01*
X25971467Y35929800D01*
X25837043Y35903061D01*
X25837041Y35903061D01*
X25710419Y35850613D01*
X25710408Y35850607D01*
X25596453Y35774463D01*
X25596449Y35774460D01*
X25499540Y35677551D01*
X25499537Y35677547D01*
X25423393Y35563592D01*
X25423387Y35563581D01*
X25370939Y35436959D01*
X25370939Y35436957D01*
X25344200Y35302533D01*
X25344200Y35302530D01*
X25344200Y35165470D01*
X25370887Y35031302D01*
X25370939Y35031044D01*
X25370939Y35031042D01*
X25423387Y34904420D01*
X25423393Y34904409D01*
X25450500Y34863842D01*
X25499537Y34790453D01*
X25596453Y34693537D01*
X25639036Y34665084D01*
X25710408Y34617394D01*
X25710419Y34617388D01*
X25757193Y34598014D01*
X25837043Y34564939D01*
X25971470Y34538200D01*
X25971471Y34538200D01*
X26108534Y34538200D01*
X26112667Y34538607D01*
X26172431Y34525494D01*
X26213073Y34479758D01*
X26219070Y34418867D01*
X26204686Y34385083D01*
X26184914Y34355493D01*
X26128342Y34218915D01*
X26099500Y34073919D01*
X26099500Y33926082D01*
X26128342Y33781086D01*
X26177302Y33662885D01*
X26182102Y33601888D01*
X26177302Y33587115D01*
X26128342Y33468915D01*
X26099500Y33323919D01*
X26099500Y33176082D01*
X26128342Y33031086D01*
X26181771Y32902097D01*
X26184916Y32894505D01*
X26267049Y32771584D01*
X26371584Y32667049D01*
X26494505Y32584916D01*
X26631087Y32528342D01*
X26776082Y32499500D01*
X26776083Y32499500D01*
X26900500Y32499500D01*
X26958691Y32480593D01*
X26994655Y32431093D01*
X26999500Y32400500D01*
X26999500Y30748322D01*
X26997031Y30740725D01*
X26998281Y30732835D01*
X26987756Y30712180D01*
X26980593Y30690131D01*
X26970504Y30678319D01*
X26871778Y30579594D01*
X26817263Y30551817D01*
X26756831Y30561388D01*
X26731775Y30579592D01*
X26643796Y30667571D01*
X26520875Y30749704D01*
X26520873Y30749705D01*
X26384294Y30806278D01*
X26239298Y30835120D01*
X26163702Y30835120D01*
X26105511Y30854027D01*
X26093698Y30864116D01*
X23795792Y33162022D01*
X23768015Y33216539D01*
X23777586Y33276971D01*
X23820851Y33320236D01*
X23827911Y33323490D01*
X23836212Y33326929D01*
X23855495Y33334916D01*
X23978416Y33417049D01*
X24082951Y33521584D01*
X24165084Y33644505D01*
X24221658Y33781087D01*
X24250500Y33926082D01*
X24250500Y34073918D01*
X24221658Y34218913D01*
X24165084Y34355495D01*
X24082951Y34478416D01*
X23978416Y34582951D01*
X23855495Y34665084D01*
X23849491Y34667571D01*
X23718914Y34721658D01*
X23573918Y34750500D01*
X23426082Y34750500D01*
X23426081Y34750500D01*
X23281085Y34721658D01*
X23144506Y34665085D01*
X23021585Y34582952D01*
X22917048Y34478415D01*
X22834916Y34355496D01*
X22823488Y34327908D01*
X22820866Y34324839D01*
X22820235Y34320852D01*
X22801218Y34301836D01*
X22783750Y34281384D01*
X22779824Y34280442D01*
X22776970Y34277587D01*
X22750407Y34273381D01*
X22724254Y34267102D01*
X22720523Y34268648D01*
X22716538Y34268016D01*
X22692574Y34280226D01*
X22667727Y34290519D01*
X22662021Y34295793D01*
X22529496Y34428318D01*
X22501719Y34482835D01*
X22500500Y34498322D01*
X22500500Y36728395D01*
X22500498Y36728407D01*
X22499393Y36732531D01*
X22499391Y36732536D01*
X22488928Y36771584D01*
X22466392Y36855692D01*
X22460088Y36866610D01*
X22423199Y36930504D01*
X22412525Y36948992D01*
X22412524Y36948993D01*
X22412524Y36948995D01*
X22400500Y36969820D01*
X22307314Y37063007D01*
X22307314Y37063006D01*
X21860749Y37509571D01*
X21832972Y37564088D01*
X21831753Y37579575D01*
X21831753Y37655170D01*
X21831753Y37655171D01*
X21816632Y37731187D01*
X21823823Y37791946D01*
X21865356Y37836877D01*
X21913730Y37849500D01*
X25407835Y37849500D01*
X25420939Y37845243D01*
G37*
%TD.AperFunction*%
%TA.AperFunction,Conductor*%
G36*
X21445445Y34537336D02*
G01*
X21488710Y34494071D01*
X21499500Y34449126D01*
X21499500Y34315892D01*
X21499500Y34184108D01*
X21521181Y34103192D01*
X21533609Y34056810D01*
X21599496Y33942691D01*
X21599498Y33942689D01*
X21599500Y33942686D01*
X21704209Y33837977D01*
X21731985Y33783462D01*
X21722414Y33723030D01*
X21679149Y33679765D01*
X21672092Y33676512D01*
X21644505Y33665085D01*
X21521585Y33582952D01*
X21417048Y33478415D01*
X21334915Y33355494D01*
X21278342Y33218915D01*
X21249500Y33073919D01*
X21249500Y32926082D01*
X21278342Y32781086D01*
X21320567Y32679146D01*
X21334916Y32644505D01*
X21417049Y32521584D01*
X21470505Y32468128D01*
X21498281Y32413613D01*
X21499500Y32398126D01*
X21499500Y31336207D01*
X21493363Y31317320D01*
X21491635Y31297537D01*
X21484129Y31288901D01*
X21480593Y31278016D01*
X21464525Y31266343D01*
X21451500Y31251354D01*
X21441498Y31249613D01*
X21431093Y31242052D01*
X21391885Y31237583D01*
X21386481Y31238055D01*
X21323918Y31250500D01*
X21244010Y31250500D01*
X21239706Y31250876D01*
X21215326Y31261221D01*
X21190130Y31269407D01*
X21184302Y31274384D01*
X21183381Y31274775D01*
X21182891Y31275589D01*
X21178317Y31279496D01*
X20378496Y32079318D01*
X20350719Y32133835D01*
X20349500Y32149322D01*
X20349500Y34205395D01*
X20368407Y34263586D01*
X20417907Y34299550D01*
X20479093Y34299550D01*
X20486349Y34296873D01*
X20531087Y34278342D01*
X20676082Y34249500D01*
X20676083Y34249500D01*
X20823917Y34249500D01*
X20823918Y34249500D01*
X20968913Y34278342D01*
X21105495Y34334916D01*
X21228416Y34417049D01*
X21330498Y34519132D01*
X21385013Y34546907D01*
X21445445Y34537336D01*
G37*
%TD.AperFunction*%
%TA.AperFunction,Conductor*%
G36*
X40783053Y38178593D02*
G01*
X40819017Y38129093D01*
X40819017Y38067907D01*
X40816326Y38060615D01*
X40778342Y37968915D01*
X40749500Y37823919D01*
X40749500Y37676080D01*
X40765708Y37594598D01*
X40758516Y37533837D01*
X40716984Y37488907D01*
X40656974Y37476970D01*
X40601409Y37502586D01*
X40598631Y37505256D01*
X40575923Y37527964D01*
X40453002Y37610097D01*
X40408955Y37628342D01*
X40316421Y37666671D01*
X40171425Y37695513D01*
X40023589Y37695513D01*
X40023588Y37695513D01*
X39878592Y37666671D01*
X39742013Y37610098D01*
X39619092Y37527965D01*
X39514555Y37423428D01*
X39432422Y37300507D01*
X39375849Y37163928D01*
X39347007Y37018932D01*
X39347007Y36871095D01*
X39375849Y36726099D01*
X39429349Y36596940D01*
X39432423Y36589518D01*
X39514556Y36466597D01*
X39619091Y36362062D01*
X39676176Y36323919D01*
X39742010Y36279930D01*
X39742011Y36279930D01*
X39742012Y36279929D01*
X39775973Y36265862D01*
X39822499Y36226126D01*
X39836783Y36166632D01*
X39813369Y36110104D01*
X39761200Y36078134D01*
X39738088Y36075398D01*
X39472151Y36075398D01*
X39472149Y36075397D01*
X39378373Y36060546D01*
X39378368Y36060544D01*
X39265332Y36002949D01*
X39175622Y35913239D01*
X39118027Y35800204D01*
X39111487Y35758911D01*
X39083709Y35704395D01*
X39029192Y35676618D01*
X39013706Y35675399D01*
X38372078Y35675399D01*
X38372075Y35675398D01*
X38278299Y35660547D01*
X38278294Y35660545D01*
X38165258Y35602950D01*
X38075548Y35513240D01*
X38017953Y35400204D01*
X38003099Y35306421D01*
X38003099Y34871099D01*
X37984192Y34812908D01*
X37934692Y34776944D01*
X37904099Y34772099D01*
X37587491Y34772099D01*
X37455706Y34772099D01*
X37377799Y34751225D01*
X37328408Y34737990D01*
X37214289Y34672103D01*
X36321682Y33779496D01*
X36267165Y33751719D01*
X36251678Y33750500D01*
X35601875Y33750500D01*
X35594277Y33752969D01*
X35586389Y33751719D01*
X35565735Y33762243D01*
X35543684Y33769407D01*
X35531872Y33779496D01*
X35488144Y33823223D01*
X35460366Y33877739D01*
X35469937Y33938171D01*
X35488140Y33963228D01*
X39693418Y38168504D01*
X39747935Y38196281D01*
X39763422Y38197500D01*
X40724862Y38197500D01*
X40783053Y38178593D01*
G37*
%TD.AperFunction*%
%TA.AperFunction,Conductor*%
G36*
X37687508Y39230593D02*
G01*
X37699320Y39220504D01*
X37743741Y39176084D01*
X37774497Y39145328D01*
X37829609Y39108504D01*
X37881556Y39073793D01*
X37919435Y39025743D01*
X37921837Y38964605D01*
X37896558Y38921474D01*
X34324704Y35349620D01*
X34270187Y35321843D01*
X34209755Y35331414D01*
X34172385Y35364622D01*
X34129399Y35428954D01*
X34123331Y35438036D01*
X34018796Y35542571D01*
X33895875Y35624704D01*
X33895873Y35624705D01*
X33759294Y35681278D01*
X33614298Y35710120D01*
X33538702Y35710120D01*
X33480511Y35729027D01*
X33468698Y35739116D01*
X32308008Y36899806D01*
X32286548Y36931925D01*
X32249704Y37020875D01*
X32221528Y37063043D01*
X32167571Y37143796D01*
X32079591Y37231776D01*
X32051816Y37286290D01*
X32061387Y37346722D01*
X32079594Y37371781D01*
X32628319Y37920504D01*
X32682835Y37948281D01*
X32698322Y37949500D01*
X34148125Y37949500D01*
X34206316Y37930593D01*
X34218128Y37920504D01*
X34271582Y37867051D01*
X34271584Y37867049D01*
X34394505Y37784916D01*
X34531087Y37728342D01*
X34676082Y37699500D01*
X34676083Y37699500D01*
X34823917Y37699500D01*
X34823918Y37699500D01*
X34968913Y37728342D01*
X35105495Y37784916D01*
X35228416Y37867049D01*
X35332951Y37971584D01*
X35415084Y38094505D01*
X35471658Y38231087D01*
X35500500Y38376082D01*
X35500500Y38500500D01*
X35505345Y38515412D01*
X35505345Y38531093D01*
X35514561Y38543779D01*
X35519407Y38558691D01*
X35532092Y38567908D01*
X35541309Y38580593D01*
X35556221Y38585439D01*
X35568907Y38594655D01*
X35599500Y38599500D01*
X35648126Y38599500D01*
X35706317Y38580593D01*
X35718123Y38570510D01*
X35806204Y38482429D01*
X35929125Y38400296D01*
X36065707Y38343722D01*
X36210702Y38314880D01*
X36210703Y38314880D01*
X36358537Y38314880D01*
X36358538Y38314880D01*
X36503533Y38343722D01*
X36640115Y38400296D01*
X36763036Y38482429D01*
X36867571Y38586964D01*
X36949704Y38709885D01*
X37006278Y38846467D01*
X37035120Y38991462D01*
X37035120Y39139298D01*
X37035119Y39139299D01*
X37034972Y39140800D01*
X37035120Y39141475D01*
X37035120Y39144162D01*
X37035710Y39144162D01*
X37048087Y39200563D01*
X37093825Y39241204D01*
X37133496Y39249500D01*
X37629317Y39249500D01*
X37687508Y39230593D01*
G37*
%TD.AperFunction*%
%TD*%
M02*
