%TF.GenerationSoftware,KiCad,Pcbnew,9.0.7*%
%TF.CreationDate,2026-03-14T18:54:34+10:00*%
%TF.ProjectId,FC-proto,46432d70-726f-4746-9f2e-6b696361645f,rev?*%
%TF.SameCoordinates,PX42c1d80PY754d4c0*%
%TF.FileFunction,Legend,Bot*%
%TF.FilePolarity,Positive*%
%FSLAX46Y46*%
G04 Gerber Fmt 4.6, Leading zero omitted, Abs format (unit mm)*
G04 Created by KiCad (PCBNEW 9.0.7) date 2026-03-14 18:54:34*
%MOMM*%
%LPD*%
G01*
G04 APERTURE LIST*
%ADD10C,0.150000*%
%ADD11C,0.100000*%
%ADD12C,0.127000*%
%ADD13C,0.250000*%
%ADD14C,0.152400*%
G04 APERTURE END LIST*
D10*
X2806077Y22530181D02*
X2234649Y22530181D01*
X2520363Y21530181D02*
X2520363Y22530181D01*
X1996553Y22530181D02*
X1329887Y21530181D01*
X1329887Y22530181D02*
X1996553Y21530181D01*
D11*
G36*
X46792937Y6451353D02*
G01*
X46196936Y8029430D01*
X46037421Y8029430D01*
X46633422Y6451353D01*
X46792937Y6451353D01*
G37*
G36*
X47548454Y6451353D02*
G01*
X46952452Y8029430D01*
X46792937Y8029430D01*
X47388939Y6451353D01*
X47548454Y6451353D01*
G37*
G36*
X44619298Y6636000D02*
G01*
X44619298Y7861562D01*
X43897414Y7861562D01*
X43897414Y7723883D01*
X44471580Y7723883D01*
X44471580Y7317585D01*
X43941085Y7317585D01*
X43941085Y7179905D01*
X44468210Y7179905D01*
X44468210Y6636000D01*
X44619298Y6636000D01*
G37*
G36*
X43254665Y6619221D02*
G01*
X43338025Y6625713D01*
X43408613Y6644059D01*
X43468671Y6673247D01*
X43519912Y6713230D01*
X43561501Y6763100D01*
X43591690Y6821578D01*
X43610604Y6890361D01*
X43617292Y6971737D01*
X43617292Y7525753D01*
X43610603Y7607169D01*
X43591687Y7675975D01*
X43561498Y7734463D01*
X43519912Y7784333D01*
X43468671Y7824316D01*
X43408613Y7853504D01*
X43338025Y7871850D01*
X43254665Y7878342D01*
X43173195Y7871848D01*
X43103716Y7853431D01*
X43044113Y7823988D01*
X42992787Y7783453D01*
X42951101Y7733187D01*
X42920916Y7674654D01*
X42902058Y7606238D01*
X42895408Y7525753D01*
X43046496Y7525753D01*
X43053251Y7593076D01*
X43071835Y7645384D01*
X43101085Y7686074D01*
X43140776Y7716460D01*
X43190943Y7735493D01*
X43254665Y7742347D01*
X43318424Y7735534D01*
X43369239Y7716526D01*
X43410003Y7686074D01*
X43440185Y7645256D01*
X43459279Y7592944D01*
X43466203Y7525753D01*
X43466203Y6971737D01*
X43459282Y6904594D01*
X43440191Y6852276D01*
X43410003Y6811416D01*
X43369245Y6781006D01*
X43318430Y6762021D01*
X43254665Y6755215D01*
X43190937Y6762062D01*
X43140771Y6781072D01*
X43101085Y6811416D01*
X43071829Y6852148D01*
X43053248Y6904462D01*
X43046496Y6971737D01*
X42895408Y6971737D01*
X42902056Y6891293D01*
X42920910Y6822887D01*
X42951095Y6764338D01*
X42992787Y6714036D01*
X43044108Y6673535D01*
X43103710Y6644115D01*
X43173190Y6625710D01*
X43254665Y6619221D01*
G37*
G36*
X41603168Y6636000D02*
G01*
X41285896Y6636000D01*
X41207479Y6641399D01*
X41139466Y6656763D01*
X41080219Y6681283D01*
X41026580Y6715941D01*
X40982095Y6758534D01*
X40945910Y6809730D01*
X40919841Y6866948D01*
X40903693Y6931658D01*
X40898063Y7005369D01*
X40898063Y7493879D01*
X41049152Y7493879D01*
X41049152Y7005369D01*
X41056800Y6934038D01*
X41078096Y6877481D01*
X41112166Y6832372D01*
X41157692Y6798822D01*
X41214523Y6777839D01*
X41285896Y6770310D01*
X41452079Y6770310D01*
X41452079Y7727253D01*
X41285896Y7727253D01*
X41214529Y7719716D01*
X41157698Y7698710D01*
X41112166Y7665118D01*
X41078015Y7620046D01*
X41056758Y7564022D01*
X41049152Y7493879D01*
X40898063Y7493879D01*
X40903708Y7567584D01*
X40919870Y7631982D01*
X40945910Y7688638D01*
X40982047Y7739324D01*
X41026526Y7781638D01*
X41080219Y7816206D01*
X41139471Y7840768D01*
X41207483Y7856156D01*
X41285896Y7861562D01*
X41603168Y7861562D01*
X41603168Y6636000D01*
G37*
G36*
X40327229Y7569539D02*
G01*
X40396578Y7550631D01*
X40456897Y7520172D01*
X40509644Y7477906D01*
X40552172Y7425946D01*
X40583152Y7364756D01*
X40602618Y7292516D01*
X40609515Y7206796D01*
X40609515Y6988589D01*
X40602619Y6902871D01*
X40583155Y6830617D01*
X40552175Y6769402D01*
X40509644Y6717407D01*
X40456901Y6675175D01*
X40396584Y6644738D01*
X40327233Y6625842D01*
X40246887Y6619221D01*
X40151614Y6627369D01*
X40071421Y6650401D01*
X40003475Y6687218D01*
X39959386Y6724772D01*
X39926545Y6767375D01*
X39903829Y6815728D01*
X39891001Y6871060D01*
X40042090Y6871060D01*
X40054468Y6837091D01*
X40076126Y6807980D01*
X40108475Y6782913D01*
X40146181Y6765372D01*
X40191749Y6754173D01*
X40246887Y6750160D01*
X40309321Y6757210D01*
X40360531Y6777175D01*
X40403032Y6809730D01*
X40434915Y6852813D01*
X40454727Y6905870D01*
X40461796Y6971737D01*
X40461796Y7059078D01*
X39884260Y7059078D01*
X39884260Y7223576D01*
X40032051Y7223576D01*
X40032051Y7176608D01*
X40461796Y7176608D01*
X40461796Y7223576D01*
X40454840Y7294213D01*
X40435696Y7349276D01*
X40405596Y7392250D01*
X40364499Y7424517D01*
X40312658Y7444655D01*
X40246887Y7451894D01*
X40181168Y7444655D01*
X40129376Y7424517D01*
X40088325Y7392250D01*
X40058183Y7349270D01*
X40039015Y7294207D01*
X40032051Y7223576D01*
X39884260Y7223576D01*
X39889611Y7294037D01*
X39904932Y7355656D01*
X39929616Y7409908D01*
X39963872Y7458618D01*
X40005870Y7499270D01*
X40056378Y7532494D01*
X40112189Y7556258D01*
X40175235Y7571017D01*
X40246887Y7576164D01*
X40327229Y7569539D01*
G37*
G36*
X39338890Y6636000D02*
G01*
X39652864Y7559385D01*
X39489979Y7559385D01*
X39288551Y6938178D01*
X39256678Y6831566D01*
X39236528Y6751845D01*
X39216378Y6831566D01*
X39187801Y6938178D01*
X38986374Y7559385D01*
X38826859Y7559385D01*
X39140833Y6636000D01*
X39338890Y6636000D01*
G37*
G36*
X37573234Y6636000D02*
G01*
X37200568Y6636000D01*
X37117022Y6642355D01*
X37046544Y6660271D01*
X36986856Y6688681D01*
X36936200Y6727445D01*
X36894775Y6776123D01*
X36864859Y6832767D01*
X36846202Y6898941D01*
X36839626Y6976793D01*
X36840161Y6981848D01*
X36989030Y6981848D01*
X36996305Y6919610D01*
X37016827Y6869303D01*
X37050286Y6828195D01*
X37094231Y6797891D01*
X37148925Y6778839D01*
X37217348Y6771995D01*
X37425516Y6771995D01*
X37425516Y7208481D01*
X37217348Y7208481D01*
X37149443Y7200941D01*
X37094744Y7179768D01*
X37050286Y7145540D01*
X37016747Y7100284D01*
X36996239Y7046525D01*
X36989030Y6981848D01*
X36840161Y6981848D01*
X36847535Y7051516D01*
X36870694Y7118649D01*
X36907796Y7177876D01*
X36956277Y7225261D01*
X36994374Y7249387D01*
X37036370Y7266144D01*
X37083039Y7275599D01*
X37083039Y7280655D01*
X37022873Y7299479D01*
X36971620Y7330550D01*
X36927773Y7374664D01*
X36894425Y7427517D01*
X36874758Y7483588D01*
X36869411Y7532494D01*
X37017533Y7532494D01*
X37024194Y7475646D01*
X37043030Y7429440D01*
X37073806Y7391444D01*
X37114165Y7363387D01*
X37164439Y7345755D01*
X37227386Y7339420D01*
X37425516Y7339420D01*
X37425516Y7725568D01*
X37225701Y7725568D01*
X37162823Y7719208D01*
X37112869Y7701542D01*
X37073000Y7673471D01*
X37042703Y7635580D01*
X37024116Y7589401D01*
X37017533Y7532494D01*
X36869411Y7532494D01*
X36868129Y7544218D01*
X36874592Y7617769D01*
X36892896Y7679834D01*
X36922252Y7732593D01*
X36963018Y7777592D01*
X37012386Y7812861D01*
X37071297Y7838999D01*
X37141620Y7855629D01*
X37225701Y7861562D01*
X37573234Y7861562D01*
X37573234Y6636000D01*
G37*
G36*
X36301875Y7566151D02*
G01*
X36372428Y7547359D01*
X36432556Y7517395D01*
X36483960Y7476220D01*
X36525094Y7425255D01*
X36555306Y7364254D01*
X36574443Y7291197D01*
X36581266Y7203425D01*
X36581266Y6991887D01*
X36574430Y6905117D01*
X36555198Y6832452D01*
X36524724Y6771352D01*
X36483080Y6719898D01*
X36431231Y6678281D01*
X36371041Y6648100D01*
X36300896Y6629239D01*
X36218639Y6622592D01*
X36136422Y6629238D01*
X36066300Y6648097D01*
X36006120Y6678278D01*
X35954270Y6719898D01*
X35912593Y6771357D01*
X35882096Y6832459D01*
X35862852Y6905122D01*
X35856011Y6991887D01*
X35856011Y7203425D01*
X35857316Y7220205D01*
X36007100Y7220205D01*
X36007100Y6975107D01*
X36014126Y6905690D01*
X36033323Y6852695D01*
X36063374Y6812295D01*
X36104068Y6782351D01*
X36154860Y6763622D01*
X36218639Y6756901D01*
X36281345Y6763566D01*
X36331943Y6782248D01*
X36373098Y6812295D01*
X36403614Y6852760D01*
X36423066Y6905759D01*
X36430177Y6975107D01*
X36430177Y7220205D01*
X36423065Y7289603D01*
X36403611Y7342624D01*
X36373098Y7383091D01*
X36331943Y7413137D01*
X36281345Y7431820D01*
X36218639Y7438485D01*
X36154860Y7431764D01*
X36104068Y7413034D01*
X36063374Y7383091D01*
X36033326Y7342689D01*
X36014128Y7289672D01*
X36007100Y7220205D01*
X35857316Y7220205D01*
X35862839Y7291192D01*
X35881988Y7364248D01*
X35912223Y7425250D01*
X35953391Y7476220D01*
X36004795Y7517398D01*
X36064913Y7547362D01*
X36135443Y7566153D01*
X36218639Y7572794D01*
X36301875Y7566151D01*
G37*
G36*
X35287441Y7571154D02*
G01*
X35353408Y7557035D01*
X35409612Y7534779D01*
X35457554Y7504797D01*
X35499744Y7465748D01*
X35530009Y7423165D01*
X35549667Y7376396D01*
X35559110Y7324326D01*
X35408021Y7324326D01*
X35400270Y7359362D01*
X35381766Y7388556D01*
X35350942Y7413279D01*
X35313770Y7430235D01*
X35267450Y7441232D01*
X35209891Y7445226D01*
X35145028Y7439297D01*
X35096773Y7423357D01*
X35061191Y7398989D01*
X35035704Y7366038D01*
X35019465Y7322644D01*
X35013520Y7265561D01*
X35013520Y7193387D01*
X35298918Y7193387D01*
X35357325Y7189175D01*
X35409609Y7177008D01*
X35456748Y7157264D01*
X35499628Y7129862D01*
X35535197Y7096709D01*
X35564166Y7057393D01*
X35585271Y7013381D01*
X35598267Y6963962D01*
X35602780Y6907989D01*
X35597199Y6844604D01*
X35581201Y6789607D01*
X35555244Y6741427D01*
X35518883Y6698942D01*
X35474765Y6665005D01*
X35423291Y6640249D01*
X35363044Y6624711D01*
X35292177Y6619221D01*
X35214028Y6625367D01*
X35151233Y6642343D01*
X35100788Y6668753D01*
X35058922Y6706109D01*
X35030771Y6750604D01*
X35015205Y6803869D01*
X35011835Y6803869D01*
X35011835Y6636000D01*
X34862431Y6636000D01*
X34862431Y6946604D01*
X35013520Y6946604D01*
X35021128Y6888153D01*
X35042856Y6840298D01*
X35079026Y6800498D01*
X35125449Y6771669D01*
X35183196Y6753379D01*
X35255247Y6746789D01*
X35314129Y6752291D01*
X35360514Y6767462D01*
X35397103Y6791266D01*
X35425205Y6824019D01*
X35442292Y6863866D01*
X35448321Y6912972D01*
X35442872Y6960299D01*
X35427422Y6999129D01*
X35402159Y7031381D01*
X35369001Y7055716D01*
X35329584Y7070616D01*
X35282138Y7075857D01*
X35013520Y7075857D01*
X35013520Y6946604D01*
X34862431Y6946604D01*
X34862431Y7270617D01*
X34868578Y7341769D01*
X34885959Y7401665D01*
X34913765Y7452424D01*
X34952264Y7495564D01*
X34998985Y7529121D01*
X35055999Y7554228D01*
X35125421Y7570360D01*
X35209891Y7576164D01*
X35287441Y7571154D01*
G37*
G36*
X34520174Y6636000D02*
G01*
X34520174Y7559385D01*
X34369085Y7559385D01*
X34369085Y7383091D01*
X34365715Y7383091D01*
X34351721Y7439309D01*
X34326639Y7485683D01*
X34290170Y7524067D01*
X34244923Y7552047D01*
X34188794Y7569781D01*
X34118932Y7576164D01*
X34047468Y7570168D01*
X33987968Y7553306D01*
X33938183Y7526521D01*
X33896475Y7489703D01*
X33863890Y7444651D01*
X33839590Y7390016D01*
X33824026Y7323853D01*
X33818440Y7243726D01*
X33818440Y7164811D01*
X33969528Y7164811D01*
X33969528Y7243726D01*
X33975816Y7309387D01*
X33992814Y7358607D01*
X34019038Y7395276D01*
X34054900Y7421843D01*
X34102627Y7438933D01*
X34165900Y7445226D01*
X34229501Y7438231D01*
X34278773Y7418911D01*
X34317062Y7388146D01*
X34344735Y7347061D01*
X34362553Y7293425D01*
X34369085Y7223576D01*
X34369085Y6636000D01*
X34520174Y6636000D01*
G37*
G36*
X32999396Y7592944D02*
G01*
X32996025Y7383091D01*
X32997711Y7383091D01*
X33013010Y7439001D01*
X33039949Y7485409D01*
X33079117Y7524067D01*
X33126911Y7552331D01*
X33183559Y7569938D01*
X33251235Y7576164D01*
X33319465Y7569985D01*
X33377992Y7552342D01*
X33428676Y7523781D01*
X33472812Y7483767D01*
X33507547Y7435624D01*
X33533145Y7378801D01*
X33549343Y7311632D01*
X33555097Y7232002D01*
X33555097Y6961698D01*
X33549317Y6883003D01*
X33533013Y6816372D01*
X33507175Y6759755D01*
X33472006Y6711545D01*
X33427443Y6671456D01*
X33376701Y6642922D01*
X33318553Y6625354D01*
X33251235Y6619221D01*
X33183511Y6625372D01*
X33127179Y6642711D01*
X33079996Y6670439D01*
X33041614Y6708635D01*
X33015452Y6755251D01*
X33001081Y6812295D01*
X32999396Y6812295D01*
X32999396Y6636000D01*
X32848307Y6636000D01*
X32848307Y7223576D01*
X32999396Y7223576D01*
X32999396Y6971737D01*
X33005996Y6904353D01*
X33024259Y6851114D01*
X33053105Y6808924D01*
X33092387Y6776866D01*
X33140727Y6757161D01*
X33200823Y6750160D01*
X33262718Y6756336D01*
X33311586Y6773436D01*
X33350300Y6800498D01*
X33378466Y6837771D01*
X33397023Y6890329D01*
X33404009Y6963384D01*
X33404009Y7232002D01*
X33396964Y7306212D01*
X33378362Y7358914D01*
X33350300Y7395693D01*
X33311649Y7422291D01*
X33262782Y7439135D01*
X33200823Y7445226D01*
X33140727Y7438225D01*
X33092387Y7418519D01*
X33053105Y7386461D01*
X33024262Y7344270D01*
X33005998Y7291009D01*
X32999396Y7223576D01*
X32848307Y7223576D01*
X32848307Y7861562D01*
X32999396Y7861562D01*
X32999396Y7592944D01*
G37*
G36*
X46792937Y4435353D02*
G01*
X46196936Y6013430D01*
X46037421Y6013430D01*
X46633422Y4435353D01*
X46792937Y4435353D01*
G37*
G36*
X47548454Y4435353D02*
G01*
X46952452Y6013430D01*
X46792937Y6013430D01*
X47388939Y4435353D01*
X47548454Y4435353D01*
G37*
G36*
X44374200Y4620000D02*
G01*
X44688175Y5543385D01*
X44525289Y5543385D01*
X44323862Y4922178D01*
X44291988Y4815566D01*
X44271838Y4735845D01*
X44251688Y4815566D01*
X44223112Y4922178D01*
X44021685Y5543385D01*
X43862170Y5543385D01*
X44176144Y4620000D01*
X44374200Y4620000D01*
G37*
G36*
X43309983Y5325418D02*
G01*
X43341127Y5307446D01*
X43361518Y5278822D01*
X43368824Y5237837D01*
X43361477Y5195174D01*
X43341127Y5165590D01*
X43309922Y5147058D01*
X43268073Y5140458D01*
X43226289Y5147055D01*
X43195094Y5165590D01*
X43174743Y5195174D01*
X43167397Y5237837D01*
X43174702Y5278822D01*
X43195094Y5307446D01*
X43226228Y5325420D01*
X43268073Y5331846D01*
X43309983Y5325418D01*
G37*
G36*
X43352068Y5855614D02*
G01*
X43423601Y5836540D01*
X43484881Y5806056D01*
X43537571Y5764083D01*
X43580469Y5712058D01*
X43611418Y5652061D01*
X43630675Y5582543D01*
X43637442Y5501400D01*
X43637442Y4964163D01*
X43630676Y4883021D01*
X43611421Y4813489D01*
X43580471Y4753466D01*
X43537571Y4701407D01*
X43484886Y4659468D01*
X43423607Y4629006D01*
X43352073Y4609944D01*
X43268073Y4603221D01*
X43194182Y4608482D01*
X43129481Y4623531D01*
X43072508Y4647698D01*
X43021085Y4681637D01*
X42978563Y4723365D01*
X42944134Y4773580D01*
X42919418Y4829536D01*
X42904110Y4892599D01*
X42898778Y4964163D01*
X42898778Y5501400D01*
X43044811Y5501400D01*
X43044811Y4964163D01*
X43052031Y4898321D01*
X43072576Y4843434D01*
X43106140Y4797101D01*
X43150613Y4761631D01*
X43203737Y4740055D01*
X43268073Y4732474D01*
X43332461Y4740055D01*
X43385634Y4761632D01*
X43430153Y4797101D01*
X43463674Y4843428D01*
X43484197Y4898315D01*
X43491409Y4964163D01*
X43491409Y5501400D01*
X43484198Y5567198D01*
X43463678Y5622063D01*
X43430153Y5668388D01*
X43385629Y5703901D01*
X43332456Y5725501D01*
X43268073Y5733088D01*
X43203742Y5725501D01*
X43150618Y5703902D01*
X43106140Y5668388D01*
X43072573Y5622057D01*
X43052029Y5567193D01*
X43044811Y5501400D01*
X42898778Y5501400D01*
X42905545Y5582543D01*
X42924802Y5652061D01*
X42955751Y5712058D01*
X42998649Y5764083D01*
X43051340Y5806059D01*
X43112609Y5836543D01*
X43184118Y5855615D01*
X43268073Y5862342D01*
X43352068Y5855614D01*
G37*
G36*
X42261011Y4603221D02*
G01*
X42300936Y4607604D01*
X42333726Y4620001D01*
X42360956Y4640151D01*
X42381709Y4666828D01*
X42394291Y4698259D01*
X42398691Y4735845D01*
X42394245Y4775731D01*
X42381607Y4808812D01*
X42360956Y4836595D01*
X42333601Y4857735D01*
X42300812Y4870658D01*
X42261011Y4875210D01*
X42221262Y4870658D01*
X42188522Y4857736D01*
X42161214Y4836595D01*
X42140519Y4808807D01*
X42127859Y4775726D01*
X42123405Y4735845D01*
X42127812Y4698264D01*
X42140417Y4666833D01*
X42161214Y4640151D01*
X42188396Y4620001D01*
X42221138Y4607604D01*
X42261011Y4603221D01*
G37*
G36*
X41323507Y5857519D02*
G01*
X41385524Y5843625D01*
X41441161Y5821162D01*
X41492000Y5789780D01*
X41533947Y5751865D01*
X41567923Y5707003D01*
X41592817Y5656633D01*
X41608029Y5600816D01*
X41613279Y5538329D01*
X41606813Y5475343D01*
X41587861Y5418446D01*
X41556200Y5366211D01*
X41513991Y5322414D01*
X41463580Y5290447D01*
X41403426Y5269711D01*
X41403426Y5264655D01*
X41473192Y5244709D01*
X41531550Y5210788D01*
X41580526Y5162220D01*
X41617091Y5103326D01*
X41639209Y5037389D01*
X41646838Y4962478D01*
X41641114Y4893394D01*
X41624506Y4831422D01*
X41597306Y4775266D01*
X41560110Y4725229D01*
X41514271Y4683147D01*
X41458820Y4648504D01*
X41397959Y4623803D01*
X41330096Y4608524D01*
X41253949Y4603221D01*
X41176719Y4608563D01*
X41108658Y4623878D01*
X41048346Y4648504D01*
X40993408Y4683100D01*
X40947821Y4725175D01*
X40910666Y4775266D01*
X40883466Y4831422D01*
X40866858Y4893394D01*
X40861133Y4962478D01*
X40861476Y4965848D01*
X41012222Y4965848D01*
X41020018Y4901599D01*
X41042363Y4847850D01*
X41079413Y4802157D01*
X41127498Y4767787D01*
X41184822Y4746662D01*
X41253949Y4739215D01*
X41323127Y4746662D01*
X41380500Y4767787D01*
X41428632Y4802157D01*
X41465638Y4847845D01*
X41487961Y4901594D01*
X41495750Y4965848D01*
X41487917Y5031227D01*
X41465552Y5085499D01*
X41428632Y5131225D01*
X41380500Y5165595D01*
X41323127Y5186720D01*
X41253949Y5194167D01*
X41184822Y5186720D01*
X41127498Y5165595D01*
X41079413Y5131225D01*
X41042450Y5085494D01*
X41020062Y5031222D01*
X41012222Y4965848D01*
X40861476Y4965848D01*
X40868763Y5037389D01*
X40890881Y5103326D01*
X40927445Y5162220D01*
X40976421Y5210788D01*
X41034780Y5244709D01*
X41104546Y5264655D01*
X41104546Y5269711D01*
X41044392Y5290447D01*
X40993981Y5322414D01*
X40951772Y5366211D01*
X40920110Y5418446D01*
X40901159Y5475343D01*
X40895730Y5528218D01*
X41045781Y5528218D01*
X41052448Y5471334D01*
X41071488Y5423939D01*
X41102861Y5383870D01*
X41143946Y5353670D01*
X41193512Y5335061D01*
X41253949Y5328476D01*
X41313324Y5335005D01*
X41362685Y5353566D01*
X41404232Y5383870D01*
X41436082Y5423999D01*
X41455371Y5471393D01*
X41462117Y5528218D01*
X41455369Y5585091D01*
X41436079Y5632508D01*
X41404232Y5672638D01*
X41362685Y5702943D01*
X41313324Y5721504D01*
X41253949Y5728033D01*
X41193512Y5721447D01*
X41143946Y5702838D01*
X41102861Y5672638D01*
X41071492Y5632568D01*
X41052450Y5585150D01*
X41045781Y5528218D01*
X40895730Y5528218D01*
X40894692Y5538329D01*
X40899943Y5600816D01*
X40915155Y5656633D01*
X40940048Y5707003D01*
X40973942Y5751915D01*
X41015611Y5789824D01*
X41065931Y5821162D01*
X41121067Y5843552D01*
X41183308Y5857482D01*
X41253949Y5862342D01*
X41323507Y5857519D01*
G37*
G36*
X46792937Y2419353D02*
G01*
X46196936Y3997430D01*
X46037421Y3997430D01*
X46633422Y2419353D01*
X46792937Y2419353D01*
G37*
G36*
X47548454Y2419353D02*
G01*
X46952452Y3997430D01*
X46792937Y3997430D01*
X47388939Y2419353D01*
X47548454Y2419353D01*
G37*
G36*
X44268468Y2587221D02*
G01*
X44351828Y2593713D01*
X44422416Y2612059D01*
X44482474Y2641247D01*
X44533715Y2681230D01*
X44575305Y2731100D01*
X44605493Y2789578D01*
X44624407Y2858361D01*
X44631095Y2939737D01*
X44631095Y3493753D01*
X44624406Y3575169D01*
X44605490Y3643975D01*
X44575301Y3702463D01*
X44533715Y3752333D01*
X44482474Y3792316D01*
X44422416Y3821504D01*
X44351828Y3839850D01*
X44268468Y3846342D01*
X44186957Y3839846D01*
X44117468Y3821425D01*
X44057880Y3791983D01*
X44006591Y3751453D01*
X43964904Y3701187D01*
X43934719Y3642654D01*
X43915861Y3574238D01*
X43909211Y3493753D01*
X44060300Y3493753D01*
X44067054Y3561076D01*
X44085638Y3613384D01*
X44114888Y3654074D01*
X44154579Y3684460D01*
X44204746Y3703493D01*
X44268468Y3710347D01*
X44332296Y3703625D01*
X44383110Y3684894D01*
X44423806Y3654953D01*
X44453957Y3614626D01*
X44473063Y3562615D01*
X44480006Y3495438D01*
X44480006Y2939737D01*
X44473105Y2872580D01*
X44454026Y2819962D01*
X44423806Y2778610D01*
X44382981Y2747687D01*
X44332164Y2728426D01*
X44268468Y2721530D01*
X44204811Y2728467D01*
X44154643Y2747753D01*
X44114888Y2778610D01*
X44085600Y2819835D01*
X44067032Y2872449D01*
X44060300Y2939737D01*
X44060300Y3107678D01*
X44308768Y3107678D01*
X44308768Y3245285D01*
X43909211Y3245285D01*
X43909211Y2939737D01*
X43915859Y2859293D01*
X43934714Y2790887D01*
X43964898Y2732338D01*
X44006591Y2682036D01*
X44057875Y2641541D01*
X44117462Y2612120D01*
X44186952Y2593712D01*
X44268468Y2587221D01*
G37*
G36*
X43268073Y2587221D02*
G01*
X43307998Y2591604D01*
X43340789Y2604001D01*
X43368018Y2624151D01*
X43388771Y2650828D01*
X43401353Y2682259D01*
X43405753Y2719845D01*
X43401307Y2759731D01*
X43388669Y2792812D01*
X43368018Y2820595D01*
X43340663Y2841735D01*
X43307874Y2854658D01*
X43268073Y2859210D01*
X43228324Y2854658D01*
X43195584Y2841736D01*
X43168276Y2820595D01*
X43147581Y2792807D01*
X43134921Y2759726D01*
X43130467Y2719845D01*
X43134874Y2682264D01*
X43147479Y2650833D01*
X43168276Y2624151D01*
X43195458Y2604001D01*
X43228200Y2591604D01*
X43268073Y2587221D01*
G37*
G36*
X42680718Y2604000D02*
G01*
X42526259Y2604000D01*
X42445732Y2929698D01*
X42074678Y2929698D01*
X41994078Y2604000D01*
X41841304Y2604000D01*
X41958672Y3057266D01*
X42106552Y3057266D01*
X42415471Y3057266D01*
X42321461Y3436673D01*
X42279549Y3614653D01*
X42261011Y3708662D01*
X42242620Y3614653D01*
X42200635Y3434988D01*
X42106552Y3057266D01*
X41958672Y3057266D01*
X42158649Y3829562D01*
X42361762Y3829562D01*
X42680718Y2604000D01*
G37*
G36*
X41405038Y2335382D02*
G01*
X41312714Y2849098D01*
X41131437Y2849098D01*
X41248967Y2335382D01*
X41405038Y2335382D01*
G37*
G36*
X39233157Y2587221D02*
G01*
X39321796Y2593731D01*
X39397224Y2612136D01*
X39461666Y2641368D01*
X39516870Y2681230D01*
X39562408Y2731632D01*
X39595112Y2790310D01*
X39615444Y2858904D01*
X39622602Y2939737D01*
X39471514Y2939737D01*
X39463735Y2874429D01*
X39441825Y2821983D01*
X39406081Y2779416D01*
X39359361Y2748046D01*
X39302616Y2728491D01*
X39233157Y2721530D01*
X39166179Y2728758D01*
X39111702Y2749103D01*
X39066974Y2781980D01*
X39032841Y2825700D01*
X39012106Y2877494D01*
X39004839Y2939737D01*
X39009398Y2987734D01*
X39022604Y3030173D01*
X39044333Y3068184D01*
X39073850Y3100248D01*
X39111122Y3125112D01*
X39157613Y3142922D01*
X39343946Y3194946D01*
X39417041Y3223906D01*
X39477124Y3263815D01*
X39526102Y3314967D01*
X39562683Y3375495D01*
X39584799Y3442871D01*
X39592414Y3518959D01*
X39587330Y3582674D01*
X39572647Y3639344D01*
X39548743Y3690197D01*
X39515835Y3735669D01*
X39475272Y3773818D01*
X39426231Y3805162D01*
X39372228Y3827651D01*
X39312158Y3841531D01*
X39244881Y3846342D01*
X39176515Y3841519D01*
X39115650Y3827627D01*
X39061113Y3805162D01*
X39011306Y3773871D01*
X38969889Y3735969D01*
X38936036Y3691003D01*
X38911142Y3640633D01*
X38895930Y3584816D01*
X38890680Y3522329D01*
X39041769Y3522329D01*
X39048359Y3575765D01*
X39067306Y3620697D01*
X39098848Y3659130D01*
X39139647Y3688103D01*
X39187656Y3705820D01*
X39244881Y3712033D01*
X39302067Y3705784D01*
X39349495Y3688045D01*
X39389302Y3659130D01*
X39419840Y3620821D01*
X39438269Y3575886D01*
X39444696Y3522329D01*
X39440495Y3478754D01*
X39428395Y3440785D01*
X39408572Y3407291D01*
X39381761Y3379096D01*
X39348310Y3357028D01*
X39307016Y3340979D01*
X39115628Y3287270D01*
X39038546Y3257537D01*
X38975746Y3215423D01*
X38925045Y3160508D01*
X38887673Y3095517D01*
X38864918Y3022595D01*
X38857048Y2939737D01*
X38863942Y2860538D01*
X38883596Y2792639D01*
X38915299Y2733934D01*
X38959483Y2682915D01*
X39013230Y2642119D01*
X39075582Y2612402D01*
X39148179Y2593785D01*
X39233157Y2587221D01*
G37*
G36*
X38232763Y2587221D02*
G01*
X38272688Y2591604D01*
X38305478Y2604001D01*
X38332707Y2624151D01*
X38353461Y2650828D01*
X38366043Y2682259D01*
X38370443Y2719845D01*
X38365996Y2759731D01*
X38353359Y2792812D01*
X38332707Y2820595D01*
X38305353Y2841735D01*
X38272564Y2854658D01*
X38232763Y2859210D01*
X38193013Y2854658D01*
X38160273Y2841736D01*
X38132965Y2820595D01*
X38112271Y2792807D01*
X38099610Y2759726D01*
X38095157Y2719845D01*
X38099564Y2682264D01*
X38112168Y2650833D01*
X38132965Y2624151D01*
X38160148Y2604001D01*
X38192889Y2591604D01*
X38232763Y2587221D01*
G37*
G36*
X37573234Y2604000D02*
G01*
X37200568Y2604000D01*
X37117022Y2610355D01*
X37046544Y2628271D01*
X36986856Y2656681D01*
X36936200Y2695445D01*
X36894775Y2744123D01*
X36864859Y2800767D01*
X36846202Y2866941D01*
X36839626Y2944793D01*
X36840161Y2949848D01*
X36989030Y2949848D01*
X36996305Y2887610D01*
X37016827Y2837303D01*
X37050286Y2796195D01*
X37094231Y2765891D01*
X37148925Y2746839D01*
X37217348Y2739995D01*
X37425516Y2739995D01*
X37425516Y3176481D01*
X37217348Y3176481D01*
X37149443Y3168941D01*
X37094744Y3147768D01*
X37050286Y3113540D01*
X37016747Y3068284D01*
X36996239Y3014525D01*
X36989030Y2949848D01*
X36840161Y2949848D01*
X36847535Y3019516D01*
X36870694Y3086649D01*
X36907796Y3145876D01*
X36956277Y3193261D01*
X36994374Y3217387D01*
X37036370Y3234144D01*
X37083039Y3243599D01*
X37083039Y3248655D01*
X37022873Y3267479D01*
X36971620Y3298550D01*
X36927773Y3342664D01*
X36894425Y3395517D01*
X36874758Y3451588D01*
X36869411Y3500494D01*
X37017533Y3500494D01*
X37024194Y3443646D01*
X37043030Y3397440D01*
X37073806Y3359444D01*
X37114165Y3331387D01*
X37164439Y3313755D01*
X37227386Y3307420D01*
X37425516Y3307420D01*
X37425516Y3693568D01*
X37225701Y3693568D01*
X37162823Y3687208D01*
X37112869Y3669542D01*
X37073000Y3641471D01*
X37042703Y3603580D01*
X37024116Y3557401D01*
X37017533Y3500494D01*
X36869411Y3500494D01*
X36868129Y3512218D01*
X36874592Y3585769D01*
X36892896Y3647834D01*
X36922252Y3700593D01*
X36963018Y3745592D01*
X37012386Y3780861D01*
X37071297Y3806999D01*
X37141620Y3823629D01*
X37225701Y3829562D01*
X37573234Y3829562D01*
X37573234Y2604000D01*
G37*
D10*
X2187030Y26630181D02*
X2663220Y26630181D01*
X2663220Y26630181D02*
X2710839Y26153991D01*
X2710839Y26153991D02*
X2663220Y26201610D01*
X2663220Y26201610D02*
X2567982Y26249229D01*
X2567982Y26249229D02*
X2329887Y26249229D01*
X2329887Y26249229D02*
X2234649Y26201610D01*
X2234649Y26201610D02*
X2187030Y26153991D01*
X2187030Y26153991D02*
X2139411Y26058753D01*
X2139411Y26058753D02*
X2139411Y25820658D01*
X2139411Y25820658D02*
X2187030Y25725420D01*
X2187030Y25725420D02*
X2234649Y25677800D01*
X2234649Y25677800D02*
X2329887Y25630181D01*
X2329887Y25630181D02*
X2567982Y25630181D01*
X2567982Y25630181D02*
X2663220Y25677800D01*
X2663220Y25677800D02*
X2710839Y25725420D01*
X1853696Y26630181D02*
X1520363Y25630181D01*
X1520363Y25630181D02*
X1187030Y26630181D01*
X3210839Y13577800D02*
X3067982Y13530181D01*
X3067982Y13530181D02*
X2829887Y13530181D01*
X2829887Y13530181D02*
X2734649Y13577800D01*
X2734649Y13577800D02*
X2687030Y13625420D01*
X2687030Y13625420D02*
X2639411Y13720658D01*
X2639411Y13720658D02*
X2639411Y13815896D01*
X2639411Y13815896D02*
X2687030Y13911134D01*
X2687030Y13911134D02*
X2734649Y13958753D01*
X2734649Y13958753D02*
X2829887Y14006372D01*
X2829887Y14006372D02*
X3020363Y14053991D01*
X3020363Y14053991D02*
X3115601Y14101610D01*
X3115601Y14101610D02*
X3163220Y14149229D01*
X3163220Y14149229D02*
X3210839Y14244467D01*
X3210839Y14244467D02*
X3210839Y14339705D01*
X3210839Y14339705D02*
X3163220Y14434943D01*
X3163220Y14434943D02*
X3115601Y14482562D01*
X3115601Y14482562D02*
X3020363Y14530181D01*
X3020363Y14530181D02*
X2782268Y14530181D01*
X2782268Y14530181D02*
X2639411Y14482562D01*
X1639411Y13625420D02*
X1687030Y13577800D01*
X1687030Y13577800D02*
X1829887Y13530181D01*
X1829887Y13530181D02*
X1925125Y13530181D01*
X1925125Y13530181D02*
X2067982Y13577800D01*
X2067982Y13577800D02*
X2163220Y13673039D01*
X2163220Y13673039D02*
X2210839Y13768277D01*
X2210839Y13768277D02*
X2258458Y13958753D01*
X2258458Y13958753D02*
X2258458Y14101610D01*
X2258458Y14101610D02*
X2210839Y14292086D01*
X2210839Y14292086D02*
X2163220Y14387324D01*
X2163220Y14387324D02*
X2067982Y14482562D01*
X2067982Y14482562D02*
X1925125Y14530181D01*
X1925125Y14530181D02*
X1829887Y14530181D01*
X1829887Y14530181D02*
X1687030Y14482562D01*
X1687030Y14482562D02*
X1639411Y14434943D01*
X734649Y13530181D02*
X1210839Y13530181D01*
X1210839Y13530181D02*
X1210839Y14530181D01*
D11*
G36*
X29326587Y24980447D02*
G01*
X29419806Y24761023D01*
X29427704Y24667816D01*
X29412775Y24551668D01*
X29370800Y24453634D01*
X29215638Y24308897D01*
X28972076Y24242881D01*
X28934822Y24241857D01*
X28788403Y24256897D01*
X28656795Y24299656D01*
X28429015Y24464487D01*
X28256048Y24733990D01*
X28166652Y25089808D01*
X28162037Y25191961D01*
X28177266Y25396640D01*
X28221342Y25584653D01*
X28389404Y25913181D01*
X28658669Y26177209D01*
X29024242Y26365495D01*
X29470351Y26456617D01*
X29606489Y26461536D01*
X29842956Y26446187D01*
X30067950Y26401273D01*
X30281829Y26327391D01*
X30479328Y26226689D01*
X30658533Y26100597D01*
X30816610Y25951103D01*
X30949970Y25781835D01*
X31058074Y25593103D01*
X31137394Y25390707D01*
X31188086Y25172863D01*
X31208234Y24913525D01*
X31150856Y24451657D01*
X30968608Y23924234D01*
X30572042Y23145405D01*
X30307571Y22648048D01*
X30073309Y22131823D01*
X29905887Y21589646D01*
X29858690Y21306612D01*
X29841939Y21014432D01*
X29902203Y20495324D01*
X30078645Y20016659D01*
X30365210Y19590272D01*
X30753475Y19232798D01*
X31229126Y18963934D01*
X31493083Y18868799D01*
X31770989Y18802341D01*
X32249685Y18759582D01*
X32525903Y18774936D01*
X32787870Y18819892D01*
X33035226Y18893338D01*
X33264345Y18993386D01*
X33473001Y19118124D01*
X33659677Y19266005D01*
X33820882Y19433441D01*
X33956874Y19620249D01*
X34064213Y19821215D01*
X34143655Y20037776D01*
X34209979Y20442415D01*
X34175514Y20936143D01*
X34024088Y21398777D01*
X33764709Y21805299D01*
X33599940Y21978094D01*
X33415898Y22125811D01*
X33217991Y22244555D01*
X33006266Y22334187D01*
X32790715Y22390965D01*
X32566745Y22416221D01*
X32507606Y22417363D01*
X32108788Y22358432D01*
X31932024Y22287284D01*
X31777734Y22192140D01*
X31651674Y22078294D01*
X31553960Y21946805D01*
X31490590Y21808497D01*
X31458444Y21659067D01*
X31454919Y21588891D01*
X31513042Y21245345D01*
X31584179Y21088532D01*
X31678405Y20958262D01*
X31780734Y20870215D01*
X31896182Y20817474D01*
X32014724Y20805848D01*
X32044836Y20742255D01*
X32043760Y20675413D01*
X31950330Y20544305D01*
X31851316Y20488931D01*
X31723324Y20455001D01*
X31622470Y20447788D01*
X31296148Y20507045D01*
X31016265Y20678261D01*
X30801178Y20952530D01*
X30726133Y21124064D01*
X30678264Y21311878D01*
X30659665Y21532227D01*
X30719514Y21858826D01*
X30897272Y22157835D01*
X31194513Y22415628D01*
X31605347Y22605067D01*
X31846466Y22663910D01*
X32103993Y22693846D01*
X32227704Y22697265D01*
X32742394Y22636766D01*
X33226318Y22458058D01*
X33656305Y22168740D01*
X33842985Y21986961D01*
X34007253Y21783007D01*
X34145484Y21561138D01*
X34257393Y21320935D01*
X34339343Y21069664D01*
X34391931Y20803999D01*
X34411235Y20380866D01*
X34330535Y19922512D01*
X34132740Y19502741D01*
X33823020Y19136414D01*
X33408677Y18841548D01*
X33165437Y18726837D01*
X32901008Y18637246D01*
X32617024Y18574679D01*
X32314852Y18540965D01*
X32126587Y18535367D01*
X31489057Y18595789D01*
X30861862Y18776945D01*
X30274468Y19073445D01*
X30006643Y19260431D01*
X29761080Y19470097D01*
X29543507Y19696977D01*
X29352707Y19942145D01*
X29196143Y20194747D01*
X29069295Y20461032D01*
X28977925Y20726913D01*
X28917861Y21002316D01*
X28889881Y21361745D01*
X28947939Y21920382D01*
X29122071Y22477748D01*
X29423480Y23065193D01*
X29966863Y23858495D01*
X30246756Y24249654D01*
X30481887Y24624328D01*
X30643820Y24988409D01*
X30704117Y25347788D01*
X30688959Y25527535D01*
X30645381Y25688210D01*
X30482237Y25954887D01*
X30222091Y26152999D01*
X29867612Y26271375D01*
X29606489Y26293985D01*
X29393460Y26278380D01*
X29184337Y26231673D01*
X28993356Y26156813D01*
X28821938Y26052995D01*
X28692159Y25936349D01*
X28589593Y25796980D01*
X28525781Y25654272D01*
X28491633Y25493802D01*
X28486880Y25402987D01*
X28546069Y25138430D01*
X28619268Y25017230D01*
X28717854Y24918570D01*
X28825743Y24856559D01*
X28949851Y24826458D01*
X28990509Y24824620D01*
X29131799Y24839968D01*
X29241877Y24884880D01*
X29326587Y24980447D01*
G37*
G36*
X27303768Y23629784D02*
G01*
X28636357Y19754139D01*
X26922749Y19765374D01*
X26922749Y19866002D01*
X27195190Y19938865D01*
X27319224Y20015510D01*
X27402951Y20130227D01*
X27424201Y20226903D01*
X27413141Y20344588D01*
X27393161Y20413106D01*
X26665317Y22557070D01*
X26433050Y22812226D01*
X26288673Y22905142D01*
X26138154Y22963319D01*
X26004396Y22981075D01*
X25902045Y22963618D01*
X25810199Y22903947D01*
X25759561Y22826297D01*
X25731635Y22715191D01*
X25732904Y22572833D01*
X25768191Y22391598D01*
X25803140Y22277656D01*
X26407885Y20543532D01*
X26452740Y20356348D01*
X26462493Y20183971D01*
X26440491Y20036056D01*
X26389291Y19907188D01*
X26315146Y19805186D01*
X26217219Y19724986D01*
X25960200Y19639787D01*
X25870062Y19634948D01*
X25689489Y19651109D01*
X25489728Y19701710D01*
X25283201Y19788061D01*
X25074874Y19913751D01*
X24985415Y19981773D01*
X25030355Y20049184D01*
X25049874Y20039262D01*
X25175459Y19980370D01*
X25310258Y19948067D01*
X25388300Y19963394D01*
X25444433Y20008150D01*
X25486907Y20166651D01*
X25444591Y20397474D01*
X24839846Y22266421D01*
X24800733Y22441258D01*
X24795212Y22604533D01*
X24820469Y22752126D01*
X24874074Y22884704D01*
X25058443Y23097681D01*
X25338369Y23229426D01*
X25601395Y23261466D01*
X25852138Y23245189D01*
X26075440Y23193774D01*
X26248522Y23119750D01*
X26411163Y23015303D01*
X26542219Y22902917D01*
X25892533Y24824620D01*
X27606140Y24824620D01*
X27606140Y24712268D01*
X27351988Y24652015D01*
X27195834Y24562357D01*
X27145522Y24490578D01*
X27121966Y24400442D01*
X27151775Y24127412D01*
X27303768Y23629784D01*
G37*
G36*
X22569364Y24793357D02*
G01*
X22857370Y24736302D01*
X23094301Y24574449D01*
X23260828Y24322908D01*
X23305577Y24175432D01*
X23317791Y24028650D01*
X23297638Y23896808D01*
X23244997Y23779664D01*
X23170469Y23694039D01*
X23068549Y23629879D01*
X22826796Y23583378D01*
X22538936Y23640433D01*
X22302045Y23802312D01*
X22135497Y24053926D01*
X22090738Y24201437D01*
X22078521Y24348247D01*
X22098676Y24480080D01*
X22151322Y24597205D01*
X22225848Y24682794D01*
X22327766Y24746917D01*
X22569364Y24793357D01*
G37*
G36*
X23778855Y19634948D02*
G01*
X23604338Y19651115D01*
X23407938Y19701757D01*
X23200825Y19789247D01*
X22990863Y19916981D01*
X22905443Y19982261D01*
X22950383Y20049673D01*
X23077512Y19986230D01*
X23230286Y19948067D01*
X23308231Y19963392D01*
X23364331Y20008140D01*
X23406937Y20166759D01*
X23364619Y20398451D01*
X22435031Y23154488D01*
X24126168Y23154488D01*
X24126168Y23042624D01*
X23876751Y22982878D01*
X23719507Y22894978D01*
X23665226Y22822955D01*
X23638488Y22732908D01*
X23662894Y22470012D01*
X23823796Y21962094D01*
X24327913Y20544509D01*
X24372743Y20357161D01*
X24382347Y20184622D01*
X24360119Y20037125D01*
X24308578Y19908520D01*
X24234066Y19806784D01*
X24135539Y19726568D01*
X23875757Y19640319D01*
X23778855Y19634948D01*
G37*
G36*
X21756036Y21966979D02*
G01*
X22528820Y19760000D01*
X20826448Y19760000D01*
X20826448Y19871864D01*
X21099466Y19944565D01*
X21218724Y20015681D01*
X21301857Y20119746D01*
X21330565Y20252883D01*
X21274008Y20496628D01*
X20680879Y22234181D01*
X20510355Y22467333D01*
X20263581Y22736933D01*
X20054304Y22912890D01*
X19834939Y23037852D01*
X19692772Y23077694D01*
X19555357Y23075090D01*
X19549546Y23073887D01*
X19706314Y23000598D01*
X19855142Y22896723D01*
X19979821Y22771045D01*
X20073730Y22624701D01*
X20131821Y22379749D01*
X20116598Y22272439D01*
X20072561Y22184256D01*
X19914319Y22072313D01*
X19728820Y22043671D01*
X19431293Y22101403D01*
X19143400Y22276295D01*
X19026494Y22399798D01*
X18939424Y22538945D01*
X18877878Y22793985D01*
X18892827Y22916848D01*
X18934945Y23020249D01*
X19089877Y23174071D01*
X19338947Y23256778D01*
X19448918Y23263908D01*
X19795879Y23202327D01*
X20146587Y23011739D01*
X20495321Y22675637D01*
X20535310Y22625946D01*
X20356036Y23154488D01*
X22058408Y23154488D01*
X22058408Y23042624D01*
X21893300Y23011743D01*
X21737718Y22955674D01*
X21622069Y22853443D01*
X21576762Y22684076D01*
X21627730Y22354908D01*
X21756036Y21966979D01*
G37*
G36*
X18459246Y19634948D02*
G01*
X18279889Y19651109D01*
X18083365Y19701710D01*
X17880437Y19788049D01*
X17674551Y19913717D01*
X17585345Y19981773D01*
X17630286Y20049184D01*
X17757780Y19985986D01*
X17910188Y19948067D01*
X17987348Y19963388D01*
X18041289Y20008108D01*
X18078493Y20165679D01*
X18033286Y20396497D01*
X16543893Y24824620D01*
X18235031Y24824620D01*
X18235031Y24712268D01*
X17981417Y24651908D01*
X17825313Y24562200D01*
X17774767Y24490277D01*
X17750969Y24399969D01*
X17780187Y24126704D01*
X17932658Y23624899D01*
X18996580Y20542555D01*
X19044848Y20357296D01*
X19057596Y20186476D01*
X19038113Y20039966D01*
X18989123Y19911945D01*
X18916677Y19810079D01*
X18820059Y19729414D01*
X18563102Y19641152D01*
X18459246Y19634948D01*
G37*
G36*
X15304784Y23201547D02*
G01*
X15750566Y23017715D01*
X16182332Y22707117D01*
X16562405Y22281470D01*
X16718906Y22036088D01*
X16848054Y21774060D01*
X16944094Y21507445D01*
X17008624Y21231252D01*
X17040683Y20857628D01*
X17025066Y20612630D01*
X16978274Y20394897D01*
X16908738Y20220905D01*
X16813564Y20070058D01*
X16699329Y19948335D01*
X16562022Y19848050D01*
X16213206Y19711569D01*
X15775017Y19666211D01*
X15386298Y19726691D01*
X14996562Y19911885D01*
X14626813Y20225892D01*
X14309437Y20661543D01*
X14117585Y21080377D01*
X14251919Y21080377D01*
X14405357Y20777697D01*
X14573536Y20516101D01*
X14742355Y20310589D01*
X14920643Y20144724D01*
X15090808Y20029142D01*
X15266257Y19949694D01*
X15550802Y19901173D01*
X15718685Y19916416D01*
X15850553Y19960589D01*
X15941851Y20023463D01*
X16009512Y20106344D01*
X16087585Y20342616D01*
X16099860Y20535227D01*
X16041036Y21037643D01*
X15976762Y21291892D01*
X15768949Y21292982D01*
X15185872Y21307511D01*
X14883336Y21341258D01*
X14592328Y21406768D01*
X14326991Y21514620D01*
X14101469Y21675394D01*
X13929906Y21899672D01*
X13826448Y22198033D01*
X13805538Y22383336D01*
X13817328Y22555252D01*
X13858573Y22707701D01*
X13927793Y22844665D01*
X13935718Y22852782D01*
X14649221Y22852782D01*
X14677390Y22544857D01*
X14737811Y22303874D01*
X14823240Y22085491D01*
X14931534Y21891302D01*
X15058798Y21726562D01*
X15196416Y21598646D01*
X15345732Y21504019D01*
X15492217Y21448518D01*
X15643936Y21426506D01*
X15663154Y21426225D01*
X15943056Y21426225D01*
X15673249Y22127179D01*
X15501854Y22449971D01*
X15319598Y22723298D01*
X15160457Y22905916D01*
X15004593Y23028753D01*
X14834193Y23082192D01*
X14756205Y23066715D01*
X14699704Y23020903D01*
X14649221Y22852782D01*
X13935718Y22852782D01*
X14143574Y23065661D01*
X14464004Y23211058D01*
X14867899Y23261466D01*
X15304784Y23201547D01*
G37*
G36*
X14064829Y18415688D02*
G01*
X13859191Y18536533D01*
X13718993Y18662915D01*
X13653382Y18766243D01*
X13621130Y18878429D01*
X13616887Y18941787D01*
X13632110Y19050081D01*
X13676147Y19140672D01*
X13835518Y19258702D01*
X14019888Y19289100D01*
X14302771Y19231120D01*
X14536353Y19065155D01*
X14618599Y18951099D01*
X14671879Y18821810D01*
X14692044Y18673120D01*
X14676972Y18547565D01*
X14633990Y18439119D01*
X14476847Y18282825D01*
X14367950Y18240020D01*
X14244103Y18225178D01*
X13947439Y18285378D01*
X13545947Y18497975D01*
X13020816Y18920044D01*
X12396161Y19580726D01*
X11621309Y20502232D01*
X10910615Y21411510D01*
X10619013Y21832726D01*
X10391073Y22216282D01*
X10242667Y22550642D01*
X10189672Y22824271D01*
X10204947Y22949210D01*
X10249352Y23055740D01*
X10409545Y23202581D01*
X10663945Y23261251D01*
X10682554Y23261466D01*
X10985741Y23202098D01*
X11121745Y23129500D01*
X11237641Y23031666D01*
X11324682Y22916785D01*
X11383578Y22783349D01*
X11410397Y22600545D01*
X11395070Y22472765D01*
X11350306Y22360618D01*
X11282196Y22273925D01*
X11190743Y22211667D01*
X11018632Y22175074D01*
X10785696Y22231601D01*
X10577670Y22399014D01*
X10395864Y22685580D01*
X10335240Y22835506D01*
X10387185Y22616165D01*
X10638265Y22136057D01*
X11237004Y21262419D01*
X11835868Y20496637D01*
X12003907Y23154488D01*
X13616887Y23154488D01*
X13616887Y23042624D01*
X13357265Y23001042D01*
X13144949Y22920625D01*
X12997754Y22766752D01*
X12933496Y22504802D01*
X12721004Y19457139D01*
X13132351Y19019570D01*
X13588771Y18642116D01*
X13815925Y18509411D01*
X14045740Y18420753D01*
X14064829Y18415688D01*
G37*
D10*
X17529887Y38753991D02*
X17387030Y38706372D01*
X17387030Y38706372D02*
X17339411Y38658753D01*
X17339411Y38658753D02*
X17291792Y38563515D01*
X17291792Y38563515D02*
X17291792Y38420658D01*
X17291792Y38420658D02*
X17339411Y38325420D01*
X17339411Y38325420D02*
X17387030Y38277800D01*
X17387030Y38277800D02*
X17482268Y38230181D01*
X17482268Y38230181D02*
X17863220Y38230181D01*
X17863220Y38230181D02*
X17863220Y39230181D01*
X17863220Y39230181D02*
X17529887Y39230181D01*
X17529887Y39230181D02*
X17434649Y39182562D01*
X17434649Y39182562D02*
X17387030Y39134943D01*
X17387030Y39134943D02*
X17339411Y39039705D01*
X17339411Y39039705D02*
X17339411Y38944467D01*
X17339411Y38944467D02*
X17387030Y38849229D01*
X17387030Y38849229D02*
X17434649Y38801610D01*
X17434649Y38801610D02*
X17529887Y38753991D01*
X17529887Y38753991D02*
X17863220Y38753991D01*
X16672744Y39230181D02*
X16482268Y39230181D01*
X16482268Y39230181D02*
X16387030Y39182562D01*
X16387030Y39182562D02*
X16291792Y39087324D01*
X16291792Y39087324D02*
X16244173Y38896848D01*
X16244173Y38896848D02*
X16244173Y38563515D01*
X16244173Y38563515D02*
X16291792Y38373039D01*
X16291792Y38373039D02*
X16387030Y38277800D01*
X16387030Y38277800D02*
X16482268Y38230181D01*
X16482268Y38230181D02*
X16672744Y38230181D01*
X16672744Y38230181D02*
X16767982Y38277800D01*
X16767982Y38277800D02*
X16863220Y38373039D01*
X16863220Y38373039D02*
X16910839Y38563515D01*
X16910839Y38563515D02*
X16910839Y38896848D01*
X16910839Y38896848D02*
X16863220Y39087324D01*
X16863220Y39087324D02*
X16767982Y39182562D01*
X16767982Y39182562D02*
X16672744Y39230181D01*
X15625125Y39230181D02*
X15434649Y39230181D01*
X15434649Y39230181D02*
X15339411Y39182562D01*
X15339411Y39182562D02*
X15244173Y39087324D01*
X15244173Y39087324D02*
X15196554Y38896848D01*
X15196554Y38896848D02*
X15196554Y38563515D01*
X15196554Y38563515D02*
X15244173Y38373039D01*
X15244173Y38373039D02*
X15339411Y38277800D01*
X15339411Y38277800D02*
X15434649Y38230181D01*
X15434649Y38230181D02*
X15625125Y38230181D01*
X15625125Y38230181D02*
X15720363Y38277800D01*
X15720363Y38277800D02*
X15815601Y38373039D01*
X15815601Y38373039D02*
X15863220Y38563515D01*
X15863220Y38563515D02*
X15863220Y38896848D01*
X15863220Y38896848D02*
X15815601Y39087324D01*
X15815601Y39087324D02*
X15720363Y39182562D01*
X15720363Y39182562D02*
X15625125Y39230181D01*
X14910839Y39230181D02*
X14339411Y39230181D01*
X14625125Y38230181D02*
X14625125Y39230181D01*
X31017438Y4539412D02*
X30969819Y4634650D01*
X30969819Y4634650D02*
X30969819Y4777507D01*
X30969819Y4777507D02*
X31017438Y4920364D01*
X31017438Y4920364D02*
X31112676Y5015602D01*
X31112676Y5015602D02*
X31207914Y5063221D01*
X31207914Y5063221D02*
X31398390Y5110840D01*
X31398390Y5110840D02*
X31541247Y5110840D01*
X31541247Y5110840D02*
X31731723Y5063221D01*
X31731723Y5063221D02*
X31826961Y5015602D01*
X31826961Y5015602D02*
X31922200Y4920364D01*
X31922200Y4920364D02*
X31969819Y4777507D01*
X31969819Y4777507D02*
X31969819Y4682269D01*
X31969819Y4682269D02*
X31922200Y4539412D01*
X31922200Y4539412D02*
X31874580Y4491793D01*
X31874580Y4491793D02*
X31541247Y4491793D01*
X31541247Y4491793D02*
X31541247Y4682269D01*
X31969819Y4063221D02*
X30969819Y4063221D01*
X30969819Y4063221D02*
X31969819Y3491793D01*
X31969819Y3491793D02*
X30969819Y3491793D01*
X31969819Y3015602D02*
X30969819Y3015602D01*
X30969819Y3015602D02*
X30969819Y2777507D01*
X30969819Y2777507D02*
X31017438Y2634650D01*
X31017438Y2634650D02*
X31112676Y2539412D01*
X31112676Y2539412D02*
X31207914Y2491793D01*
X31207914Y2491793D02*
X31398390Y2444174D01*
X31398390Y2444174D02*
X31541247Y2444174D01*
X31541247Y2444174D02*
X31731723Y2491793D01*
X31731723Y2491793D02*
X31826961Y2539412D01*
X31826961Y2539412D02*
X31922200Y2634650D01*
X31922200Y2634650D02*
X31969819Y2777507D01*
X31969819Y2777507D02*
X31969819Y3015602D01*
X19817438Y7639412D02*
X19769819Y7734650D01*
X19769819Y7734650D02*
X19769819Y7877507D01*
X19769819Y7877507D02*
X19817438Y8020364D01*
X19817438Y8020364D02*
X19912676Y8115602D01*
X19912676Y8115602D02*
X20007914Y8163221D01*
X20007914Y8163221D02*
X20198390Y8210840D01*
X20198390Y8210840D02*
X20341247Y8210840D01*
X20341247Y8210840D02*
X20531723Y8163221D01*
X20531723Y8163221D02*
X20626961Y8115602D01*
X20626961Y8115602D02*
X20722200Y8020364D01*
X20722200Y8020364D02*
X20769819Y7877507D01*
X20769819Y7877507D02*
X20769819Y7782269D01*
X20769819Y7782269D02*
X20722200Y7639412D01*
X20722200Y7639412D02*
X20674580Y7591793D01*
X20674580Y7591793D02*
X20341247Y7591793D01*
X20341247Y7591793D02*
X20341247Y7782269D01*
X20769819Y7163221D02*
X19769819Y7163221D01*
X19769819Y7163221D02*
X19769819Y6782269D01*
X19769819Y6782269D02*
X19817438Y6687031D01*
X19817438Y6687031D02*
X19865057Y6639412D01*
X19865057Y6639412D02*
X19960295Y6591793D01*
X19960295Y6591793D02*
X20103152Y6591793D01*
X20103152Y6591793D02*
X20198390Y6639412D01*
X20198390Y6639412D02*
X20246009Y6687031D01*
X20246009Y6687031D02*
X20293628Y6782269D01*
X20293628Y6782269D02*
X20293628Y7163221D01*
X20769819Y6163221D02*
X19769819Y6163221D01*
X19769819Y5496555D02*
X19769819Y5306079D01*
X19769819Y5306079D02*
X19817438Y5210841D01*
X19817438Y5210841D02*
X19912676Y5115603D01*
X19912676Y5115603D02*
X20103152Y5067984D01*
X20103152Y5067984D02*
X20436485Y5067984D01*
X20436485Y5067984D02*
X20626961Y5115603D01*
X20626961Y5115603D02*
X20722200Y5210841D01*
X20722200Y5210841D02*
X20769819Y5306079D01*
X20769819Y5306079D02*
X20769819Y5496555D01*
X20769819Y5496555D02*
X20722200Y5591793D01*
X20722200Y5591793D02*
X20626961Y5687031D01*
X20626961Y5687031D02*
X20436485Y5734650D01*
X20436485Y5734650D02*
X20103152Y5734650D01*
X20103152Y5734650D02*
X19912676Y5687031D01*
X19912676Y5687031D02*
X19817438Y5591793D01*
X19817438Y5591793D02*
X19769819Y5496555D01*
X20865057Y4877507D02*
X20865057Y4115603D01*
X19769819Y3972745D02*
X19769819Y3306079D01*
X19769819Y3306079D02*
X20769819Y3734650D01*
X19769819Y2734650D02*
X19769819Y2639412D01*
X19769819Y2639412D02*
X19817438Y2544174D01*
X19817438Y2544174D02*
X19865057Y2496555D01*
X19865057Y2496555D02*
X19960295Y2448936D01*
X19960295Y2448936D02*
X20150771Y2401317D01*
X20150771Y2401317D02*
X20388866Y2401317D01*
X20388866Y2401317D02*
X20579342Y2448936D01*
X20579342Y2448936D02*
X20674580Y2496555D01*
X20674580Y2496555D02*
X20722200Y2544174D01*
X20722200Y2544174D02*
X20769819Y2639412D01*
X20769819Y2639412D02*
X20769819Y2734650D01*
X20769819Y2734650D02*
X20722200Y2829888D01*
X20722200Y2829888D02*
X20674580Y2877507D01*
X20674580Y2877507D02*
X20579342Y2925126D01*
X20579342Y2925126D02*
X20388866Y2972745D01*
X20388866Y2972745D02*
X20150771Y2972745D01*
X20150771Y2972745D02*
X19960295Y2925126D01*
X19960295Y2925126D02*
X19865057Y2877507D01*
X19865057Y2877507D02*
X19817438Y2829888D01*
X19817438Y2829888D02*
X19769819Y2734650D01*
X2191792Y17530181D02*
X2525125Y18006372D01*
X2763220Y17530181D02*
X2763220Y18530181D01*
X2763220Y18530181D02*
X2382268Y18530181D01*
X2382268Y18530181D02*
X2287030Y18482562D01*
X2287030Y18482562D02*
X2239411Y18434943D01*
X2239411Y18434943D02*
X2191792Y18339705D01*
X2191792Y18339705D02*
X2191792Y18196848D01*
X2191792Y18196848D02*
X2239411Y18101610D01*
X2239411Y18101610D02*
X2287030Y18053991D01*
X2287030Y18053991D02*
X2382268Y18006372D01*
X2382268Y18006372D02*
X2763220Y18006372D01*
X1858458Y18530181D02*
X1191792Y17530181D01*
X1191792Y18530181D02*
X1858458Y17530181D01*
X13684104Y8110840D02*
X13684104Y7634650D01*
X13969819Y8206078D02*
X12969819Y7872745D01*
X12969819Y7872745D02*
X13969819Y7539412D01*
X13969819Y7206078D02*
X12969819Y7206078D01*
X12969819Y7206078D02*
X12969819Y6967983D01*
X12969819Y6967983D02*
X13017438Y6825126D01*
X13017438Y6825126D02*
X13112676Y6729888D01*
X13112676Y6729888D02*
X13207914Y6682269D01*
X13207914Y6682269D02*
X13398390Y6634650D01*
X13398390Y6634650D02*
X13541247Y6634650D01*
X13541247Y6634650D02*
X13731723Y6682269D01*
X13731723Y6682269D02*
X13826961Y6729888D01*
X13826961Y6729888D02*
X13922200Y6825126D01*
X13922200Y6825126D02*
X13969819Y6967983D01*
X13969819Y6967983D02*
X13969819Y7206078D01*
X13874580Y5634650D02*
X13922200Y5682269D01*
X13922200Y5682269D02*
X13969819Y5825126D01*
X13969819Y5825126D02*
X13969819Y5920364D01*
X13969819Y5920364D02*
X13922200Y6063221D01*
X13922200Y6063221D02*
X13826961Y6158459D01*
X13826961Y6158459D02*
X13731723Y6206078D01*
X13731723Y6206078D02*
X13541247Y6253697D01*
X13541247Y6253697D02*
X13398390Y6253697D01*
X13398390Y6253697D02*
X13207914Y6206078D01*
X13207914Y6206078D02*
X13112676Y6158459D01*
X13112676Y6158459D02*
X13017438Y6063221D01*
X13017438Y6063221D02*
X12969819Y5920364D01*
X12969819Y5920364D02*
X12969819Y5825126D01*
X12969819Y5825126D02*
X13017438Y5682269D01*
X13017438Y5682269D02*
X13065057Y5634650D01*
X14065057Y5444173D02*
X14065057Y4682269D01*
X13969819Y4444173D02*
X12969819Y4444173D01*
X13969819Y3967983D02*
X12969819Y3967983D01*
X12969819Y3967983D02*
X13969819Y3396555D01*
X13969819Y3396555D02*
X12969819Y3396555D01*
X13969819Y2396555D02*
X13969819Y2967983D01*
X13969819Y2682269D02*
X12969819Y2682269D01*
X12969819Y2682269D02*
X13112676Y2777507D01*
X13112676Y2777507D02*
X13207914Y2872745D01*
X13207914Y2872745D02*
X13255533Y2967983D01*
X22117438Y7639412D02*
X22069819Y7734650D01*
X22069819Y7734650D02*
X22069819Y7877507D01*
X22069819Y7877507D02*
X22117438Y8020364D01*
X22117438Y8020364D02*
X22212676Y8115602D01*
X22212676Y8115602D02*
X22307914Y8163221D01*
X22307914Y8163221D02*
X22498390Y8210840D01*
X22498390Y8210840D02*
X22641247Y8210840D01*
X22641247Y8210840D02*
X22831723Y8163221D01*
X22831723Y8163221D02*
X22926961Y8115602D01*
X22926961Y8115602D02*
X23022200Y8020364D01*
X23022200Y8020364D02*
X23069819Y7877507D01*
X23069819Y7877507D02*
X23069819Y7782269D01*
X23069819Y7782269D02*
X23022200Y7639412D01*
X23022200Y7639412D02*
X22974580Y7591793D01*
X22974580Y7591793D02*
X22641247Y7591793D01*
X22641247Y7591793D02*
X22641247Y7782269D01*
X23069819Y7163221D02*
X22069819Y7163221D01*
X22069819Y7163221D02*
X22069819Y6782269D01*
X22069819Y6782269D02*
X22117438Y6687031D01*
X22117438Y6687031D02*
X22165057Y6639412D01*
X22165057Y6639412D02*
X22260295Y6591793D01*
X22260295Y6591793D02*
X22403152Y6591793D01*
X22403152Y6591793D02*
X22498390Y6639412D01*
X22498390Y6639412D02*
X22546009Y6687031D01*
X22546009Y6687031D02*
X22593628Y6782269D01*
X22593628Y6782269D02*
X22593628Y7163221D01*
X23069819Y6163221D02*
X22069819Y6163221D01*
X22069819Y5496555D02*
X22069819Y5306079D01*
X22069819Y5306079D02*
X22117438Y5210841D01*
X22117438Y5210841D02*
X22212676Y5115603D01*
X22212676Y5115603D02*
X22403152Y5067984D01*
X22403152Y5067984D02*
X22736485Y5067984D01*
X22736485Y5067984D02*
X22926961Y5115603D01*
X22926961Y5115603D02*
X23022200Y5210841D01*
X23022200Y5210841D02*
X23069819Y5306079D01*
X23069819Y5306079D02*
X23069819Y5496555D01*
X23069819Y5496555D02*
X23022200Y5591793D01*
X23022200Y5591793D02*
X22926961Y5687031D01*
X22926961Y5687031D02*
X22736485Y5734650D01*
X22736485Y5734650D02*
X22403152Y5734650D01*
X22403152Y5734650D02*
X22212676Y5687031D01*
X22212676Y5687031D02*
X22117438Y5591793D01*
X22117438Y5591793D02*
X22069819Y5496555D01*
X23165057Y4877507D02*
X23165057Y4115603D01*
X22069819Y3448936D02*
X22069819Y3639412D01*
X22069819Y3639412D02*
X22117438Y3734650D01*
X22117438Y3734650D02*
X22165057Y3782269D01*
X22165057Y3782269D02*
X22307914Y3877507D01*
X22307914Y3877507D02*
X22498390Y3925126D01*
X22498390Y3925126D02*
X22879342Y3925126D01*
X22879342Y3925126D02*
X22974580Y3877507D01*
X22974580Y3877507D02*
X23022200Y3829888D01*
X23022200Y3829888D02*
X23069819Y3734650D01*
X23069819Y3734650D02*
X23069819Y3544174D01*
X23069819Y3544174D02*
X23022200Y3448936D01*
X23022200Y3448936D02*
X22974580Y3401317D01*
X22974580Y3401317D02*
X22879342Y3353698D01*
X22879342Y3353698D02*
X22641247Y3353698D01*
X22641247Y3353698D02*
X22546009Y3401317D01*
X22546009Y3401317D02*
X22498390Y3448936D01*
X22498390Y3448936D02*
X22450771Y3544174D01*
X22450771Y3544174D02*
X22450771Y3734650D01*
X22450771Y3734650D02*
X22498390Y3829888D01*
X22498390Y3829888D02*
X22546009Y3877507D01*
X22546009Y3877507D02*
X22641247Y3925126D01*
X23069819Y2877507D02*
X23069819Y2687031D01*
X23069819Y2687031D02*
X23022200Y2591793D01*
X23022200Y2591793D02*
X22974580Y2544174D01*
X22974580Y2544174D02*
X22831723Y2448936D01*
X22831723Y2448936D02*
X22641247Y2401317D01*
X22641247Y2401317D02*
X22260295Y2401317D01*
X22260295Y2401317D02*
X22165057Y2448936D01*
X22165057Y2448936D02*
X22117438Y2496555D01*
X22117438Y2496555D02*
X22069819Y2591793D01*
X22069819Y2591793D02*
X22069819Y2782269D01*
X22069819Y2782269D02*
X22117438Y2877507D01*
X22117438Y2877507D02*
X22165057Y2925126D01*
X22165057Y2925126D02*
X22260295Y2972745D01*
X22260295Y2972745D02*
X22498390Y2972745D01*
X22498390Y2972745D02*
X22593628Y2925126D01*
X22593628Y2925126D02*
X22641247Y2877507D01*
X22641247Y2877507D02*
X22688866Y2782269D01*
X22688866Y2782269D02*
X22688866Y2591793D01*
X22688866Y2591793D02*
X22641247Y2496555D01*
X22641247Y2496555D02*
X22593628Y2448936D01*
X22593628Y2448936D02*
X22498390Y2401317D01*
X18184104Y8110840D02*
X18184104Y7634650D01*
X18469819Y8206078D02*
X17469819Y7872745D01*
X17469819Y7872745D02*
X18469819Y7539412D01*
X18469819Y7206078D02*
X17469819Y7206078D01*
X17469819Y7206078D02*
X17469819Y6967983D01*
X17469819Y6967983D02*
X17517438Y6825126D01*
X17517438Y6825126D02*
X17612676Y6729888D01*
X17612676Y6729888D02*
X17707914Y6682269D01*
X17707914Y6682269D02*
X17898390Y6634650D01*
X17898390Y6634650D02*
X18041247Y6634650D01*
X18041247Y6634650D02*
X18231723Y6682269D01*
X18231723Y6682269D02*
X18326961Y6729888D01*
X18326961Y6729888D02*
X18422200Y6825126D01*
X18422200Y6825126D02*
X18469819Y6967983D01*
X18469819Y6967983D02*
X18469819Y7206078D01*
X18374580Y5634650D02*
X18422200Y5682269D01*
X18422200Y5682269D02*
X18469819Y5825126D01*
X18469819Y5825126D02*
X18469819Y5920364D01*
X18469819Y5920364D02*
X18422200Y6063221D01*
X18422200Y6063221D02*
X18326961Y6158459D01*
X18326961Y6158459D02*
X18231723Y6206078D01*
X18231723Y6206078D02*
X18041247Y6253697D01*
X18041247Y6253697D02*
X17898390Y6253697D01*
X17898390Y6253697D02*
X17707914Y6206078D01*
X17707914Y6206078D02*
X17612676Y6158459D01*
X17612676Y6158459D02*
X17517438Y6063221D01*
X17517438Y6063221D02*
X17469819Y5920364D01*
X17469819Y5920364D02*
X17469819Y5825126D01*
X17469819Y5825126D02*
X17517438Y5682269D01*
X17517438Y5682269D02*
X17565057Y5634650D01*
X18565057Y5444173D02*
X18565057Y4682269D01*
X18469819Y4444173D02*
X17469819Y4444173D01*
X18469819Y3967983D02*
X17469819Y3967983D01*
X17469819Y3967983D02*
X18469819Y3396555D01*
X18469819Y3396555D02*
X17469819Y3396555D01*
X17469819Y3015602D02*
X17469819Y2396555D01*
X17469819Y2396555D02*
X17850771Y2729888D01*
X17850771Y2729888D02*
X17850771Y2587031D01*
X17850771Y2587031D02*
X17898390Y2491793D01*
X17898390Y2491793D02*
X17946009Y2444174D01*
X17946009Y2444174D02*
X18041247Y2396555D01*
X18041247Y2396555D02*
X18279342Y2396555D01*
X18279342Y2396555D02*
X18374580Y2444174D01*
X18374580Y2444174D02*
X18422200Y2491793D01*
X18422200Y2491793D02*
X18469819Y2587031D01*
X18469819Y2587031D02*
X18469819Y2872745D01*
X18469819Y2872745D02*
X18422200Y2967983D01*
X18422200Y2967983D02*
X18374580Y3015602D01*
X3210839Y9577800D02*
X3067982Y9530181D01*
X3067982Y9530181D02*
X2829887Y9530181D01*
X2829887Y9530181D02*
X2734649Y9577800D01*
X2734649Y9577800D02*
X2687030Y9625420D01*
X2687030Y9625420D02*
X2639411Y9720658D01*
X2639411Y9720658D02*
X2639411Y9815896D01*
X2639411Y9815896D02*
X2687030Y9911134D01*
X2687030Y9911134D02*
X2734649Y9958753D01*
X2734649Y9958753D02*
X2829887Y10006372D01*
X2829887Y10006372D02*
X3020363Y10053991D01*
X3020363Y10053991D02*
X3115601Y10101610D01*
X3115601Y10101610D02*
X3163220Y10149229D01*
X3163220Y10149229D02*
X3210839Y10244467D01*
X3210839Y10244467D02*
X3210839Y10339705D01*
X3210839Y10339705D02*
X3163220Y10434943D01*
X3163220Y10434943D02*
X3115601Y10482562D01*
X3115601Y10482562D02*
X3020363Y10530181D01*
X3020363Y10530181D02*
X2782268Y10530181D01*
X2782268Y10530181D02*
X2639411Y10482562D01*
X2210839Y9530181D02*
X2210839Y10530181D01*
X2210839Y10530181D02*
X1972744Y10530181D01*
X1972744Y10530181D02*
X1829887Y10482562D01*
X1829887Y10482562D02*
X1734649Y10387324D01*
X1734649Y10387324D02*
X1687030Y10292086D01*
X1687030Y10292086D02*
X1639411Y10101610D01*
X1639411Y10101610D02*
X1639411Y9958753D01*
X1639411Y9958753D02*
X1687030Y9768277D01*
X1687030Y9768277D02*
X1734649Y9673039D01*
X1734649Y9673039D02*
X1829887Y9577800D01*
X1829887Y9577800D02*
X1972744Y9530181D01*
X1972744Y9530181D02*
X2210839Y9530181D01*
X1258458Y9815896D02*
X782268Y9815896D01*
X1353696Y9530181D02*
X1020363Y10530181D01*
X1020363Y10530181D02*
X687030Y9530181D01*
X26469819Y9163221D02*
X27279342Y9163221D01*
X27279342Y9163221D02*
X27374580Y9115602D01*
X27374580Y9115602D02*
X27422200Y9067983D01*
X27422200Y9067983D02*
X27469819Y8972745D01*
X27469819Y8972745D02*
X27469819Y8782269D01*
X27469819Y8782269D02*
X27422200Y8687031D01*
X27422200Y8687031D02*
X27374580Y8639412D01*
X27374580Y8639412D02*
X27279342Y8591793D01*
X27279342Y8591793D02*
X26469819Y8591793D01*
X27184104Y8163221D02*
X27184104Y7687031D01*
X27469819Y8258459D02*
X26469819Y7925126D01*
X26469819Y7925126D02*
X27469819Y7591793D01*
X27469819Y6687031D02*
X26993628Y7020364D01*
X27469819Y7258459D02*
X26469819Y7258459D01*
X26469819Y7258459D02*
X26469819Y6877507D01*
X26469819Y6877507D02*
X26517438Y6782269D01*
X26517438Y6782269D02*
X26565057Y6734650D01*
X26565057Y6734650D02*
X26660295Y6687031D01*
X26660295Y6687031D02*
X26803152Y6687031D01*
X26803152Y6687031D02*
X26898390Y6734650D01*
X26898390Y6734650D02*
X26946009Y6782269D01*
X26946009Y6782269D02*
X26993628Y6877507D01*
X26993628Y6877507D02*
X26993628Y7258459D01*
X26469819Y6401316D02*
X26469819Y5829888D01*
X27469819Y6115602D02*
X26469819Y6115602D01*
X26469819Y5020364D02*
X26469819Y5496554D01*
X26469819Y5496554D02*
X26946009Y5544173D01*
X26946009Y5544173D02*
X26898390Y5496554D01*
X26898390Y5496554D02*
X26850771Y5401316D01*
X26850771Y5401316D02*
X26850771Y5163221D01*
X26850771Y5163221D02*
X26898390Y5067983D01*
X26898390Y5067983D02*
X26946009Y5020364D01*
X26946009Y5020364D02*
X27041247Y4972745D01*
X27041247Y4972745D02*
X27279342Y4972745D01*
X27279342Y4972745D02*
X27374580Y5020364D01*
X27374580Y5020364D02*
X27422200Y5067983D01*
X27422200Y5067983D02*
X27469819Y5163221D01*
X27469819Y5163221D02*
X27469819Y5401316D01*
X27469819Y5401316D02*
X27422200Y5496554D01*
X27422200Y5496554D02*
X27374580Y5544173D01*
X27565057Y4782268D02*
X27565057Y4020364D01*
X26469819Y3925125D02*
X26469819Y3353697D01*
X27469819Y3639411D02*
X26469819Y3639411D01*
X26469819Y3115601D02*
X27469819Y2448935D01*
X26469819Y2448935D02*
X27469819Y3115601D01*
X24317438Y7639412D02*
X24269819Y7734650D01*
X24269819Y7734650D02*
X24269819Y7877507D01*
X24269819Y7877507D02*
X24317438Y8020364D01*
X24317438Y8020364D02*
X24412676Y8115602D01*
X24412676Y8115602D02*
X24507914Y8163221D01*
X24507914Y8163221D02*
X24698390Y8210840D01*
X24698390Y8210840D02*
X24841247Y8210840D01*
X24841247Y8210840D02*
X25031723Y8163221D01*
X25031723Y8163221D02*
X25126961Y8115602D01*
X25126961Y8115602D02*
X25222200Y8020364D01*
X25222200Y8020364D02*
X25269819Y7877507D01*
X25269819Y7877507D02*
X25269819Y7782269D01*
X25269819Y7782269D02*
X25222200Y7639412D01*
X25222200Y7639412D02*
X25174580Y7591793D01*
X25174580Y7591793D02*
X24841247Y7591793D01*
X24841247Y7591793D02*
X24841247Y7782269D01*
X25269819Y7163221D02*
X24269819Y7163221D01*
X24269819Y7163221D02*
X24269819Y6782269D01*
X24269819Y6782269D02*
X24317438Y6687031D01*
X24317438Y6687031D02*
X24365057Y6639412D01*
X24365057Y6639412D02*
X24460295Y6591793D01*
X24460295Y6591793D02*
X24603152Y6591793D01*
X24603152Y6591793D02*
X24698390Y6639412D01*
X24698390Y6639412D02*
X24746009Y6687031D01*
X24746009Y6687031D02*
X24793628Y6782269D01*
X24793628Y6782269D02*
X24793628Y7163221D01*
X25269819Y6163221D02*
X24269819Y6163221D01*
X24269819Y5496555D02*
X24269819Y5306079D01*
X24269819Y5306079D02*
X24317438Y5210841D01*
X24317438Y5210841D02*
X24412676Y5115603D01*
X24412676Y5115603D02*
X24603152Y5067984D01*
X24603152Y5067984D02*
X24936485Y5067984D01*
X24936485Y5067984D02*
X25126961Y5115603D01*
X25126961Y5115603D02*
X25222200Y5210841D01*
X25222200Y5210841D02*
X25269819Y5306079D01*
X25269819Y5306079D02*
X25269819Y5496555D01*
X25269819Y5496555D02*
X25222200Y5591793D01*
X25222200Y5591793D02*
X25126961Y5687031D01*
X25126961Y5687031D02*
X24936485Y5734650D01*
X24936485Y5734650D02*
X24603152Y5734650D01*
X24603152Y5734650D02*
X24412676Y5687031D01*
X24412676Y5687031D02*
X24317438Y5591793D01*
X24317438Y5591793D02*
X24269819Y5496555D01*
X25365057Y4877507D02*
X25365057Y4115603D01*
X24269819Y3448936D02*
X24269819Y3639412D01*
X24269819Y3639412D02*
X24317438Y3734650D01*
X24317438Y3734650D02*
X24365057Y3782269D01*
X24365057Y3782269D02*
X24507914Y3877507D01*
X24507914Y3877507D02*
X24698390Y3925126D01*
X24698390Y3925126D02*
X25079342Y3925126D01*
X25079342Y3925126D02*
X25174580Y3877507D01*
X25174580Y3877507D02*
X25222200Y3829888D01*
X25222200Y3829888D02*
X25269819Y3734650D01*
X25269819Y3734650D02*
X25269819Y3544174D01*
X25269819Y3544174D02*
X25222200Y3448936D01*
X25222200Y3448936D02*
X25174580Y3401317D01*
X25174580Y3401317D02*
X25079342Y3353698D01*
X25079342Y3353698D02*
X24841247Y3353698D01*
X24841247Y3353698D02*
X24746009Y3401317D01*
X24746009Y3401317D02*
X24698390Y3448936D01*
X24698390Y3448936D02*
X24650771Y3544174D01*
X24650771Y3544174D02*
X24650771Y3734650D01*
X24650771Y3734650D02*
X24698390Y3829888D01*
X24698390Y3829888D02*
X24746009Y3877507D01*
X24746009Y3877507D02*
X24841247Y3925126D01*
X24698390Y2782269D02*
X24650771Y2877507D01*
X24650771Y2877507D02*
X24603152Y2925126D01*
X24603152Y2925126D02*
X24507914Y2972745D01*
X24507914Y2972745D02*
X24460295Y2972745D01*
X24460295Y2972745D02*
X24365057Y2925126D01*
X24365057Y2925126D02*
X24317438Y2877507D01*
X24317438Y2877507D02*
X24269819Y2782269D01*
X24269819Y2782269D02*
X24269819Y2591793D01*
X24269819Y2591793D02*
X24317438Y2496555D01*
X24317438Y2496555D02*
X24365057Y2448936D01*
X24365057Y2448936D02*
X24460295Y2401317D01*
X24460295Y2401317D02*
X24507914Y2401317D01*
X24507914Y2401317D02*
X24603152Y2448936D01*
X24603152Y2448936D02*
X24650771Y2496555D01*
X24650771Y2496555D02*
X24698390Y2591793D01*
X24698390Y2591793D02*
X24698390Y2782269D01*
X24698390Y2782269D02*
X24746009Y2877507D01*
X24746009Y2877507D02*
X24793628Y2925126D01*
X24793628Y2925126D02*
X24888866Y2972745D01*
X24888866Y2972745D02*
X25079342Y2972745D01*
X25079342Y2972745D02*
X25174580Y2925126D01*
X25174580Y2925126D02*
X25222200Y2877507D01*
X25222200Y2877507D02*
X25269819Y2782269D01*
X25269819Y2782269D02*
X25269819Y2591793D01*
X25269819Y2591793D02*
X25222200Y2496555D01*
X25222200Y2496555D02*
X25174580Y2448936D01*
X25174580Y2448936D02*
X25079342Y2401317D01*
X25079342Y2401317D02*
X24888866Y2401317D01*
X24888866Y2401317D02*
X24793628Y2448936D01*
X24793628Y2448936D02*
X24746009Y2496555D01*
X24746009Y2496555D02*
X24698390Y2591793D01*
X2839411Y30482562D02*
X2934649Y30530181D01*
X2934649Y30530181D02*
X3077506Y30530181D01*
X3077506Y30530181D02*
X3220363Y30482562D01*
X3220363Y30482562D02*
X3315601Y30387324D01*
X3315601Y30387324D02*
X3363220Y30292086D01*
X3363220Y30292086D02*
X3410839Y30101610D01*
X3410839Y30101610D02*
X3410839Y29958753D01*
X3410839Y29958753D02*
X3363220Y29768277D01*
X3363220Y29768277D02*
X3315601Y29673039D01*
X3315601Y29673039D02*
X3220363Y29577800D01*
X3220363Y29577800D02*
X3077506Y29530181D01*
X3077506Y29530181D02*
X2982268Y29530181D01*
X2982268Y29530181D02*
X2839411Y29577800D01*
X2839411Y29577800D02*
X2791792Y29625420D01*
X2791792Y29625420D02*
X2791792Y29958753D01*
X2791792Y29958753D02*
X2982268Y29958753D01*
X2363220Y29530181D02*
X2363220Y30530181D01*
X2363220Y30530181D02*
X1791792Y29530181D01*
X1791792Y29530181D02*
X1791792Y30530181D01*
X1315601Y29530181D02*
X1315601Y30530181D01*
X1315601Y30530181D02*
X1077506Y30530181D01*
X1077506Y30530181D02*
X934649Y30482562D01*
X934649Y30482562D02*
X839411Y30387324D01*
X839411Y30387324D02*
X791792Y30292086D01*
X791792Y30292086D02*
X744173Y30101610D01*
X744173Y30101610D02*
X744173Y29958753D01*
X744173Y29958753D02*
X791792Y29768277D01*
X791792Y29768277D02*
X839411Y29673039D01*
X839411Y29673039D02*
X934649Y29577800D01*
X934649Y29577800D02*
X1077506Y29530181D01*
X1077506Y29530181D02*
X1315601Y29530181D01*
X15884104Y8110840D02*
X15884104Y7634650D01*
X16169819Y8206078D02*
X15169819Y7872745D01*
X15169819Y7872745D02*
X16169819Y7539412D01*
X16169819Y7206078D02*
X15169819Y7206078D01*
X15169819Y7206078D02*
X15169819Y6967983D01*
X15169819Y6967983D02*
X15217438Y6825126D01*
X15217438Y6825126D02*
X15312676Y6729888D01*
X15312676Y6729888D02*
X15407914Y6682269D01*
X15407914Y6682269D02*
X15598390Y6634650D01*
X15598390Y6634650D02*
X15741247Y6634650D01*
X15741247Y6634650D02*
X15931723Y6682269D01*
X15931723Y6682269D02*
X16026961Y6729888D01*
X16026961Y6729888D02*
X16122200Y6825126D01*
X16122200Y6825126D02*
X16169819Y6967983D01*
X16169819Y6967983D02*
X16169819Y7206078D01*
X16074580Y5634650D02*
X16122200Y5682269D01*
X16122200Y5682269D02*
X16169819Y5825126D01*
X16169819Y5825126D02*
X16169819Y5920364D01*
X16169819Y5920364D02*
X16122200Y6063221D01*
X16122200Y6063221D02*
X16026961Y6158459D01*
X16026961Y6158459D02*
X15931723Y6206078D01*
X15931723Y6206078D02*
X15741247Y6253697D01*
X15741247Y6253697D02*
X15598390Y6253697D01*
X15598390Y6253697D02*
X15407914Y6206078D01*
X15407914Y6206078D02*
X15312676Y6158459D01*
X15312676Y6158459D02*
X15217438Y6063221D01*
X15217438Y6063221D02*
X15169819Y5920364D01*
X15169819Y5920364D02*
X15169819Y5825126D01*
X15169819Y5825126D02*
X15217438Y5682269D01*
X15217438Y5682269D02*
X15265057Y5634650D01*
X16265057Y5444173D02*
X16265057Y4682269D01*
X16169819Y4444173D02*
X15169819Y4444173D01*
X16169819Y3967983D02*
X15169819Y3967983D01*
X15169819Y3967983D02*
X16169819Y3396555D01*
X16169819Y3396555D02*
X15169819Y3396555D01*
X15265057Y2967983D02*
X15217438Y2920364D01*
X15217438Y2920364D02*
X15169819Y2825126D01*
X15169819Y2825126D02*
X15169819Y2587031D01*
X15169819Y2587031D02*
X15217438Y2491793D01*
X15217438Y2491793D02*
X15265057Y2444174D01*
X15265057Y2444174D02*
X15360295Y2396555D01*
X15360295Y2396555D02*
X15455533Y2396555D01*
X15455533Y2396555D02*
X15598390Y2444174D01*
X15598390Y2444174D02*
X16169819Y3015602D01*
X16169819Y3015602D02*
X16169819Y2396555D01*
X28769819Y9363221D02*
X29579342Y9363221D01*
X29579342Y9363221D02*
X29674580Y9315602D01*
X29674580Y9315602D02*
X29722200Y9267983D01*
X29722200Y9267983D02*
X29769819Y9172745D01*
X29769819Y9172745D02*
X29769819Y8982269D01*
X29769819Y8982269D02*
X29722200Y8887031D01*
X29722200Y8887031D02*
X29674580Y8839412D01*
X29674580Y8839412D02*
X29579342Y8791793D01*
X29579342Y8791793D02*
X28769819Y8791793D01*
X29484104Y8363221D02*
X29484104Y7887031D01*
X29769819Y8458459D02*
X28769819Y8125126D01*
X28769819Y8125126D02*
X29769819Y7791793D01*
X29769819Y6887031D02*
X29293628Y7220364D01*
X29769819Y7458459D02*
X28769819Y7458459D01*
X28769819Y7458459D02*
X28769819Y7077507D01*
X28769819Y7077507D02*
X28817438Y6982269D01*
X28817438Y6982269D02*
X28865057Y6934650D01*
X28865057Y6934650D02*
X28960295Y6887031D01*
X28960295Y6887031D02*
X29103152Y6887031D01*
X29103152Y6887031D02*
X29198390Y6934650D01*
X29198390Y6934650D02*
X29246009Y6982269D01*
X29246009Y6982269D02*
X29293628Y7077507D01*
X29293628Y7077507D02*
X29293628Y7458459D01*
X28769819Y6601316D02*
X28769819Y6029888D01*
X29769819Y6315602D02*
X28769819Y6315602D01*
X28769819Y5220364D02*
X28769819Y5696554D01*
X28769819Y5696554D02*
X29246009Y5744173D01*
X29246009Y5744173D02*
X29198390Y5696554D01*
X29198390Y5696554D02*
X29150771Y5601316D01*
X29150771Y5601316D02*
X29150771Y5363221D01*
X29150771Y5363221D02*
X29198390Y5267983D01*
X29198390Y5267983D02*
X29246009Y5220364D01*
X29246009Y5220364D02*
X29341247Y5172745D01*
X29341247Y5172745D02*
X29579342Y5172745D01*
X29579342Y5172745D02*
X29674580Y5220364D01*
X29674580Y5220364D02*
X29722200Y5267983D01*
X29722200Y5267983D02*
X29769819Y5363221D01*
X29769819Y5363221D02*
X29769819Y5601316D01*
X29769819Y5601316D02*
X29722200Y5696554D01*
X29722200Y5696554D02*
X29674580Y5744173D01*
X29865057Y4982268D02*
X29865057Y4220364D01*
X29769819Y3410840D02*
X29293628Y3744173D01*
X29769819Y3982268D02*
X28769819Y3982268D01*
X28769819Y3982268D02*
X28769819Y3601316D01*
X28769819Y3601316D02*
X28817438Y3506078D01*
X28817438Y3506078D02*
X28865057Y3458459D01*
X28865057Y3458459D02*
X28960295Y3410840D01*
X28960295Y3410840D02*
X29103152Y3410840D01*
X29103152Y3410840D02*
X29198390Y3458459D01*
X29198390Y3458459D02*
X29246009Y3506078D01*
X29246009Y3506078D02*
X29293628Y3601316D01*
X29293628Y3601316D02*
X29293628Y3982268D01*
X28769819Y3077506D02*
X29769819Y2410840D01*
X28769819Y2410840D02*
X29769819Y3077506D01*
X10817438Y4539412D02*
X10769819Y4634650D01*
X10769819Y4634650D02*
X10769819Y4777507D01*
X10769819Y4777507D02*
X10817438Y4920364D01*
X10817438Y4920364D02*
X10912676Y5015602D01*
X10912676Y5015602D02*
X11007914Y5063221D01*
X11007914Y5063221D02*
X11198390Y5110840D01*
X11198390Y5110840D02*
X11341247Y5110840D01*
X11341247Y5110840D02*
X11531723Y5063221D01*
X11531723Y5063221D02*
X11626961Y5015602D01*
X11626961Y5015602D02*
X11722200Y4920364D01*
X11722200Y4920364D02*
X11769819Y4777507D01*
X11769819Y4777507D02*
X11769819Y4682269D01*
X11769819Y4682269D02*
X11722200Y4539412D01*
X11722200Y4539412D02*
X11674580Y4491793D01*
X11674580Y4491793D02*
X11341247Y4491793D01*
X11341247Y4491793D02*
X11341247Y4682269D01*
X11769819Y4063221D02*
X10769819Y4063221D01*
X10769819Y4063221D02*
X11769819Y3491793D01*
X11769819Y3491793D02*
X10769819Y3491793D01*
X11769819Y3015602D02*
X10769819Y3015602D01*
X10769819Y3015602D02*
X10769819Y2777507D01*
X10769819Y2777507D02*
X10817438Y2634650D01*
X10817438Y2634650D02*
X10912676Y2539412D01*
X10912676Y2539412D02*
X11007914Y2491793D01*
X11007914Y2491793D02*
X11198390Y2444174D01*
X11198390Y2444174D02*
X11341247Y2444174D01*
X11341247Y2444174D02*
X11531723Y2491793D01*
X11531723Y2491793D02*
X11626961Y2539412D01*
X11626961Y2539412D02*
X11722200Y2634650D01*
X11722200Y2634650D02*
X11769819Y2777507D01*
X11769819Y2777507D02*
X11769819Y3015602D01*
X40583333Y38045181D02*
X40583333Y37330896D01*
X40583333Y37330896D02*
X40630952Y37188039D01*
X40630952Y37188039D02*
X40726190Y37092800D01*
X40726190Y37092800D02*
X40869047Y37045181D01*
X40869047Y37045181D02*
X40964285Y37045181D01*
X40154761Y37949943D02*
X40107142Y37997562D01*
X40107142Y37997562D02*
X40011904Y38045181D01*
X40011904Y38045181D02*
X39773809Y38045181D01*
X39773809Y38045181D02*
X39678571Y37997562D01*
X39678571Y37997562D02*
X39630952Y37949943D01*
X39630952Y37949943D02*
X39583333Y37854705D01*
X39583333Y37854705D02*
X39583333Y37759467D01*
X39583333Y37759467D02*
X39630952Y37616610D01*
X39630952Y37616610D02*
X40202380Y37045181D01*
X40202380Y37045181D02*
X39583333Y37045181D01*
X37701999Y34743181D02*
X37701999Y34505086D01*
X37940094Y34600324D02*
X37701999Y34505086D01*
X37701999Y34505086D02*
X37463904Y34600324D01*
X37844856Y34314610D02*
X37701999Y34505086D01*
X37701999Y34505086D02*
X37559142Y34314610D01*
D12*
%TO.C,SW1*%
X12900000Y43800000D02*
X12900000Y43200000D01*
X13350000Y44800000D02*
X19150000Y44800000D01*
X14650000Y42200000D02*
X16350000Y42200000D01*
X19600000Y43200000D02*
X19600000Y43800000D01*
D13*
X13150000Y41000000D02*
G75*
G02*
X12950000Y41000000I-100000J0D01*
G01*
X12950000Y41000000D02*
G75*
G02*
X13150000Y41000000I100000J0D01*
G01*
D14*
%TO.C,J2*%
X33625300Y45348600D02*
X38765559Y45348600D01*
X33625300Y31956839D02*
X33625300Y45348600D01*
X41234439Y45348600D02*
X44465560Y45348600D01*
X46934440Y45348600D02*
X47874700Y45348600D01*
X47874700Y45348600D02*
X47874700Y32956839D01*
X47874700Y30386359D02*
X47874700Y29651400D01*
X47874700Y29651400D02*
X35174278Y29651400D01*
%TD*%
M02*
