%TF.GenerationSoftware,KiCad,Pcbnew,9.0.5*%
%TF.CreationDate,2026-03-11T17:01:17+10:00*%
%TF.ProjectId,FC-proto,46432d70-726f-4746-9f2e-6b696361645f,rev?*%
%TF.SameCoordinates,PX42c1d80PY754d4c0*%
%TF.FileFunction,Soldermask,Bot*%
%TF.FilePolarity,Negative*%
%FSLAX46Y46*%
G04 Gerber Fmt 4.6, Leading zero omitted, Abs format (unit mm)*
G04 Created by KiCad (PCBNEW 9.0.5) date 2026-03-11 17:01:17*
%MOMM*%
%LPD*%
G01*
G04 APERTURE LIST*
G04 APERTURE END LIST*
G36*
X11859115Y2088926D02*
G01*
X11864446Y2086440D01*
X11867060Y2086059D01*
X11904200Y2067903D01*
X11961411Y2041224D01*
X12041223Y1961412D01*
X12067911Y1904179D01*
X12086057Y1867062D01*
X12086437Y1864451D01*
X12088925Y1859116D01*
X12099999Y1775000D01*
X12099999Y725000D01*
X12088925Y640884D01*
X12086437Y635550D01*
X12086057Y632939D01*
X12067921Y595843D01*
X12041223Y538588D01*
X11961411Y458776D01*
X11904156Y432078D01*
X11867060Y413942D01*
X11864449Y413562D01*
X11859115Y411074D01*
X11774999Y400000D01*
X10725001Y400000D01*
X10640885Y411074D01*
X10635550Y413562D01*
X10632939Y413942D01*
X10595822Y432088D01*
X10538589Y458776D01*
X10458777Y538588D01*
X10432098Y595799D01*
X10413942Y632939D01*
X10413561Y635553D01*
X10411075Y640884D01*
X10400001Y725000D01*
X10400001Y1775000D01*
X10411075Y1859116D01*
X10413561Y1864448D01*
X10413942Y1867062D01*
X10432109Y1904224D01*
X10458777Y1961412D01*
X10538589Y2041224D01*
X10595777Y2067892D01*
X10632939Y2086059D01*
X10635553Y2086440D01*
X10640885Y2088926D01*
X10725001Y2100000D01*
X11774999Y2100000D01*
X11859115Y2088926D01*
G37*
G36*
X14109115Y2088926D02*
G01*
X14114446Y2086440D01*
X14117060Y2086059D01*
X14154200Y2067903D01*
X14211411Y2041224D01*
X14291223Y1961412D01*
X14317911Y1904179D01*
X14336057Y1867062D01*
X14336437Y1864451D01*
X14338925Y1859116D01*
X14349999Y1775000D01*
X14349999Y725000D01*
X14338925Y640884D01*
X14336437Y635550D01*
X14336057Y632939D01*
X14317921Y595843D01*
X14291223Y538588D01*
X14211411Y458776D01*
X14154156Y432078D01*
X14117060Y413942D01*
X14114449Y413562D01*
X14109115Y411074D01*
X14024999Y400000D01*
X12975001Y400000D01*
X12890885Y411074D01*
X12885550Y413562D01*
X12882939Y413942D01*
X12845822Y432088D01*
X12788589Y458776D01*
X12708777Y538588D01*
X12682098Y595799D01*
X12663942Y632939D01*
X12663561Y635553D01*
X12661075Y640884D01*
X12650001Y725000D01*
X12650001Y1775000D01*
X12661075Y1859116D01*
X12663561Y1864448D01*
X12663942Y1867062D01*
X12682109Y1904224D01*
X12708777Y1961412D01*
X12788589Y2041224D01*
X12845777Y2067892D01*
X12882939Y2086059D01*
X12885553Y2086440D01*
X12890885Y2088926D01*
X12975001Y2100000D01*
X14024999Y2100000D01*
X14109115Y2088926D01*
G37*
G36*
X16359115Y2088926D02*
G01*
X16364446Y2086440D01*
X16367060Y2086059D01*
X16404200Y2067903D01*
X16461411Y2041224D01*
X16541223Y1961412D01*
X16567911Y1904179D01*
X16586057Y1867062D01*
X16586437Y1864451D01*
X16588925Y1859116D01*
X16599999Y1775000D01*
X16599999Y725000D01*
X16588925Y640884D01*
X16586437Y635550D01*
X16586057Y632939D01*
X16567921Y595843D01*
X16541223Y538588D01*
X16461411Y458776D01*
X16404156Y432078D01*
X16367060Y413942D01*
X16364449Y413562D01*
X16359115Y411074D01*
X16274999Y400000D01*
X15225001Y400000D01*
X15140885Y411074D01*
X15135550Y413562D01*
X15132939Y413942D01*
X15095822Y432088D01*
X15038589Y458776D01*
X14958777Y538588D01*
X14932098Y595799D01*
X14913942Y632939D01*
X14913561Y635553D01*
X14911075Y640884D01*
X14900001Y725000D01*
X14900001Y1775000D01*
X14911075Y1859116D01*
X14913561Y1864448D01*
X14913942Y1867062D01*
X14932109Y1904224D01*
X14958777Y1961412D01*
X15038589Y2041224D01*
X15095777Y2067892D01*
X15132939Y2086059D01*
X15135553Y2086440D01*
X15140885Y2088926D01*
X15225001Y2100000D01*
X16274999Y2100000D01*
X16359115Y2088926D01*
G37*
G36*
X18609115Y2088926D02*
G01*
X18614446Y2086440D01*
X18617060Y2086059D01*
X18654200Y2067903D01*
X18711411Y2041224D01*
X18791223Y1961412D01*
X18817911Y1904179D01*
X18836057Y1867062D01*
X18836437Y1864451D01*
X18838925Y1859116D01*
X18849999Y1775000D01*
X18849999Y725000D01*
X18838925Y640884D01*
X18836437Y635550D01*
X18836057Y632939D01*
X18817921Y595843D01*
X18791223Y538588D01*
X18711411Y458776D01*
X18654156Y432078D01*
X18617060Y413942D01*
X18614449Y413562D01*
X18609115Y411074D01*
X18524999Y400000D01*
X17475001Y400000D01*
X17390885Y411074D01*
X17385550Y413562D01*
X17382939Y413942D01*
X17345822Y432088D01*
X17288589Y458776D01*
X17208777Y538588D01*
X17182098Y595799D01*
X17163942Y632939D01*
X17163561Y635553D01*
X17161075Y640884D01*
X17150001Y725000D01*
X17150001Y1775000D01*
X17161075Y1859116D01*
X17163561Y1864448D01*
X17163942Y1867062D01*
X17182109Y1904224D01*
X17208777Y1961412D01*
X17288589Y2041224D01*
X17345777Y2067892D01*
X17382939Y2086059D01*
X17385553Y2086440D01*
X17390885Y2088926D01*
X17475001Y2100000D01*
X18524999Y2100000D01*
X18609115Y2088926D01*
G37*
G36*
X20859115Y2088926D02*
G01*
X20864446Y2086440D01*
X20867060Y2086059D01*
X20904200Y2067903D01*
X20961411Y2041224D01*
X21041223Y1961412D01*
X21067911Y1904179D01*
X21086057Y1867062D01*
X21086437Y1864451D01*
X21088925Y1859116D01*
X21099999Y1775000D01*
X21099999Y725000D01*
X21088925Y640884D01*
X21086437Y635550D01*
X21086057Y632939D01*
X21067921Y595843D01*
X21041223Y538588D01*
X20961411Y458776D01*
X20904156Y432078D01*
X20867060Y413942D01*
X20864449Y413562D01*
X20859115Y411074D01*
X20774999Y400000D01*
X19725001Y400000D01*
X19640885Y411074D01*
X19635550Y413562D01*
X19632939Y413942D01*
X19595822Y432088D01*
X19538589Y458776D01*
X19458777Y538588D01*
X19432098Y595799D01*
X19413942Y632939D01*
X19413561Y635553D01*
X19411075Y640884D01*
X19400001Y725000D01*
X19400001Y1775000D01*
X19411075Y1859116D01*
X19413561Y1864448D01*
X19413942Y1867062D01*
X19432109Y1904224D01*
X19458777Y1961412D01*
X19538589Y2041224D01*
X19595777Y2067892D01*
X19632939Y2086059D01*
X19635553Y2086440D01*
X19640885Y2088926D01*
X19725001Y2100000D01*
X20774999Y2100000D01*
X20859115Y2088926D01*
G37*
G36*
X23109115Y2088926D02*
G01*
X23114446Y2086440D01*
X23117060Y2086059D01*
X23154200Y2067903D01*
X23211411Y2041224D01*
X23291223Y1961412D01*
X23317911Y1904179D01*
X23336057Y1867062D01*
X23336437Y1864451D01*
X23338925Y1859116D01*
X23349999Y1775000D01*
X23349999Y725000D01*
X23338925Y640884D01*
X23336437Y635550D01*
X23336057Y632939D01*
X23317921Y595843D01*
X23291223Y538588D01*
X23211411Y458776D01*
X23154156Y432078D01*
X23117060Y413942D01*
X23114449Y413562D01*
X23109115Y411074D01*
X23024999Y400000D01*
X21975001Y400000D01*
X21890885Y411074D01*
X21885550Y413562D01*
X21882939Y413942D01*
X21845822Y432088D01*
X21788589Y458776D01*
X21708777Y538588D01*
X21682098Y595799D01*
X21663942Y632939D01*
X21663561Y635553D01*
X21661075Y640884D01*
X21650001Y725000D01*
X21650001Y1775000D01*
X21661075Y1859116D01*
X21663561Y1864448D01*
X21663942Y1867062D01*
X21682109Y1904224D01*
X21708777Y1961412D01*
X21788589Y2041224D01*
X21845777Y2067892D01*
X21882939Y2086059D01*
X21885553Y2086440D01*
X21890885Y2088926D01*
X21975001Y2100000D01*
X23024999Y2100000D01*
X23109115Y2088926D01*
G37*
G36*
X25359115Y2088926D02*
G01*
X25364446Y2086440D01*
X25367060Y2086059D01*
X25404200Y2067903D01*
X25461411Y2041224D01*
X25541223Y1961412D01*
X25567911Y1904179D01*
X25586057Y1867062D01*
X25586437Y1864451D01*
X25588925Y1859116D01*
X25599999Y1775000D01*
X25599999Y725000D01*
X25588925Y640884D01*
X25586437Y635550D01*
X25586057Y632939D01*
X25567921Y595843D01*
X25541223Y538588D01*
X25461411Y458776D01*
X25404156Y432078D01*
X25367060Y413942D01*
X25364449Y413562D01*
X25359115Y411074D01*
X25274999Y400000D01*
X24225001Y400000D01*
X24140885Y411074D01*
X24135550Y413562D01*
X24132939Y413942D01*
X24095822Y432088D01*
X24038589Y458776D01*
X23958777Y538588D01*
X23932098Y595799D01*
X23913942Y632939D01*
X23913561Y635553D01*
X23911075Y640884D01*
X23900001Y725000D01*
X23900001Y1775000D01*
X23911075Y1859116D01*
X23913561Y1864448D01*
X23913942Y1867062D01*
X23932109Y1904224D01*
X23958777Y1961412D01*
X24038589Y2041224D01*
X24095777Y2067892D01*
X24132939Y2086059D01*
X24135553Y2086440D01*
X24140885Y2088926D01*
X24225001Y2100000D01*
X25274999Y2100000D01*
X25359115Y2088926D01*
G37*
G36*
X27609115Y2088926D02*
G01*
X27614446Y2086440D01*
X27617060Y2086059D01*
X27654200Y2067903D01*
X27711411Y2041224D01*
X27791223Y1961412D01*
X27817911Y1904179D01*
X27836057Y1867062D01*
X27836437Y1864451D01*
X27838925Y1859116D01*
X27849999Y1775000D01*
X27849999Y725000D01*
X27838925Y640884D01*
X27836437Y635550D01*
X27836057Y632939D01*
X27817921Y595843D01*
X27791223Y538588D01*
X27711411Y458776D01*
X27654156Y432078D01*
X27617060Y413942D01*
X27614449Y413562D01*
X27609115Y411074D01*
X27524999Y400000D01*
X26475001Y400000D01*
X26390885Y411074D01*
X26385550Y413562D01*
X26382939Y413942D01*
X26345822Y432088D01*
X26288589Y458776D01*
X26208777Y538588D01*
X26182098Y595799D01*
X26163942Y632939D01*
X26163561Y635553D01*
X26161075Y640884D01*
X26150001Y725000D01*
X26150001Y1775000D01*
X26161075Y1859116D01*
X26163561Y1864448D01*
X26163942Y1867062D01*
X26182109Y1904224D01*
X26208777Y1961412D01*
X26288589Y2041224D01*
X26345777Y2067892D01*
X26382939Y2086059D01*
X26385553Y2086440D01*
X26390885Y2088926D01*
X26475001Y2100000D01*
X27524999Y2100000D01*
X27609115Y2088926D01*
G37*
G36*
X29859115Y2088926D02*
G01*
X29864446Y2086440D01*
X29867060Y2086059D01*
X29904200Y2067903D01*
X29961411Y2041224D01*
X30041223Y1961412D01*
X30067911Y1904179D01*
X30086057Y1867062D01*
X30086437Y1864451D01*
X30088925Y1859116D01*
X30099999Y1775000D01*
X30099999Y725000D01*
X30088925Y640884D01*
X30086437Y635550D01*
X30086057Y632939D01*
X30067921Y595843D01*
X30041223Y538588D01*
X29961411Y458776D01*
X29904156Y432078D01*
X29867060Y413942D01*
X29864449Y413562D01*
X29859115Y411074D01*
X29774999Y400000D01*
X28725001Y400000D01*
X28640885Y411074D01*
X28635550Y413562D01*
X28632939Y413942D01*
X28595822Y432088D01*
X28538589Y458776D01*
X28458777Y538588D01*
X28432098Y595799D01*
X28413942Y632939D01*
X28413561Y635553D01*
X28411075Y640884D01*
X28400001Y725000D01*
X28400001Y1775000D01*
X28411075Y1859116D01*
X28413561Y1864448D01*
X28413942Y1867062D01*
X28432109Y1904224D01*
X28458777Y1961412D01*
X28538589Y2041224D01*
X28595777Y2067892D01*
X28632939Y2086059D01*
X28635553Y2086440D01*
X28640885Y2088926D01*
X28725001Y2100000D01*
X29774999Y2100000D01*
X29859115Y2088926D01*
G37*
G36*
X32109115Y2088926D02*
G01*
X32114446Y2086440D01*
X32117060Y2086059D01*
X32154200Y2067903D01*
X32211411Y2041224D01*
X32291223Y1961412D01*
X32317911Y1904179D01*
X32336057Y1867062D01*
X32336437Y1864451D01*
X32338925Y1859116D01*
X32349999Y1775000D01*
X32349999Y725000D01*
X32338925Y640884D01*
X32336437Y635550D01*
X32336057Y632939D01*
X32317921Y595843D01*
X32291223Y538588D01*
X32211411Y458776D01*
X32154156Y432078D01*
X32117060Y413942D01*
X32114449Y413562D01*
X32109115Y411074D01*
X32024999Y400000D01*
X30975001Y400000D01*
X30890885Y411074D01*
X30885550Y413562D01*
X30882939Y413942D01*
X30845822Y432088D01*
X30788589Y458776D01*
X30708777Y538588D01*
X30682098Y595799D01*
X30663942Y632939D01*
X30663561Y635553D01*
X30661075Y640884D01*
X30650001Y725000D01*
X30650001Y1775000D01*
X30661075Y1859116D01*
X30663561Y1864448D01*
X30663942Y1867062D01*
X30682109Y1904224D01*
X30708777Y1961412D01*
X30788589Y2041224D01*
X30845777Y2067892D01*
X30882939Y2086059D01*
X30885553Y2086440D01*
X30890885Y2088926D01*
X30975001Y2100000D01*
X32024999Y2100000D01*
X32109115Y2088926D01*
G37*
G36*
X4484211Y7264282D02*
G01*
X4801835Y7201103D01*
X5111737Y7107095D01*
X5410932Y6983165D01*
X5696539Y6830504D01*
X5965808Y6650585D01*
X6216145Y6445139D01*
X6445139Y6216145D01*
X6650585Y5965808D01*
X6830504Y5696539D01*
X6983165Y5410932D01*
X7107095Y5111737D01*
X7201103Y4801835D01*
X7264282Y4484211D01*
X7296025Y4161923D01*
X7296025Y3838077D01*
X7264282Y3515789D01*
X7201103Y3198165D01*
X7107095Y2888263D01*
X6983165Y2589068D01*
X6830504Y2303461D01*
X6650585Y2034192D01*
X6445139Y1783855D01*
X6216145Y1554861D01*
X5965808Y1349415D01*
X5696539Y1169496D01*
X5410932Y1016835D01*
X5111737Y892905D01*
X4801835Y798897D01*
X4484211Y735718D01*
X4161923Y703975D01*
X3838077Y703975D01*
X3515789Y735718D01*
X3198165Y798897D01*
X2888263Y892905D01*
X2589068Y1016835D01*
X2303461Y1169496D01*
X2034192Y1349415D01*
X1783855Y1554861D01*
X1554861Y1783855D01*
X1349415Y2034192D01*
X1169496Y2303461D01*
X1016835Y2589068D01*
X892905Y2888263D01*
X798897Y3198165D01*
X735718Y3515789D01*
X703975Y3838077D01*
X703975Y4161923D01*
X735718Y4484211D01*
X798897Y4801835D01*
X892905Y5111737D01*
X1016835Y5410932D01*
X1169496Y5696539D01*
X1349415Y5965808D01*
X1554861Y6216145D01*
X1783855Y6445139D01*
X2034192Y6650585D01*
X2303461Y6830504D01*
X2589068Y6983165D01*
X2888263Y7107095D01*
X3198165Y7201103D01*
X3515789Y7264282D01*
X3838077Y7296025D01*
X4161923Y7296025D01*
X4484211Y7264282D01*
G37*
G36*
X52484211Y7264282D02*
G01*
X52801835Y7201103D01*
X53111737Y7107095D01*
X53410932Y6983165D01*
X53696539Y6830504D01*
X53965808Y6650585D01*
X54216145Y6445139D01*
X54445139Y6216145D01*
X54650585Y5965808D01*
X54830504Y5696539D01*
X54983165Y5410932D01*
X55107095Y5111737D01*
X55201103Y4801835D01*
X55264282Y4484211D01*
X55296025Y4161923D01*
X55296025Y3838077D01*
X55264282Y3515789D01*
X55201103Y3198165D01*
X55107095Y2888263D01*
X54983165Y2589068D01*
X54830504Y2303461D01*
X54650585Y2034192D01*
X54445139Y1783855D01*
X54216145Y1554861D01*
X53965808Y1349415D01*
X53696539Y1169496D01*
X53410932Y1016835D01*
X53111737Y892905D01*
X52801835Y798897D01*
X52484211Y735718D01*
X52161923Y703975D01*
X51838077Y703975D01*
X51515789Y735718D01*
X51198165Y798897D01*
X50888263Y892905D01*
X50589068Y1016835D01*
X50303461Y1169496D01*
X50034192Y1349415D01*
X49783855Y1554861D01*
X49554861Y1783855D01*
X49349415Y2034192D01*
X49169496Y2303461D01*
X49016835Y2589068D01*
X48892905Y2888263D01*
X48798897Y3198165D01*
X48735718Y3515789D01*
X48703975Y3838077D01*
X48703975Y4161923D01*
X48735718Y4484211D01*
X48798897Y4801835D01*
X48892905Y5111737D01*
X49016835Y5410932D01*
X49169496Y5696539D01*
X49349415Y5965808D01*
X49554861Y6216145D01*
X49783855Y6445139D01*
X50034192Y6650585D01*
X50303461Y6830504D01*
X50589068Y6983165D01*
X50888263Y7107095D01*
X51198165Y7201103D01*
X51515789Y7264282D01*
X51838077Y7296025D01*
X52161923Y7296025D01*
X52484211Y7264282D01*
G37*
G36*
X44991770Y10970753D02*
G01*
X45071802Y10924547D01*
X45137147Y10859202D01*
X45183353Y10779170D01*
X45207271Y10689906D01*
X45207271Y10688258D01*
X45211635Y10671971D01*
X45288365Y10671971D01*
X45292729Y10688258D01*
X45292729Y10689906D01*
X45316647Y10779170D01*
X45362853Y10859202D01*
X45428198Y10924547D01*
X45508230Y10970753D01*
X45597494Y10994671D01*
X45689906Y10994671D01*
X45779170Y10970753D01*
X45859202Y10924547D01*
X45924547Y10859202D01*
X45970753Y10779170D01*
X45994671Y10689906D01*
X45994671Y10597494D01*
X45970753Y10508230D01*
X45924547Y10428198D01*
X45859202Y10362853D01*
X45779170Y10316647D01*
X45689906Y10292729D01*
X45688253Y10292729D01*
X45671970Y10288366D01*
X45671970Y10211634D01*
X45688254Y10207271D01*
X45689906Y10207271D01*
X45779170Y10183353D01*
X45859202Y10137147D01*
X45924547Y10071802D01*
X45970753Y9991770D01*
X45994671Y9902506D01*
X45994671Y9810094D01*
X45970753Y9720830D01*
X45924547Y9640798D01*
X45859202Y9575453D01*
X45779170Y9529247D01*
X45689906Y9505329D01*
X45597494Y9505329D01*
X45508230Y9529247D01*
X45428198Y9575453D01*
X45362853Y9640798D01*
X45316647Y9720830D01*
X45292729Y9810094D01*
X45292729Y9811747D01*
X45288366Y9828030D01*
X45211634Y9828030D01*
X45207271Y9811747D01*
X45207271Y9810094D01*
X45183353Y9720830D01*
X45137147Y9640798D01*
X45071802Y9575453D01*
X44991770Y9529247D01*
X44902506Y9505329D01*
X44810094Y9505329D01*
X44720830Y9529247D01*
X44640798Y9575453D01*
X44575453Y9640798D01*
X44529247Y9720830D01*
X44505329Y9810094D01*
X44505329Y9902506D01*
X44529247Y9991770D01*
X44575453Y10071802D01*
X44640798Y10137147D01*
X44720830Y10183353D01*
X44810094Y10207271D01*
X44811742Y10207271D01*
X44828029Y10211635D01*
X44828029Y10288365D01*
X44828025Y10288366D01*
X44884570Y10288366D01*
X44884570Y10211634D01*
X44900854Y10207271D01*
X44902506Y10207271D01*
X44991770Y10183353D01*
X45071802Y10137147D01*
X45137147Y10071802D01*
X45183353Y9991770D01*
X45207271Y9902506D01*
X45207271Y9900858D01*
X45211635Y9884571D01*
X45288365Y9884571D01*
X45292729Y9900858D01*
X45292729Y9902506D01*
X45316647Y9991770D01*
X45362853Y10071802D01*
X45428198Y10137147D01*
X45508230Y10183353D01*
X45597494Y10207271D01*
X45599142Y10207271D01*
X45615429Y10211635D01*
X45615429Y10288365D01*
X45599143Y10292729D01*
X45597494Y10292729D01*
X45508230Y10316647D01*
X45428198Y10362853D01*
X45362853Y10428198D01*
X45316647Y10508230D01*
X45292729Y10597494D01*
X45292729Y10599147D01*
X45288366Y10615430D01*
X45211634Y10615430D01*
X45207271Y10599147D01*
X45207271Y10597494D01*
X45183353Y10508230D01*
X45137147Y10428198D01*
X45071802Y10362853D01*
X44991770Y10316647D01*
X44902506Y10292729D01*
X44900853Y10292729D01*
X44884570Y10288366D01*
X44828025Y10288366D01*
X44811743Y10292729D01*
X44810094Y10292729D01*
X44720830Y10316647D01*
X44640798Y10362853D01*
X44575453Y10428198D01*
X44529247Y10508230D01*
X44505329Y10597494D01*
X44505329Y10689906D01*
X44529247Y10779170D01*
X44575453Y10859202D01*
X44640798Y10924547D01*
X44720830Y10970753D01*
X44810094Y10994671D01*
X44902506Y10994671D01*
X44991770Y10970753D01*
G37*
G36*
X3002923Y13099616D02*
G01*
X3092651Y13092553D01*
X3122558Y13083865D01*
X3155291Y13079555D01*
X3197327Y13062143D01*
X3238131Y13050289D01*
X3266615Y13033444D01*
X3300000Y13019615D01*
X3333625Y12993814D01*
X3367498Y12973781D01*
X3393108Y12948171D01*
X3424264Y12924264D01*
X3448170Y12893109D01*
X3473780Y12867499D01*
X3493811Y12833628D01*
X3519615Y12800000D01*
X3533444Y12766614D01*
X3550288Y12738132D01*
X3562140Y12697333D01*
X3579555Y12655291D01*
X3583864Y12622556D01*
X3592552Y12592653D01*
X3599612Y12502943D01*
X3600000Y12500000D01*
X3600000Y11500000D01*
X3599612Y11497058D01*
X3592552Y11407349D01*
X3583865Y11377448D01*
X3579555Y11344709D01*
X3562139Y11302665D01*
X3550288Y11261869D01*
X3533445Y11233391D01*
X3519615Y11200000D01*
X3493808Y11166369D01*
X3473780Y11132502D01*
X3448173Y11106896D01*
X3424264Y11075736D01*
X3393104Y11051827D01*
X3367498Y11026220D01*
X3333631Y11006192D01*
X3300000Y10980385D01*
X3266609Y10966555D01*
X3238131Y10949712D01*
X3197335Y10937861D01*
X3155291Y10920445D01*
X3122553Y10916135D01*
X3092652Y10907448D01*
X3002944Y10900388D01*
X3000000Y10900000D01*
X1000000Y10900000D01*
X997058Y10900388D01*
X907348Y10907448D01*
X877445Y10916135D01*
X844709Y10920445D01*
X802666Y10937860D01*
X761868Y10949712D01*
X733386Y10966556D01*
X700000Y10980385D01*
X666372Y11006189D01*
X632501Y11026220D01*
X606891Y11051830D01*
X575736Y11075736D01*
X551829Y11106892D01*
X526219Y11132502D01*
X506186Y11166375D01*
X480385Y11200000D01*
X466556Y11233385D01*
X449711Y11261869D01*
X437856Y11302673D01*
X420445Y11344709D01*
X416135Y11377440D01*
X407447Y11407348D01*
X400385Y11497075D01*
X400000Y11500000D01*
X400000Y12500000D01*
X400384Y12502923D01*
X407447Y12592652D01*
X416135Y12622561D01*
X420445Y12655291D01*
X437856Y12697326D01*
X449711Y12738132D01*
X466558Y12766619D01*
X480385Y12800000D01*
X506184Y12833623D01*
X526219Y12867499D01*
X551833Y12893114D01*
X575736Y12924264D01*
X606886Y12948167D01*
X632501Y12973781D01*
X666377Y12993816D01*
X700000Y13019615D01*
X733381Y13033442D01*
X761868Y13050289D01*
X802675Y13062145D01*
X844709Y13079555D01*
X877438Y13083864D01*
X907347Y13092553D01*
X997076Y13099616D01*
X1000000Y13100000D01*
X3000000Y13100000D01*
X3002923Y13099616D01*
G37*
G36*
X3002923Y17099616D02*
G01*
X3092651Y17092553D01*
X3122558Y17083865D01*
X3155291Y17079555D01*
X3197327Y17062143D01*
X3238131Y17050289D01*
X3266615Y17033444D01*
X3300000Y17019615D01*
X3333625Y16993814D01*
X3367498Y16973781D01*
X3393108Y16948171D01*
X3424264Y16924264D01*
X3448170Y16893109D01*
X3473780Y16867499D01*
X3493811Y16833628D01*
X3519615Y16800000D01*
X3533444Y16766614D01*
X3550288Y16738132D01*
X3562140Y16697333D01*
X3579555Y16655291D01*
X3583864Y16622556D01*
X3592552Y16592653D01*
X3599612Y16502943D01*
X3600000Y16500000D01*
X3600000Y15500000D01*
X3599612Y15497058D01*
X3592552Y15407349D01*
X3583865Y15377448D01*
X3579555Y15344709D01*
X3562139Y15302665D01*
X3550288Y15261869D01*
X3533445Y15233391D01*
X3519615Y15200000D01*
X3493808Y15166369D01*
X3473780Y15132502D01*
X3448173Y15106896D01*
X3424264Y15075736D01*
X3393104Y15051827D01*
X3367498Y15026220D01*
X3333631Y15006192D01*
X3300000Y14980385D01*
X3266609Y14966555D01*
X3238131Y14949712D01*
X3197335Y14937861D01*
X3155291Y14920445D01*
X3122553Y14916135D01*
X3092652Y14907448D01*
X3002944Y14900388D01*
X3000000Y14900000D01*
X1000000Y14900000D01*
X997058Y14900388D01*
X907348Y14907448D01*
X877445Y14916135D01*
X844709Y14920445D01*
X802666Y14937860D01*
X761868Y14949712D01*
X733386Y14966556D01*
X700000Y14980385D01*
X666372Y15006189D01*
X632501Y15026220D01*
X606891Y15051830D01*
X575736Y15075736D01*
X551829Y15106892D01*
X526219Y15132502D01*
X506186Y15166375D01*
X480385Y15200000D01*
X466556Y15233385D01*
X449711Y15261869D01*
X437856Y15302673D01*
X420445Y15344709D01*
X416135Y15377440D01*
X407447Y15407348D01*
X400385Y15497075D01*
X400000Y15500000D01*
X400000Y16500000D01*
X400384Y16502923D01*
X407447Y16592652D01*
X416135Y16622561D01*
X420445Y16655291D01*
X437856Y16697326D01*
X449711Y16738132D01*
X466558Y16766619D01*
X480385Y16800000D01*
X506184Y16833623D01*
X526219Y16867499D01*
X551833Y16893114D01*
X575736Y16924264D01*
X606886Y16948167D01*
X632501Y16973781D01*
X666377Y16993816D01*
X700000Y17019615D01*
X733381Y17033442D01*
X761868Y17050289D01*
X802675Y17062145D01*
X844709Y17079555D01*
X877438Y17083864D01*
X907347Y17092553D01*
X997076Y17099616D01*
X1000000Y17100000D01*
X3000000Y17100000D01*
X3002923Y17099616D01*
G37*
G36*
X42491770Y20364453D02*
G01*
X42571802Y20318247D01*
X42637147Y20252902D01*
X42683353Y20172870D01*
X42707271Y20083606D01*
X42707271Y20081958D01*
X42711635Y20065671D01*
X42788365Y20065671D01*
X42792729Y20081958D01*
X42792729Y20083606D01*
X42816647Y20172870D01*
X42862853Y20252902D01*
X42928198Y20318247D01*
X43008230Y20364453D01*
X43097494Y20388371D01*
X43189906Y20388371D01*
X43279170Y20364453D01*
X43359202Y20318247D01*
X43424547Y20252902D01*
X43470753Y20172870D01*
X43494671Y20083606D01*
X43494671Y19991194D01*
X43470753Y19901930D01*
X43424547Y19821898D01*
X43359202Y19756553D01*
X43279170Y19710347D01*
X43189906Y19686429D01*
X43188253Y19686429D01*
X43171970Y19682066D01*
X43171970Y19605334D01*
X43188254Y19600971D01*
X43189906Y19600971D01*
X43279170Y19577053D01*
X43359202Y19530847D01*
X43424547Y19465502D01*
X43470753Y19385470D01*
X43494671Y19296206D01*
X43494671Y19203794D01*
X43470753Y19114530D01*
X43424547Y19034498D01*
X43359202Y18969153D01*
X43279170Y18922947D01*
X43189906Y18899029D01*
X43188253Y18899029D01*
X43171970Y18894666D01*
X43171970Y18817934D01*
X43188254Y18813571D01*
X43189906Y18813571D01*
X43279170Y18789653D01*
X43359202Y18743447D01*
X43424547Y18678102D01*
X43470753Y18598070D01*
X43494671Y18508806D01*
X43494671Y18416394D01*
X43470753Y18327130D01*
X43424547Y18247098D01*
X43359202Y18181753D01*
X43279170Y18135547D01*
X43189906Y18111629D01*
X43097494Y18111629D01*
X43008230Y18135547D01*
X42928198Y18181753D01*
X42862853Y18247098D01*
X42816647Y18327130D01*
X42792729Y18416394D01*
X42792729Y18418047D01*
X42788366Y18434330D01*
X42711634Y18434330D01*
X42707271Y18418047D01*
X42707271Y18416394D01*
X42683353Y18327130D01*
X42637147Y18247098D01*
X42571802Y18181753D01*
X42491770Y18135547D01*
X42402506Y18111629D01*
X42310094Y18111629D01*
X42220830Y18135547D01*
X42140798Y18181753D01*
X42075453Y18247098D01*
X42029247Y18327130D01*
X42005329Y18416394D01*
X42005329Y18508806D01*
X42029247Y18598070D01*
X42075453Y18678102D01*
X42140798Y18743447D01*
X42220830Y18789653D01*
X42310094Y18813571D01*
X42311742Y18813571D01*
X42328029Y18817935D01*
X42328029Y18894665D01*
X42328025Y18894666D01*
X42384570Y18894666D01*
X42384570Y18817934D01*
X42400854Y18813571D01*
X42402506Y18813571D01*
X42491770Y18789653D01*
X42571802Y18743447D01*
X42637147Y18678102D01*
X42683353Y18598070D01*
X42707271Y18508806D01*
X42707271Y18507158D01*
X42711635Y18490871D01*
X42788365Y18490871D01*
X42792729Y18507158D01*
X42792729Y18508806D01*
X42816647Y18598070D01*
X42862853Y18678102D01*
X42928198Y18743447D01*
X43008230Y18789653D01*
X43097494Y18813571D01*
X43099142Y18813571D01*
X43115429Y18817935D01*
X43115429Y18894665D01*
X43099143Y18899029D01*
X43097494Y18899029D01*
X43008230Y18922947D01*
X42928198Y18969153D01*
X42862853Y19034498D01*
X42816647Y19114530D01*
X42792729Y19203794D01*
X42792729Y19205447D01*
X42788366Y19221730D01*
X42711634Y19221730D01*
X42707271Y19205447D01*
X42707271Y19203794D01*
X42683353Y19114530D01*
X42637147Y19034498D01*
X42571802Y18969153D01*
X42491770Y18922947D01*
X42402506Y18899029D01*
X42400853Y18899029D01*
X42384570Y18894666D01*
X42328025Y18894666D01*
X42311743Y18899029D01*
X42310094Y18899029D01*
X42220830Y18922947D01*
X42140798Y18969153D01*
X42075453Y19034498D01*
X42029247Y19114530D01*
X42005329Y19203794D01*
X42005329Y19296206D01*
X42029247Y19385470D01*
X42075453Y19465502D01*
X42140798Y19530847D01*
X42220830Y19577053D01*
X42310094Y19600971D01*
X42311742Y19600971D01*
X42328029Y19605335D01*
X42328029Y19682065D01*
X42328025Y19682066D01*
X42384570Y19682066D01*
X42384570Y19605334D01*
X42400854Y19600971D01*
X42402506Y19600971D01*
X42491770Y19577053D01*
X42571802Y19530847D01*
X42637147Y19465502D01*
X42683353Y19385470D01*
X42707271Y19296206D01*
X42707271Y19294558D01*
X42711635Y19278271D01*
X42788365Y19278271D01*
X42792729Y19294558D01*
X42792729Y19296206D01*
X42816647Y19385470D01*
X42862853Y19465502D01*
X42928198Y19530847D01*
X43008230Y19577053D01*
X43097494Y19600971D01*
X43099142Y19600971D01*
X43115429Y19605335D01*
X43115429Y19682065D01*
X43099143Y19686429D01*
X43097494Y19686429D01*
X43008230Y19710347D01*
X42928198Y19756553D01*
X42862853Y19821898D01*
X42816647Y19901930D01*
X42792729Y19991194D01*
X42792729Y19992847D01*
X42788366Y20009130D01*
X42711634Y20009130D01*
X42707271Y19992847D01*
X42707271Y19991194D01*
X42683353Y19901930D01*
X42637147Y19821898D01*
X42571802Y19756553D01*
X42491770Y19710347D01*
X42402506Y19686429D01*
X42400853Y19686429D01*
X42384570Y19682066D01*
X42328025Y19682066D01*
X42311743Y19686429D01*
X42310094Y19686429D01*
X42220830Y19710347D01*
X42140798Y19756553D01*
X42075453Y19821898D01*
X42029247Y19901930D01*
X42005329Y19991194D01*
X42005329Y20083606D01*
X42029247Y20172870D01*
X42075453Y20252902D01*
X42140798Y20318247D01*
X42220830Y20364453D01*
X42310094Y20388371D01*
X42402506Y20388371D01*
X42491770Y20364453D01*
G37*
G36*
X3002923Y21099616D02*
G01*
X3092651Y21092553D01*
X3122558Y21083865D01*
X3155291Y21079555D01*
X3197327Y21062143D01*
X3238131Y21050289D01*
X3266615Y21033444D01*
X3300000Y21019615D01*
X3333625Y20993814D01*
X3367498Y20973781D01*
X3393108Y20948171D01*
X3424264Y20924264D01*
X3448170Y20893109D01*
X3473780Y20867499D01*
X3493811Y20833628D01*
X3519615Y20800000D01*
X3533444Y20766614D01*
X3550288Y20738132D01*
X3562140Y20697333D01*
X3579555Y20655291D01*
X3583864Y20622556D01*
X3592552Y20592653D01*
X3599612Y20502943D01*
X3600000Y20500000D01*
X3600000Y19500000D01*
X3599612Y19497058D01*
X3592552Y19407349D01*
X3583865Y19377448D01*
X3579555Y19344709D01*
X3562139Y19302665D01*
X3550288Y19261869D01*
X3533445Y19233391D01*
X3519615Y19200000D01*
X3493808Y19166369D01*
X3473780Y19132502D01*
X3448173Y19106896D01*
X3424264Y19075736D01*
X3393104Y19051827D01*
X3367498Y19026220D01*
X3333631Y19006192D01*
X3300000Y18980385D01*
X3266609Y18966555D01*
X3238131Y18949712D01*
X3197335Y18937861D01*
X3155291Y18920445D01*
X3122553Y18916135D01*
X3092652Y18907448D01*
X3002944Y18900388D01*
X3000000Y18900000D01*
X1000000Y18900000D01*
X997058Y18900388D01*
X907348Y18907448D01*
X877445Y18916135D01*
X844709Y18920445D01*
X802666Y18937860D01*
X761868Y18949712D01*
X733386Y18966556D01*
X700000Y18980385D01*
X666372Y19006189D01*
X632501Y19026220D01*
X606891Y19051830D01*
X575736Y19075736D01*
X551829Y19106892D01*
X526219Y19132502D01*
X506186Y19166375D01*
X480385Y19200000D01*
X466556Y19233385D01*
X449711Y19261869D01*
X437856Y19302673D01*
X420445Y19344709D01*
X416135Y19377440D01*
X407447Y19407348D01*
X400385Y19497075D01*
X400000Y19500000D01*
X400000Y20500000D01*
X400384Y20502923D01*
X407447Y20592652D01*
X416135Y20622561D01*
X420445Y20655291D01*
X437856Y20697326D01*
X449711Y20738132D01*
X466558Y20766619D01*
X480385Y20800000D01*
X506184Y20833623D01*
X526219Y20867499D01*
X551833Y20893114D01*
X575736Y20924264D01*
X606886Y20948167D01*
X632501Y20973781D01*
X666377Y20993816D01*
X700000Y21019615D01*
X733381Y21033442D01*
X761868Y21050289D01*
X802675Y21062145D01*
X844709Y21079555D01*
X877438Y21083864D01*
X907347Y21092553D01*
X997076Y21099616D01*
X1000000Y21100000D01*
X3000000Y21100000D01*
X3002923Y21099616D01*
G37*
G36*
X50373691Y22281759D02*
G01*
X50427773Y22279101D01*
X50434427Y22277778D01*
X50448577Y22276850D01*
X50475904Y22269528D01*
X50544679Y22255848D01*
X50577147Y22242399D01*
X50600375Y22236175D01*
X50621201Y22224152D01*
X50653665Y22210704D01*
X50711967Y22171748D01*
X50736474Y22157599D01*
X50743182Y22150891D01*
X50751750Y22145166D01*
X50835165Y22061751D01*
X50840889Y22053184D01*
X50847599Y22046474D01*
X50861749Y22021964D01*
X50900703Y21963666D01*
X50914149Y21931205D01*
X50926175Y21910375D01*
X50932399Y21887144D01*
X50945847Y21854680D01*
X50959526Y21785909D01*
X50966850Y21758577D01*
X50966850Y21749091D01*
X50968860Y21738985D01*
X50968860Y21621016D01*
X50966850Y21610911D01*
X50966850Y21601423D01*
X50959525Y21574089D01*
X50945847Y21505321D01*
X50932400Y21472860D01*
X50926175Y21449625D01*
X50914147Y21428793D01*
X50900703Y21396335D01*
X50861754Y21338044D01*
X50847599Y21313526D01*
X50840887Y21306815D01*
X50835165Y21298250D01*
X50751750Y21214835D01*
X50743185Y21209113D01*
X50736474Y21202401D01*
X50711956Y21188246D01*
X50653665Y21149297D01*
X50621207Y21135853D01*
X50600375Y21123825D01*
X50577140Y21117600D01*
X50544679Y21104153D01*
X50475918Y21090477D01*
X50448577Y21083150D01*
X50434420Y21082223D01*
X50427773Y21080900D01*
X50373696Y21078243D01*
X50370000Y21078000D01*
X50368767Y21078000D01*
X49271233Y21078000D01*
X49270000Y21078000D01*
X49266303Y21078243D01*
X49212226Y21080900D01*
X49205578Y21082223D01*
X49191423Y21083150D01*
X49164084Y21090476D01*
X49095320Y21104153D01*
X49062856Y21117601D01*
X49039625Y21123825D01*
X49018795Y21135851D01*
X48986334Y21149297D01*
X48928036Y21188251D01*
X48903526Y21202401D01*
X48896816Y21209111D01*
X48888249Y21214835D01*
X48804834Y21298250D01*
X48799109Y21306818D01*
X48792401Y21313526D01*
X48778252Y21338033D01*
X48739296Y21396335D01*
X48725848Y21428799D01*
X48713825Y21449625D01*
X48707601Y21472853D01*
X48694152Y21505321D01*
X48680472Y21574095D01*
X48673150Y21601423D01*
X48673150Y21610911D01*
X48671140Y21621016D01*
X48671140Y21738985D01*
X48673150Y21749091D01*
X48673150Y21758577D01*
X48680471Y21785903D01*
X48694152Y21854680D01*
X48707601Y21887151D01*
X48713825Y21910375D01*
X48725847Y21931199D01*
X48739296Y21963666D01*
X48778256Y22021975D01*
X48792401Y22046474D01*
X48799107Y22053181D01*
X48804834Y22061751D01*
X48888249Y22145166D01*
X48896819Y22150893D01*
X48903526Y22157599D01*
X48928025Y22171744D01*
X48986334Y22210704D01*
X49018801Y22224153D01*
X49039625Y22236175D01*
X49062849Y22242399D01*
X49095320Y22255848D01*
X49164098Y22269529D01*
X49191423Y22276850D01*
X49205570Y22277778D01*
X49212226Y22279101D01*
X49266308Y22281759D01*
X49270000Y22282000D01*
X50370000Y22282000D01*
X50373691Y22281759D01*
G37*
G36*
X54403691Y22281759D02*
G01*
X54457773Y22279101D01*
X54464427Y22277778D01*
X54478577Y22276850D01*
X54505904Y22269528D01*
X54574679Y22255848D01*
X54607147Y22242399D01*
X54630375Y22236175D01*
X54651201Y22224152D01*
X54683665Y22210704D01*
X54741967Y22171748D01*
X54766474Y22157599D01*
X54773182Y22150891D01*
X54781750Y22145166D01*
X54865165Y22061751D01*
X54870889Y22053184D01*
X54877599Y22046474D01*
X54891749Y22021964D01*
X54930703Y21963666D01*
X54944149Y21931205D01*
X54956175Y21910375D01*
X54962399Y21887144D01*
X54975847Y21854680D01*
X54989526Y21785909D01*
X54996850Y21758577D01*
X54996850Y21749091D01*
X54998860Y21738985D01*
X54998860Y21621016D01*
X54996850Y21610911D01*
X54996850Y21601423D01*
X54989525Y21574089D01*
X54975847Y21505321D01*
X54962400Y21472860D01*
X54956175Y21449625D01*
X54944147Y21428793D01*
X54930703Y21396335D01*
X54891754Y21338044D01*
X54877599Y21313526D01*
X54870887Y21306815D01*
X54865165Y21298250D01*
X54781750Y21214835D01*
X54773185Y21209113D01*
X54766474Y21202401D01*
X54741956Y21188246D01*
X54683665Y21149297D01*
X54651207Y21135853D01*
X54630375Y21123825D01*
X54607140Y21117600D01*
X54574679Y21104153D01*
X54505918Y21090477D01*
X54478577Y21083150D01*
X54464420Y21082223D01*
X54457773Y21080900D01*
X54403696Y21078243D01*
X54400000Y21078000D01*
X54398767Y21078000D01*
X53601233Y21078000D01*
X53600000Y21078000D01*
X53596303Y21078243D01*
X53542226Y21080900D01*
X53535578Y21082223D01*
X53521423Y21083150D01*
X53494084Y21090476D01*
X53425320Y21104153D01*
X53392856Y21117601D01*
X53369625Y21123825D01*
X53348795Y21135851D01*
X53316334Y21149297D01*
X53258036Y21188251D01*
X53233526Y21202401D01*
X53226816Y21209111D01*
X53218249Y21214835D01*
X53134834Y21298250D01*
X53129109Y21306818D01*
X53122401Y21313526D01*
X53108252Y21338033D01*
X53069296Y21396335D01*
X53055848Y21428799D01*
X53043825Y21449625D01*
X53037601Y21472853D01*
X53024152Y21505321D01*
X53010472Y21574095D01*
X53003150Y21601423D01*
X53003150Y21610911D01*
X53001140Y21621016D01*
X53001140Y21738985D01*
X53003150Y21749091D01*
X53003150Y21758577D01*
X53010471Y21785903D01*
X53024152Y21854680D01*
X53037601Y21887151D01*
X53043825Y21910375D01*
X53055847Y21931199D01*
X53069296Y21963666D01*
X53108256Y22021975D01*
X53122401Y22046474D01*
X53129107Y22053181D01*
X53134834Y22061751D01*
X53218249Y22145166D01*
X53226819Y22150893D01*
X53233526Y22157599D01*
X53258025Y22171744D01*
X53316334Y22210704D01*
X53348801Y22224153D01*
X53369625Y22236175D01*
X53392849Y22242399D01*
X53425320Y22255848D01*
X53494098Y22269529D01*
X53521423Y22276850D01*
X53535570Y22277778D01*
X53542226Y22279101D01*
X53596308Y22281759D01*
X53600000Y22282000D01*
X54400000Y22282000D01*
X54403691Y22281759D01*
G37*
G36*
X50482640Y23502649D02*
G01*
X50578724Y23447175D01*
X50657175Y23368724D01*
X50712649Y23272640D01*
X50741364Y23165474D01*
X50741364Y23054526D01*
X50712649Y22947360D01*
X50657175Y22851276D01*
X50578724Y22772825D01*
X50482640Y22717351D01*
X50375474Y22688636D01*
X50264526Y22688636D01*
X50157360Y22717351D01*
X50061276Y22772825D01*
X49982825Y22851276D01*
X49927351Y22947360D01*
X49898636Y23054526D01*
X49898636Y23165474D01*
X49927351Y23272640D01*
X49982825Y23368724D01*
X50061276Y23447175D01*
X50157360Y23502649D01*
X50264526Y23531364D01*
X50375474Y23531364D01*
X50482640Y23502649D01*
G37*
G36*
X3002923Y25099616D02*
G01*
X3092651Y25092553D01*
X3122558Y25083865D01*
X3155291Y25079555D01*
X3197327Y25062143D01*
X3238131Y25050289D01*
X3266615Y25033444D01*
X3300000Y25019615D01*
X3333625Y24993814D01*
X3367498Y24973781D01*
X3393108Y24948171D01*
X3424264Y24924264D01*
X3448170Y24893109D01*
X3473780Y24867499D01*
X3493811Y24833628D01*
X3519615Y24800000D01*
X3533444Y24766614D01*
X3550288Y24738132D01*
X3562140Y24697333D01*
X3579555Y24655291D01*
X3583864Y24622556D01*
X3592552Y24592653D01*
X3599612Y24502943D01*
X3600000Y24500000D01*
X3600000Y23500000D01*
X3599612Y23497058D01*
X3592552Y23407349D01*
X3583865Y23377448D01*
X3579555Y23344709D01*
X3562139Y23302665D01*
X3550288Y23261869D01*
X3533445Y23233391D01*
X3519615Y23200000D01*
X3493808Y23166369D01*
X3473780Y23132502D01*
X3448173Y23106896D01*
X3424264Y23075736D01*
X3393104Y23051827D01*
X3367498Y23026220D01*
X3333631Y23006192D01*
X3300000Y22980385D01*
X3266609Y22966555D01*
X3238131Y22949712D01*
X3197335Y22937861D01*
X3155291Y22920445D01*
X3122553Y22916135D01*
X3092652Y22907448D01*
X3002944Y22900388D01*
X3000000Y22900000D01*
X1000000Y22900000D01*
X997058Y22900388D01*
X907348Y22907448D01*
X877445Y22916135D01*
X844709Y22920445D01*
X802666Y22937860D01*
X761868Y22949712D01*
X733386Y22966556D01*
X700000Y22980385D01*
X666372Y23006189D01*
X632501Y23026220D01*
X606891Y23051830D01*
X575736Y23075736D01*
X551829Y23106892D01*
X526219Y23132502D01*
X506186Y23166375D01*
X480385Y23200000D01*
X466556Y23233385D01*
X449711Y23261869D01*
X437856Y23302673D01*
X420445Y23344709D01*
X416135Y23377440D01*
X407447Y23407348D01*
X400385Y23497075D01*
X400000Y23500000D01*
X400000Y24500000D01*
X400384Y24502923D01*
X407447Y24592652D01*
X416135Y24622561D01*
X420445Y24655291D01*
X437856Y24697326D01*
X449711Y24738132D01*
X466558Y24766619D01*
X480385Y24800000D01*
X506184Y24833623D01*
X526219Y24867499D01*
X551833Y24893114D01*
X575736Y24924264D01*
X606886Y24948167D01*
X632501Y24973781D01*
X666377Y24993816D01*
X700000Y25019615D01*
X733381Y25033442D01*
X761868Y25050289D01*
X802675Y25062145D01*
X844709Y25079555D01*
X877438Y25083864D01*
X907347Y25092553D01*
X997076Y25099616D01*
X1000000Y25100000D01*
X3000000Y25100000D01*
X3002923Y25099616D01*
G37*
G36*
X3002923Y29099616D02*
G01*
X3092651Y29092553D01*
X3122558Y29083865D01*
X3155291Y29079555D01*
X3197327Y29062143D01*
X3238131Y29050289D01*
X3266615Y29033444D01*
X3300000Y29019615D01*
X3333625Y28993814D01*
X3367498Y28973781D01*
X3393108Y28948171D01*
X3424264Y28924264D01*
X3448170Y28893109D01*
X3473780Y28867499D01*
X3493811Y28833628D01*
X3519615Y28800000D01*
X3533444Y28766614D01*
X3550288Y28738132D01*
X3562140Y28697333D01*
X3579555Y28655291D01*
X3583864Y28622556D01*
X3592552Y28592653D01*
X3599612Y28502943D01*
X3600000Y28500000D01*
X3600000Y27500000D01*
X3599612Y27497058D01*
X3592552Y27407349D01*
X3583865Y27377448D01*
X3579555Y27344709D01*
X3562139Y27302665D01*
X3550288Y27261869D01*
X3533445Y27233391D01*
X3519615Y27200000D01*
X3493808Y27166369D01*
X3473780Y27132502D01*
X3448173Y27106896D01*
X3424264Y27075736D01*
X3393104Y27051827D01*
X3367498Y27026220D01*
X3333631Y27006192D01*
X3300000Y26980385D01*
X3266609Y26966555D01*
X3238131Y26949712D01*
X3197335Y26937861D01*
X3155291Y26920445D01*
X3122553Y26916135D01*
X3092652Y26907448D01*
X3002944Y26900388D01*
X3000000Y26900000D01*
X1000000Y26900000D01*
X997058Y26900388D01*
X907348Y26907448D01*
X877445Y26916135D01*
X844709Y26920445D01*
X802666Y26937860D01*
X761868Y26949712D01*
X733386Y26966556D01*
X700000Y26980385D01*
X666372Y27006189D01*
X632501Y27026220D01*
X606891Y27051830D01*
X575736Y27075736D01*
X551829Y27106892D01*
X526219Y27132502D01*
X506186Y27166375D01*
X480385Y27200000D01*
X466556Y27233385D01*
X449711Y27261869D01*
X437856Y27302673D01*
X420445Y27344709D01*
X416135Y27377440D01*
X407447Y27407348D01*
X400385Y27497075D01*
X400000Y27500000D01*
X400000Y28500000D01*
X400384Y28502923D01*
X407447Y28592652D01*
X416135Y28622561D01*
X420445Y28655291D01*
X437856Y28697326D01*
X449711Y28738132D01*
X466558Y28766619D01*
X480385Y28800000D01*
X506184Y28833623D01*
X526219Y28867499D01*
X551833Y28893114D01*
X575736Y28924264D01*
X606886Y28948167D01*
X632501Y28973781D01*
X666377Y28993816D01*
X700000Y29019615D01*
X733381Y29033442D01*
X761868Y29050289D01*
X802675Y29062145D01*
X844709Y29079555D01*
X877438Y29083864D01*
X907347Y29092553D01*
X997076Y29099616D01*
X1000000Y29100000D01*
X3000000Y29100000D01*
X3002923Y29099616D01*
G37*
G36*
X50482640Y29282649D02*
G01*
X50578724Y29227175D01*
X50657175Y29148724D01*
X50712649Y29052640D01*
X50741364Y28945474D01*
X50741364Y28834526D01*
X50712649Y28727360D01*
X50657175Y28631276D01*
X50578724Y28552825D01*
X50482640Y28497351D01*
X50375474Y28468636D01*
X50264526Y28468636D01*
X50157360Y28497351D01*
X50061276Y28552825D01*
X49982825Y28631276D01*
X49927351Y28727360D01*
X49898636Y28834526D01*
X49898636Y28945474D01*
X49927351Y29052640D01*
X49982825Y29148724D01*
X50061276Y29227175D01*
X50157360Y29282649D01*
X50264526Y29311364D01*
X50375474Y29311364D01*
X50482640Y29282649D01*
G37*
G36*
X34886766Y31716487D02*
G01*
X34919209Y31694810D01*
X34940886Y31662367D01*
X34948498Y31624099D01*
X34948498Y29719099D01*
X34940886Y29680831D01*
X34919209Y29648388D01*
X34886766Y29626711D01*
X34848498Y29619099D01*
X33451498Y29619099D01*
X33413230Y29626711D01*
X33380787Y29648388D01*
X33359110Y29680831D01*
X33351498Y29719099D01*
X33351498Y31624099D01*
X33359110Y31662367D01*
X33380787Y31694810D01*
X33413230Y31716487D01*
X33451498Y31724099D01*
X34848498Y31724099D01*
X34886766Y31716487D01*
G37*
G36*
X50373691Y30921759D02*
G01*
X50427773Y30919101D01*
X50434427Y30917778D01*
X50448577Y30916850D01*
X50475904Y30909528D01*
X50544679Y30895848D01*
X50577147Y30882399D01*
X50600375Y30876175D01*
X50621201Y30864152D01*
X50653665Y30850704D01*
X50711967Y30811748D01*
X50736474Y30797599D01*
X50743182Y30790891D01*
X50751750Y30785166D01*
X50835165Y30701751D01*
X50840889Y30693184D01*
X50847599Y30686474D01*
X50861749Y30661964D01*
X50900703Y30603666D01*
X50914149Y30571205D01*
X50926175Y30550375D01*
X50932399Y30527144D01*
X50945847Y30494680D01*
X50959526Y30425909D01*
X50966850Y30398577D01*
X50966850Y30389091D01*
X50968860Y30378985D01*
X50968860Y30261016D01*
X50966850Y30250911D01*
X50966850Y30241423D01*
X50959525Y30214089D01*
X50945847Y30145321D01*
X50932400Y30112860D01*
X50926175Y30089625D01*
X50914147Y30068793D01*
X50900703Y30036335D01*
X50861754Y29978044D01*
X50847599Y29953526D01*
X50840887Y29946815D01*
X50835165Y29938250D01*
X50751750Y29854835D01*
X50743185Y29849113D01*
X50736474Y29842401D01*
X50711956Y29828246D01*
X50653665Y29789297D01*
X50621207Y29775853D01*
X50600375Y29763825D01*
X50577140Y29757600D01*
X50544679Y29744153D01*
X50475918Y29730477D01*
X50448577Y29723150D01*
X50434420Y29722223D01*
X50427773Y29720900D01*
X50373696Y29718243D01*
X50370000Y29718000D01*
X50368767Y29718000D01*
X49271233Y29718000D01*
X49270000Y29718000D01*
X49266303Y29718243D01*
X49212226Y29720900D01*
X49205578Y29722223D01*
X49191423Y29723150D01*
X49164084Y29730476D01*
X49095320Y29744153D01*
X49062856Y29757601D01*
X49039625Y29763825D01*
X49018795Y29775851D01*
X48986334Y29789297D01*
X48928036Y29828251D01*
X48903526Y29842401D01*
X48896816Y29849111D01*
X48888249Y29854835D01*
X48804834Y29938250D01*
X48799109Y29946818D01*
X48792401Y29953526D01*
X48778252Y29978033D01*
X48739296Y30036335D01*
X48725848Y30068799D01*
X48713825Y30089625D01*
X48707601Y30112853D01*
X48694152Y30145321D01*
X48680472Y30214095D01*
X48673150Y30241423D01*
X48673150Y30250911D01*
X48671140Y30261016D01*
X48671140Y30378985D01*
X48673150Y30389091D01*
X48673150Y30398577D01*
X48680471Y30425903D01*
X48694152Y30494680D01*
X48707601Y30527151D01*
X48713825Y30550375D01*
X48725847Y30571199D01*
X48739296Y30603666D01*
X48778256Y30661975D01*
X48792401Y30686474D01*
X48799107Y30693181D01*
X48804834Y30701751D01*
X48888249Y30785166D01*
X48896819Y30790893D01*
X48903526Y30797599D01*
X48928025Y30811744D01*
X48986334Y30850704D01*
X49018801Y30864153D01*
X49039625Y30876175D01*
X49062849Y30882399D01*
X49095320Y30895848D01*
X49164098Y30909529D01*
X49191423Y30916850D01*
X49205570Y30917778D01*
X49212226Y30919101D01*
X49266308Y30921759D01*
X49270000Y30922000D01*
X50370000Y30922000D01*
X50373691Y30921759D01*
G37*
G36*
X54403691Y30921759D02*
G01*
X54457773Y30919101D01*
X54464427Y30917778D01*
X54478577Y30916850D01*
X54505904Y30909528D01*
X54574679Y30895848D01*
X54607147Y30882399D01*
X54630375Y30876175D01*
X54651201Y30864152D01*
X54683665Y30850704D01*
X54741967Y30811748D01*
X54766474Y30797599D01*
X54773182Y30790891D01*
X54781750Y30785166D01*
X54865165Y30701751D01*
X54870889Y30693184D01*
X54877599Y30686474D01*
X54891749Y30661964D01*
X54930703Y30603666D01*
X54944149Y30571205D01*
X54956175Y30550375D01*
X54962399Y30527144D01*
X54975847Y30494680D01*
X54989526Y30425909D01*
X54996850Y30398577D01*
X54996850Y30389091D01*
X54998860Y30378985D01*
X54998860Y30261016D01*
X54996850Y30250911D01*
X54996850Y30241423D01*
X54989525Y30214089D01*
X54975847Y30145321D01*
X54962400Y30112860D01*
X54956175Y30089625D01*
X54944147Y30068793D01*
X54930703Y30036335D01*
X54891754Y29978044D01*
X54877599Y29953526D01*
X54870887Y29946815D01*
X54865165Y29938250D01*
X54781750Y29854835D01*
X54773185Y29849113D01*
X54766474Y29842401D01*
X54741956Y29828246D01*
X54683665Y29789297D01*
X54651207Y29775853D01*
X54630375Y29763825D01*
X54607140Y29757600D01*
X54574679Y29744153D01*
X54505918Y29730477D01*
X54478577Y29723150D01*
X54464420Y29722223D01*
X54457773Y29720900D01*
X54403696Y29718243D01*
X54400000Y29718000D01*
X54398767Y29718000D01*
X53601233Y29718000D01*
X53600000Y29718000D01*
X53596303Y29718243D01*
X53542226Y29720900D01*
X53535578Y29722223D01*
X53521423Y29723150D01*
X53494084Y29730476D01*
X53425320Y29744153D01*
X53392856Y29757601D01*
X53369625Y29763825D01*
X53348795Y29775851D01*
X53316334Y29789297D01*
X53258036Y29828251D01*
X53233526Y29842401D01*
X53226816Y29849111D01*
X53218249Y29854835D01*
X53134834Y29938250D01*
X53129109Y29946818D01*
X53122401Y29953526D01*
X53108252Y29978033D01*
X53069296Y30036335D01*
X53055848Y30068799D01*
X53043825Y30089625D01*
X53037601Y30112853D01*
X53024152Y30145321D01*
X53010472Y30214095D01*
X53003150Y30241423D01*
X53003150Y30250911D01*
X53001140Y30261016D01*
X53001140Y30378985D01*
X53003150Y30389091D01*
X53003150Y30398577D01*
X53010471Y30425903D01*
X53024152Y30494680D01*
X53037601Y30527151D01*
X53043825Y30550375D01*
X53055847Y30571199D01*
X53069296Y30603666D01*
X53108256Y30661975D01*
X53122401Y30686474D01*
X53129107Y30693181D01*
X53134834Y30701751D01*
X53218249Y30785166D01*
X53226819Y30790893D01*
X53233526Y30797599D01*
X53258025Y30811744D01*
X53316334Y30850704D01*
X53348801Y30864153D01*
X53369625Y30876175D01*
X53392849Y30882399D01*
X53425320Y30895848D01*
X53494098Y30909529D01*
X53521423Y30916850D01*
X53535570Y30917778D01*
X53542226Y30919101D01*
X53596308Y30921759D01*
X53600000Y30922000D01*
X54400000Y30922000D01*
X54403691Y30921759D01*
G37*
G36*
X48036768Y32716487D02*
G01*
X48069211Y32694810D01*
X48090888Y32662367D01*
X48098500Y32624099D01*
X48098500Y30719099D01*
X48090888Y30680831D01*
X48069211Y30648388D01*
X48036768Y30626711D01*
X47998500Y30619099D01*
X46601500Y30619099D01*
X46563232Y30626711D01*
X46530789Y30648388D01*
X46509112Y30680831D01*
X46501500Y30719099D01*
X46501500Y32624099D01*
X46509112Y32662367D01*
X46530789Y32694810D01*
X46563232Y32716487D01*
X46601500Y32724099D01*
X47998500Y32724099D01*
X48036768Y32716487D01*
G37*
G36*
X3002923Y33099616D02*
G01*
X3092651Y33092553D01*
X3122558Y33083865D01*
X3155291Y33079555D01*
X3197327Y33062143D01*
X3238131Y33050289D01*
X3266615Y33033444D01*
X3300000Y33019615D01*
X3333625Y32993814D01*
X3367498Y32973781D01*
X3393108Y32948171D01*
X3424264Y32924264D01*
X3448170Y32893109D01*
X3473780Y32867499D01*
X3493811Y32833628D01*
X3519615Y32800000D01*
X3533444Y32766614D01*
X3550288Y32738132D01*
X3562140Y32697333D01*
X3579555Y32655291D01*
X3583864Y32622556D01*
X3592552Y32592653D01*
X3599612Y32502943D01*
X3600000Y32500000D01*
X3600000Y31500000D01*
X3599612Y31497058D01*
X3592552Y31407349D01*
X3583865Y31377448D01*
X3579555Y31344709D01*
X3562139Y31302665D01*
X3550288Y31261869D01*
X3533445Y31233391D01*
X3519615Y31200000D01*
X3493808Y31166369D01*
X3473780Y31132502D01*
X3448173Y31106896D01*
X3424264Y31075736D01*
X3393104Y31051827D01*
X3367498Y31026220D01*
X3333631Y31006192D01*
X3300000Y30980385D01*
X3266609Y30966555D01*
X3238131Y30949712D01*
X3197335Y30937861D01*
X3155291Y30920445D01*
X3122553Y30916135D01*
X3092652Y30907448D01*
X3002944Y30900388D01*
X3000000Y30900000D01*
X1000000Y30900000D01*
X997058Y30900388D01*
X907348Y30907448D01*
X877445Y30916135D01*
X844709Y30920445D01*
X802666Y30937860D01*
X761868Y30949712D01*
X733386Y30966556D01*
X700000Y30980385D01*
X666372Y31006189D01*
X632501Y31026220D01*
X606891Y31051830D01*
X575736Y31075736D01*
X551829Y31106892D01*
X526219Y31132502D01*
X506186Y31166375D01*
X480385Y31200000D01*
X466556Y31233385D01*
X449711Y31261869D01*
X437856Y31302673D01*
X420445Y31344709D01*
X416135Y31377440D01*
X407447Y31407348D01*
X400385Y31497075D01*
X400000Y31500000D01*
X400000Y32500000D01*
X400384Y32502923D01*
X407447Y32592652D01*
X416135Y32622561D01*
X420445Y32655291D01*
X437856Y32697326D01*
X449711Y32738132D01*
X466558Y32766619D01*
X480385Y32800000D01*
X506184Y32833623D01*
X526219Y32867499D01*
X551833Y32893114D01*
X575736Y32924264D01*
X606886Y32948167D01*
X632501Y32973781D01*
X666377Y32993816D01*
X700000Y33019615D01*
X733381Y33033442D01*
X761868Y33050289D01*
X802675Y33062145D01*
X844709Y33079555D01*
X877438Y33083864D01*
X907347Y33092553D01*
X997076Y33099616D01*
X1000000Y33100000D01*
X3000000Y33100000D01*
X3002923Y33099616D01*
G37*
G36*
X40354741Y35767286D02*
G01*
X40387184Y35745609D01*
X40408861Y35713166D01*
X40416473Y35674898D01*
X40416473Y35297394D01*
X40487442Y35275866D01*
X40510721Y35310708D01*
X40511211Y35313167D01*
X40532888Y35345610D01*
X40565331Y35367287D01*
X40603599Y35374899D01*
X41416399Y35374899D01*
X41454667Y35367287D01*
X41487110Y35345610D01*
X41508787Y35313167D01*
X41516399Y35274899D01*
X41516399Y35097282D01*
X41587367Y35075754D01*
X41610723Y35110709D01*
X41611212Y35113167D01*
X41632889Y35145610D01*
X41665332Y35167287D01*
X41703600Y35174899D01*
X42516400Y35174899D01*
X42554668Y35167287D01*
X42587111Y35145610D01*
X42608788Y35113167D01*
X42609277Y35110708D01*
X42632631Y35075757D01*
X42703600Y35097285D01*
X42703600Y35269977D01*
X42703600Y35274899D01*
X42711212Y35313167D01*
X42732889Y35345610D01*
X42765332Y35367287D01*
X42803600Y35374899D01*
X43616400Y35374899D01*
X43654668Y35367287D01*
X43687111Y35345610D01*
X43708788Y35313167D01*
X43716400Y35274899D01*
X43716400Y35097283D01*
X43787369Y35075755D01*
X43810722Y35110708D01*
X43811212Y35113167D01*
X43832889Y35145610D01*
X43865332Y35167287D01*
X43903600Y35174899D01*
X44716400Y35174899D01*
X44754668Y35167287D01*
X44787111Y35145610D01*
X44808788Y35113167D01*
X44809277Y35110707D01*
X44832631Y35075755D01*
X44903601Y35097283D01*
X44903601Y35269977D01*
X44903601Y35274899D01*
X44911213Y35313167D01*
X44932890Y35345610D01*
X44965333Y35367287D01*
X45003601Y35374899D01*
X45816401Y35374899D01*
X45854669Y35367287D01*
X45887112Y35345610D01*
X45908789Y35313167D01*
X45916401Y35274899D01*
X45916401Y35269963D01*
X45918965Y35257071D01*
X46001031Y35257067D01*
X46003601Y35269986D01*
X46003601Y35274899D01*
X46011213Y35313167D01*
X46032890Y35345610D01*
X46065333Y35367287D01*
X46103601Y35374899D01*
X46916401Y35374899D01*
X46954669Y35367287D01*
X46987112Y35345610D01*
X47008789Y35313167D01*
X47016401Y35274899D01*
X47016401Y33268299D01*
X47008789Y33230031D01*
X46987112Y33197588D01*
X46954669Y33175911D01*
X46916401Y33168299D01*
X46103601Y33168299D01*
X46065333Y33175911D01*
X46032890Y33197588D01*
X46011213Y33230031D01*
X46003601Y33268299D01*
X46003601Y33273229D01*
X46001035Y33286130D01*
X45918967Y33286130D01*
X45916401Y33273230D01*
X45916401Y33268299D01*
X45908789Y33230031D01*
X45887112Y33197588D01*
X45854669Y33175911D01*
X45816401Y33168299D01*
X45003601Y33168299D01*
X44965333Y33175911D01*
X44932890Y33197588D01*
X44911213Y33230031D01*
X44910723Y33232491D01*
X44887368Y33267445D01*
X44816400Y33245916D01*
X44816400Y33068299D01*
X44808788Y33030031D01*
X44787111Y32997588D01*
X44754668Y32975911D01*
X44716400Y32968299D01*
X43903600Y32968299D01*
X43865332Y32975911D01*
X43832889Y32997588D01*
X43811212Y33030031D01*
X43803600Y33068299D01*
X43803600Y33245916D01*
X43732629Y33267444D01*
X43709278Y33232497D01*
X43708788Y33230031D01*
X43687111Y33197588D01*
X43654668Y33175911D01*
X43616400Y33168299D01*
X42803600Y33168299D01*
X42765332Y33175911D01*
X42732889Y33197588D01*
X42711212Y33230031D01*
X42710722Y33232492D01*
X42687368Y33267443D01*
X42616400Y33245914D01*
X42616400Y33068299D01*
X42608788Y33030031D01*
X42587111Y32997588D01*
X42554668Y32975911D01*
X42516400Y32968299D01*
X41703600Y32968299D01*
X41665332Y32975911D01*
X41632889Y32997588D01*
X41611212Y33030031D01*
X41603600Y33068299D01*
X41603600Y33245917D01*
X41532629Y33267445D01*
X41509277Y33232497D01*
X41508787Y33230031D01*
X41487110Y33197588D01*
X41454667Y33175911D01*
X41416399Y33168299D01*
X40603599Y33168299D01*
X40565331Y33175911D01*
X40532888Y33197588D01*
X40511211Y33230031D01*
X40503599Y33268299D01*
X40503599Y33645804D01*
X40432628Y33667332D01*
X40409351Y33632496D01*
X40408861Y33630030D01*
X40387184Y33597587D01*
X40354741Y33575910D01*
X40316473Y33568298D01*
X39503673Y33568298D01*
X39465405Y33575910D01*
X39432962Y33597587D01*
X39411285Y33630030D01*
X39410795Y33632490D01*
X39387367Y33667552D01*
X39316399Y33646024D01*
X39316399Y33268299D01*
X39308787Y33230031D01*
X39287110Y33197588D01*
X39254667Y33175911D01*
X39216399Y33168299D01*
X38403599Y33168299D01*
X38365331Y33175911D01*
X38332888Y33197588D01*
X38311211Y33230031D01*
X38303599Y33268299D01*
X38303599Y35274899D01*
X38311211Y35313167D01*
X38332888Y35345610D01*
X38365331Y35367287D01*
X38403599Y35374899D01*
X39216399Y35374899D01*
X39254667Y35367287D01*
X39287110Y35345610D01*
X39308787Y35313167D01*
X39309276Y35310707D01*
X39332703Y35275646D01*
X39403673Y35297174D01*
X39403673Y35669976D01*
X39403673Y35674898D01*
X39411285Y35713166D01*
X39432962Y35745609D01*
X39465405Y35767286D01*
X39503673Y35774898D01*
X40316473Y35774898D01*
X40354741Y35767286D01*
G37*
G36*
X26108312Y35824207D02*
G01*
X26117702Y35824207D01*
X26144752Y35816959D01*
X26212734Y35803437D01*
X26244827Y35790144D01*
X26267811Y35783985D01*
X26288417Y35772088D01*
X26320507Y35758796D01*
X26378130Y35720293D01*
X26402396Y35706283D01*
X26409039Y35699640D01*
X26417499Y35693987D01*
X26499986Y35611500D01*
X26505638Y35603041D01*
X26512283Y35596396D01*
X26526294Y35572128D01*
X26564795Y35514508D01*
X26578085Y35482422D01*
X26589985Y35461811D01*
X26596144Y35438824D01*
X26609436Y35406735D01*
X26622958Y35338756D01*
X26630207Y35311702D01*
X26630207Y35302313D01*
X26632193Y35292328D01*
X26632193Y35175673D01*
X26630207Y35165689D01*
X26630207Y35156298D01*
X26622957Y35129242D01*
X26609436Y35061266D01*
X26596145Y35029180D01*
X26589985Y35006189D01*
X26578084Y34985577D01*
X26564795Y34953493D01*
X26526298Y34895881D01*
X26512283Y34871604D01*
X26505636Y34864958D01*
X26499986Y34856501D01*
X26417499Y34774014D01*
X26409042Y34768364D01*
X26402396Y34761717D01*
X26378119Y34747702D01*
X26320507Y34709205D01*
X26288423Y34695916D01*
X26267811Y34684015D01*
X26244820Y34677855D01*
X26212734Y34664564D01*
X26144758Y34651043D01*
X26117702Y34643793D01*
X26108311Y34643793D01*
X26098327Y34641807D01*
X25981673Y34641807D01*
X25971689Y34643793D01*
X25962298Y34643793D01*
X25935243Y34651043D01*
X25867265Y34664564D01*
X25835176Y34677856D01*
X25812189Y34684015D01*
X25791578Y34695915D01*
X25759492Y34709205D01*
X25701872Y34747706D01*
X25677604Y34761717D01*
X25670959Y34768362D01*
X25662500Y34774014D01*
X25580013Y34856501D01*
X25574360Y34864961D01*
X25567717Y34871604D01*
X25553707Y34895870D01*
X25515204Y34953493D01*
X25501912Y34985583D01*
X25490015Y35006189D01*
X25483856Y35029173D01*
X25470563Y35061266D01*
X25457041Y35129248D01*
X25449793Y35156298D01*
X25449793Y35165689D01*
X25447807Y35175673D01*
X25447807Y35292328D01*
X25449793Y35302313D01*
X25449793Y35311702D01*
X25457040Y35338750D01*
X25470563Y35406735D01*
X25483857Y35438831D01*
X25490015Y35461811D01*
X25501910Y35482416D01*
X25515204Y35514508D01*
X25553711Y35572139D01*
X25567717Y35596396D01*
X25574358Y35603038D01*
X25580013Y35611500D01*
X25662500Y35693987D01*
X25670962Y35699642D01*
X25677604Y35706283D01*
X25701861Y35720289D01*
X25759492Y35758796D01*
X25791584Y35772090D01*
X25812189Y35783985D01*
X25835169Y35790143D01*
X25867265Y35803437D01*
X25935248Y35816960D01*
X25962298Y35824207D01*
X25971688Y35824207D01*
X25981673Y35826193D01*
X26098327Y35826193D01*
X26108312Y35824207D01*
G37*
G36*
X21028312Y36840207D02*
G01*
X21037702Y36840207D01*
X21064752Y36832959D01*
X21132734Y36819437D01*
X21164827Y36806144D01*
X21187811Y36799985D01*
X21208417Y36788088D01*
X21240507Y36774796D01*
X21298130Y36736293D01*
X21322396Y36722283D01*
X21329039Y36715640D01*
X21337499Y36709987D01*
X21419986Y36627500D01*
X21425638Y36619041D01*
X21432283Y36612396D01*
X21446294Y36588128D01*
X21484795Y36530508D01*
X21498085Y36498422D01*
X21509985Y36477811D01*
X21516144Y36454824D01*
X21529436Y36422735D01*
X21542958Y36354756D01*
X21550207Y36327702D01*
X21550207Y36318313D01*
X21552193Y36308328D01*
X21552193Y36191673D01*
X21550207Y36181689D01*
X21550207Y36172298D01*
X21542957Y36145242D01*
X21529436Y36077266D01*
X21516145Y36045180D01*
X21509985Y36022189D01*
X21498084Y36001577D01*
X21484795Y35969493D01*
X21446298Y35911881D01*
X21432283Y35887604D01*
X21425636Y35880958D01*
X21419986Y35872501D01*
X21337499Y35790014D01*
X21329042Y35784364D01*
X21322396Y35777717D01*
X21298119Y35763702D01*
X21240507Y35725205D01*
X21208423Y35711916D01*
X21187811Y35700015D01*
X21164820Y35693855D01*
X21132734Y35680564D01*
X21064758Y35667043D01*
X21037702Y35659793D01*
X21028311Y35659793D01*
X21018327Y35657807D01*
X20901673Y35657807D01*
X20891689Y35659793D01*
X20882298Y35659793D01*
X20855243Y35667043D01*
X20787265Y35680564D01*
X20755176Y35693856D01*
X20732189Y35700015D01*
X20711578Y35711915D01*
X20679492Y35725205D01*
X20621872Y35763706D01*
X20597604Y35777717D01*
X20590959Y35784362D01*
X20582500Y35790014D01*
X20500013Y35872501D01*
X20494360Y35880961D01*
X20487717Y35887604D01*
X20473707Y35911870D01*
X20435204Y35969493D01*
X20421912Y36001583D01*
X20410015Y36022189D01*
X20403856Y36045173D01*
X20390563Y36077266D01*
X20377041Y36145248D01*
X20369793Y36172298D01*
X20369793Y36181689D01*
X20367807Y36191673D01*
X20367807Y36308328D01*
X20369793Y36318313D01*
X20369793Y36327702D01*
X20377040Y36354750D01*
X20390563Y36422735D01*
X20403857Y36454831D01*
X20410015Y36477811D01*
X20421910Y36498416D01*
X20435204Y36530508D01*
X20473711Y36588139D01*
X20487717Y36612396D01*
X20494358Y36619038D01*
X20500013Y36627500D01*
X20582500Y36709987D01*
X20590962Y36715642D01*
X20597604Y36722283D01*
X20621861Y36736289D01*
X20679492Y36774796D01*
X20711584Y36788090D01*
X20732189Y36799985D01*
X20755169Y36806143D01*
X20787265Y36819437D01*
X20855248Y36832960D01*
X20882298Y36840207D01*
X20891688Y36840207D01*
X20901673Y36842193D01*
X21018327Y36842193D01*
X21028312Y36840207D01*
G37*
G36*
X26108312Y37856207D02*
G01*
X26117702Y37856207D01*
X26144752Y37848959D01*
X26212734Y37835437D01*
X26244827Y37822144D01*
X26267811Y37815985D01*
X26288417Y37804088D01*
X26320507Y37790796D01*
X26378130Y37752293D01*
X26402396Y37738283D01*
X26409039Y37731640D01*
X26417499Y37725987D01*
X26499986Y37643500D01*
X26505638Y37635041D01*
X26512283Y37628396D01*
X26526294Y37604128D01*
X26564795Y37546508D01*
X26578085Y37514422D01*
X26589985Y37493811D01*
X26596144Y37470824D01*
X26609436Y37438735D01*
X26622958Y37370756D01*
X26630207Y37343702D01*
X26630207Y37334313D01*
X26632193Y37324328D01*
X26632193Y37207673D01*
X26630207Y37197689D01*
X26630207Y37188298D01*
X26622957Y37161242D01*
X26609436Y37093266D01*
X26596145Y37061180D01*
X26589985Y37038189D01*
X26578084Y37017577D01*
X26564795Y36985493D01*
X26526298Y36927881D01*
X26512283Y36903604D01*
X26505636Y36896958D01*
X26499986Y36888501D01*
X26417499Y36806014D01*
X26409042Y36800364D01*
X26402396Y36793717D01*
X26378119Y36779702D01*
X26320507Y36741205D01*
X26288423Y36727916D01*
X26267811Y36716015D01*
X26244820Y36709855D01*
X26212734Y36696564D01*
X26144758Y36683043D01*
X26117702Y36675793D01*
X26108311Y36675793D01*
X26098327Y36673807D01*
X25981673Y36673807D01*
X25971689Y36675793D01*
X25962298Y36675793D01*
X25935243Y36683043D01*
X25867265Y36696564D01*
X25835176Y36709856D01*
X25812189Y36716015D01*
X25791578Y36727915D01*
X25759492Y36741205D01*
X25701872Y36779706D01*
X25677604Y36793717D01*
X25670959Y36800362D01*
X25662500Y36806014D01*
X25580013Y36888501D01*
X25574360Y36896961D01*
X25567717Y36903604D01*
X25553707Y36927870D01*
X25515204Y36985493D01*
X25501912Y37017583D01*
X25490015Y37038189D01*
X25483856Y37061173D01*
X25470563Y37093266D01*
X25457041Y37161248D01*
X25449793Y37188298D01*
X25449793Y37197689D01*
X25447807Y37207673D01*
X25447807Y37324328D01*
X25449793Y37334313D01*
X25449793Y37343702D01*
X25457040Y37370750D01*
X25470563Y37438735D01*
X25483857Y37470831D01*
X25490015Y37493811D01*
X25501910Y37514416D01*
X25515204Y37546508D01*
X25553711Y37604139D01*
X25567717Y37628396D01*
X25574358Y37635038D01*
X25580013Y37643500D01*
X25662500Y37725987D01*
X25670962Y37731642D01*
X25677604Y37738283D01*
X25701861Y37752289D01*
X25759492Y37790796D01*
X25791584Y37804090D01*
X25812189Y37815985D01*
X25835169Y37822143D01*
X25867265Y37835437D01*
X25935248Y37848960D01*
X25962298Y37856207D01*
X25971688Y37856207D01*
X25981673Y37858193D01*
X26098327Y37858193D01*
X26108312Y37856207D01*
G37*
G36*
X4484211Y45264282D02*
G01*
X4801835Y45201103D01*
X5111737Y45107095D01*
X5410932Y44983165D01*
X5696539Y44830504D01*
X5965808Y44650585D01*
X6216145Y44445139D01*
X6445139Y44216145D01*
X6650585Y43965808D01*
X6830504Y43696539D01*
X6983165Y43410932D01*
X7107095Y43111737D01*
X7201103Y42801835D01*
X7264282Y42484211D01*
X7296025Y42161923D01*
X7296025Y41838077D01*
X7264282Y41515789D01*
X7201103Y41198165D01*
X7107095Y40888263D01*
X6983165Y40589068D01*
X6830504Y40303461D01*
X6650585Y40034192D01*
X6445139Y39783855D01*
X6216145Y39554861D01*
X5965808Y39349415D01*
X5696539Y39169496D01*
X5410932Y39016835D01*
X5111737Y38892905D01*
X4801835Y38798897D01*
X4484211Y38735718D01*
X4161923Y38703975D01*
X3838077Y38703975D01*
X3515789Y38735718D01*
X3198165Y38798897D01*
X2888263Y38892905D01*
X2589068Y39016835D01*
X2303461Y39169496D01*
X2034192Y39349415D01*
X1783855Y39554861D01*
X1554861Y39783855D01*
X1349415Y40034192D01*
X1169496Y40303461D01*
X1016835Y40589068D01*
X892905Y40888263D01*
X798897Y41198165D01*
X735718Y41515789D01*
X703975Y41838077D01*
X703975Y42161923D01*
X735718Y42484211D01*
X798897Y42801835D01*
X892905Y43111737D01*
X1016835Y43410932D01*
X1169496Y43696539D01*
X1349415Y43965808D01*
X1554861Y44216145D01*
X1783855Y44445139D01*
X2034192Y44650585D01*
X2303461Y44830504D01*
X2589068Y44983165D01*
X2888263Y45107095D01*
X3198165Y45201103D01*
X3515789Y45264282D01*
X3838077Y45296025D01*
X4161923Y45296025D01*
X4484211Y45264282D01*
G37*
G36*
X52484211Y45264282D02*
G01*
X52801835Y45201103D01*
X53111737Y45107095D01*
X53410932Y44983165D01*
X53696539Y44830504D01*
X53965808Y44650585D01*
X54216145Y44445139D01*
X54445139Y44216145D01*
X54650585Y43965808D01*
X54830504Y43696539D01*
X54983165Y43410932D01*
X55107095Y43111737D01*
X55201103Y42801835D01*
X55264282Y42484211D01*
X55296025Y42161923D01*
X55296025Y41838077D01*
X55264282Y41515789D01*
X55201103Y41198165D01*
X55107095Y40888263D01*
X54983165Y40589068D01*
X54830504Y40303461D01*
X54650585Y40034192D01*
X54445139Y39783855D01*
X54216145Y39554861D01*
X53965808Y39349415D01*
X53696539Y39169496D01*
X53410932Y39016835D01*
X53111737Y38892905D01*
X52801835Y38798897D01*
X52484211Y38735718D01*
X52161923Y38703975D01*
X51838077Y38703975D01*
X51515789Y38735718D01*
X51198165Y38798897D01*
X50888263Y38892905D01*
X50589068Y39016835D01*
X50303461Y39169496D01*
X50034192Y39349415D01*
X49783855Y39554861D01*
X49554861Y39783855D01*
X49349415Y40034192D01*
X49169496Y40303461D01*
X49016835Y40589068D01*
X48892905Y40888263D01*
X48798897Y41198165D01*
X48735718Y41515789D01*
X48703975Y41838077D01*
X48703975Y42161923D01*
X48735718Y42484211D01*
X48798897Y42801835D01*
X48892905Y43111737D01*
X49016835Y43410932D01*
X49169496Y43696539D01*
X49349415Y43965808D01*
X49554861Y44216145D01*
X49783855Y44445139D01*
X50034192Y44650585D01*
X50303461Y44830504D01*
X50589068Y44983165D01*
X50888263Y45107095D01*
X51198165Y45201103D01*
X51515789Y45264282D01*
X51838077Y45296025D01*
X52161923Y45296025D01*
X52484211Y45264282D01*
G37*
G36*
X14389034Y42594236D02*
G01*
X14422125Y42572125D01*
X14444236Y42539034D01*
X14452000Y42500000D01*
X14452000Y41000000D01*
X14444236Y40960966D01*
X14422125Y40927875D01*
X14389034Y40905764D01*
X14350000Y40898000D01*
X13650000Y40898000D01*
X13610966Y40905764D01*
X13577875Y40927875D01*
X13555764Y40960966D01*
X13548000Y41000000D01*
X13548000Y42500000D01*
X13555764Y42539034D01*
X13577875Y42572125D01*
X13610966Y42594236D01*
X13650000Y42602000D01*
X14350000Y42602000D01*
X14389034Y42594236D01*
G37*
G36*
X17389034Y42594236D02*
G01*
X17422125Y42572125D01*
X17444236Y42539034D01*
X17452000Y42500000D01*
X17452000Y41000000D01*
X17444236Y40960966D01*
X17422125Y40927875D01*
X17389034Y40905764D01*
X17350000Y40898000D01*
X16650000Y40898000D01*
X16610966Y40905764D01*
X16577875Y40927875D01*
X16555764Y40960966D01*
X16548000Y41000000D01*
X16548000Y42500000D01*
X16555764Y42539034D01*
X16577875Y42572125D01*
X16610966Y42594236D01*
X16650000Y42602000D01*
X17350000Y42602000D01*
X17389034Y42594236D01*
G37*
G36*
X18889034Y42594236D02*
G01*
X18922125Y42572125D01*
X18944236Y42539034D01*
X18952000Y42500000D01*
X18952000Y41000000D01*
X18944236Y40960966D01*
X18922125Y40927875D01*
X18889034Y40905764D01*
X18850000Y40898000D01*
X18150000Y40898000D01*
X18110966Y40905764D01*
X18077875Y40927875D01*
X18055764Y40960966D01*
X18048000Y41000000D01*
X18048000Y42500000D01*
X18055764Y42539034D01*
X18077875Y42572125D01*
X18110966Y42594236D01*
X18150000Y42602000D01*
X18850000Y42602000D01*
X18889034Y42594236D01*
G37*
G36*
X13139034Y43029236D02*
G01*
X13172125Y43007125D01*
X13194236Y42974034D01*
X13202000Y42935000D01*
X13202000Y42135000D01*
X13194236Y42095966D01*
X13172125Y42062875D01*
X13139034Y42040764D01*
X13100000Y42033000D01*
X12100000Y42033000D01*
X12060966Y42040764D01*
X12027875Y42062875D01*
X12005764Y42095966D01*
X11998000Y42135000D01*
X11998000Y42935000D01*
X12005764Y42974034D01*
X12027875Y43007125D01*
X12060966Y43029236D01*
X12100000Y43037000D01*
X13100000Y43037000D01*
X13139034Y43029236D01*
G37*
G36*
X20439034Y43029236D02*
G01*
X20472125Y43007125D01*
X20494236Y42974034D01*
X20502000Y42935000D01*
X20502000Y42135000D01*
X20494236Y42095966D01*
X20472125Y42062875D01*
X20439034Y42040764D01*
X20400000Y42033000D01*
X19400000Y42033000D01*
X19360966Y42040764D01*
X19327875Y42062875D01*
X19305764Y42095966D01*
X19298000Y42135000D01*
X19298000Y42935000D01*
X19305764Y42974034D01*
X19327875Y43007125D01*
X19360966Y43029236D01*
X19400000Y43037000D01*
X20400000Y43037000D01*
X20439034Y43029236D01*
G37*
G36*
X14960476Y44008134D02*
G01*
X15084819Y43936344D01*
X15186344Y43834819D01*
X15258134Y43710476D01*
X15295295Y43571789D01*
X15295295Y43428211D01*
X15258134Y43289524D01*
X15186344Y43165181D01*
X15084819Y43063656D01*
X14960476Y42991866D01*
X14821789Y42954705D01*
X14678211Y42954705D01*
X14539524Y42991866D01*
X14415181Y43063656D01*
X14313656Y43165181D01*
X14241866Y43289524D01*
X14204705Y43428211D01*
X14204705Y43571789D01*
X14241866Y43710476D01*
X14313656Y43834819D01*
X14415181Y43936344D01*
X14539524Y44008134D01*
X14678211Y44045295D01*
X14821789Y44045295D01*
X14960476Y44008134D01*
G37*
G36*
X17960476Y44008134D02*
G01*
X18084819Y43936344D01*
X18186344Y43834819D01*
X18258134Y43710476D01*
X18295295Y43571789D01*
X18295295Y43428211D01*
X18258134Y43289524D01*
X18186344Y43165181D01*
X18084819Y43063656D01*
X17960476Y42991866D01*
X17821789Y42954705D01*
X17678211Y42954705D01*
X17539524Y42991866D01*
X17415181Y43063656D01*
X17313656Y43165181D01*
X17241866Y43289524D01*
X17204705Y43428211D01*
X17204705Y43571789D01*
X17241866Y43710476D01*
X17313656Y43834819D01*
X17415181Y43936344D01*
X17539524Y44008134D01*
X17678211Y44045295D01*
X17821789Y44045295D01*
X17960476Y44008134D01*
G37*
G36*
X13139034Y44959236D02*
G01*
X13172125Y44937125D01*
X13194236Y44904034D01*
X13202000Y44865000D01*
X13202000Y44065000D01*
X13194236Y44025966D01*
X13172125Y43992875D01*
X13139034Y43970764D01*
X13100000Y43963000D01*
X12100000Y43963000D01*
X12060966Y43970764D01*
X12027875Y43992875D01*
X12005764Y44025966D01*
X11998000Y44065000D01*
X11998000Y44865000D01*
X12005764Y44904034D01*
X12027875Y44937125D01*
X12060966Y44959236D01*
X12100000Y44967000D01*
X13100000Y44967000D01*
X13139034Y44959236D01*
G37*
G36*
X20439034Y44959236D02*
G01*
X20472125Y44937125D01*
X20494236Y44904034D01*
X20502000Y44865000D01*
X20502000Y44065000D01*
X20494236Y44025966D01*
X20472125Y43992875D01*
X20439034Y43970764D01*
X20400000Y43963000D01*
X19400000Y43963000D01*
X19360966Y43970764D01*
X19327875Y43992875D01*
X19305764Y44025966D01*
X19298000Y44065000D01*
X19298000Y44865000D01*
X19305764Y44904034D01*
X19327875Y44937125D01*
X19360966Y44959236D01*
X19400000Y44967000D01*
X20400000Y44967000D01*
X20439034Y44959236D01*
G37*
G36*
X40939967Y45612489D02*
G01*
X40972410Y45590812D01*
X40994087Y45558369D01*
X41001699Y45520101D01*
X41001699Y44123101D01*
X40994087Y44084833D01*
X40972410Y44052390D01*
X40939967Y44030713D01*
X40901699Y44023101D01*
X39098299Y44023101D01*
X39060031Y44030713D01*
X39027588Y44052390D01*
X39005911Y44084833D01*
X38998299Y44123101D01*
X38998299Y45520101D01*
X39005911Y45558369D01*
X39027588Y45590812D01*
X39060031Y45612489D01*
X39098299Y45620101D01*
X40901699Y45620101D01*
X40939967Y45612489D01*
G37*
G36*
X46639968Y45612489D02*
G01*
X46672411Y45590812D01*
X46694088Y45558369D01*
X46701700Y45520101D01*
X46701700Y44123101D01*
X46694088Y44084833D01*
X46672411Y44052390D01*
X46639968Y44030713D01*
X46601700Y44023101D01*
X44798300Y44023101D01*
X44760032Y44030713D01*
X44727589Y44052390D01*
X44705912Y44084833D01*
X44698300Y44123101D01*
X44698300Y45520101D01*
X44705912Y45558369D01*
X44727589Y45590812D01*
X44760032Y45612489D01*
X44798300Y45620101D01*
X46601700Y45620101D01*
X46639968Y45612489D01*
G37*
M02*
