M48
; DRILL file {KiCad 9.0.5} date 2026-01-18T18:26:46+1000
; FORMAT={-:-/ absolute / metric / decimal}
; #@! TF.CreationDate,2026-01-18T18:26:46+10:00
; #@! TF.GenerationSoftware,Kicad,Pcbnew,9.0.5
; #@! TF.FileFunction,Plated,1,4,PTH
FMAT,2
METRIC
; #@! TA.AperFunction,Plated,PTH,ComponentDrill
T1C0.200
; #@! TA.AperFunction,Plated,PTH,ComponentDrill
T2C0.254
; #@! TA.AperFunction,Plated,PTH,ViaDrill
T3C0.300
; #@! TA.AperFunction,Plated,PTH,ComponentDrill
T4C0.500
; #@! TA.AperFunction,Plated,PTH,ComponentDrill
T5C0.600
; #@! TA.AperFunction,Plated,PTH,ComponentDrill
T6C3.200
%
G90
G05
T1
X7.25Y8.657
X8.2Y9.232
X8.2Y8.082
X9.15Y8.657
T2
X42.356Y20.037
X42.356Y19.25
X42.356Y18.463
X43.144Y20.037
X43.144Y19.25
X43.144Y18.463
X44.856Y10.644
X44.856Y9.856
X45.644Y10.644
X45.644Y9.856
T3
X1.0Y38.9
X1.0Y34.8
X1.25Y30.45
X1.25Y26.0
X1.4Y7.8
X2.0Y26.0
X2.0Y18.0
X2.0Y14.0
X2.0Y10.25
X2.75Y37.71
X3.259Y26.247
X3.5Y33.5
X3.6Y21.65
X4.65Y30.6
X4.75Y29.25
X4.9Y26.5
X4.9Y20.0
X5.75Y33.75
X5.75Y16.0
X5.9Y31.4
X6.2Y38.1
X6.25Y26.5
X6.376Y27.874
X6.4Y10.1
X6.75Y21.5
X6.912Y14.912
X7.0Y19.4
X7.0Y18.3
X7.0Y17.0
X7.25Y22.75
X7.3Y39.2
X7.335Y34.085
X7.5Y35.25
X7.5Y11.0
X7.6Y44.8
X7.75Y22.056
X8.0Y15.001
X8.1Y19.7
X8.5Y20.75
X8.6Y1.4
X8.613Y26.85
X8.794Y28.374
X9.0Y29.25
X9.445Y26.507
X10.1Y8.7
X10.25Y31.5
X10.5Y11.25
X10.5Y5.3
X10.741Y27.017
X10.75Y15.25
X11.0Y29.301
X11.25Y44.25
X11.25Y3.25
X11.35Y32.25
X11.5Y25.5
X11.5Y7.23
X11.7Y38.2
X11.7Y22.2
X11.75Y16.75
X12.25Y9.1
X12.5Y41.25
X12.5Y14.5
X12.567Y15.398
X12.75Y39.25
X12.75Y34.75
X12.75Y20.0
X12.819Y21.6
X12.921Y26.877
X13.0Y37.5
X13.0Y28.0
X13.243Y11.81
X13.25Y9.1
X13.5Y23.0
X13.75Y31.25
X14.0Y3.75
X14.25Y35.75
X14.5Y7.4
X14.75Y39.5
X14.75Y10.249
X14.9Y32.7
X15.0Y11.25
X15.285Y37.385
X15.55Y33.75
X15.6Y34.9
X16.0Y39.5
X16.25Y32.75
X16.4Y10.0
X16.5Y43.0
X16.75Y24.25
X16.75Y8.75
X16.79Y14.71
X17.0Y39.5
X17.0Y26.5
X17.0Y20.75
X17.25Y28.25
X17.25Y25.0
X17.365Y12.539
X17.5Y15.75
X17.5Y8.0
X17.6Y17.3
X17.65Y37.25
X17.7Y22.25
X18.1Y36.471
X18.2Y11.8
X18.25Y39.5
X18.5Y26.0
X18.5Y8.0
X18.6Y44.7
X18.835Y38.335
X19.2Y29.5
X19.6Y41.4
X19.8Y13.2
X20.2Y40.5
X20.5Y34.0
X20.5Y24.4
X20.5Y13.9
X20.75Y35.0
X20.75Y28.75
X20.75Y26.0
X21.0Y8.0
X21.081Y37.581
X21.1Y2.5
X21.2Y18.5
X21.25Y30.5
X21.3Y27.4
X21.5Y44.25
X21.5Y40.25
X21.5Y25.0
X21.7Y21.7
X22.0Y42.3
X22.0Y33.0
X22.1Y8.0
X23.169Y4.504
X23.2Y15.3
X23.3Y7.95
X23.5Y34.0
X23.5Y11.8
X23.713Y3.787
X23.75Y39.75
X24.09Y12.55
X24.2Y44.3
X24.6Y34.4
X24.75Y42.5
X24.75Y8.0
X25.1Y11.57
X25.1Y2.8
X25.5Y33.3
X25.5Y29.25
X25.7Y18.4
X25.75Y3.75
X26.165Y30.085
X26.3Y26.2
X26.3Y21.7
X26.85Y34.0
X26.85Y33.25
X26.9Y8.0
X27.0Y28.25
X27.0Y3.75
X27.3Y15.7
X27.5Y36.0
X28.0Y38.35
X28.233Y30.402
X28.75Y37.75
X29.0Y3.25
X29.2Y11.8
X29.25Y8.0
X29.3Y44.5
X29.5Y41.124
X29.7Y19.0
X29.8Y35.6
X30.0Y39.75
X30.0Y33.25
X30.0Y29.6
X30.21Y8.0
X30.25Y2.25
X30.261Y22.686
X30.3Y12.9
X30.5Y42.25
X31.1Y12.2
X31.2Y26.0
X31.585Y36.665
X31.6Y16.2
X31.9Y33.5
X32.0Y44.6
X32.0Y40.4
X32.0Y11.6
X33.5Y42.25
X33.5Y1.0
X33.54Y34.96
X33.6Y20.8
X34.0Y13.1
X34.2Y29.1
X34.4Y27.3
X34.574Y6.254
X34.7Y44.6
X34.75Y38.45
X35.0Y33.25
X35.0Y26.25
X35.0Y18.25
X35.0Y17.35
X35.0Y16.25
X35.0Y14.75
X35.071Y11.891
X35.09Y12.79
X35.1Y13.7
X35.125Y3.5
X35.2Y22.7
X35.4Y42.7
X35.75Y11.0
X36.0Y5.45
X36.25Y38.0
X36.285Y39.065
X36.5Y8.0
X36.6Y34.7
X36.75Y10.75
X37.0Y8.75
X37.0Y3.75
X37.4Y32.8
X38.0Y10.25
X38.1Y24.6
X38.25Y21.6
X38.25Y18.75
X38.25Y16.25
X38.253Y39.728
X38.3Y44.6
X38.4Y31.5
X38.8Y42.8
X38.8Y25.6
X39.0Y10.25
X39.052Y23.5
X39.1Y16.0
X39.2Y29.75
X39.75Y32.25
X40.0Y12.5
X40.098Y36.945
X40.175Y29.5
X40.2Y21.7
X40.25Y42.75
X40.25Y23.8
X40.25Y20.75
X40.3Y16.25
X40.5Y37.75
X40.75Y14.5
X41.0Y36.25
X41.25Y15.25
X41.5Y43.75
X41.5Y37.75
X41.6Y10.6
X42.2Y44.7
X42.25Y35.5
X42.25Y7.5
X42.5Y11.0
X42.9Y25.1
X43.0Y32.5
X43.1Y21.5
X43.1Y14.2
X43.2Y8.7
X43.5Y42.25
X43.5Y17.25
X44.25Y35.5
X45.4Y22.4
X45.406Y16.78
X45.9Y40.5
X45.95Y18.5
X46.0Y24.4
X46.1Y43.4
X46.25Y7.5
X46.4Y28.6
X46.45Y26.5
X46.5Y21.5
X47.0Y39.5
X47.0Y38.5
X47.0Y37.5
X47.0Y23.25
X47.191Y15.9
X47.25Y44.75
X47.3Y36.2
X47.5Y28.75
X47.7Y33.3
X47.7Y13.3
X47.75Y21.75
X47.8Y20.5
X47.8Y4.0
X48.0Y22.75
X48.25Y29.5
X48.3Y38.2
X48.3Y1.5
X48.746Y13.7
X48.9Y16.4
X48.984Y8.42
X49.0Y12.75
X49.0Y11.25
X49.6Y11.9
X49.8Y20.5
X50.0Y37.25
X50.0Y9.8
X52.0Y26.1
X52.5Y34.75
X52.5Y14.25
X54.0Y29.2
X54.0Y22.8
X54.2Y14.2
X54.3Y19.9
X54.3Y7.7
X54.5Y36.5
X54.5Y34.7
X54.6Y38.7
T4
X1.6Y42.0
X1.6Y4.0
X2.303Y43.697
X2.303Y40.303
X2.303Y5.697
X2.303Y2.303
X4.0Y44.4
X4.0Y39.6
X4.0Y6.4
X4.0Y1.6
X5.697Y43.697
X5.697Y40.303
X5.697Y5.697
X5.697Y2.303
X6.4Y42.0
X6.4Y4.0
X49.6Y42.0
X49.6Y4.0
X50.303Y43.697
X50.303Y40.303
X50.303Y5.697
X50.303Y2.303
X52.0Y44.4
X52.0Y39.6
X52.0Y6.4
X52.0Y1.6
X53.697Y43.697
X53.697Y40.303
X53.697Y5.697
X53.697Y2.303
X54.4Y42.0
X54.4Y4.0
T6
X4.0Y42.0
X4.0Y4.0
X52.0Y42.0
X52.0Y4.0
T5
G00X49.27Y30.32
M15
G01X50.37Y30.32
M16
G05
G00X49.27Y21.68
M15
G01X50.37Y21.68
M16
G05
G00X53.6Y30.32
M15
G01X54.4Y30.32
M16
G05
G00X53.6Y21.68
M15
G01X54.4Y21.68
M16
G05
M30
